G04 #@! TF.GenerationSoftware,KiCad,Pcbnew,7.0.6*
G04 #@! TF.CreationDate,2023-11-30T23:32:02-05:00*
G04 #@! TF.ProjectId,TeslaCoil,5465736c-6143-46f6-996c-2e6b69636164,rev?*
G04 #@! TF.SameCoordinates,Original*
G04 #@! TF.FileFunction,Soldermask,Top*
G04 #@! TF.FilePolarity,Negative*
%FSLAX46Y46*%
G04 Gerber Fmt 4.6, Leading zero omitted, Abs format (unit mm)*
G04 Created by KiCad (PCBNEW 7.0.6) date 2023-11-30 23:32:02*
%MOMM*%
%LPD*%
G01*
G04 APERTURE LIST*
G04 Aperture macros list*
%AMRoundRect*
0 Rectangle with rounded corners*
0 $1 Rounding radius*
0 $2 $3 $4 $5 $6 $7 $8 $9 X,Y pos of 4 corners*
0 Add a 4 corners polygon primitive as box body*
4,1,4,$2,$3,$4,$5,$6,$7,$8,$9,$2,$3,0*
0 Add four circle primitives for the rounded corners*
1,1,$1+$1,$2,$3*
1,1,$1+$1,$4,$5*
1,1,$1+$1,$6,$7*
1,1,$1+$1,$8,$9*
0 Add four rect primitives between the rounded corners*
20,1,$1+$1,$2,$3,$4,$5,0*
20,1,$1+$1,$4,$5,$6,$7,0*
20,1,$1+$1,$6,$7,$8,$9,0*
20,1,$1+$1,$8,$9,$2,$3,0*%
G04 Aperture macros list end*
%ADD10C,1.000000*%
%ADD11R,1.500000X2.000000*%
%ADD12RoundRect,0.250000X-0.325000X-0.650000X0.325000X-0.650000X0.325000X0.650000X-0.325000X0.650000X0*%
%ADD13R,0.850000X0.850000*%
%ADD14O,0.850000X0.850000*%
%ADD15RoundRect,0.363637X-1.386363X-0.436363X1.386363X-0.436363X1.386363X0.436363X-1.386363X0.436363X0*%
%ADD16RoundRect,0.259311X-4.615689X-5.840689X4.615689X-5.840689X4.615689X5.840689X-4.615689X5.840689X0*%
%ADD17RoundRect,0.250000X0.650000X-0.325000X0.650000X0.325000X-0.650000X0.325000X-0.650000X-0.325000X0*%
%ADD18RoundRect,0.135000X-0.135000X-0.185000X0.135000X-0.185000X0.135000X0.185000X-0.135000X0.185000X0*%
%ADD19RoundRect,0.750000X0.750000X0.750000X-0.750000X0.750000X-0.750000X-0.750000X0.750000X-0.750000X0*%
%ADD20C,3.000000*%
%ADD21RoundRect,0.312500X1.087500X0.437500X-1.087500X0.437500X-1.087500X-0.437500X1.087500X-0.437500X0*%
%ADD22RoundRect,0.262928X2.787072X2.887072X-2.787072X2.887072X-2.787072X-2.887072X2.787072X-2.887072X0*%
%ADD23R,0.850000X0.350000*%
%ADD24RoundRect,0.218750X0.256250X-0.218750X0.256250X0.218750X-0.256250X0.218750X-0.256250X-0.218750X0*%
%ADD25RoundRect,0.250000X-0.650000X0.325000X-0.650000X-0.325000X0.650000X-0.325000X0.650000X0.325000X0*%
%ADD26RoundRect,0.112500X-0.587500X0.112500X-0.587500X-0.112500X0.587500X-0.112500X0.587500X0.112500X0*%
%ADD27R,2.000000X2.000000*%
%ADD28C,2.000000*%
%ADD29RoundRect,0.312500X-1.087500X-0.437500X1.087500X-0.437500X1.087500X0.437500X-1.087500X0.437500X0*%
%ADD30RoundRect,0.262928X-2.787072X-2.887072X2.787072X-2.887072X2.787072X2.887072X-2.787072X2.887072X0*%
%ADD31RoundRect,0.218750X-0.256250X0.218750X-0.256250X-0.218750X0.256250X-0.218750X0.256250X0.218750X0*%
%ADD32C,2.600000*%
%ADD33C,2.100000*%
%ADD34RoundRect,0.250001X-0.799999X0.799999X-0.799999X-0.799999X0.799999X-0.799999X0.799999X0.799999X0*%
%ADD35C,1.650000*%
%ADD36C,3.200000*%
%ADD37R,0.900000X0.900000*%
%ADD38R,1.270000X1.520000*%
G04 APERTURE END LIST*
D10*
X94420000Y-72180000D03*
X94420000Y-92180000D03*
X114420000Y-87180000D03*
X114420000Y-77180000D03*
D11*
X127750000Y-65750000D03*
X132850000Y-65750000D03*
X132850000Y-57010000D03*
X127750000Y-57010000D03*
D12*
X105225000Y-117670000D03*
X108175000Y-117670000D03*
D13*
X137970000Y-110610000D03*
D14*
X138970000Y-110610000D03*
X139970000Y-110610000D03*
D13*
X113510000Y-112100000D03*
D14*
X113510000Y-111100000D03*
X114510000Y-112100000D03*
X114510000Y-111100000D03*
D15*
X122730000Y-85330000D03*
D16*
X133005000Y-87870000D03*
D15*
X122730000Y-90410000D03*
D12*
X111235000Y-119910000D03*
X114185000Y-119910000D03*
D17*
X117780000Y-114995000D03*
X117780000Y-112045000D03*
D18*
X113770000Y-114200000D03*
X114790000Y-114200000D03*
D19*
X122195000Y-60170000D03*
X114575000Y-60170000D03*
D20*
X95605000Y-60170000D03*
X87985000Y-60170000D03*
D21*
X104955000Y-114181000D03*
D22*
X98705000Y-111895000D03*
D21*
X104955000Y-109609000D03*
D23*
X119980000Y-116190000D03*
X119980000Y-116840000D03*
X119980000Y-117490000D03*
X122180000Y-117490000D03*
X122180000Y-116840000D03*
X122180000Y-116190000D03*
D12*
X97255000Y-117750000D03*
X100205000Y-117750000D03*
D18*
X133500000Y-69220000D03*
X134520000Y-69220000D03*
D24*
X135840000Y-117937500D03*
X135840000Y-116362500D03*
D25*
X93630000Y-112675000D03*
X93630000Y-115625000D03*
D26*
X115460000Y-117880000D03*
X115460000Y-117230000D03*
X115460000Y-116580000D03*
X115460000Y-115930000D03*
X111060000Y-115930000D03*
X111060000Y-116580000D03*
X111060000Y-117230000D03*
D27*
X121720000Y-75290000D03*
D28*
X126720000Y-75290000D03*
D29*
X97465000Y-101599000D03*
D30*
X103715000Y-103885000D03*
D29*
X97465000Y-106171000D03*
D15*
X122227500Y-99285000D03*
D16*
X132502500Y-101825000D03*
D15*
X122227500Y-104365000D03*
D27*
X133010000Y-75500000D03*
D28*
X138010000Y-75500000D03*
D18*
X121860000Y-69200000D03*
X122880000Y-69200000D03*
D31*
X133160000Y-116372500D03*
X133160000Y-117947500D03*
D11*
X85510000Y-109280000D03*
X90610000Y-109280000D03*
X90610000Y-100540000D03*
X85510000Y-100540000D03*
D32*
X75430000Y-73540000D03*
X75430000Y-78140000D03*
X75430000Y-82740000D03*
D33*
X88030000Y-78140000D03*
X88030000Y-82740000D03*
D34*
X88030000Y-73540000D03*
D12*
X132545000Y-113160000D03*
X135495000Y-113160000D03*
D17*
X121910000Y-112875000D03*
X121910000Y-109925000D03*
D35*
X129920000Y-120090000D03*
D36*
X127380000Y-112470000D03*
D35*
X124840000Y-120090000D03*
D37*
X129285000Y-117550000D03*
X127380000Y-117550000D03*
X125475000Y-117550000D03*
D38*
X117230000Y-108770000D03*
X117230000Y-101150000D03*
X110250000Y-101150000D03*
X110250000Y-108770000D03*
M02*
