%TF.GenerationSoftware,KiCad,Pcbnew,7.0.6*%
%TF.CreationDate,2023-11-30T23:32:07-05:00*%
%TF.ProjectId,TeslaCoil,5465736c-6143-46f6-996c-2e6b69636164,rev?*%
%TF.SameCoordinates,Original*%
%TF.FileFunction,Drillmap*%
%TF.FilePolarity,Positive*%
%FSLAX45Y45*%
G04 Gerber Fmt 4.5, Leading zero omitted, Abs format (unit mm)*
G04 Created by KiCad (PCBNEW 7.0.6) date 2023-11-30 23:32:07*
%MOMM*%
%LPD*%
G01*
G04 APERTURE LIST*
%ADD10C,0.100000*%
%ADD11C,0.050000*%
%ADD12C,0.200000*%
%ADD13C,0.040000*%
%ADD14C,0.060000*%
%ADD15C,0.080000*%
%ADD16C,0.110000*%
%ADD17C,0.198000*%
G04 APERTURE END LIST*
D10*
X14169000Y-12015000D02*
G75*
G03*
X14169000Y-12015000I-200000J0D01*
G01*
X14160000Y-5522000D02*
G75*
G03*
X14160000Y-5522000I-200000J0D01*
G01*
X7750000Y-12015000D02*
G75*
G03*
X7750000Y-12015000I-200000J0D01*
G01*
D11*
X7300000Y-5300000D02*
X14200000Y-5300000D01*
X14200000Y-12250000D01*
X7300000Y-12250000D01*
X7300000Y-5300000D01*
D10*
X7750000Y-5550000D02*
G75*
G03*
X7750000Y-5550000I-200000J0D01*
G01*
D12*
D13*
X10226000Y-11739000D02*
X10266000Y-11779000D01*
X10266000Y-11739000D02*
X10226000Y-11779000D01*
X10458000Y-11138000D02*
X10498000Y-11178000D01*
X10498000Y-11138000D02*
X10458000Y-11178000D01*
X11363000Y-10795000D02*
X11403000Y-10835000D01*
X11403000Y-10795000D02*
X11363000Y-10835000D01*
X11927000Y-11957000D02*
X11967000Y-11997000D01*
X11967000Y-11957000D02*
X11927000Y-11997000D01*
X12444000Y-11063000D02*
X12484000Y-11103000D01*
X12484000Y-11063000D02*
X12444000Y-11103000D01*
X13416000Y-11702000D02*
X13456000Y-11742000D01*
X13456000Y-11702000D02*
X13416000Y-11742000D01*
X13456000Y-10914000D02*
X13496000Y-10954000D01*
X13496000Y-10914000D02*
X13456000Y-10954000D01*
D11*
X11376000Y-11110000D02*
G75*
G03*
X11376000Y-11110000I-25000J0D01*
G01*
X11376000Y-11210000D02*
G75*
G03*
X11376000Y-11210000I-25000J0D01*
G01*
X11476000Y-11110000D02*
G75*
G03*
X11476000Y-11110000I-25000J0D01*
G01*
X11476000Y-11210000D02*
G75*
G03*
X11476000Y-11210000I-25000J0D01*
G01*
X13822000Y-11061000D02*
G75*
G03*
X13822000Y-11061000I-25000J0D01*
G01*
X13922000Y-11061000D02*
G75*
G03*
X13922000Y-11061000I-25000J0D01*
G01*
X14022000Y-11061000D02*
G75*
G03*
X14022000Y-11061000I-25000J0D01*
G01*
D14*
X12547500Y-11725000D02*
X12547500Y-11785000D01*
X12517500Y-11755000D02*
X12577500Y-11755000D01*
X12738000Y-11725000D02*
X12738000Y-11785000D01*
X12708000Y-11755000D02*
X12768000Y-11755000D01*
X12928500Y-11725000D02*
X12928500Y-11785000D01*
X12898500Y-11755000D02*
X12958500Y-11755000D01*
D15*
X9470285Y-7246284D02*
X9470285Y-7189715D01*
X9413716Y-7189715D01*
X9413716Y-7246284D01*
X9470285Y-7246284D01*
X9470285Y-9246285D02*
X9470285Y-9189716D01*
X9413716Y-9189716D01*
X9413716Y-9246285D01*
X9470285Y-9246285D01*
X11470284Y-7746284D02*
X11470284Y-7689715D01*
X11413715Y-7689715D01*
X11413715Y-7746284D01*
X11470284Y-7746284D01*
X11470284Y-8746285D02*
X11470284Y-8689716D01*
X11413715Y-8689716D01*
X11413715Y-8746285D01*
X11470284Y-8746285D01*
D10*
X12172000Y-7579000D02*
X12222000Y-7529000D01*
X12172000Y-7479000D01*
X12122000Y-7529000D01*
X12172000Y-7579000D01*
X12672000Y-7579000D02*
X12722000Y-7529000D01*
X12672000Y-7479000D01*
X12622000Y-7529000D01*
X12672000Y-7579000D01*
X13301000Y-7600000D02*
X13351000Y-7550000D01*
X13301000Y-7500000D01*
X13251000Y-7550000D01*
X13301000Y-7600000D01*
X13801000Y-7600000D02*
X13851000Y-7550000D01*
X13801000Y-7500000D01*
X13751000Y-7550000D01*
X13801000Y-7600000D01*
D16*
X8748000Y-7299000D02*
X8858000Y-7409000D01*
X8858000Y-7299000D02*
X8748000Y-7409000D01*
X8858000Y-7354000D02*
G75*
G03*
X8858000Y-7354000I-55000J0D01*
G01*
X8748000Y-7759000D02*
X8858000Y-7869000D01*
X8858000Y-7759000D02*
X8748000Y-7869000D01*
X8858000Y-7814000D02*
G75*
G03*
X8858000Y-7814000I-55000J0D01*
G01*
X8748000Y-8219000D02*
X8858000Y-8329000D01*
X8858000Y-8219000D02*
X8748000Y-8329000D01*
X8858000Y-8274000D02*
G75*
G03*
X8858000Y-8274000I-55000J0D01*
G01*
D17*
X8699500Y-5918000D02*
X8897500Y-6116000D01*
X8897500Y-5918000D02*
X8699500Y-6116000D01*
X8798500Y-5918000D02*
X8798500Y-6116000D01*
X8699500Y-6017000D02*
X8897500Y-6017000D01*
X9461500Y-5918000D02*
X9659500Y-6116000D01*
X9659500Y-5918000D02*
X9461500Y-6116000D01*
X9560500Y-5918000D02*
X9560500Y-6116000D01*
X9461500Y-6017000D02*
X9659500Y-6017000D01*
X11358500Y-5918000D02*
X11556500Y-6116000D01*
X11556500Y-5918000D02*
X11358500Y-6116000D01*
X11457500Y-5918000D02*
X11457500Y-6116000D01*
X11358500Y-6017000D02*
X11556500Y-6017000D01*
X12120500Y-5918000D02*
X12318500Y-6116000D01*
X12318500Y-5918000D02*
X12120500Y-6116000D01*
X12219500Y-5918000D02*
X12219500Y-6116000D01*
X12120500Y-6017000D02*
X12318500Y-6017000D01*
D12*
X7558277Y-12563984D02*
X7558277Y-12363984D01*
X7558277Y-12363984D02*
X7605896Y-12363984D01*
X7605896Y-12363984D02*
X7634467Y-12373508D01*
X7634467Y-12373508D02*
X7653515Y-12392555D01*
X7653515Y-12392555D02*
X7663039Y-12411603D01*
X7663039Y-12411603D02*
X7672562Y-12449698D01*
X7672562Y-12449698D02*
X7672562Y-12478269D01*
X7672562Y-12478269D02*
X7663039Y-12516365D01*
X7663039Y-12516365D02*
X7653515Y-12535412D01*
X7653515Y-12535412D02*
X7634467Y-12554460D01*
X7634467Y-12554460D02*
X7605896Y-12563984D01*
X7605896Y-12563984D02*
X7558277Y-12563984D01*
X7758277Y-12563984D02*
X7758277Y-12430650D01*
X7758277Y-12468746D02*
X7767801Y-12449698D01*
X7767801Y-12449698D02*
X7777324Y-12440174D01*
X7777324Y-12440174D02*
X7796372Y-12430650D01*
X7796372Y-12430650D02*
X7815420Y-12430650D01*
X7882086Y-12563984D02*
X7882086Y-12430650D01*
X7882086Y-12363984D02*
X7872562Y-12373508D01*
X7872562Y-12373508D02*
X7882086Y-12383031D01*
X7882086Y-12383031D02*
X7891610Y-12373508D01*
X7891610Y-12373508D02*
X7882086Y-12363984D01*
X7882086Y-12363984D02*
X7882086Y-12383031D01*
X8005896Y-12563984D02*
X7986848Y-12554460D01*
X7986848Y-12554460D02*
X7977324Y-12535412D01*
X7977324Y-12535412D02*
X7977324Y-12363984D01*
X8110658Y-12563984D02*
X8091610Y-12554460D01*
X8091610Y-12554460D02*
X8082086Y-12535412D01*
X8082086Y-12535412D02*
X8082086Y-12363984D01*
X8339229Y-12563984D02*
X8339229Y-12363984D01*
X8339229Y-12363984D02*
X8405896Y-12506841D01*
X8405896Y-12506841D02*
X8472563Y-12363984D01*
X8472563Y-12363984D02*
X8472563Y-12563984D01*
X8653515Y-12563984D02*
X8653515Y-12459222D01*
X8653515Y-12459222D02*
X8643991Y-12440174D01*
X8643991Y-12440174D02*
X8624944Y-12430650D01*
X8624944Y-12430650D02*
X8586848Y-12430650D01*
X8586848Y-12430650D02*
X8567801Y-12440174D01*
X8653515Y-12554460D02*
X8634467Y-12563984D01*
X8634467Y-12563984D02*
X8586848Y-12563984D01*
X8586848Y-12563984D02*
X8567801Y-12554460D01*
X8567801Y-12554460D02*
X8558277Y-12535412D01*
X8558277Y-12535412D02*
X8558277Y-12516365D01*
X8558277Y-12516365D02*
X8567801Y-12497317D01*
X8567801Y-12497317D02*
X8586848Y-12487793D01*
X8586848Y-12487793D02*
X8634467Y-12487793D01*
X8634467Y-12487793D02*
X8653515Y-12478269D01*
X8748753Y-12430650D02*
X8748753Y-12630650D01*
X8748753Y-12440174D02*
X8767801Y-12430650D01*
X8767801Y-12430650D02*
X8805896Y-12430650D01*
X8805896Y-12430650D02*
X8824944Y-12440174D01*
X8824944Y-12440174D02*
X8834467Y-12449698D01*
X8834467Y-12449698D02*
X8843991Y-12468746D01*
X8843991Y-12468746D02*
X8843991Y-12525888D01*
X8843991Y-12525888D02*
X8834467Y-12544936D01*
X8834467Y-12544936D02*
X8824944Y-12554460D01*
X8824944Y-12554460D02*
X8805896Y-12563984D01*
X8805896Y-12563984D02*
X8767801Y-12563984D01*
X8767801Y-12563984D02*
X8748753Y-12554460D01*
X8929705Y-12544936D02*
X8939229Y-12554460D01*
X8939229Y-12554460D02*
X8929705Y-12563984D01*
X8929705Y-12563984D02*
X8920182Y-12554460D01*
X8920182Y-12554460D02*
X8929705Y-12544936D01*
X8929705Y-12544936D02*
X8929705Y-12563984D01*
X8929705Y-12440174D02*
X8939229Y-12449698D01*
X8939229Y-12449698D02*
X8929705Y-12459222D01*
X8929705Y-12459222D02*
X8920182Y-12449698D01*
X8920182Y-12449698D02*
X8929705Y-12440174D01*
X8929705Y-12440174D02*
X8929705Y-12459222D01*
D13*
X7257500Y-12872500D02*
X7297500Y-12912500D01*
X7297500Y-12872500D02*
X7257500Y-12912500D01*
D12*
X7596372Y-12783984D02*
X7615420Y-12783984D01*
X7615420Y-12783984D02*
X7634467Y-12793508D01*
X7634467Y-12793508D02*
X7643991Y-12803031D01*
X7643991Y-12803031D02*
X7653515Y-12822079D01*
X7653515Y-12822079D02*
X7663039Y-12860174D01*
X7663039Y-12860174D02*
X7663039Y-12907793D01*
X7663039Y-12907793D02*
X7653515Y-12945888D01*
X7653515Y-12945888D02*
X7643991Y-12964936D01*
X7643991Y-12964936D02*
X7634467Y-12974460D01*
X7634467Y-12974460D02*
X7615420Y-12983984D01*
X7615420Y-12983984D02*
X7596372Y-12983984D01*
X7596372Y-12983984D02*
X7577324Y-12974460D01*
X7577324Y-12974460D02*
X7567801Y-12964936D01*
X7567801Y-12964936D02*
X7558277Y-12945888D01*
X7558277Y-12945888D02*
X7548753Y-12907793D01*
X7548753Y-12907793D02*
X7548753Y-12860174D01*
X7548753Y-12860174D02*
X7558277Y-12822079D01*
X7558277Y-12822079D02*
X7567801Y-12803031D01*
X7567801Y-12803031D02*
X7577324Y-12793508D01*
X7577324Y-12793508D02*
X7596372Y-12783984D01*
X7748753Y-12964936D02*
X7758277Y-12974460D01*
X7758277Y-12974460D02*
X7748753Y-12983984D01*
X7748753Y-12983984D02*
X7739229Y-12974460D01*
X7739229Y-12974460D02*
X7748753Y-12964936D01*
X7748753Y-12964936D02*
X7748753Y-12983984D01*
X7929705Y-12850650D02*
X7929705Y-12983984D01*
X7882086Y-12774460D02*
X7834467Y-12917317D01*
X7834467Y-12917317D02*
X7958277Y-12917317D01*
X8072562Y-12783984D02*
X8091610Y-12783984D01*
X8091610Y-12783984D02*
X8110658Y-12793508D01*
X8110658Y-12793508D02*
X8120182Y-12803031D01*
X8120182Y-12803031D02*
X8129705Y-12822079D01*
X8129705Y-12822079D02*
X8139229Y-12860174D01*
X8139229Y-12860174D02*
X8139229Y-12907793D01*
X8139229Y-12907793D02*
X8129705Y-12945888D01*
X8129705Y-12945888D02*
X8120182Y-12964936D01*
X8120182Y-12964936D02*
X8110658Y-12974460D01*
X8110658Y-12974460D02*
X8091610Y-12983984D01*
X8091610Y-12983984D02*
X8072562Y-12983984D01*
X8072562Y-12983984D02*
X8053515Y-12974460D01*
X8053515Y-12974460D02*
X8043991Y-12964936D01*
X8043991Y-12964936D02*
X8034467Y-12945888D01*
X8034467Y-12945888D02*
X8024943Y-12907793D01*
X8024943Y-12907793D02*
X8024943Y-12860174D01*
X8024943Y-12860174D02*
X8034467Y-12822079D01*
X8034467Y-12822079D02*
X8043991Y-12803031D01*
X8043991Y-12803031D02*
X8053515Y-12793508D01*
X8053515Y-12793508D02*
X8072562Y-12783984D01*
X8263039Y-12783984D02*
X8282086Y-12783984D01*
X8282086Y-12783984D02*
X8301134Y-12793508D01*
X8301134Y-12793508D02*
X8310658Y-12803031D01*
X8310658Y-12803031D02*
X8320182Y-12822079D01*
X8320182Y-12822079D02*
X8329705Y-12860174D01*
X8329705Y-12860174D02*
X8329705Y-12907793D01*
X8329705Y-12907793D02*
X8320182Y-12945888D01*
X8320182Y-12945888D02*
X8310658Y-12964936D01*
X8310658Y-12964936D02*
X8301134Y-12974460D01*
X8301134Y-12974460D02*
X8282086Y-12983984D01*
X8282086Y-12983984D02*
X8263039Y-12983984D01*
X8263039Y-12983984D02*
X8243991Y-12974460D01*
X8243991Y-12974460D02*
X8234467Y-12964936D01*
X8234467Y-12964936D02*
X8224943Y-12945888D01*
X8224943Y-12945888D02*
X8215420Y-12907793D01*
X8215420Y-12907793D02*
X8215420Y-12860174D01*
X8215420Y-12860174D02*
X8224943Y-12822079D01*
X8224943Y-12822079D02*
X8234467Y-12803031D01*
X8234467Y-12803031D02*
X8243991Y-12793508D01*
X8243991Y-12793508D02*
X8263039Y-12783984D01*
X8415420Y-12983984D02*
X8415420Y-12850650D01*
X8415420Y-12869698D02*
X8424944Y-12860174D01*
X8424944Y-12860174D02*
X8443991Y-12850650D01*
X8443991Y-12850650D02*
X8472563Y-12850650D01*
X8472563Y-12850650D02*
X8491610Y-12860174D01*
X8491610Y-12860174D02*
X8501134Y-12879222D01*
X8501134Y-12879222D02*
X8501134Y-12983984D01*
X8501134Y-12879222D02*
X8510658Y-12860174D01*
X8510658Y-12860174D02*
X8529705Y-12850650D01*
X8529705Y-12850650D02*
X8558277Y-12850650D01*
X8558277Y-12850650D02*
X8577325Y-12860174D01*
X8577325Y-12860174D02*
X8586848Y-12879222D01*
X8586848Y-12879222D02*
X8586848Y-12983984D01*
X8682086Y-12983984D02*
X8682086Y-12850650D01*
X8682086Y-12869698D02*
X8691610Y-12860174D01*
X8691610Y-12860174D02*
X8710658Y-12850650D01*
X8710658Y-12850650D02*
X8739229Y-12850650D01*
X8739229Y-12850650D02*
X8758277Y-12860174D01*
X8758277Y-12860174D02*
X8767801Y-12879222D01*
X8767801Y-12879222D02*
X8767801Y-12983984D01*
X8767801Y-12879222D02*
X8777325Y-12860174D01*
X8777325Y-12860174D02*
X8796372Y-12850650D01*
X8796372Y-12850650D02*
X8824944Y-12850650D01*
X8824944Y-12850650D02*
X8843991Y-12860174D01*
X8843991Y-12860174D02*
X8853515Y-12879222D01*
X8853515Y-12879222D02*
X8853515Y-12983984D01*
X9243991Y-12774460D02*
X9072563Y-13031603D01*
X9501134Y-12783984D02*
X9520182Y-12783984D01*
X9520182Y-12783984D02*
X9539229Y-12793508D01*
X9539229Y-12793508D02*
X9548753Y-12803031D01*
X9548753Y-12803031D02*
X9558277Y-12822079D01*
X9558277Y-12822079D02*
X9567801Y-12860174D01*
X9567801Y-12860174D02*
X9567801Y-12907793D01*
X9567801Y-12907793D02*
X9558277Y-12945888D01*
X9558277Y-12945888D02*
X9548753Y-12964936D01*
X9548753Y-12964936D02*
X9539229Y-12974460D01*
X9539229Y-12974460D02*
X9520182Y-12983984D01*
X9520182Y-12983984D02*
X9501134Y-12983984D01*
X9501134Y-12983984D02*
X9482087Y-12974460D01*
X9482087Y-12974460D02*
X9472563Y-12964936D01*
X9472563Y-12964936D02*
X9463039Y-12945888D01*
X9463039Y-12945888D02*
X9453515Y-12907793D01*
X9453515Y-12907793D02*
X9453515Y-12860174D01*
X9453515Y-12860174D02*
X9463039Y-12822079D01*
X9463039Y-12822079D02*
X9472563Y-12803031D01*
X9472563Y-12803031D02*
X9482087Y-12793508D01*
X9482087Y-12793508D02*
X9501134Y-12783984D01*
X9653515Y-12964936D02*
X9663039Y-12974460D01*
X9663039Y-12974460D02*
X9653515Y-12983984D01*
X9653515Y-12983984D02*
X9643991Y-12974460D01*
X9643991Y-12974460D02*
X9653515Y-12964936D01*
X9653515Y-12964936D02*
X9653515Y-12983984D01*
X9786848Y-12783984D02*
X9805896Y-12783984D01*
X9805896Y-12783984D02*
X9824944Y-12793508D01*
X9824944Y-12793508D02*
X9834468Y-12803031D01*
X9834468Y-12803031D02*
X9843991Y-12822079D01*
X9843991Y-12822079D02*
X9853515Y-12860174D01*
X9853515Y-12860174D02*
X9853515Y-12907793D01*
X9853515Y-12907793D02*
X9843991Y-12945888D01*
X9843991Y-12945888D02*
X9834468Y-12964936D01*
X9834468Y-12964936D02*
X9824944Y-12974460D01*
X9824944Y-12974460D02*
X9805896Y-12983984D01*
X9805896Y-12983984D02*
X9786848Y-12983984D01*
X9786848Y-12983984D02*
X9767801Y-12974460D01*
X9767801Y-12974460D02*
X9758277Y-12964936D01*
X9758277Y-12964936D02*
X9748753Y-12945888D01*
X9748753Y-12945888D02*
X9739229Y-12907793D01*
X9739229Y-12907793D02*
X9739229Y-12860174D01*
X9739229Y-12860174D02*
X9748753Y-12822079D01*
X9748753Y-12822079D02*
X9758277Y-12803031D01*
X9758277Y-12803031D02*
X9767801Y-12793508D01*
X9767801Y-12793508D02*
X9786848Y-12783984D01*
X10043991Y-12983984D02*
X9929706Y-12983984D01*
X9986848Y-12983984D02*
X9986848Y-12783984D01*
X9986848Y-12783984D02*
X9967801Y-12812555D01*
X9967801Y-12812555D02*
X9948753Y-12831603D01*
X9948753Y-12831603D02*
X9929706Y-12841127D01*
X10224944Y-12783984D02*
X10129706Y-12783984D01*
X10129706Y-12783984D02*
X10120182Y-12879222D01*
X10120182Y-12879222D02*
X10129706Y-12869698D01*
X10129706Y-12869698D02*
X10148753Y-12860174D01*
X10148753Y-12860174D02*
X10196372Y-12860174D01*
X10196372Y-12860174D02*
X10215420Y-12869698D01*
X10215420Y-12869698D02*
X10224944Y-12879222D01*
X10224944Y-12879222D02*
X10234468Y-12898269D01*
X10234468Y-12898269D02*
X10234468Y-12945888D01*
X10234468Y-12945888D02*
X10224944Y-12964936D01*
X10224944Y-12964936D02*
X10215420Y-12974460D01*
X10215420Y-12974460D02*
X10196372Y-12983984D01*
X10196372Y-12983984D02*
X10148753Y-12983984D01*
X10148753Y-12983984D02*
X10129706Y-12974460D01*
X10129706Y-12974460D02*
X10120182Y-12964936D01*
X10301134Y-12783984D02*
X10434468Y-12783984D01*
X10434468Y-12783984D02*
X10348753Y-12983984D01*
X10501134Y-12783984D02*
X10501134Y-12822079D01*
X10577325Y-12783984D02*
X10577325Y-12822079D01*
X10872563Y-13060174D02*
X10863039Y-13050650D01*
X10863039Y-13050650D02*
X10843991Y-13022079D01*
X10843991Y-13022079D02*
X10834468Y-13003031D01*
X10834468Y-13003031D02*
X10824944Y-12974460D01*
X10824944Y-12974460D02*
X10815420Y-12926841D01*
X10815420Y-12926841D02*
X10815420Y-12888746D01*
X10815420Y-12888746D02*
X10824944Y-12841127D01*
X10824944Y-12841127D02*
X10834468Y-12812555D01*
X10834468Y-12812555D02*
X10843991Y-12793508D01*
X10843991Y-12793508D02*
X10863039Y-12764936D01*
X10863039Y-12764936D02*
X10872563Y-12755412D01*
X10929706Y-12783984D02*
X11063039Y-12783984D01*
X11063039Y-12783984D02*
X10977325Y-12983984D01*
X11291610Y-12983984D02*
X11291610Y-12783984D01*
X11377325Y-12983984D02*
X11377325Y-12879222D01*
X11377325Y-12879222D02*
X11367801Y-12860174D01*
X11367801Y-12860174D02*
X11348753Y-12850650D01*
X11348753Y-12850650D02*
X11320182Y-12850650D01*
X11320182Y-12850650D02*
X11301134Y-12860174D01*
X11301134Y-12860174D02*
X11291610Y-12869698D01*
X11501134Y-12983984D02*
X11482087Y-12974460D01*
X11482087Y-12974460D02*
X11472563Y-12964936D01*
X11472563Y-12964936D02*
X11463039Y-12945888D01*
X11463039Y-12945888D02*
X11463039Y-12888746D01*
X11463039Y-12888746D02*
X11472563Y-12869698D01*
X11472563Y-12869698D02*
X11482087Y-12860174D01*
X11482087Y-12860174D02*
X11501134Y-12850650D01*
X11501134Y-12850650D02*
X11529706Y-12850650D01*
X11529706Y-12850650D02*
X11548753Y-12860174D01*
X11548753Y-12860174D02*
X11558277Y-12869698D01*
X11558277Y-12869698D02*
X11567801Y-12888746D01*
X11567801Y-12888746D02*
X11567801Y-12945888D01*
X11567801Y-12945888D02*
X11558277Y-12964936D01*
X11558277Y-12964936D02*
X11548753Y-12974460D01*
X11548753Y-12974460D02*
X11529706Y-12983984D01*
X11529706Y-12983984D02*
X11501134Y-12983984D01*
X11682087Y-12983984D02*
X11663039Y-12974460D01*
X11663039Y-12974460D02*
X11653515Y-12955412D01*
X11653515Y-12955412D02*
X11653515Y-12783984D01*
X11834468Y-12974460D02*
X11815420Y-12983984D01*
X11815420Y-12983984D02*
X11777325Y-12983984D01*
X11777325Y-12983984D02*
X11758277Y-12974460D01*
X11758277Y-12974460D02*
X11748753Y-12955412D01*
X11748753Y-12955412D02*
X11748753Y-12879222D01*
X11748753Y-12879222D02*
X11758277Y-12860174D01*
X11758277Y-12860174D02*
X11777325Y-12850650D01*
X11777325Y-12850650D02*
X11815420Y-12850650D01*
X11815420Y-12850650D02*
X11834468Y-12860174D01*
X11834468Y-12860174D02*
X11843991Y-12879222D01*
X11843991Y-12879222D02*
X11843991Y-12898269D01*
X11843991Y-12898269D02*
X11748753Y-12917317D01*
X11920182Y-12974460D02*
X11939230Y-12983984D01*
X11939230Y-12983984D02*
X11977325Y-12983984D01*
X11977325Y-12983984D02*
X11996372Y-12974460D01*
X11996372Y-12974460D02*
X12005896Y-12955412D01*
X12005896Y-12955412D02*
X12005896Y-12945888D01*
X12005896Y-12945888D02*
X11996372Y-12926841D01*
X11996372Y-12926841D02*
X11977325Y-12917317D01*
X11977325Y-12917317D02*
X11948753Y-12917317D01*
X11948753Y-12917317D02*
X11929706Y-12907793D01*
X11929706Y-12907793D02*
X11920182Y-12888746D01*
X11920182Y-12888746D02*
X11920182Y-12879222D01*
X11920182Y-12879222D02*
X11929706Y-12860174D01*
X11929706Y-12860174D02*
X11948753Y-12850650D01*
X11948753Y-12850650D02*
X11977325Y-12850650D01*
X11977325Y-12850650D02*
X11996372Y-12860174D01*
X12072563Y-13060174D02*
X12082087Y-13050650D01*
X12082087Y-13050650D02*
X12101134Y-13022079D01*
X12101134Y-13022079D02*
X12110658Y-13003031D01*
X12110658Y-13003031D02*
X12120182Y-12974460D01*
X12120182Y-12974460D02*
X12129706Y-12926841D01*
X12129706Y-12926841D02*
X12129706Y-12888746D01*
X12129706Y-12888746D02*
X12120182Y-12841127D01*
X12120182Y-12841127D02*
X12110658Y-12812555D01*
X12110658Y-12812555D02*
X12101134Y-12793508D01*
X12101134Y-12793508D02*
X12082087Y-12764936D01*
X12082087Y-12764936D02*
X12072563Y-12755412D01*
D11*
X7297500Y-13156500D02*
G75*
G03*
X7297500Y-13156500I-25000J0D01*
G01*
D12*
X7596372Y-13047984D02*
X7615420Y-13047984D01*
X7615420Y-13047984D02*
X7634467Y-13057508D01*
X7634467Y-13057508D02*
X7643991Y-13067031D01*
X7643991Y-13067031D02*
X7653515Y-13086079D01*
X7653515Y-13086079D02*
X7663039Y-13124174D01*
X7663039Y-13124174D02*
X7663039Y-13171793D01*
X7663039Y-13171793D02*
X7653515Y-13209888D01*
X7653515Y-13209888D02*
X7643991Y-13228936D01*
X7643991Y-13228936D02*
X7634467Y-13238460D01*
X7634467Y-13238460D02*
X7615420Y-13247984D01*
X7615420Y-13247984D02*
X7596372Y-13247984D01*
X7596372Y-13247984D02*
X7577324Y-13238460D01*
X7577324Y-13238460D02*
X7567801Y-13228936D01*
X7567801Y-13228936D02*
X7558277Y-13209888D01*
X7558277Y-13209888D02*
X7548753Y-13171793D01*
X7548753Y-13171793D02*
X7548753Y-13124174D01*
X7548753Y-13124174D02*
X7558277Y-13086079D01*
X7558277Y-13086079D02*
X7567801Y-13067031D01*
X7567801Y-13067031D02*
X7577324Y-13057508D01*
X7577324Y-13057508D02*
X7596372Y-13047984D01*
X7748753Y-13228936D02*
X7758277Y-13238460D01*
X7758277Y-13238460D02*
X7748753Y-13247984D01*
X7748753Y-13247984D02*
X7739229Y-13238460D01*
X7739229Y-13238460D02*
X7748753Y-13228936D01*
X7748753Y-13228936D02*
X7748753Y-13247984D01*
X7939229Y-13047984D02*
X7843991Y-13047984D01*
X7843991Y-13047984D02*
X7834467Y-13143222D01*
X7834467Y-13143222D02*
X7843991Y-13133698D01*
X7843991Y-13133698D02*
X7863039Y-13124174D01*
X7863039Y-13124174D02*
X7910658Y-13124174D01*
X7910658Y-13124174D02*
X7929705Y-13133698D01*
X7929705Y-13133698D02*
X7939229Y-13143222D01*
X7939229Y-13143222D02*
X7948753Y-13162269D01*
X7948753Y-13162269D02*
X7948753Y-13209888D01*
X7948753Y-13209888D02*
X7939229Y-13228936D01*
X7939229Y-13228936D02*
X7929705Y-13238460D01*
X7929705Y-13238460D02*
X7910658Y-13247984D01*
X7910658Y-13247984D02*
X7863039Y-13247984D01*
X7863039Y-13247984D02*
X7843991Y-13238460D01*
X7843991Y-13238460D02*
X7834467Y-13228936D01*
X8072562Y-13047984D02*
X8091610Y-13047984D01*
X8091610Y-13047984D02*
X8110658Y-13057508D01*
X8110658Y-13057508D02*
X8120182Y-13067031D01*
X8120182Y-13067031D02*
X8129705Y-13086079D01*
X8129705Y-13086079D02*
X8139229Y-13124174D01*
X8139229Y-13124174D02*
X8139229Y-13171793D01*
X8139229Y-13171793D02*
X8129705Y-13209888D01*
X8129705Y-13209888D02*
X8120182Y-13228936D01*
X8120182Y-13228936D02*
X8110658Y-13238460D01*
X8110658Y-13238460D02*
X8091610Y-13247984D01*
X8091610Y-13247984D02*
X8072562Y-13247984D01*
X8072562Y-13247984D02*
X8053515Y-13238460D01*
X8053515Y-13238460D02*
X8043991Y-13228936D01*
X8043991Y-13228936D02*
X8034467Y-13209888D01*
X8034467Y-13209888D02*
X8024943Y-13171793D01*
X8024943Y-13171793D02*
X8024943Y-13124174D01*
X8024943Y-13124174D02*
X8034467Y-13086079D01*
X8034467Y-13086079D02*
X8043991Y-13067031D01*
X8043991Y-13067031D02*
X8053515Y-13057508D01*
X8053515Y-13057508D02*
X8072562Y-13047984D01*
X8263039Y-13047984D02*
X8282086Y-13047984D01*
X8282086Y-13047984D02*
X8301134Y-13057508D01*
X8301134Y-13057508D02*
X8310658Y-13067031D01*
X8310658Y-13067031D02*
X8320182Y-13086079D01*
X8320182Y-13086079D02*
X8329705Y-13124174D01*
X8329705Y-13124174D02*
X8329705Y-13171793D01*
X8329705Y-13171793D02*
X8320182Y-13209888D01*
X8320182Y-13209888D02*
X8310658Y-13228936D01*
X8310658Y-13228936D02*
X8301134Y-13238460D01*
X8301134Y-13238460D02*
X8282086Y-13247984D01*
X8282086Y-13247984D02*
X8263039Y-13247984D01*
X8263039Y-13247984D02*
X8243991Y-13238460D01*
X8243991Y-13238460D02*
X8234467Y-13228936D01*
X8234467Y-13228936D02*
X8224943Y-13209888D01*
X8224943Y-13209888D02*
X8215420Y-13171793D01*
X8215420Y-13171793D02*
X8215420Y-13124174D01*
X8215420Y-13124174D02*
X8224943Y-13086079D01*
X8224943Y-13086079D02*
X8234467Y-13067031D01*
X8234467Y-13067031D02*
X8243991Y-13057508D01*
X8243991Y-13057508D02*
X8263039Y-13047984D01*
X8415420Y-13247984D02*
X8415420Y-13114650D01*
X8415420Y-13133698D02*
X8424944Y-13124174D01*
X8424944Y-13124174D02*
X8443991Y-13114650D01*
X8443991Y-13114650D02*
X8472563Y-13114650D01*
X8472563Y-13114650D02*
X8491610Y-13124174D01*
X8491610Y-13124174D02*
X8501134Y-13143222D01*
X8501134Y-13143222D02*
X8501134Y-13247984D01*
X8501134Y-13143222D02*
X8510658Y-13124174D01*
X8510658Y-13124174D02*
X8529705Y-13114650D01*
X8529705Y-13114650D02*
X8558277Y-13114650D01*
X8558277Y-13114650D02*
X8577325Y-13124174D01*
X8577325Y-13124174D02*
X8586848Y-13143222D01*
X8586848Y-13143222D02*
X8586848Y-13247984D01*
X8682086Y-13247984D02*
X8682086Y-13114650D01*
X8682086Y-13133698D02*
X8691610Y-13124174D01*
X8691610Y-13124174D02*
X8710658Y-13114650D01*
X8710658Y-13114650D02*
X8739229Y-13114650D01*
X8739229Y-13114650D02*
X8758277Y-13124174D01*
X8758277Y-13124174D02*
X8767801Y-13143222D01*
X8767801Y-13143222D02*
X8767801Y-13247984D01*
X8767801Y-13143222D02*
X8777325Y-13124174D01*
X8777325Y-13124174D02*
X8796372Y-13114650D01*
X8796372Y-13114650D02*
X8824944Y-13114650D01*
X8824944Y-13114650D02*
X8843991Y-13124174D01*
X8843991Y-13124174D02*
X8853515Y-13143222D01*
X8853515Y-13143222D02*
X8853515Y-13247984D01*
X9243991Y-13038460D02*
X9072563Y-13295603D01*
X9501134Y-13047984D02*
X9520182Y-13047984D01*
X9520182Y-13047984D02*
X9539229Y-13057508D01*
X9539229Y-13057508D02*
X9548753Y-13067031D01*
X9548753Y-13067031D02*
X9558277Y-13086079D01*
X9558277Y-13086079D02*
X9567801Y-13124174D01*
X9567801Y-13124174D02*
X9567801Y-13171793D01*
X9567801Y-13171793D02*
X9558277Y-13209888D01*
X9558277Y-13209888D02*
X9548753Y-13228936D01*
X9548753Y-13228936D02*
X9539229Y-13238460D01*
X9539229Y-13238460D02*
X9520182Y-13247984D01*
X9520182Y-13247984D02*
X9501134Y-13247984D01*
X9501134Y-13247984D02*
X9482087Y-13238460D01*
X9482087Y-13238460D02*
X9472563Y-13228936D01*
X9472563Y-13228936D02*
X9463039Y-13209888D01*
X9463039Y-13209888D02*
X9453515Y-13171793D01*
X9453515Y-13171793D02*
X9453515Y-13124174D01*
X9453515Y-13124174D02*
X9463039Y-13086079D01*
X9463039Y-13086079D02*
X9472563Y-13067031D01*
X9472563Y-13067031D02*
X9482087Y-13057508D01*
X9482087Y-13057508D02*
X9501134Y-13047984D01*
X9653515Y-13228936D02*
X9663039Y-13238460D01*
X9663039Y-13238460D02*
X9653515Y-13247984D01*
X9653515Y-13247984D02*
X9643991Y-13238460D01*
X9643991Y-13238460D02*
X9653515Y-13228936D01*
X9653515Y-13228936D02*
X9653515Y-13247984D01*
X9786848Y-13047984D02*
X9805896Y-13047984D01*
X9805896Y-13047984D02*
X9824944Y-13057508D01*
X9824944Y-13057508D02*
X9834468Y-13067031D01*
X9834468Y-13067031D02*
X9843991Y-13086079D01*
X9843991Y-13086079D02*
X9853515Y-13124174D01*
X9853515Y-13124174D02*
X9853515Y-13171793D01*
X9853515Y-13171793D02*
X9843991Y-13209888D01*
X9843991Y-13209888D02*
X9834468Y-13228936D01*
X9834468Y-13228936D02*
X9824944Y-13238460D01*
X9824944Y-13238460D02*
X9805896Y-13247984D01*
X9805896Y-13247984D02*
X9786848Y-13247984D01*
X9786848Y-13247984D02*
X9767801Y-13238460D01*
X9767801Y-13238460D02*
X9758277Y-13228936D01*
X9758277Y-13228936D02*
X9748753Y-13209888D01*
X9748753Y-13209888D02*
X9739229Y-13171793D01*
X9739229Y-13171793D02*
X9739229Y-13124174D01*
X9739229Y-13124174D02*
X9748753Y-13086079D01*
X9748753Y-13086079D02*
X9758277Y-13067031D01*
X9758277Y-13067031D02*
X9767801Y-13057508D01*
X9767801Y-13057508D02*
X9786848Y-13047984D01*
X10043991Y-13247984D02*
X9929706Y-13247984D01*
X9986848Y-13247984D02*
X9986848Y-13047984D01*
X9986848Y-13047984D02*
X9967801Y-13076555D01*
X9967801Y-13076555D02*
X9948753Y-13095603D01*
X9948753Y-13095603D02*
X9929706Y-13105127D01*
X10139229Y-13247984D02*
X10177325Y-13247984D01*
X10177325Y-13247984D02*
X10196372Y-13238460D01*
X10196372Y-13238460D02*
X10205896Y-13228936D01*
X10205896Y-13228936D02*
X10224944Y-13200365D01*
X10224944Y-13200365D02*
X10234468Y-13162269D01*
X10234468Y-13162269D02*
X10234468Y-13086079D01*
X10234468Y-13086079D02*
X10224944Y-13067031D01*
X10224944Y-13067031D02*
X10215420Y-13057508D01*
X10215420Y-13057508D02*
X10196372Y-13047984D01*
X10196372Y-13047984D02*
X10158277Y-13047984D01*
X10158277Y-13047984D02*
X10139229Y-13057508D01*
X10139229Y-13057508D02*
X10129706Y-13067031D01*
X10129706Y-13067031D02*
X10120182Y-13086079D01*
X10120182Y-13086079D02*
X10120182Y-13133698D01*
X10120182Y-13133698D02*
X10129706Y-13152746D01*
X10129706Y-13152746D02*
X10139229Y-13162269D01*
X10139229Y-13162269D02*
X10158277Y-13171793D01*
X10158277Y-13171793D02*
X10196372Y-13171793D01*
X10196372Y-13171793D02*
X10215420Y-13162269D01*
X10215420Y-13162269D02*
X10224944Y-13152746D01*
X10224944Y-13152746D02*
X10234468Y-13133698D01*
X10301134Y-13047984D02*
X10434468Y-13047984D01*
X10434468Y-13047984D02*
X10348753Y-13247984D01*
X10501134Y-13047984D02*
X10501134Y-13086079D01*
X10577325Y-13047984D02*
X10577325Y-13086079D01*
X10872563Y-13324174D02*
X10863039Y-13314650D01*
X10863039Y-13314650D02*
X10843991Y-13286079D01*
X10843991Y-13286079D02*
X10834468Y-13267031D01*
X10834468Y-13267031D02*
X10824944Y-13238460D01*
X10824944Y-13238460D02*
X10815420Y-13190841D01*
X10815420Y-13190841D02*
X10815420Y-13152746D01*
X10815420Y-13152746D02*
X10824944Y-13105127D01*
X10824944Y-13105127D02*
X10834468Y-13076555D01*
X10834468Y-13076555D02*
X10843991Y-13057508D01*
X10843991Y-13057508D02*
X10863039Y-13028936D01*
X10863039Y-13028936D02*
X10872563Y-13019412D01*
X10929706Y-13047984D02*
X11063039Y-13047984D01*
X11063039Y-13047984D02*
X10977325Y-13247984D01*
X11291610Y-13247984D02*
X11291610Y-13047984D01*
X11377325Y-13247984D02*
X11377325Y-13143222D01*
X11377325Y-13143222D02*
X11367801Y-13124174D01*
X11367801Y-13124174D02*
X11348753Y-13114650D01*
X11348753Y-13114650D02*
X11320182Y-13114650D01*
X11320182Y-13114650D02*
X11301134Y-13124174D01*
X11301134Y-13124174D02*
X11291610Y-13133698D01*
X11501134Y-13247984D02*
X11482087Y-13238460D01*
X11482087Y-13238460D02*
X11472563Y-13228936D01*
X11472563Y-13228936D02*
X11463039Y-13209888D01*
X11463039Y-13209888D02*
X11463039Y-13152746D01*
X11463039Y-13152746D02*
X11472563Y-13133698D01*
X11472563Y-13133698D02*
X11482087Y-13124174D01*
X11482087Y-13124174D02*
X11501134Y-13114650D01*
X11501134Y-13114650D02*
X11529706Y-13114650D01*
X11529706Y-13114650D02*
X11548753Y-13124174D01*
X11548753Y-13124174D02*
X11558277Y-13133698D01*
X11558277Y-13133698D02*
X11567801Y-13152746D01*
X11567801Y-13152746D02*
X11567801Y-13209888D01*
X11567801Y-13209888D02*
X11558277Y-13228936D01*
X11558277Y-13228936D02*
X11548753Y-13238460D01*
X11548753Y-13238460D02*
X11529706Y-13247984D01*
X11529706Y-13247984D02*
X11501134Y-13247984D01*
X11682087Y-13247984D02*
X11663039Y-13238460D01*
X11663039Y-13238460D02*
X11653515Y-13219412D01*
X11653515Y-13219412D02*
X11653515Y-13047984D01*
X11834468Y-13238460D02*
X11815420Y-13247984D01*
X11815420Y-13247984D02*
X11777325Y-13247984D01*
X11777325Y-13247984D02*
X11758277Y-13238460D01*
X11758277Y-13238460D02*
X11748753Y-13219412D01*
X11748753Y-13219412D02*
X11748753Y-13143222D01*
X11748753Y-13143222D02*
X11758277Y-13124174D01*
X11758277Y-13124174D02*
X11777325Y-13114650D01*
X11777325Y-13114650D02*
X11815420Y-13114650D01*
X11815420Y-13114650D02*
X11834468Y-13124174D01*
X11834468Y-13124174D02*
X11843991Y-13143222D01*
X11843991Y-13143222D02*
X11843991Y-13162269D01*
X11843991Y-13162269D02*
X11748753Y-13181317D01*
X11920182Y-13238460D02*
X11939230Y-13247984D01*
X11939230Y-13247984D02*
X11977325Y-13247984D01*
X11977325Y-13247984D02*
X11996372Y-13238460D01*
X11996372Y-13238460D02*
X12005896Y-13219412D01*
X12005896Y-13219412D02*
X12005896Y-13209888D01*
X12005896Y-13209888D02*
X11996372Y-13190841D01*
X11996372Y-13190841D02*
X11977325Y-13181317D01*
X11977325Y-13181317D02*
X11948753Y-13181317D01*
X11948753Y-13181317D02*
X11929706Y-13171793D01*
X11929706Y-13171793D02*
X11920182Y-13152746D01*
X11920182Y-13152746D02*
X11920182Y-13143222D01*
X11920182Y-13143222D02*
X11929706Y-13124174D01*
X11929706Y-13124174D02*
X11948753Y-13114650D01*
X11948753Y-13114650D02*
X11977325Y-13114650D01*
X11977325Y-13114650D02*
X11996372Y-13124174D01*
X12072563Y-13324174D02*
X12082087Y-13314650D01*
X12082087Y-13314650D02*
X12101134Y-13286079D01*
X12101134Y-13286079D02*
X12110658Y-13267031D01*
X12110658Y-13267031D02*
X12120182Y-13238460D01*
X12120182Y-13238460D02*
X12129706Y-13190841D01*
X12129706Y-13190841D02*
X12129706Y-13152746D01*
X12129706Y-13152746D02*
X12120182Y-13105127D01*
X12120182Y-13105127D02*
X12110658Y-13076555D01*
X12110658Y-13076555D02*
X12101134Y-13057508D01*
X12101134Y-13057508D02*
X12082087Y-13028936D01*
X12082087Y-13028936D02*
X12072563Y-13019412D01*
D14*
X7267500Y-13390500D02*
X7267500Y-13450500D01*
X7237500Y-13420500D02*
X7297500Y-13420500D01*
D12*
X7596372Y-13311984D02*
X7615420Y-13311984D01*
X7615420Y-13311984D02*
X7634467Y-13321508D01*
X7634467Y-13321508D02*
X7643991Y-13331031D01*
X7643991Y-13331031D02*
X7653515Y-13350079D01*
X7653515Y-13350079D02*
X7663039Y-13388174D01*
X7663039Y-13388174D02*
X7663039Y-13435793D01*
X7663039Y-13435793D02*
X7653515Y-13473888D01*
X7653515Y-13473888D02*
X7643991Y-13492936D01*
X7643991Y-13492936D02*
X7634467Y-13502460D01*
X7634467Y-13502460D02*
X7615420Y-13511984D01*
X7615420Y-13511984D02*
X7596372Y-13511984D01*
X7596372Y-13511984D02*
X7577324Y-13502460D01*
X7577324Y-13502460D02*
X7567801Y-13492936D01*
X7567801Y-13492936D02*
X7558277Y-13473888D01*
X7558277Y-13473888D02*
X7548753Y-13435793D01*
X7548753Y-13435793D02*
X7548753Y-13388174D01*
X7548753Y-13388174D02*
X7558277Y-13350079D01*
X7558277Y-13350079D02*
X7567801Y-13331031D01*
X7567801Y-13331031D02*
X7577324Y-13321508D01*
X7577324Y-13321508D02*
X7596372Y-13311984D01*
X7748753Y-13492936D02*
X7758277Y-13502460D01*
X7758277Y-13502460D02*
X7748753Y-13511984D01*
X7748753Y-13511984D02*
X7739229Y-13502460D01*
X7739229Y-13502460D02*
X7748753Y-13492936D01*
X7748753Y-13492936D02*
X7748753Y-13511984D01*
X7929705Y-13311984D02*
X7891610Y-13311984D01*
X7891610Y-13311984D02*
X7872562Y-13321508D01*
X7872562Y-13321508D02*
X7863039Y-13331031D01*
X7863039Y-13331031D02*
X7843991Y-13359603D01*
X7843991Y-13359603D02*
X7834467Y-13397698D01*
X7834467Y-13397698D02*
X7834467Y-13473888D01*
X7834467Y-13473888D02*
X7843991Y-13492936D01*
X7843991Y-13492936D02*
X7853515Y-13502460D01*
X7853515Y-13502460D02*
X7872562Y-13511984D01*
X7872562Y-13511984D02*
X7910658Y-13511984D01*
X7910658Y-13511984D02*
X7929705Y-13502460D01*
X7929705Y-13502460D02*
X7939229Y-13492936D01*
X7939229Y-13492936D02*
X7948753Y-13473888D01*
X7948753Y-13473888D02*
X7948753Y-13426269D01*
X7948753Y-13426269D02*
X7939229Y-13407222D01*
X7939229Y-13407222D02*
X7929705Y-13397698D01*
X7929705Y-13397698D02*
X7910658Y-13388174D01*
X7910658Y-13388174D02*
X7872562Y-13388174D01*
X7872562Y-13388174D02*
X7853515Y-13397698D01*
X7853515Y-13397698D02*
X7843991Y-13407222D01*
X7843991Y-13407222D02*
X7834467Y-13426269D01*
X8072562Y-13311984D02*
X8091610Y-13311984D01*
X8091610Y-13311984D02*
X8110658Y-13321508D01*
X8110658Y-13321508D02*
X8120182Y-13331031D01*
X8120182Y-13331031D02*
X8129705Y-13350079D01*
X8129705Y-13350079D02*
X8139229Y-13388174D01*
X8139229Y-13388174D02*
X8139229Y-13435793D01*
X8139229Y-13435793D02*
X8129705Y-13473888D01*
X8129705Y-13473888D02*
X8120182Y-13492936D01*
X8120182Y-13492936D02*
X8110658Y-13502460D01*
X8110658Y-13502460D02*
X8091610Y-13511984D01*
X8091610Y-13511984D02*
X8072562Y-13511984D01*
X8072562Y-13511984D02*
X8053515Y-13502460D01*
X8053515Y-13502460D02*
X8043991Y-13492936D01*
X8043991Y-13492936D02*
X8034467Y-13473888D01*
X8034467Y-13473888D02*
X8024943Y-13435793D01*
X8024943Y-13435793D02*
X8024943Y-13388174D01*
X8024943Y-13388174D02*
X8034467Y-13350079D01*
X8034467Y-13350079D02*
X8043991Y-13331031D01*
X8043991Y-13331031D02*
X8053515Y-13321508D01*
X8053515Y-13321508D02*
X8072562Y-13311984D01*
X8263039Y-13311984D02*
X8282086Y-13311984D01*
X8282086Y-13311984D02*
X8301134Y-13321508D01*
X8301134Y-13321508D02*
X8310658Y-13331031D01*
X8310658Y-13331031D02*
X8320182Y-13350079D01*
X8320182Y-13350079D02*
X8329705Y-13388174D01*
X8329705Y-13388174D02*
X8329705Y-13435793D01*
X8329705Y-13435793D02*
X8320182Y-13473888D01*
X8320182Y-13473888D02*
X8310658Y-13492936D01*
X8310658Y-13492936D02*
X8301134Y-13502460D01*
X8301134Y-13502460D02*
X8282086Y-13511984D01*
X8282086Y-13511984D02*
X8263039Y-13511984D01*
X8263039Y-13511984D02*
X8243991Y-13502460D01*
X8243991Y-13502460D02*
X8234467Y-13492936D01*
X8234467Y-13492936D02*
X8224943Y-13473888D01*
X8224943Y-13473888D02*
X8215420Y-13435793D01*
X8215420Y-13435793D02*
X8215420Y-13388174D01*
X8215420Y-13388174D02*
X8224943Y-13350079D01*
X8224943Y-13350079D02*
X8234467Y-13331031D01*
X8234467Y-13331031D02*
X8243991Y-13321508D01*
X8243991Y-13321508D02*
X8263039Y-13311984D01*
X8415420Y-13511984D02*
X8415420Y-13378650D01*
X8415420Y-13397698D02*
X8424944Y-13388174D01*
X8424944Y-13388174D02*
X8443991Y-13378650D01*
X8443991Y-13378650D02*
X8472563Y-13378650D01*
X8472563Y-13378650D02*
X8491610Y-13388174D01*
X8491610Y-13388174D02*
X8501134Y-13407222D01*
X8501134Y-13407222D02*
X8501134Y-13511984D01*
X8501134Y-13407222D02*
X8510658Y-13388174D01*
X8510658Y-13388174D02*
X8529705Y-13378650D01*
X8529705Y-13378650D02*
X8558277Y-13378650D01*
X8558277Y-13378650D02*
X8577325Y-13388174D01*
X8577325Y-13388174D02*
X8586848Y-13407222D01*
X8586848Y-13407222D02*
X8586848Y-13511984D01*
X8682086Y-13511984D02*
X8682086Y-13378650D01*
X8682086Y-13397698D02*
X8691610Y-13388174D01*
X8691610Y-13388174D02*
X8710658Y-13378650D01*
X8710658Y-13378650D02*
X8739229Y-13378650D01*
X8739229Y-13378650D02*
X8758277Y-13388174D01*
X8758277Y-13388174D02*
X8767801Y-13407222D01*
X8767801Y-13407222D02*
X8767801Y-13511984D01*
X8767801Y-13407222D02*
X8777325Y-13388174D01*
X8777325Y-13388174D02*
X8796372Y-13378650D01*
X8796372Y-13378650D02*
X8824944Y-13378650D01*
X8824944Y-13378650D02*
X8843991Y-13388174D01*
X8843991Y-13388174D02*
X8853515Y-13407222D01*
X8853515Y-13407222D02*
X8853515Y-13511984D01*
X9243991Y-13302460D02*
X9072563Y-13559603D01*
X9501134Y-13311984D02*
X9520182Y-13311984D01*
X9520182Y-13311984D02*
X9539229Y-13321508D01*
X9539229Y-13321508D02*
X9548753Y-13331031D01*
X9548753Y-13331031D02*
X9558277Y-13350079D01*
X9558277Y-13350079D02*
X9567801Y-13388174D01*
X9567801Y-13388174D02*
X9567801Y-13435793D01*
X9567801Y-13435793D02*
X9558277Y-13473888D01*
X9558277Y-13473888D02*
X9548753Y-13492936D01*
X9548753Y-13492936D02*
X9539229Y-13502460D01*
X9539229Y-13502460D02*
X9520182Y-13511984D01*
X9520182Y-13511984D02*
X9501134Y-13511984D01*
X9501134Y-13511984D02*
X9482087Y-13502460D01*
X9482087Y-13502460D02*
X9472563Y-13492936D01*
X9472563Y-13492936D02*
X9463039Y-13473888D01*
X9463039Y-13473888D02*
X9453515Y-13435793D01*
X9453515Y-13435793D02*
X9453515Y-13388174D01*
X9453515Y-13388174D02*
X9463039Y-13350079D01*
X9463039Y-13350079D02*
X9472563Y-13331031D01*
X9472563Y-13331031D02*
X9482087Y-13321508D01*
X9482087Y-13321508D02*
X9501134Y-13311984D01*
X9653515Y-13492936D02*
X9663039Y-13502460D01*
X9663039Y-13502460D02*
X9653515Y-13511984D01*
X9653515Y-13511984D02*
X9643991Y-13502460D01*
X9643991Y-13502460D02*
X9653515Y-13492936D01*
X9653515Y-13492936D02*
X9653515Y-13511984D01*
X9786848Y-13311984D02*
X9805896Y-13311984D01*
X9805896Y-13311984D02*
X9824944Y-13321508D01*
X9824944Y-13321508D02*
X9834468Y-13331031D01*
X9834468Y-13331031D02*
X9843991Y-13350079D01*
X9843991Y-13350079D02*
X9853515Y-13388174D01*
X9853515Y-13388174D02*
X9853515Y-13435793D01*
X9853515Y-13435793D02*
X9843991Y-13473888D01*
X9843991Y-13473888D02*
X9834468Y-13492936D01*
X9834468Y-13492936D02*
X9824944Y-13502460D01*
X9824944Y-13502460D02*
X9805896Y-13511984D01*
X9805896Y-13511984D02*
X9786848Y-13511984D01*
X9786848Y-13511984D02*
X9767801Y-13502460D01*
X9767801Y-13502460D02*
X9758277Y-13492936D01*
X9758277Y-13492936D02*
X9748753Y-13473888D01*
X9748753Y-13473888D02*
X9739229Y-13435793D01*
X9739229Y-13435793D02*
X9739229Y-13388174D01*
X9739229Y-13388174D02*
X9748753Y-13350079D01*
X9748753Y-13350079D02*
X9758277Y-13331031D01*
X9758277Y-13331031D02*
X9767801Y-13321508D01*
X9767801Y-13321508D02*
X9786848Y-13311984D01*
X9929706Y-13331031D02*
X9939229Y-13321508D01*
X9939229Y-13321508D02*
X9958277Y-13311984D01*
X9958277Y-13311984D02*
X10005896Y-13311984D01*
X10005896Y-13311984D02*
X10024944Y-13321508D01*
X10024944Y-13321508D02*
X10034468Y-13331031D01*
X10034468Y-13331031D02*
X10043991Y-13350079D01*
X10043991Y-13350079D02*
X10043991Y-13369127D01*
X10043991Y-13369127D02*
X10034468Y-13397698D01*
X10034468Y-13397698D02*
X9920182Y-13511984D01*
X9920182Y-13511984D02*
X10043991Y-13511984D01*
X10110658Y-13311984D02*
X10234468Y-13311984D01*
X10234468Y-13311984D02*
X10167801Y-13388174D01*
X10167801Y-13388174D02*
X10196372Y-13388174D01*
X10196372Y-13388174D02*
X10215420Y-13397698D01*
X10215420Y-13397698D02*
X10224944Y-13407222D01*
X10224944Y-13407222D02*
X10234468Y-13426269D01*
X10234468Y-13426269D02*
X10234468Y-13473888D01*
X10234468Y-13473888D02*
X10224944Y-13492936D01*
X10224944Y-13492936D02*
X10215420Y-13502460D01*
X10215420Y-13502460D02*
X10196372Y-13511984D01*
X10196372Y-13511984D02*
X10139229Y-13511984D01*
X10139229Y-13511984D02*
X10120182Y-13502460D01*
X10120182Y-13502460D02*
X10110658Y-13492936D01*
X10405896Y-13311984D02*
X10367801Y-13311984D01*
X10367801Y-13311984D02*
X10348753Y-13321508D01*
X10348753Y-13321508D02*
X10339229Y-13331031D01*
X10339229Y-13331031D02*
X10320182Y-13359603D01*
X10320182Y-13359603D02*
X10310658Y-13397698D01*
X10310658Y-13397698D02*
X10310658Y-13473888D01*
X10310658Y-13473888D02*
X10320182Y-13492936D01*
X10320182Y-13492936D02*
X10329706Y-13502460D01*
X10329706Y-13502460D02*
X10348753Y-13511984D01*
X10348753Y-13511984D02*
X10386849Y-13511984D01*
X10386849Y-13511984D02*
X10405896Y-13502460D01*
X10405896Y-13502460D02*
X10415420Y-13492936D01*
X10415420Y-13492936D02*
X10424944Y-13473888D01*
X10424944Y-13473888D02*
X10424944Y-13426269D01*
X10424944Y-13426269D02*
X10415420Y-13407222D01*
X10415420Y-13407222D02*
X10405896Y-13397698D01*
X10405896Y-13397698D02*
X10386849Y-13388174D01*
X10386849Y-13388174D02*
X10348753Y-13388174D01*
X10348753Y-13388174D02*
X10329706Y-13397698D01*
X10329706Y-13397698D02*
X10320182Y-13407222D01*
X10320182Y-13407222D02*
X10310658Y-13426269D01*
X10501134Y-13311984D02*
X10501134Y-13350079D01*
X10577325Y-13311984D02*
X10577325Y-13350079D01*
X10872563Y-13588174D02*
X10863039Y-13578650D01*
X10863039Y-13578650D02*
X10843991Y-13550079D01*
X10843991Y-13550079D02*
X10834468Y-13531031D01*
X10834468Y-13531031D02*
X10824944Y-13502460D01*
X10824944Y-13502460D02*
X10815420Y-13454841D01*
X10815420Y-13454841D02*
X10815420Y-13416746D01*
X10815420Y-13416746D02*
X10824944Y-13369127D01*
X10824944Y-13369127D02*
X10834468Y-13340555D01*
X10834468Y-13340555D02*
X10843991Y-13321508D01*
X10843991Y-13321508D02*
X10863039Y-13292936D01*
X10863039Y-13292936D02*
X10872563Y-13283412D01*
X10929706Y-13311984D02*
X11053515Y-13311984D01*
X11053515Y-13311984D02*
X10986849Y-13388174D01*
X10986849Y-13388174D02*
X11015420Y-13388174D01*
X11015420Y-13388174D02*
X11034468Y-13397698D01*
X11034468Y-13397698D02*
X11043991Y-13407222D01*
X11043991Y-13407222D02*
X11053515Y-13426269D01*
X11053515Y-13426269D02*
X11053515Y-13473888D01*
X11053515Y-13473888D02*
X11043991Y-13492936D01*
X11043991Y-13492936D02*
X11034468Y-13502460D01*
X11034468Y-13502460D02*
X11015420Y-13511984D01*
X11015420Y-13511984D02*
X10958277Y-13511984D01*
X10958277Y-13511984D02*
X10939230Y-13502460D01*
X10939230Y-13502460D02*
X10929706Y-13492936D01*
X11291610Y-13511984D02*
X11291610Y-13311984D01*
X11377325Y-13511984D02*
X11377325Y-13407222D01*
X11377325Y-13407222D02*
X11367801Y-13388174D01*
X11367801Y-13388174D02*
X11348753Y-13378650D01*
X11348753Y-13378650D02*
X11320182Y-13378650D01*
X11320182Y-13378650D02*
X11301134Y-13388174D01*
X11301134Y-13388174D02*
X11291610Y-13397698D01*
X11501134Y-13511984D02*
X11482087Y-13502460D01*
X11482087Y-13502460D02*
X11472563Y-13492936D01*
X11472563Y-13492936D02*
X11463039Y-13473888D01*
X11463039Y-13473888D02*
X11463039Y-13416746D01*
X11463039Y-13416746D02*
X11472563Y-13397698D01*
X11472563Y-13397698D02*
X11482087Y-13388174D01*
X11482087Y-13388174D02*
X11501134Y-13378650D01*
X11501134Y-13378650D02*
X11529706Y-13378650D01*
X11529706Y-13378650D02*
X11548753Y-13388174D01*
X11548753Y-13388174D02*
X11558277Y-13397698D01*
X11558277Y-13397698D02*
X11567801Y-13416746D01*
X11567801Y-13416746D02*
X11567801Y-13473888D01*
X11567801Y-13473888D02*
X11558277Y-13492936D01*
X11558277Y-13492936D02*
X11548753Y-13502460D01*
X11548753Y-13502460D02*
X11529706Y-13511984D01*
X11529706Y-13511984D02*
X11501134Y-13511984D01*
X11682087Y-13511984D02*
X11663039Y-13502460D01*
X11663039Y-13502460D02*
X11653515Y-13483412D01*
X11653515Y-13483412D02*
X11653515Y-13311984D01*
X11834468Y-13502460D02*
X11815420Y-13511984D01*
X11815420Y-13511984D02*
X11777325Y-13511984D01*
X11777325Y-13511984D02*
X11758277Y-13502460D01*
X11758277Y-13502460D02*
X11748753Y-13483412D01*
X11748753Y-13483412D02*
X11748753Y-13407222D01*
X11748753Y-13407222D02*
X11758277Y-13388174D01*
X11758277Y-13388174D02*
X11777325Y-13378650D01*
X11777325Y-13378650D02*
X11815420Y-13378650D01*
X11815420Y-13378650D02*
X11834468Y-13388174D01*
X11834468Y-13388174D02*
X11843991Y-13407222D01*
X11843991Y-13407222D02*
X11843991Y-13426269D01*
X11843991Y-13426269D02*
X11748753Y-13445317D01*
X11920182Y-13502460D02*
X11939230Y-13511984D01*
X11939230Y-13511984D02*
X11977325Y-13511984D01*
X11977325Y-13511984D02*
X11996372Y-13502460D01*
X11996372Y-13502460D02*
X12005896Y-13483412D01*
X12005896Y-13483412D02*
X12005896Y-13473888D01*
X12005896Y-13473888D02*
X11996372Y-13454841D01*
X11996372Y-13454841D02*
X11977325Y-13445317D01*
X11977325Y-13445317D02*
X11948753Y-13445317D01*
X11948753Y-13445317D02*
X11929706Y-13435793D01*
X11929706Y-13435793D02*
X11920182Y-13416746D01*
X11920182Y-13416746D02*
X11920182Y-13407222D01*
X11920182Y-13407222D02*
X11929706Y-13388174D01*
X11929706Y-13388174D02*
X11948753Y-13378650D01*
X11948753Y-13378650D02*
X11977325Y-13378650D01*
X11977325Y-13378650D02*
X11996372Y-13388174D01*
X12072563Y-13588174D02*
X12082087Y-13578650D01*
X12082087Y-13578650D02*
X12101134Y-13550079D01*
X12101134Y-13550079D02*
X12110658Y-13531031D01*
X12110658Y-13531031D02*
X12120182Y-13502460D01*
X12120182Y-13502460D02*
X12129706Y-13454841D01*
X12129706Y-13454841D02*
X12129706Y-13416746D01*
X12129706Y-13416746D02*
X12120182Y-13369127D01*
X12120182Y-13369127D02*
X12110658Y-13340555D01*
X12110658Y-13340555D02*
X12101134Y-13321508D01*
X12101134Y-13321508D02*
X12082087Y-13292936D01*
X12082087Y-13292936D02*
X12072563Y-13283412D01*
D15*
X7285784Y-13712784D02*
X7285784Y-13656215D01*
X7229215Y-13656215D01*
X7229215Y-13712784D01*
X7285784Y-13712784D01*
D12*
X7596372Y-13575984D02*
X7615420Y-13575984D01*
X7615420Y-13575984D02*
X7634467Y-13585508D01*
X7634467Y-13585508D02*
X7643991Y-13595031D01*
X7643991Y-13595031D02*
X7653515Y-13614079D01*
X7653515Y-13614079D02*
X7663039Y-13652174D01*
X7663039Y-13652174D02*
X7663039Y-13699793D01*
X7663039Y-13699793D02*
X7653515Y-13737888D01*
X7653515Y-13737888D02*
X7643991Y-13756936D01*
X7643991Y-13756936D02*
X7634467Y-13766460D01*
X7634467Y-13766460D02*
X7615420Y-13775984D01*
X7615420Y-13775984D02*
X7596372Y-13775984D01*
X7596372Y-13775984D02*
X7577324Y-13766460D01*
X7577324Y-13766460D02*
X7567801Y-13756936D01*
X7567801Y-13756936D02*
X7558277Y-13737888D01*
X7558277Y-13737888D02*
X7548753Y-13699793D01*
X7548753Y-13699793D02*
X7548753Y-13652174D01*
X7548753Y-13652174D02*
X7558277Y-13614079D01*
X7558277Y-13614079D02*
X7567801Y-13595031D01*
X7567801Y-13595031D02*
X7577324Y-13585508D01*
X7577324Y-13585508D02*
X7596372Y-13575984D01*
X7748753Y-13756936D02*
X7758277Y-13766460D01*
X7758277Y-13766460D02*
X7748753Y-13775984D01*
X7748753Y-13775984D02*
X7739229Y-13766460D01*
X7739229Y-13766460D02*
X7748753Y-13756936D01*
X7748753Y-13756936D02*
X7748753Y-13775984D01*
X7872562Y-13661698D02*
X7853515Y-13652174D01*
X7853515Y-13652174D02*
X7843991Y-13642650D01*
X7843991Y-13642650D02*
X7834467Y-13623603D01*
X7834467Y-13623603D02*
X7834467Y-13614079D01*
X7834467Y-13614079D02*
X7843991Y-13595031D01*
X7843991Y-13595031D02*
X7853515Y-13585508D01*
X7853515Y-13585508D02*
X7872562Y-13575984D01*
X7872562Y-13575984D02*
X7910658Y-13575984D01*
X7910658Y-13575984D02*
X7929705Y-13585508D01*
X7929705Y-13585508D02*
X7939229Y-13595031D01*
X7939229Y-13595031D02*
X7948753Y-13614079D01*
X7948753Y-13614079D02*
X7948753Y-13623603D01*
X7948753Y-13623603D02*
X7939229Y-13642650D01*
X7939229Y-13642650D02*
X7929705Y-13652174D01*
X7929705Y-13652174D02*
X7910658Y-13661698D01*
X7910658Y-13661698D02*
X7872562Y-13661698D01*
X7872562Y-13661698D02*
X7853515Y-13671222D01*
X7853515Y-13671222D02*
X7843991Y-13680746D01*
X7843991Y-13680746D02*
X7834467Y-13699793D01*
X7834467Y-13699793D02*
X7834467Y-13737888D01*
X7834467Y-13737888D02*
X7843991Y-13756936D01*
X7843991Y-13756936D02*
X7853515Y-13766460D01*
X7853515Y-13766460D02*
X7872562Y-13775984D01*
X7872562Y-13775984D02*
X7910658Y-13775984D01*
X7910658Y-13775984D02*
X7929705Y-13766460D01*
X7929705Y-13766460D02*
X7939229Y-13756936D01*
X7939229Y-13756936D02*
X7948753Y-13737888D01*
X7948753Y-13737888D02*
X7948753Y-13699793D01*
X7948753Y-13699793D02*
X7939229Y-13680746D01*
X7939229Y-13680746D02*
X7929705Y-13671222D01*
X7929705Y-13671222D02*
X7910658Y-13661698D01*
X8072562Y-13575984D02*
X8091610Y-13575984D01*
X8091610Y-13575984D02*
X8110658Y-13585508D01*
X8110658Y-13585508D02*
X8120182Y-13595031D01*
X8120182Y-13595031D02*
X8129705Y-13614079D01*
X8129705Y-13614079D02*
X8139229Y-13652174D01*
X8139229Y-13652174D02*
X8139229Y-13699793D01*
X8139229Y-13699793D02*
X8129705Y-13737888D01*
X8129705Y-13737888D02*
X8120182Y-13756936D01*
X8120182Y-13756936D02*
X8110658Y-13766460D01*
X8110658Y-13766460D02*
X8091610Y-13775984D01*
X8091610Y-13775984D02*
X8072562Y-13775984D01*
X8072562Y-13775984D02*
X8053515Y-13766460D01*
X8053515Y-13766460D02*
X8043991Y-13756936D01*
X8043991Y-13756936D02*
X8034467Y-13737888D01*
X8034467Y-13737888D02*
X8024943Y-13699793D01*
X8024943Y-13699793D02*
X8024943Y-13652174D01*
X8024943Y-13652174D02*
X8034467Y-13614079D01*
X8034467Y-13614079D02*
X8043991Y-13595031D01*
X8043991Y-13595031D02*
X8053515Y-13585508D01*
X8053515Y-13585508D02*
X8072562Y-13575984D01*
X8263039Y-13575984D02*
X8282086Y-13575984D01*
X8282086Y-13575984D02*
X8301134Y-13585508D01*
X8301134Y-13585508D02*
X8310658Y-13595031D01*
X8310658Y-13595031D02*
X8320182Y-13614079D01*
X8320182Y-13614079D02*
X8329705Y-13652174D01*
X8329705Y-13652174D02*
X8329705Y-13699793D01*
X8329705Y-13699793D02*
X8320182Y-13737888D01*
X8320182Y-13737888D02*
X8310658Y-13756936D01*
X8310658Y-13756936D02*
X8301134Y-13766460D01*
X8301134Y-13766460D02*
X8282086Y-13775984D01*
X8282086Y-13775984D02*
X8263039Y-13775984D01*
X8263039Y-13775984D02*
X8243991Y-13766460D01*
X8243991Y-13766460D02*
X8234467Y-13756936D01*
X8234467Y-13756936D02*
X8224943Y-13737888D01*
X8224943Y-13737888D02*
X8215420Y-13699793D01*
X8215420Y-13699793D02*
X8215420Y-13652174D01*
X8215420Y-13652174D02*
X8224943Y-13614079D01*
X8224943Y-13614079D02*
X8234467Y-13595031D01*
X8234467Y-13595031D02*
X8243991Y-13585508D01*
X8243991Y-13585508D02*
X8263039Y-13575984D01*
X8415420Y-13775984D02*
X8415420Y-13642650D01*
X8415420Y-13661698D02*
X8424944Y-13652174D01*
X8424944Y-13652174D02*
X8443991Y-13642650D01*
X8443991Y-13642650D02*
X8472563Y-13642650D01*
X8472563Y-13642650D02*
X8491610Y-13652174D01*
X8491610Y-13652174D02*
X8501134Y-13671222D01*
X8501134Y-13671222D02*
X8501134Y-13775984D01*
X8501134Y-13671222D02*
X8510658Y-13652174D01*
X8510658Y-13652174D02*
X8529705Y-13642650D01*
X8529705Y-13642650D02*
X8558277Y-13642650D01*
X8558277Y-13642650D02*
X8577325Y-13652174D01*
X8577325Y-13652174D02*
X8586848Y-13671222D01*
X8586848Y-13671222D02*
X8586848Y-13775984D01*
X8682086Y-13775984D02*
X8682086Y-13642650D01*
X8682086Y-13661698D02*
X8691610Y-13652174D01*
X8691610Y-13652174D02*
X8710658Y-13642650D01*
X8710658Y-13642650D02*
X8739229Y-13642650D01*
X8739229Y-13642650D02*
X8758277Y-13652174D01*
X8758277Y-13652174D02*
X8767801Y-13671222D01*
X8767801Y-13671222D02*
X8767801Y-13775984D01*
X8767801Y-13671222D02*
X8777325Y-13652174D01*
X8777325Y-13652174D02*
X8796372Y-13642650D01*
X8796372Y-13642650D02*
X8824944Y-13642650D01*
X8824944Y-13642650D02*
X8843991Y-13652174D01*
X8843991Y-13652174D02*
X8853515Y-13671222D01*
X8853515Y-13671222D02*
X8853515Y-13775984D01*
X9243991Y-13566460D02*
X9072563Y-13823603D01*
X9501134Y-13575984D02*
X9520182Y-13575984D01*
X9520182Y-13575984D02*
X9539229Y-13585508D01*
X9539229Y-13585508D02*
X9548753Y-13595031D01*
X9548753Y-13595031D02*
X9558277Y-13614079D01*
X9558277Y-13614079D02*
X9567801Y-13652174D01*
X9567801Y-13652174D02*
X9567801Y-13699793D01*
X9567801Y-13699793D02*
X9558277Y-13737888D01*
X9558277Y-13737888D02*
X9548753Y-13756936D01*
X9548753Y-13756936D02*
X9539229Y-13766460D01*
X9539229Y-13766460D02*
X9520182Y-13775984D01*
X9520182Y-13775984D02*
X9501134Y-13775984D01*
X9501134Y-13775984D02*
X9482087Y-13766460D01*
X9482087Y-13766460D02*
X9472563Y-13756936D01*
X9472563Y-13756936D02*
X9463039Y-13737888D01*
X9463039Y-13737888D02*
X9453515Y-13699793D01*
X9453515Y-13699793D02*
X9453515Y-13652174D01*
X9453515Y-13652174D02*
X9463039Y-13614079D01*
X9463039Y-13614079D02*
X9472563Y-13595031D01*
X9472563Y-13595031D02*
X9482087Y-13585508D01*
X9482087Y-13585508D02*
X9501134Y-13575984D01*
X9653515Y-13756936D02*
X9663039Y-13766460D01*
X9663039Y-13766460D02*
X9653515Y-13775984D01*
X9653515Y-13775984D02*
X9643991Y-13766460D01*
X9643991Y-13766460D02*
X9653515Y-13756936D01*
X9653515Y-13756936D02*
X9653515Y-13775984D01*
X9786848Y-13575984D02*
X9805896Y-13575984D01*
X9805896Y-13575984D02*
X9824944Y-13585508D01*
X9824944Y-13585508D02*
X9834468Y-13595031D01*
X9834468Y-13595031D02*
X9843991Y-13614079D01*
X9843991Y-13614079D02*
X9853515Y-13652174D01*
X9853515Y-13652174D02*
X9853515Y-13699793D01*
X9853515Y-13699793D02*
X9843991Y-13737888D01*
X9843991Y-13737888D02*
X9834468Y-13756936D01*
X9834468Y-13756936D02*
X9824944Y-13766460D01*
X9824944Y-13766460D02*
X9805896Y-13775984D01*
X9805896Y-13775984D02*
X9786848Y-13775984D01*
X9786848Y-13775984D02*
X9767801Y-13766460D01*
X9767801Y-13766460D02*
X9758277Y-13756936D01*
X9758277Y-13756936D02*
X9748753Y-13737888D01*
X9748753Y-13737888D02*
X9739229Y-13699793D01*
X9739229Y-13699793D02*
X9739229Y-13652174D01*
X9739229Y-13652174D02*
X9748753Y-13614079D01*
X9748753Y-13614079D02*
X9758277Y-13595031D01*
X9758277Y-13595031D02*
X9767801Y-13585508D01*
X9767801Y-13585508D02*
X9786848Y-13575984D01*
X9920182Y-13575984D02*
X10043991Y-13575984D01*
X10043991Y-13575984D02*
X9977325Y-13652174D01*
X9977325Y-13652174D02*
X10005896Y-13652174D01*
X10005896Y-13652174D02*
X10024944Y-13661698D01*
X10024944Y-13661698D02*
X10034468Y-13671222D01*
X10034468Y-13671222D02*
X10043991Y-13690269D01*
X10043991Y-13690269D02*
X10043991Y-13737888D01*
X10043991Y-13737888D02*
X10034468Y-13756936D01*
X10034468Y-13756936D02*
X10024944Y-13766460D01*
X10024944Y-13766460D02*
X10005896Y-13775984D01*
X10005896Y-13775984D02*
X9948753Y-13775984D01*
X9948753Y-13775984D02*
X9929706Y-13766460D01*
X9929706Y-13766460D02*
X9920182Y-13756936D01*
X10234468Y-13775984D02*
X10120182Y-13775984D01*
X10177325Y-13775984D02*
X10177325Y-13575984D01*
X10177325Y-13575984D02*
X10158277Y-13604555D01*
X10158277Y-13604555D02*
X10139229Y-13623603D01*
X10139229Y-13623603D02*
X10120182Y-13633127D01*
X10415420Y-13575984D02*
X10320182Y-13575984D01*
X10320182Y-13575984D02*
X10310658Y-13671222D01*
X10310658Y-13671222D02*
X10320182Y-13661698D01*
X10320182Y-13661698D02*
X10339229Y-13652174D01*
X10339229Y-13652174D02*
X10386849Y-13652174D01*
X10386849Y-13652174D02*
X10405896Y-13661698D01*
X10405896Y-13661698D02*
X10415420Y-13671222D01*
X10415420Y-13671222D02*
X10424944Y-13690269D01*
X10424944Y-13690269D02*
X10424944Y-13737888D01*
X10424944Y-13737888D02*
X10415420Y-13756936D01*
X10415420Y-13756936D02*
X10405896Y-13766460D01*
X10405896Y-13766460D02*
X10386849Y-13775984D01*
X10386849Y-13775984D02*
X10339229Y-13775984D01*
X10339229Y-13775984D02*
X10320182Y-13766460D01*
X10320182Y-13766460D02*
X10310658Y-13756936D01*
X10501134Y-13575984D02*
X10501134Y-13614079D01*
X10577325Y-13575984D02*
X10577325Y-13614079D01*
X10872563Y-13852174D02*
X10863039Y-13842650D01*
X10863039Y-13842650D02*
X10843991Y-13814079D01*
X10843991Y-13814079D02*
X10834468Y-13795031D01*
X10834468Y-13795031D02*
X10824944Y-13766460D01*
X10824944Y-13766460D02*
X10815420Y-13718841D01*
X10815420Y-13718841D02*
X10815420Y-13680746D01*
X10815420Y-13680746D02*
X10824944Y-13633127D01*
X10824944Y-13633127D02*
X10834468Y-13604555D01*
X10834468Y-13604555D02*
X10843991Y-13585508D01*
X10843991Y-13585508D02*
X10863039Y-13556936D01*
X10863039Y-13556936D02*
X10872563Y-13547412D01*
X11034468Y-13642650D02*
X11034468Y-13775984D01*
X10986849Y-13566460D02*
X10939230Y-13709317D01*
X10939230Y-13709317D02*
X11063039Y-13709317D01*
X11291610Y-13775984D02*
X11291610Y-13575984D01*
X11377325Y-13775984D02*
X11377325Y-13671222D01*
X11377325Y-13671222D02*
X11367801Y-13652174D01*
X11367801Y-13652174D02*
X11348753Y-13642650D01*
X11348753Y-13642650D02*
X11320182Y-13642650D01*
X11320182Y-13642650D02*
X11301134Y-13652174D01*
X11301134Y-13652174D02*
X11291610Y-13661698D01*
X11501134Y-13775984D02*
X11482087Y-13766460D01*
X11482087Y-13766460D02*
X11472563Y-13756936D01*
X11472563Y-13756936D02*
X11463039Y-13737888D01*
X11463039Y-13737888D02*
X11463039Y-13680746D01*
X11463039Y-13680746D02*
X11472563Y-13661698D01*
X11472563Y-13661698D02*
X11482087Y-13652174D01*
X11482087Y-13652174D02*
X11501134Y-13642650D01*
X11501134Y-13642650D02*
X11529706Y-13642650D01*
X11529706Y-13642650D02*
X11548753Y-13652174D01*
X11548753Y-13652174D02*
X11558277Y-13661698D01*
X11558277Y-13661698D02*
X11567801Y-13680746D01*
X11567801Y-13680746D02*
X11567801Y-13737888D01*
X11567801Y-13737888D02*
X11558277Y-13756936D01*
X11558277Y-13756936D02*
X11548753Y-13766460D01*
X11548753Y-13766460D02*
X11529706Y-13775984D01*
X11529706Y-13775984D02*
X11501134Y-13775984D01*
X11682087Y-13775984D02*
X11663039Y-13766460D01*
X11663039Y-13766460D02*
X11653515Y-13747412D01*
X11653515Y-13747412D02*
X11653515Y-13575984D01*
X11834468Y-13766460D02*
X11815420Y-13775984D01*
X11815420Y-13775984D02*
X11777325Y-13775984D01*
X11777325Y-13775984D02*
X11758277Y-13766460D01*
X11758277Y-13766460D02*
X11748753Y-13747412D01*
X11748753Y-13747412D02*
X11748753Y-13671222D01*
X11748753Y-13671222D02*
X11758277Y-13652174D01*
X11758277Y-13652174D02*
X11777325Y-13642650D01*
X11777325Y-13642650D02*
X11815420Y-13642650D01*
X11815420Y-13642650D02*
X11834468Y-13652174D01*
X11834468Y-13652174D02*
X11843991Y-13671222D01*
X11843991Y-13671222D02*
X11843991Y-13690269D01*
X11843991Y-13690269D02*
X11748753Y-13709317D01*
X11920182Y-13766460D02*
X11939230Y-13775984D01*
X11939230Y-13775984D02*
X11977325Y-13775984D01*
X11977325Y-13775984D02*
X11996372Y-13766460D01*
X11996372Y-13766460D02*
X12005896Y-13747412D01*
X12005896Y-13747412D02*
X12005896Y-13737888D01*
X12005896Y-13737888D02*
X11996372Y-13718841D01*
X11996372Y-13718841D02*
X11977325Y-13709317D01*
X11977325Y-13709317D02*
X11948753Y-13709317D01*
X11948753Y-13709317D02*
X11929706Y-13699793D01*
X11929706Y-13699793D02*
X11920182Y-13680746D01*
X11920182Y-13680746D02*
X11920182Y-13671222D01*
X11920182Y-13671222D02*
X11929706Y-13652174D01*
X11929706Y-13652174D02*
X11948753Y-13642650D01*
X11948753Y-13642650D02*
X11977325Y-13642650D01*
X11977325Y-13642650D02*
X11996372Y-13652174D01*
X12072563Y-13852174D02*
X12082087Y-13842650D01*
X12082087Y-13842650D02*
X12101134Y-13814079D01*
X12101134Y-13814079D02*
X12110658Y-13795031D01*
X12110658Y-13795031D02*
X12120182Y-13766460D01*
X12120182Y-13766460D02*
X12129706Y-13718841D01*
X12129706Y-13718841D02*
X12129706Y-13680746D01*
X12129706Y-13680746D02*
X12120182Y-13633127D01*
X12120182Y-13633127D02*
X12110658Y-13604555D01*
X12110658Y-13604555D02*
X12101134Y-13585508D01*
X12101134Y-13585508D02*
X12082087Y-13556936D01*
X12082087Y-13556936D02*
X12072563Y-13547412D01*
D10*
X7247500Y-13998500D02*
X7297500Y-13948500D01*
X7247500Y-13898500D01*
X7197500Y-13948500D01*
X7247500Y-13998500D01*
D12*
X7663039Y-14039984D02*
X7548753Y-14039984D01*
X7605896Y-14039984D02*
X7605896Y-13839984D01*
X7605896Y-13839984D02*
X7586848Y-13868555D01*
X7586848Y-13868555D02*
X7567801Y-13887603D01*
X7567801Y-13887603D02*
X7548753Y-13897127D01*
X7748753Y-14020936D02*
X7758277Y-14030460D01*
X7758277Y-14030460D02*
X7748753Y-14039984D01*
X7748753Y-14039984D02*
X7739229Y-14030460D01*
X7739229Y-14030460D02*
X7748753Y-14020936D01*
X7748753Y-14020936D02*
X7748753Y-14039984D01*
X7882086Y-13839984D02*
X7901134Y-13839984D01*
X7901134Y-13839984D02*
X7920182Y-13849508D01*
X7920182Y-13849508D02*
X7929705Y-13859031D01*
X7929705Y-13859031D02*
X7939229Y-13878079D01*
X7939229Y-13878079D02*
X7948753Y-13916174D01*
X7948753Y-13916174D02*
X7948753Y-13963793D01*
X7948753Y-13963793D02*
X7939229Y-14001888D01*
X7939229Y-14001888D02*
X7929705Y-14020936D01*
X7929705Y-14020936D02*
X7920182Y-14030460D01*
X7920182Y-14030460D02*
X7901134Y-14039984D01*
X7901134Y-14039984D02*
X7882086Y-14039984D01*
X7882086Y-14039984D02*
X7863039Y-14030460D01*
X7863039Y-14030460D02*
X7853515Y-14020936D01*
X7853515Y-14020936D02*
X7843991Y-14001888D01*
X7843991Y-14001888D02*
X7834467Y-13963793D01*
X7834467Y-13963793D02*
X7834467Y-13916174D01*
X7834467Y-13916174D02*
X7843991Y-13878079D01*
X7843991Y-13878079D02*
X7853515Y-13859031D01*
X7853515Y-13859031D02*
X7863039Y-13849508D01*
X7863039Y-13849508D02*
X7882086Y-13839984D01*
X8072562Y-13839984D02*
X8091610Y-13839984D01*
X8091610Y-13839984D02*
X8110658Y-13849508D01*
X8110658Y-13849508D02*
X8120182Y-13859031D01*
X8120182Y-13859031D02*
X8129705Y-13878079D01*
X8129705Y-13878079D02*
X8139229Y-13916174D01*
X8139229Y-13916174D02*
X8139229Y-13963793D01*
X8139229Y-13963793D02*
X8129705Y-14001888D01*
X8129705Y-14001888D02*
X8120182Y-14020936D01*
X8120182Y-14020936D02*
X8110658Y-14030460D01*
X8110658Y-14030460D02*
X8091610Y-14039984D01*
X8091610Y-14039984D02*
X8072562Y-14039984D01*
X8072562Y-14039984D02*
X8053515Y-14030460D01*
X8053515Y-14030460D02*
X8043991Y-14020936D01*
X8043991Y-14020936D02*
X8034467Y-14001888D01*
X8034467Y-14001888D02*
X8024943Y-13963793D01*
X8024943Y-13963793D02*
X8024943Y-13916174D01*
X8024943Y-13916174D02*
X8034467Y-13878079D01*
X8034467Y-13878079D02*
X8043991Y-13859031D01*
X8043991Y-13859031D02*
X8053515Y-13849508D01*
X8053515Y-13849508D02*
X8072562Y-13839984D01*
X8263039Y-13839984D02*
X8282086Y-13839984D01*
X8282086Y-13839984D02*
X8301134Y-13849508D01*
X8301134Y-13849508D02*
X8310658Y-13859031D01*
X8310658Y-13859031D02*
X8320182Y-13878079D01*
X8320182Y-13878079D02*
X8329705Y-13916174D01*
X8329705Y-13916174D02*
X8329705Y-13963793D01*
X8329705Y-13963793D02*
X8320182Y-14001888D01*
X8320182Y-14001888D02*
X8310658Y-14020936D01*
X8310658Y-14020936D02*
X8301134Y-14030460D01*
X8301134Y-14030460D02*
X8282086Y-14039984D01*
X8282086Y-14039984D02*
X8263039Y-14039984D01*
X8263039Y-14039984D02*
X8243991Y-14030460D01*
X8243991Y-14030460D02*
X8234467Y-14020936D01*
X8234467Y-14020936D02*
X8224943Y-14001888D01*
X8224943Y-14001888D02*
X8215420Y-13963793D01*
X8215420Y-13963793D02*
X8215420Y-13916174D01*
X8215420Y-13916174D02*
X8224943Y-13878079D01*
X8224943Y-13878079D02*
X8234467Y-13859031D01*
X8234467Y-13859031D02*
X8243991Y-13849508D01*
X8243991Y-13849508D02*
X8263039Y-13839984D01*
X8415420Y-14039984D02*
X8415420Y-13906650D01*
X8415420Y-13925698D02*
X8424944Y-13916174D01*
X8424944Y-13916174D02*
X8443991Y-13906650D01*
X8443991Y-13906650D02*
X8472563Y-13906650D01*
X8472563Y-13906650D02*
X8491610Y-13916174D01*
X8491610Y-13916174D02*
X8501134Y-13935222D01*
X8501134Y-13935222D02*
X8501134Y-14039984D01*
X8501134Y-13935222D02*
X8510658Y-13916174D01*
X8510658Y-13916174D02*
X8529705Y-13906650D01*
X8529705Y-13906650D02*
X8558277Y-13906650D01*
X8558277Y-13906650D02*
X8577325Y-13916174D01*
X8577325Y-13916174D02*
X8586848Y-13935222D01*
X8586848Y-13935222D02*
X8586848Y-14039984D01*
X8682086Y-14039984D02*
X8682086Y-13906650D01*
X8682086Y-13925698D02*
X8691610Y-13916174D01*
X8691610Y-13916174D02*
X8710658Y-13906650D01*
X8710658Y-13906650D02*
X8739229Y-13906650D01*
X8739229Y-13906650D02*
X8758277Y-13916174D01*
X8758277Y-13916174D02*
X8767801Y-13935222D01*
X8767801Y-13935222D02*
X8767801Y-14039984D01*
X8767801Y-13935222D02*
X8777325Y-13916174D01*
X8777325Y-13916174D02*
X8796372Y-13906650D01*
X8796372Y-13906650D02*
X8824944Y-13906650D01*
X8824944Y-13906650D02*
X8843991Y-13916174D01*
X8843991Y-13916174D02*
X8853515Y-13935222D01*
X8853515Y-13935222D02*
X8853515Y-14039984D01*
X9243991Y-13830460D02*
X9072563Y-14087603D01*
X9501134Y-13839984D02*
X9520182Y-13839984D01*
X9520182Y-13839984D02*
X9539229Y-13849508D01*
X9539229Y-13849508D02*
X9548753Y-13859031D01*
X9548753Y-13859031D02*
X9558277Y-13878079D01*
X9558277Y-13878079D02*
X9567801Y-13916174D01*
X9567801Y-13916174D02*
X9567801Y-13963793D01*
X9567801Y-13963793D02*
X9558277Y-14001888D01*
X9558277Y-14001888D02*
X9548753Y-14020936D01*
X9548753Y-14020936D02*
X9539229Y-14030460D01*
X9539229Y-14030460D02*
X9520182Y-14039984D01*
X9520182Y-14039984D02*
X9501134Y-14039984D01*
X9501134Y-14039984D02*
X9482087Y-14030460D01*
X9482087Y-14030460D02*
X9472563Y-14020936D01*
X9472563Y-14020936D02*
X9463039Y-14001888D01*
X9463039Y-14001888D02*
X9453515Y-13963793D01*
X9453515Y-13963793D02*
X9453515Y-13916174D01*
X9453515Y-13916174D02*
X9463039Y-13878079D01*
X9463039Y-13878079D02*
X9472563Y-13859031D01*
X9472563Y-13859031D02*
X9482087Y-13849508D01*
X9482087Y-13849508D02*
X9501134Y-13839984D01*
X9653515Y-14020936D02*
X9663039Y-14030460D01*
X9663039Y-14030460D02*
X9653515Y-14039984D01*
X9653515Y-14039984D02*
X9643991Y-14030460D01*
X9643991Y-14030460D02*
X9653515Y-14020936D01*
X9653515Y-14020936D02*
X9653515Y-14039984D01*
X9786848Y-13839984D02*
X9805896Y-13839984D01*
X9805896Y-13839984D02*
X9824944Y-13849508D01*
X9824944Y-13849508D02*
X9834468Y-13859031D01*
X9834468Y-13859031D02*
X9843991Y-13878079D01*
X9843991Y-13878079D02*
X9853515Y-13916174D01*
X9853515Y-13916174D02*
X9853515Y-13963793D01*
X9853515Y-13963793D02*
X9843991Y-14001888D01*
X9843991Y-14001888D02*
X9834468Y-14020936D01*
X9834468Y-14020936D02*
X9824944Y-14030460D01*
X9824944Y-14030460D02*
X9805896Y-14039984D01*
X9805896Y-14039984D02*
X9786848Y-14039984D01*
X9786848Y-14039984D02*
X9767801Y-14030460D01*
X9767801Y-14030460D02*
X9758277Y-14020936D01*
X9758277Y-14020936D02*
X9748753Y-14001888D01*
X9748753Y-14001888D02*
X9739229Y-13963793D01*
X9739229Y-13963793D02*
X9739229Y-13916174D01*
X9739229Y-13916174D02*
X9748753Y-13878079D01*
X9748753Y-13878079D02*
X9758277Y-13859031D01*
X9758277Y-13859031D02*
X9767801Y-13849508D01*
X9767801Y-13849508D02*
X9786848Y-13839984D01*
X9920182Y-13839984D02*
X10043991Y-13839984D01*
X10043991Y-13839984D02*
X9977325Y-13916174D01*
X9977325Y-13916174D02*
X10005896Y-13916174D01*
X10005896Y-13916174D02*
X10024944Y-13925698D01*
X10024944Y-13925698D02*
X10034468Y-13935222D01*
X10034468Y-13935222D02*
X10043991Y-13954269D01*
X10043991Y-13954269D02*
X10043991Y-14001888D01*
X10043991Y-14001888D02*
X10034468Y-14020936D01*
X10034468Y-14020936D02*
X10024944Y-14030460D01*
X10024944Y-14030460D02*
X10005896Y-14039984D01*
X10005896Y-14039984D02*
X9948753Y-14039984D01*
X9948753Y-14039984D02*
X9929706Y-14030460D01*
X9929706Y-14030460D02*
X9920182Y-14020936D01*
X10139229Y-14039984D02*
X10177325Y-14039984D01*
X10177325Y-14039984D02*
X10196372Y-14030460D01*
X10196372Y-14030460D02*
X10205896Y-14020936D01*
X10205896Y-14020936D02*
X10224944Y-13992365D01*
X10224944Y-13992365D02*
X10234468Y-13954269D01*
X10234468Y-13954269D02*
X10234468Y-13878079D01*
X10234468Y-13878079D02*
X10224944Y-13859031D01*
X10224944Y-13859031D02*
X10215420Y-13849508D01*
X10215420Y-13849508D02*
X10196372Y-13839984D01*
X10196372Y-13839984D02*
X10158277Y-13839984D01*
X10158277Y-13839984D02*
X10139229Y-13849508D01*
X10139229Y-13849508D02*
X10129706Y-13859031D01*
X10129706Y-13859031D02*
X10120182Y-13878079D01*
X10120182Y-13878079D02*
X10120182Y-13925698D01*
X10120182Y-13925698D02*
X10129706Y-13944746D01*
X10129706Y-13944746D02*
X10139229Y-13954269D01*
X10139229Y-13954269D02*
X10158277Y-13963793D01*
X10158277Y-13963793D02*
X10196372Y-13963793D01*
X10196372Y-13963793D02*
X10215420Y-13954269D01*
X10215420Y-13954269D02*
X10224944Y-13944746D01*
X10224944Y-13944746D02*
X10234468Y-13925698D01*
X10405896Y-13906650D02*
X10405896Y-14039984D01*
X10358277Y-13830460D02*
X10310658Y-13973317D01*
X10310658Y-13973317D02*
X10434468Y-13973317D01*
X10501134Y-13839984D02*
X10501134Y-13878079D01*
X10577325Y-13839984D02*
X10577325Y-13878079D01*
X10872563Y-14116174D02*
X10863039Y-14106650D01*
X10863039Y-14106650D02*
X10843991Y-14078079D01*
X10843991Y-14078079D02*
X10834468Y-14059031D01*
X10834468Y-14059031D02*
X10824944Y-14030460D01*
X10824944Y-14030460D02*
X10815420Y-13982841D01*
X10815420Y-13982841D02*
X10815420Y-13944746D01*
X10815420Y-13944746D02*
X10824944Y-13897127D01*
X10824944Y-13897127D02*
X10834468Y-13868555D01*
X10834468Y-13868555D02*
X10843991Y-13849508D01*
X10843991Y-13849508D02*
X10863039Y-13820936D01*
X10863039Y-13820936D02*
X10872563Y-13811412D01*
X11034468Y-13906650D02*
X11034468Y-14039984D01*
X10986849Y-13830460D02*
X10939230Y-13973317D01*
X10939230Y-13973317D02*
X11063039Y-13973317D01*
X11291610Y-14039984D02*
X11291610Y-13839984D01*
X11377325Y-14039984D02*
X11377325Y-13935222D01*
X11377325Y-13935222D02*
X11367801Y-13916174D01*
X11367801Y-13916174D02*
X11348753Y-13906650D01*
X11348753Y-13906650D02*
X11320182Y-13906650D01*
X11320182Y-13906650D02*
X11301134Y-13916174D01*
X11301134Y-13916174D02*
X11291610Y-13925698D01*
X11501134Y-14039984D02*
X11482087Y-14030460D01*
X11482087Y-14030460D02*
X11472563Y-14020936D01*
X11472563Y-14020936D02*
X11463039Y-14001888D01*
X11463039Y-14001888D02*
X11463039Y-13944746D01*
X11463039Y-13944746D02*
X11472563Y-13925698D01*
X11472563Y-13925698D02*
X11482087Y-13916174D01*
X11482087Y-13916174D02*
X11501134Y-13906650D01*
X11501134Y-13906650D02*
X11529706Y-13906650D01*
X11529706Y-13906650D02*
X11548753Y-13916174D01*
X11548753Y-13916174D02*
X11558277Y-13925698D01*
X11558277Y-13925698D02*
X11567801Y-13944746D01*
X11567801Y-13944746D02*
X11567801Y-14001888D01*
X11567801Y-14001888D02*
X11558277Y-14020936D01*
X11558277Y-14020936D02*
X11548753Y-14030460D01*
X11548753Y-14030460D02*
X11529706Y-14039984D01*
X11529706Y-14039984D02*
X11501134Y-14039984D01*
X11682087Y-14039984D02*
X11663039Y-14030460D01*
X11663039Y-14030460D02*
X11653515Y-14011412D01*
X11653515Y-14011412D02*
X11653515Y-13839984D01*
X11834468Y-14030460D02*
X11815420Y-14039984D01*
X11815420Y-14039984D02*
X11777325Y-14039984D01*
X11777325Y-14039984D02*
X11758277Y-14030460D01*
X11758277Y-14030460D02*
X11748753Y-14011412D01*
X11748753Y-14011412D02*
X11748753Y-13935222D01*
X11748753Y-13935222D02*
X11758277Y-13916174D01*
X11758277Y-13916174D02*
X11777325Y-13906650D01*
X11777325Y-13906650D02*
X11815420Y-13906650D01*
X11815420Y-13906650D02*
X11834468Y-13916174D01*
X11834468Y-13916174D02*
X11843991Y-13935222D01*
X11843991Y-13935222D02*
X11843991Y-13954269D01*
X11843991Y-13954269D02*
X11748753Y-13973317D01*
X11920182Y-14030460D02*
X11939230Y-14039984D01*
X11939230Y-14039984D02*
X11977325Y-14039984D01*
X11977325Y-14039984D02*
X11996372Y-14030460D01*
X11996372Y-14030460D02*
X12005896Y-14011412D01*
X12005896Y-14011412D02*
X12005896Y-14001888D01*
X12005896Y-14001888D02*
X11996372Y-13982841D01*
X11996372Y-13982841D02*
X11977325Y-13973317D01*
X11977325Y-13973317D02*
X11948753Y-13973317D01*
X11948753Y-13973317D02*
X11929706Y-13963793D01*
X11929706Y-13963793D02*
X11920182Y-13944746D01*
X11920182Y-13944746D02*
X11920182Y-13935222D01*
X11920182Y-13935222D02*
X11929706Y-13916174D01*
X11929706Y-13916174D02*
X11948753Y-13906650D01*
X11948753Y-13906650D02*
X11977325Y-13906650D01*
X11977325Y-13906650D02*
X11996372Y-13916174D01*
X12072563Y-14116174D02*
X12082087Y-14106650D01*
X12082087Y-14106650D02*
X12101134Y-14078079D01*
X12101134Y-14078079D02*
X12110658Y-14059031D01*
X12110658Y-14059031D02*
X12120182Y-14030460D01*
X12120182Y-14030460D02*
X12129706Y-13982841D01*
X12129706Y-13982841D02*
X12129706Y-13944746D01*
X12129706Y-13944746D02*
X12120182Y-13897127D01*
X12120182Y-13897127D02*
X12110658Y-13868555D01*
X12110658Y-13868555D02*
X12101134Y-13849508D01*
X12101134Y-13849508D02*
X12082087Y-13820936D01*
X12082087Y-13820936D02*
X12072563Y-13811412D01*
D16*
X7187500Y-14157500D02*
X7297500Y-14267500D01*
X7297500Y-14157500D02*
X7187500Y-14267500D01*
X7297500Y-14212500D02*
G75*
G03*
X7297500Y-14212500I-55000J0D01*
G01*
D12*
X7663039Y-14303984D02*
X7548753Y-14303984D01*
X7605896Y-14303984D02*
X7605896Y-14103984D01*
X7605896Y-14103984D02*
X7586848Y-14132555D01*
X7586848Y-14132555D02*
X7567801Y-14151603D01*
X7567801Y-14151603D02*
X7548753Y-14161127D01*
X7748753Y-14284936D02*
X7758277Y-14294460D01*
X7758277Y-14294460D02*
X7748753Y-14303984D01*
X7748753Y-14303984D02*
X7739229Y-14294460D01*
X7739229Y-14294460D02*
X7748753Y-14284936D01*
X7748753Y-14284936D02*
X7748753Y-14303984D01*
X7948753Y-14303984D02*
X7834467Y-14303984D01*
X7891610Y-14303984D02*
X7891610Y-14103984D01*
X7891610Y-14103984D02*
X7872562Y-14132555D01*
X7872562Y-14132555D02*
X7853515Y-14151603D01*
X7853515Y-14151603D02*
X7834467Y-14161127D01*
X8072562Y-14103984D02*
X8091610Y-14103984D01*
X8091610Y-14103984D02*
X8110658Y-14113508D01*
X8110658Y-14113508D02*
X8120182Y-14123031D01*
X8120182Y-14123031D02*
X8129705Y-14142079D01*
X8129705Y-14142079D02*
X8139229Y-14180174D01*
X8139229Y-14180174D02*
X8139229Y-14227793D01*
X8139229Y-14227793D02*
X8129705Y-14265888D01*
X8129705Y-14265888D02*
X8120182Y-14284936D01*
X8120182Y-14284936D02*
X8110658Y-14294460D01*
X8110658Y-14294460D02*
X8091610Y-14303984D01*
X8091610Y-14303984D02*
X8072562Y-14303984D01*
X8072562Y-14303984D02*
X8053515Y-14294460D01*
X8053515Y-14294460D02*
X8043991Y-14284936D01*
X8043991Y-14284936D02*
X8034467Y-14265888D01*
X8034467Y-14265888D02*
X8024943Y-14227793D01*
X8024943Y-14227793D02*
X8024943Y-14180174D01*
X8024943Y-14180174D02*
X8034467Y-14142079D01*
X8034467Y-14142079D02*
X8043991Y-14123031D01*
X8043991Y-14123031D02*
X8053515Y-14113508D01*
X8053515Y-14113508D02*
X8072562Y-14103984D01*
X8263039Y-14103984D02*
X8282086Y-14103984D01*
X8282086Y-14103984D02*
X8301134Y-14113508D01*
X8301134Y-14113508D02*
X8310658Y-14123031D01*
X8310658Y-14123031D02*
X8320182Y-14142079D01*
X8320182Y-14142079D02*
X8329705Y-14180174D01*
X8329705Y-14180174D02*
X8329705Y-14227793D01*
X8329705Y-14227793D02*
X8320182Y-14265888D01*
X8320182Y-14265888D02*
X8310658Y-14284936D01*
X8310658Y-14284936D02*
X8301134Y-14294460D01*
X8301134Y-14294460D02*
X8282086Y-14303984D01*
X8282086Y-14303984D02*
X8263039Y-14303984D01*
X8263039Y-14303984D02*
X8243991Y-14294460D01*
X8243991Y-14294460D02*
X8234467Y-14284936D01*
X8234467Y-14284936D02*
X8224943Y-14265888D01*
X8224943Y-14265888D02*
X8215420Y-14227793D01*
X8215420Y-14227793D02*
X8215420Y-14180174D01*
X8215420Y-14180174D02*
X8224943Y-14142079D01*
X8224943Y-14142079D02*
X8234467Y-14123031D01*
X8234467Y-14123031D02*
X8243991Y-14113508D01*
X8243991Y-14113508D02*
X8263039Y-14103984D01*
X8415420Y-14303984D02*
X8415420Y-14170650D01*
X8415420Y-14189698D02*
X8424944Y-14180174D01*
X8424944Y-14180174D02*
X8443991Y-14170650D01*
X8443991Y-14170650D02*
X8472563Y-14170650D01*
X8472563Y-14170650D02*
X8491610Y-14180174D01*
X8491610Y-14180174D02*
X8501134Y-14199222D01*
X8501134Y-14199222D02*
X8501134Y-14303984D01*
X8501134Y-14199222D02*
X8510658Y-14180174D01*
X8510658Y-14180174D02*
X8529705Y-14170650D01*
X8529705Y-14170650D02*
X8558277Y-14170650D01*
X8558277Y-14170650D02*
X8577325Y-14180174D01*
X8577325Y-14180174D02*
X8586848Y-14199222D01*
X8586848Y-14199222D02*
X8586848Y-14303984D01*
X8682086Y-14303984D02*
X8682086Y-14170650D01*
X8682086Y-14189698D02*
X8691610Y-14180174D01*
X8691610Y-14180174D02*
X8710658Y-14170650D01*
X8710658Y-14170650D02*
X8739229Y-14170650D01*
X8739229Y-14170650D02*
X8758277Y-14180174D01*
X8758277Y-14180174D02*
X8767801Y-14199222D01*
X8767801Y-14199222D02*
X8767801Y-14303984D01*
X8767801Y-14199222D02*
X8777325Y-14180174D01*
X8777325Y-14180174D02*
X8796372Y-14170650D01*
X8796372Y-14170650D02*
X8824944Y-14170650D01*
X8824944Y-14170650D02*
X8843991Y-14180174D01*
X8843991Y-14180174D02*
X8853515Y-14199222D01*
X8853515Y-14199222D02*
X8853515Y-14303984D01*
X9243991Y-14094460D02*
X9072563Y-14351603D01*
X9501134Y-14103984D02*
X9520182Y-14103984D01*
X9520182Y-14103984D02*
X9539229Y-14113508D01*
X9539229Y-14113508D02*
X9548753Y-14123031D01*
X9548753Y-14123031D02*
X9558277Y-14142079D01*
X9558277Y-14142079D02*
X9567801Y-14180174D01*
X9567801Y-14180174D02*
X9567801Y-14227793D01*
X9567801Y-14227793D02*
X9558277Y-14265888D01*
X9558277Y-14265888D02*
X9548753Y-14284936D01*
X9548753Y-14284936D02*
X9539229Y-14294460D01*
X9539229Y-14294460D02*
X9520182Y-14303984D01*
X9520182Y-14303984D02*
X9501134Y-14303984D01*
X9501134Y-14303984D02*
X9482087Y-14294460D01*
X9482087Y-14294460D02*
X9472563Y-14284936D01*
X9472563Y-14284936D02*
X9463039Y-14265888D01*
X9463039Y-14265888D02*
X9453515Y-14227793D01*
X9453515Y-14227793D02*
X9453515Y-14180174D01*
X9453515Y-14180174D02*
X9463039Y-14142079D01*
X9463039Y-14142079D02*
X9472563Y-14123031D01*
X9472563Y-14123031D02*
X9482087Y-14113508D01*
X9482087Y-14113508D02*
X9501134Y-14103984D01*
X9653515Y-14284936D02*
X9663039Y-14294460D01*
X9663039Y-14294460D02*
X9653515Y-14303984D01*
X9653515Y-14303984D02*
X9643991Y-14294460D01*
X9643991Y-14294460D02*
X9653515Y-14284936D01*
X9653515Y-14284936D02*
X9653515Y-14303984D01*
X9786848Y-14103984D02*
X9805896Y-14103984D01*
X9805896Y-14103984D02*
X9824944Y-14113508D01*
X9824944Y-14113508D02*
X9834468Y-14123031D01*
X9834468Y-14123031D02*
X9843991Y-14142079D01*
X9843991Y-14142079D02*
X9853515Y-14180174D01*
X9853515Y-14180174D02*
X9853515Y-14227793D01*
X9853515Y-14227793D02*
X9843991Y-14265888D01*
X9843991Y-14265888D02*
X9834468Y-14284936D01*
X9834468Y-14284936D02*
X9824944Y-14294460D01*
X9824944Y-14294460D02*
X9805896Y-14303984D01*
X9805896Y-14303984D02*
X9786848Y-14303984D01*
X9786848Y-14303984D02*
X9767801Y-14294460D01*
X9767801Y-14294460D02*
X9758277Y-14284936D01*
X9758277Y-14284936D02*
X9748753Y-14265888D01*
X9748753Y-14265888D02*
X9739229Y-14227793D01*
X9739229Y-14227793D02*
X9739229Y-14180174D01*
X9739229Y-14180174D02*
X9748753Y-14142079D01*
X9748753Y-14142079D02*
X9758277Y-14123031D01*
X9758277Y-14123031D02*
X9767801Y-14113508D01*
X9767801Y-14113508D02*
X9786848Y-14103984D01*
X10024944Y-14170650D02*
X10024944Y-14303984D01*
X9977325Y-14094460D02*
X9929706Y-14237317D01*
X9929706Y-14237317D02*
X10053515Y-14237317D01*
X10110658Y-14103984D02*
X10234468Y-14103984D01*
X10234468Y-14103984D02*
X10167801Y-14180174D01*
X10167801Y-14180174D02*
X10196372Y-14180174D01*
X10196372Y-14180174D02*
X10215420Y-14189698D01*
X10215420Y-14189698D02*
X10224944Y-14199222D01*
X10224944Y-14199222D02*
X10234468Y-14218269D01*
X10234468Y-14218269D02*
X10234468Y-14265888D01*
X10234468Y-14265888D02*
X10224944Y-14284936D01*
X10224944Y-14284936D02*
X10215420Y-14294460D01*
X10215420Y-14294460D02*
X10196372Y-14303984D01*
X10196372Y-14303984D02*
X10139229Y-14303984D01*
X10139229Y-14303984D02*
X10120182Y-14294460D01*
X10120182Y-14294460D02*
X10110658Y-14284936D01*
X10301134Y-14103984D02*
X10424944Y-14103984D01*
X10424944Y-14103984D02*
X10358277Y-14180174D01*
X10358277Y-14180174D02*
X10386849Y-14180174D01*
X10386849Y-14180174D02*
X10405896Y-14189698D01*
X10405896Y-14189698D02*
X10415420Y-14199222D01*
X10415420Y-14199222D02*
X10424944Y-14218269D01*
X10424944Y-14218269D02*
X10424944Y-14265888D01*
X10424944Y-14265888D02*
X10415420Y-14284936D01*
X10415420Y-14284936D02*
X10405896Y-14294460D01*
X10405896Y-14294460D02*
X10386849Y-14303984D01*
X10386849Y-14303984D02*
X10329706Y-14303984D01*
X10329706Y-14303984D02*
X10310658Y-14294460D01*
X10310658Y-14294460D02*
X10301134Y-14284936D01*
X10501134Y-14103984D02*
X10501134Y-14142079D01*
X10577325Y-14103984D02*
X10577325Y-14142079D01*
X10872563Y-14380174D02*
X10863039Y-14370650D01*
X10863039Y-14370650D02*
X10843991Y-14342079D01*
X10843991Y-14342079D02*
X10834468Y-14323031D01*
X10834468Y-14323031D02*
X10824944Y-14294460D01*
X10824944Y-14294460D02*
X10815420Y-14246841D01*
X10815420Y-14246841D02*
X10815420Y-14208746D01*
X10815420Y-14208746D02*
X10824944Y-14161127D01*
X10824944Y-14161127D02*
X10834468Y-14132555D01*
X10834468Y-14132555D02*
X10843991Y-14113508D01*
X10843991Y-14113508D02*
X10863039Y-14084936D01*
X10863039Y-14084936D02*
X10872563Y-14075412D01*
X10929706Y-14103984D02*
X11053515Y-14103984D01*
X11053515Y-14103984D02*
X10986849Y-14180174D01*
X10986849Y-14180174D02*
X11015420Y-14180174D01*
X11015420Y-14180174D02*
X11034468Y-14189698D01*
X11034468Y-14189698D02*
X11043991Y-14199222D01*
X11043991Y-14199222D02*
X11053515Y-14218269D01*
X11053515Y-14218269D02*
X11053515Y-14265888D01*
X11053515Y-14265888D02*
X11043991Y-14284936D01*
X11043991Y-14284936D02*
X11034468Y-14294460D01*
X11034468Y-14294460D02*
X11015420Y-14303984D01*
X11015420Y-14303984D02*
X10958277Y-14303984D01*
X10958277Y-14303984D02*
X10939230Y-14294460D01*
X10939230Y-14294460D02*
X10929706Y-14284936D01*
X11291610Y-14303984D02*
X11291610Y-14103984D01*
X11377325Y-14303984D02*
X11377325Y-14199222D01*
X11377325Y-14199222D02*
X11367801Y-14180174D01*
X11367801Y-14180174D02*
X11348753Y-14170650D01*
X11348753Y-14170650D02*
X11320182Y-14170650D01*
X11320182Y-14170650D02*
X11301134Y-14180174D01*
X11301134Y-14180174D02*
X11291610Y-14189698D01*
X11501134Y-14303984D02*
X11482087Y-14294460D01*
X11482087Y-14294460D02*
X11472563Y-14284936D01*
X11472563Y-14284936D02*
X11463039Y-14265888D01*
X11463039Y-14265888D02*
X11463039Y-14208746D01*
X11463039Y-14208746D02*
X11472563Y-14189698D01*
X11472563Y-14189698D02*
X11482087Y-14180174D01*
X11482087Y-14180174D02*
X11501134Y-14170650D01*
X11501134Y-14170650D02*
X11529706Y-14170650D01*
X11529706Y-14170650D02*
X11548753Y-14180174D01*
X11548753Y-14180174D02*
X11558277Y-14189698D01*
X11558277Y-14189698D02*
X11567801Y-14208746D01*
X11567801Y-14208746D02*
X11567801Y-14265888D01*
X11567801Y-14265888D02*
X11558277Y-14284936D01*
X11558277Y-14284936D02*
X11548753Y-14294460D01*
X11548753Y-14294460D02*
X11529706Y-14303984D01*
X11529706Y-14303984D02*
X11501134Y-14303984D01*
X11682087Y-14303984D02*
X11663039Y-14294460D01*
X11663039Y-14294460D02*
X11653515Y-14275412D01*
X11653515Y-14275412D02*
X11653515Y-14103984D01*
X11834468Y-14294460D02*
X11815420Y-14303984D01*
X11815420Y-14303984D02*
X11777325Y-14303984D01*
X11777325Y-14303984D02*
X11758277Y-14294460D01*
X11758277Y-14294460D02*
X11748753Y-14275412D01*
X11748753Y-14275412D02*
X11748753Y-14199222D01*
X11748753Y-14199222D02*
X11758277Y-14180174D01*
X11758277Y-14180174D02*
X11777325Y-14170650D01*
X11777325Y-14170650D02*
X11815420Y-14170650D01*
X11815420Y-14170650D02*
X11834468Y-14180174D01*
X11834468Y-14180174D02*
X11843991Y-14199222D01*
X11843991Y-14199222D02*
X11843991Y-14218269D01*
X11843991Y-14218269D02*
X11748753Y-14237317D01*
X11920182Y-14294460D02*
X11939230Y-14303984D01*
X11939230Y-14303984D02*
X11977325Y-14303984D01*
X11977325Y-14303984D02*
X11996372Y-14294460D01*
X11996372Y-14294460D02*
X12005896Y-14275412D01*
X12005896Y-14275412D02*
X12005896Y-14265888D01*
X12005896Y-14265888D02*
X11996372Y-14246841D01*
X11996372Y-14246841D02*
X11977325Y-14237317D01*
X11977325Y-14237317D02*
X11948753Y-14237317D01*
X11948753Y-14237317D02*
X11929706Y-14227793D01*
X11929706Y-14227793D02*
X11920182Y-14208746D01*
X11920182Y-14208746D02*
X11920182Y-14199222D01*
X11920182Y-14199222D02*
X11929706Y-14180174D01*
X11929706Y-14180174D02*
X11948753Y-14170650D01*
X11948753Y-14170650D02*
X11977325Y-14170650D01*
X11977325Y-14170650D02*
X11996372Y-14180174D01*
X12072563Y-14380174D02*
X12082087Y-14370650D01*
X12082087Y-14370650D02*
X12101134Y-14342079D01*
X12101134Y-14342079D02*
X12110658Y-14323031D01*
X12110658Y-14323031D02*
X12120182Y-14294460D01*
X12120182Y-14294460D02*
X12129706Y-14246841D01*
X12129706Y-14246841D02*
X12129706Y-14208746D01*
X12129706Y-14208746D02*
X12120182Y-14161127D01*
X12120182Y-14161127D02*
X12110658Y-14132555D01*
X12110658Y-14132555D02*
X12101134Y-14113508D01*
X12101134Y-14113508D02*
X12082087Y-14084936D01*
X12082087Y-14084936D02*
X12072563Y-14075412D01*
D17*
X7099500Y-14377500D02*
X7297500Y-14575500D01*
X7297500Y-14377500D02*
X7099500Y-14575500D01*
X7198500Y-14377500D02*
X7198500Y-14575500D01*
X7099500Y-14476500D02*
X7297500Y-14476500D01*
D12*
X7663039Y-14567984D02*
X7548753Y-14567984D01*
X7605896Y-14567984D02*
X7605896Y-14367984D01*
X7605896Y-14367984D02*
X7586848Y-14396555D01*
X7586848Y-14396555D02*
X7567801Y-14415603D01*
X7567801Y-14415603D02*
X7548753Y-14425127D01*
X7748753Y-14548936D02*
X7758277Y-14558460D01*
X7758277Y-14558460D02*
X7748753Y-14567984D01*
X7748753Y-14567984D02*
X7739229Y-14558460D01*
X7739229Y-14558460D02*
X7748753Y-14548936D01*
X7748753Y-14548936D02*
X7748753Y-14567984D01*
X7853515Y-14567984D02*
X7891610Y-14567984D01*
X7891610Y-14567984D02*
X7910658Y-14558460D01*
X7910658Y-14558460D02*
X7920182Y-14548936D01*
X7920182Y-14548936D02*
X7939229Y-14520365D01*
X7939229Y-14520365D02*
X7948753Y-14482269D01*
X7948753Y-14482269D02*
X7948753Y-14406079D01*
X7948753Y-14406079D02*
X7939229Y-14387031D01*
X7939229Y-14387031D02*
X7929705Y-14377508D01*
X7929705Y-14377508D02*
X7910658Y-14367984D01*
X7910658Y-14367984D02*
X7872562Y-14367984D01*
X7872562Y-14367984D02*
X7853515Y-14377508D01*
X7853515Y-14377508D02*
X7843991Y-14387031D01*
X7843991Y-14387031D02*
X7834467Y-14406079D01*
X7834467Y-14406079D02*
X7834467Y-14453698D01*
X7834467Y-14453698D02*
X7843991Y-14472746D01*
X7843991Y-14472746D02*
X7853515Y-14482269D01*
X7853515Y-14482269D02*
X7872562Y-14491793D01*
X7872562Y-14491793D02*
X7910658Y-14491793D01*
X7910658Y-14491793D02*
X7929705Y-14482269D01*
X7929705Y-14482269D02*
X7939229Y-14472746D01*
X7939229Y-14472746D02*
X7948753Y-14453698D01*
X8063039Y-14453698D02*
X8043991Y-14444174D01*
X8043991Y-14444174D02*
X8034467Y-14434650D01*
X8034467Y-14434650D02*
X8024943Y-14415603D01*
X8024943Y-14415603D02*
X8024943Y-14406079D01*
X8024943Y-14406079D02*
X8034467Y-14387031D01*
X8034467Y-14387031D02*
X8043991Y-14377508D01*
X8043991Y-14377508D02*
X8063039Y-14367984D01*
X8063039Y-14367984D02*
X8101134Y-14367984D01*
X8101134Y-14367984D02*
X8120182Y-14377508D01*
X8120182Y-14377508D02*
X8129705Y-14387031D01*
X8129705Y-14387031D02*
X8139229Y-14406079D01*
X8139229Y-14406079D02*
X8139229Y-14415603D01*
X8139229Y-14415603D02*
X8129705Y-14434650D01*
X8129705Y-14434650D02*
X8120182Y-14444174D01*
X8120182Y-14444174D02*
X8101134Y-14453698D01*
X8101134Y-14453698D02*
X8063039Y-14453698D01*
X8063039Y-14453698D02*
X8043991Y-14463222D01*
X8043991Y-14463222D02*
X8034467Y-14472746D01*
X8034467Y-14472746D02*
X8024943Y-14491793D01*
X8024943Y-14491793D02*
X8024943Y-14529888D01*
X8024943Y-14529888D02*
X8034467Y-14548936D01*
X8034467Y-14548936D02*
X8043991Y-14558460D01*
X8043991Y-14558460D02*
X8063039Y-14567984D01*
X8063039Y-14567984D02*
X8101134Y-14567984D01*
X8101134Y-14567984D02*
X8120182Y-14558460D01*
X8120182Y-14558460D02*
X8129705Y-14548936D01*
X8129705Y-14548936D02*
X8139229Y-14529888D01*
X8139229Y-14529888D02*
X8139229Y-14491793D01*
X8139229Y-14491793D02*
X8129705Y-14472746D01*
X8129705Y-14472746D02*
X8120182Y-14463222D01*
X8120182Y-14463222D02*
X8101134Y-14453698D01*
X8263039Y-14367984D02*
X8282086Y-14367984D01*
X8282086Y-14367984D02*
X8301134Y-14377508D01*
X8301134Y-14377508D02*
X8310658Y-14387031D01*
X8310658Y-14387031D02*
X8320182Y-14406079D01*
X8320182Y-14406079D02*
X8329705Y-14444174D01*
X8329705Y-14444174D02*
X8329705Y-14491793D01*
X8329705Y-14491793D02*
X8320182Y-14529888D01*
X8320182Y-14529888D02*
X8310658Y-14548936D01*
X8310658Y-14548936D02*
X8301134Y-14558460D01*
X8301134Y-14558460D02*
X8282086Y-14567984D01*
X8282086Y-14567984D02*
X8263039Y-14567984D01*
X8263039Y-14567984D02*
X8243991Y-14558460D01*
X8243991Y-14558460D02*
X8234467Y-14548936D01*
X8234467Y-14548936D02*
X8224943Y-14529888D01*
X8224943Y-14529888D02*
X8215420Y-14491793D01*
X8215420Y-14491793D02*
X8215420Y-14444174D01*
X8215420Y-14444174D02*
X8224943Y-14406079D01*
X8224943Y-14406079D02*
X8234467Y-14387031D01*
X8234467Y-14387031D02*
X8243991Y-14377508D01*
X8243991Y-14377508D02*
X8263039Y-14367984D01*
X8415420Y-14567984D02*
X8415420Y-14434650D01*
X8415420Y-14453698D02*
X8424944Y-14444174D01*
X8424944Y-14444174D02*
X8443991Y-14434650D01*
X8443991Y-14434650D02*
X8472563Y-14434650D01*
X8472563Y-14434650D02*
X8491610Y-14444174D01*
X8491610Y-14444174D02*
X8501134Y-14463222D01*
X8501134Y-14463222D02*
X8501134Y-14567984D01*
X8501134Y-14463222D02*
X8510658Y-14444174D01*
X8510658Y-14444174D02*
X8529705Y-14434650D01*
X8529705Y-14434650D02*
X8558277Y-14434650D01*
X8558277Y-14434650D02*
X8577325Y-14444174D01*
X8577325Y-14444174D02*
X8586848Y-14463222D01*
X8586848Y-14463222D02*
X8586848Y-14567984D01*
X8682086Y-14567984D02*
X8682086Y-14434650D01*
X8682086Y-14453698D02*
X8691610Y-14444174D01*
X8691610Y-14444174D02*
X8710658Y-14434650D01*
X8710658Y-14434650D02*
X8739229Y-14434650D01*
X8739229Y-14434650D02*
X8758277Y-14444174D01*
X8758277Y-14444174D02*
X8767801Y-14463222D01*
X8767801Y-14463222D02*
X8767801Y-14567984D01*
X8767801Y-14463222D02*
X8777325Y-14444174D01*
X8777325Y-14444174D02*
X8796372Y-14434650D01*
X8796372Y-14434650D02*
X8824944Y-14434650D01*
X8824944Y-14434650D02*
X8843991Y-14444174D01*
X8843991Y-14444174D02*
X8853515Y-14463222D01*
X8853515Y-14463222D02*
X8853515Y-14567984D01*
X9243991Y-14358460D02*
X9072563Y-14615603D01*
X9501134Y-14367984D02*
X9520182Y-14367984D01*
X9520182Y-14367984D02*
X9539229Y-14377508D01*
X9539229Y-14377508D02*
X9548753Y-14387031D01*
X9548753Y-14387031D02*
X9558277Y-14406079D01*
X9558277Y-14406079D02*
X9567801Y-14444174D01*
X9567801Y-14444174D02*
X9567801Y-14491793D01*
X9567801Y-14491793D02*
X9558277Y-14529888D01*
X9558277Y-14529888D02*
X9548753Y-14548936D01*
X9548753Y-14548936D02*
X9539229Y-14558460D01*
X9539229Y-14558460D02*
X9520182Y-14567984D01*
X9520182Y-14567984D02*
X9501134Y-14567984D01*
X9501134Y-14567984D02*
X9482087Y-14558460D01*
X9482087Y-14558460D02*
X9472563Y-14548936D01*
X9472563Y-14548936D02*
X9463039Y-14529888D01*
X9463039Y-14529888D02*
X9453515Y-14491793D01*
X9453515Y-14491793D02*
X9453515Y-14444174D01*
X9453515Y-14444174D02*
X9463039Y-14406079D01*
X9463039Y-14406079D02*
X9472563Y-14387031D01*
X9472563Y-14387031D02*
X9482087Y-14377508D01*
X9482087Y-14377508D02*
X9501134Y-14367984D01*
X9653515Y-14548936D02*
X9663039Y-14558460D01*
X9663039Y-14558460D02*
X9653515Y-14567984D01*
X9653515Y-14567984D02*
X9643991Y-14558460D01*
X9643991Y-14558460D02*
X9653515Y-14548936D01*
X9653515Y-14548936D02*
X9653515Y-14567984D01*
X9786848Y-14367984D02*
X9805896Y-14367984D01*
X9805896Y-14367984D02*
X9824944Y-14377508D01*
X9824944Y-14377508D02*
X9834468Y-14387031D01*
X9834468Y-14387031D02*
X9843991Y-14406079D01*
X9843991Y-14406079D02*
X9853515Y-14444174D01*
X9853515Y-14444174D02*
X9853515Y-14491793D01*
X9853515Y-14491793D02*
X9843991Y-14529888D01*
X9843991Y-14529888D02*
X9834468Y-14548936D01*
X9834468Y-14548936D02*
X9824944Y-14558460D01*
X9824944Y-14558460D02*
X9805896Y-14567984D01*
X9805896Y-14567984D02*
X9786848Y-14567984D01*
X9786848Y-14567984D02*
X9767801Y-14558460D01*
X9767801Y-14558460D02*
X9758277Y-14548936D01*
X9758277Y-14548936D02*
X9748753Y-14529888D01*
X9748753Y-14529888D02*
X9739229Y-14491793D01*
X9739229Y-14491793D02*
X9739229Y-14444174D01*
X9739229Y-14444174D02*
X9748753Y-14406079D01*
X9748753Y-14406079D02*
X9758277Y-14387031D01*
X9758277Y-14387031D02*
X9767801Y-14377508D01*
X9767801Y-14377508D02*
X9786848Y-14367984D01*
X9920182Y-14367984D02*
X10053515Y-14367984D01*
X10053515Y-14367984D02*
X9967801Y-14567984D01*
X10158277Y-14453698D02*
X10139229Y-14444174D01*
X10139229Y-14444174D02*
X10129706Y-14434650D01*
X10129706Y-14434650D02*
X10120182Y-14415603D01*
X10120182Y-14415603D02*
X10120182Y-14406079D01*
X10120182Y-14406079D02*
X10129706Y-14387031D01*
X10129706Y-14387031D02*
X10139229Y-14377508D01*
X10139229Y-14377508D02*
X10158277Y-14367984D01*
X10158277Y-14367984D02*
X10196372Y-14367984D01*
X10196372Y-14367984D02*
X10215420Y-14377508D01*
X10215420Y-14377508D02*
X10224944Y-14387031D01*
X10224944Y-14387031D02*
X10234468Y-14406079D01*
X10234468Y-14406079D02*
X10234468Y-14415603D01*
X10234468Y-14415603D02*
X10224944Y-14434650D01*
X10224944Y-14434650D02*
X10215420Y-14444174D01*
X10215420Y-14444174D02*
X10196372Y-14453698D01*
X10196372Y-14453698D02*
X10158277Y-14453698D01*
X10158277Y-14453698D02*
X10139229Y-14463222D01*
X10139229Y-14463222D02*
X10129706Y-14472746D01*
X10129706Y-14472746D02*
X10120182Y-14491793D01*
X10120182Y-14491793D02*
X10120182Y-14529888D01*
X10120182Y-14529888D02*
X10129706Y-14548936D01*
X10129706Y-14548936D02*
X10139229Y-14558460D01*
X10139229Y-14558460D02*
X10158277Y-14567984D01*
X10158277Y-14567984D02*
X10196372Y-14567984D01*
X10196372Y-14567984D02*
X10215420Y-14558460D01*
X10215420Y-14558460D02*
X10224944Y-14548936D01*
X10224944Y-14548936D02*
X10234468Y-14529888D01*
X10234468Y-14529888D02*
X10234468Y-14491793D01*
X10234468Y-14491793D02*
X10224944Y-14472746D01*
X10224944Y-14472746D02*
X10215420Y-14463222D01*
X10215420Y-14463222D02*
X10196372Y-14453698D01*
X10358277Y-14367984D02*
X10377325Y-14367984D01*
X10377325Y-14367984D02*
X10396372Y-14377508D01*
X10396372Y-14377508D02*
X10405896Y-14387031D01*
X10405896Y-14387031D02*
X10415420Y-14406079D01*
X10415420Y-14406079D02*
X10424944Y-14444174D01*
X10424944Y-14444174D02*
X10424944Y-14491793D01*
X10424944Y-14491793D02*
X10415420Y-14529888D01*
X10415420Y-14529888D02*
X10405896Y-14548936D01*
X10405896Y-14548936D02*
X10396372Y-14558460D01*
X10396372Y-14558460D02*
X10377325Y-14567984D01*
X10377325Y-14567984D02*
X10358277Y-14567984D01*
X10358277Y-14567984D02*
X10339229Y-14558460D01*
X10339229Y-14558460D02*
X10329706Y-14548936D01*
X10329706Y-14548936D02*
X10320182Y-14529888D01*
X10320182Y-14529888D02*
X10310658Y-14491793D01*
X10310658Y-14491793D02*
X10310658Y-14444174D01*
X10310658Y-14444174D02*
X10320182Y-14406079D01*
X10320182Y-14406079D02*
X10329706Y-14387031D01*
X10329706Y-14387031D02*
X10339229Y-14377508D01*
X10339229Y-14377508D02*
X10358277Y-14367984D01*
X10501134Y-14367984D02*
X10501134Y-14406079D01*
X10577325Y-14367984D02*
X10577325Y-14406079D01*
X10872563Y-14644174D02*
X10863039Y-14634650D01*
X10863039Y-14634650D02*
X10843991Y-14606079D01*
X10843991Y-14606079D02*
X10834468Y-14587031D01*
X10834468Y-14587031D02*
X10824944Y-14558460D01*
X10824944Y-14558460D02*
X10815420Y-14510841D01*
X10815420Y-14510841D02*
X10815420Y-14472746D01*
X10815420Y-14472746D02*
X10824944Y-14425127D01*
X10824944Y-14425127D02*
X10834468Y-14396555D01*
X10834468Y-14396555D02*
X10843991Y-14377508D01*
X10843991Y-14377508D02*
X10863039Y-14348936D01*
X10863039Y-14348936D02*
X10872563Y-14339412D01*
X11034468Y-14434650D02*
X11034468Y-14567984D01*
X10986849Y-14358460D02*
X10939230Y-14501317D01*
X10939230Y-14501317D02*
X11063039Y-14501317D01*
X11291610Y-14567984D02*
X11291610Y-14367984D01*
X11377325Y-14567984D02*
X11377325Y-14463222D01*
X11377325Y-14463222D02*
X11367801Y-14444174D01*
X11367801Y-14444174D02*
X11348753Y-14434650D01*
X11348753Y-14434650D02*
X11320182Y-14434650D01*
X11320182Y-14434650D02*
X11301134Y-14444174D01*
X11301134Y-14444174D02*
X11291610Y-14453698D01*
X11501134Y-14567984D02*
X11482087Y-14558460D01*
X11482087Y-14558460D02*
X11472563Y-14548936D01*
X11472563Y-14548936D02*
X11463039Y-14529888D01*
X11463039Y-14529888D02*
X11463039Y-14472746D01*
X11463039Y-14472746D02*
X11472563Y-14453698D01*
X11472563Y-14453698D02*
X11482087Y-14444174D01*
X11482087Y-14444174D02*
X11501134Y-14434650D01*
X11501134Y-14434650D02*
X11529706Y-14434650D01*
X11529706Y-14434650D02*
X11548753Y-14444174D01*
X11548753Y-14444174D02*
X11558277Y-14453698D01*
X11558277Y-14453698D02*
X11567801Y-14472746D01*
X11567801Y-14472746D02*
X11567801Y-14529888D01*
X11567801Y-14529888D02*
X11558277Y-14548936D01*
X11558277Y-14548936D02*
X11548753Y-14558460D01*
X11548753Y-14558460D02*
X11529706Y-14567984D01*
X11529706Y-14567984D02*
X11501134Y-14567984D01*
X11682087Y-14567984D02*
X11663039Y-14558460D01*
X11663039Y-14558460D02*
X11653515Y-14539412D01*
X11653515Y-14539412D02*
X11653515Y-14367984D01*
X11834468Y-14558460D02*
X11815420Y-14567984D01*
X11815420Y-14567984D02*
X11777325Y-14567984D01*
X11777325Y-14567984D02*
X11758277Y-14558460D01*
X11758277Y-14558460D02*
X11748753Y-14539412D01*
X11748753Y-14539412D02*
X11748753Y-14463222D01*
X11748753Y-14463222D02*
X11758277Y-14444174D01*
X11758277Y-14444174D02*
X11777325Y-14434650D01*
X11777325Y-14434650D02*
X11815420Y-14434650D01*
X11815420Y-14434650D02*
X11834468Y-14444174D01*
X11834468Y-14444174D02*
X11843991Y-14463222D01*
X11843991Y-14463222D02*
X11843991Y-14482269D01*
X11843991Y-14482269D02*
X11748753Y-14501317D01*
X11920182Y-14558460D02*
X11939230Y-14567984D01*
X11939230Y-14567984D02*
X11977325Y-14567984D01*
X11977325Y-14567984D02*
X11996372Y-14558460D01*
X11996372Y-14558460D02*
X12005896Y-14539412D01*
X12005896Y-14539412D02*
X12005896Y-14529888D01*
X12005896Y-14529888D02*
X11996372Y-14510841D01*
X11996372Y-14510841D02*
X11977325Y-14501317D01*
X11977325Y-14501317D02*
X11948753Y-14501317D01*
X11948753Y-14501317D02*
X11929706Y-14491793D01*
X11929706Y-14491793D02*
X11920182Y-14472746D01*
X11920182Y-14472746D02*
X11920182Y-14463222D01*
X11920182Y-14463222D02*
X11929706Y-14444174D01*
X11929706Y-14444174D02*
X11948753Y-14434650D01*
X11948753Y-14434650D02*
X11977325Y-14434650D01*
X11977325Y-14434650D02*
X11996372Y-14444174D01*
X12072563Y-14644174D02*
X12082087Y-14634650D01*
X12082087Y-14634650D02*
X12101134Y-14606079D01*
X12101134Y-14606079D02*
X12110658Y-14587031D01*
X12110658Y-14587031D02*
X12120182Y-14558460D01*
X12120182Y-14558460D02*
X12129706Y-14510841D01*
X12129706Y-14510841D02*
X12129706Y-14472746D01*
X12129706Y-14472746D02*
X12120182Y-14425127D01*
X12120182Y-14425127D02*
X12110658Y-14396555D01*
X12110658Y-14396555D02*
X12101134Y-14377508D01*
X12101134Y-14377508D02*
X12082087Y-14348936D01*
X12082087Y-14348936D02*
X12072563Y-14339412D01*
M02*
