G04 #@! TF.GenerationSoftware,KiCad,Pcbnew,7.0.6*
G04 #@! TF.CreationDate,2023-11-30T23:32:02-05:00*
G04 #@! TF.ProjectId,TeslaCoil,5465736c-6143-46f6-996c-2e6b69636164,rev?*
G04 #@! TF.SameCoordinates,Original*
G04 #@! TF.FileFunction,Copper,L2,Bot*
G04 #@! TF.FilePolarity,Positive*
%FSLAX46Y46*%
G04 Gerber Fmt 4.6, Leading zero omitted, Abs format (unit mm)*
G04 Created by KiCad (PCBNEW 7.0.6) date 2023-11-30 23:32:02*
%MOMM*%
%LPD*%
G01*
G04 APERTURE LIST*
G04 Aperture macros list*
%AMRoundRect*
0 Rectangle with rounded corners*
0 $1 Rounding radius*
0 $2 $3 $4 $5 $6 $7 $8 $9 X,Y pos of 4 corners*
0 Add a 4 corners polygon primitive as box body*
4,1,4,$2,$3,$4,$5,$6,$7,$8,$9,$2,$3,0*
0 Add four circle primitives for the rounded corners*
1,1,$1+$1,$2,$3*
1,1,$1+$1,$4,$5*
1,1,$1+$1,$6,$7*
1,1,$1+$1,$8,$9*
0 Add four rect primitives between the rounded corners*
20,1,$1+$1,$2,$3,$4,$5,0*
20,1,$1+$1,$4,$5,$6,$7,0*
20,1,$1+$1,$6,$7,$8,$9,0*
20,1,$1+$1,$8,$9,$2,$3,0*%
G04 Aperture macros list end*
G04 #@! TA.AperFunction,ComponentPad*
%ADD10C,1.000000*%
G04 #@! TD*
G04 #@! TA.AperFunction,ComponentPad*
%ADD11R,0.850000X0.850000*%
G04 #@! TD*
G04 #@! TA.AperFunction,ComponentPad*
%ADD12O,0.850000X0.850000*%
G04 #@! TD*
G04 #@! TA.AperFunction,ComponentPad*
%ADD13RoundRect,0.750000X0.750000X0.750000X-0.750000X0.750000X-0.750000X-0.750000X0.750000X-0.750000X0*%
G04 #@! TD*
G04 #@! TA.AperFunction,ComponentPad*
%ADD14C,3.000000*%
G04 #@! TD*
G04 #@! TA.AperFunction,ComponentPad*
%ADD15R,2.000000X2.000000*%
G04 #@! TD*
G04 #@! TA.AperFunction,ComponentPad*
%ADD16C,2.000000*%
G04 #@! TD*
G04 #@! TA.AperFunction,ComponentPad*
%ADD17C,2.100000*%
G04 #@! TD*
G04 #@! TA.AperFunction,ComponentPad*
%ADD18RoundRect,0.250001X-0.799999X0.799999X-0.799999X-0.799999X0.799999X-0.799999X0.799999X0.799999X0*%
G04 #@! TD*
G04 #@! TA.AperFunction,ComponentPad*
%ADD19R,0.900000X0.900000*%
G04 #@! TD*
G04 #@! TA.AperFunction,ViaPad*
%ADD20C,0.800000*%
G04 #@! TD*
G04 APERTURE END LIST*
D10*
X94420000Y-72180000D03*
X94420000Y-92180000D03*
X114420000Y-87180000D03*
X114420000Y-77180000D03*
D11*
X137970000Y-110610000D03*
D12*
X138970000Y-110610000D03*
X139970000Y-110610000D03*
D11*
X113510000Y-112100000D03*
D12*
X113510000Y-111100000D03*
X114510000Y-112100000D03*
X114510000Y-111100000D03*
D13*
X122195000Y-60170000D03*
X114575000Y-60170000D03*
D14*
X95605000Y-60170000D03*
X87985000Y-60170000D03*
D15*
X121720000Y-75290000D03*
D16*
X126720000Y-75290000D03*
D15*
X133010000Y-75500000D03*
D16*
X138010000Y-75500000D03*
D17*
X88030000Y-78140000D03*
X88030000Y-82740000D03*
D18*
X88030000Y-73540000D03*
D19*
X129285000Y-117550000D03*
X127380000Y-117550000D03*
X125475000Y-117550000D03*
D20*
X134760000Y-109340000D03*
X113830000Y-108150000D03*
X119470000Y-119770000D03*
X104780000Y-111580000D03*
X124640000Y-110830000D03*
X102460000Y-117590000D03*
X134360000Y-117220000D03*
G04 #@! TA.AperFunction,Conductor*
G36*
X108996968Y-53015218D02*
G01*
X139141608Y-53019588D01*
X139208643Y-53039282D01*
X139254390Y-53092093D01*
X139264323Y-53161253D01*
X139235289Y-53224804D01*
X139176522Y-53262565D01*
X139160338Y-53267317D01*
X139160321Y-53267323D01*
X139148820Y-53270699D01*
X139144531Y-53271794D01*
X139034959Y-53295629D01*
X139034955Y-53295630D01*
X138929883Y-53334819D01*
X138925684Y-53336216D01*
X138900190Y-53343702D01*
X138885565Y-53350382D01*
X138885525Y-53350399D01*
X138875980Y-53354756D01*
X138871902Y-53356445D01*
X138766840Y-53395632D01*
X138766831Y-53395636D01*
X138668436Y-53449363D01*
X138664478Y-53451344D01*
X138640290Y-53462389D01*
X138617913Y-53476771D01*
X138614106Y-53479030D01*
X138515689Y-53532770D01*
X138515685Y-53532773D01*
X138425908Y-53599977D01*
X138422285Y-53602493D01*
X138415500Y-53606856D01*
X138399906Y-53616877D01*
X138379312Y-53634724D01*
X138375797Y-53637492D01*
X138373549Y-53639175D01*
X138373498Y-53639212D01*
X138286609Y-53704257D01*
X138286594Y-53704270D01*
X138207306Y-53783558D01*
X138204065Y-53786575D01*
X138183978Y-53803978D01*
X138166575Y-53824065D01*
X138163558Y-53827306D01*
X138084270Y-53906594D01*
X138084252Y-53906615D01*
X138017055Y-53996379D01*
X138014277Y-53999827D01*
X137996877Y-54019905D01*
X137988406Y-54033088D01*
X137988405Y-54033087D01*
X137988405Y-54033089D01*
X137988393Y-54033109D01*
X137982496Y-54042281D01*
X137979978Y-54045906D01*
X137912773Y-54135685D01*
X137912770Y-54135689D01*
X137859030Y-54234106D01*
X137856771Y-54237913D01*
X137842389Y-54260290D01*
X137831344Y-54284478D01*
X137829363Y-54288436D01*
X137775636Y-54386831D01*
X137775632Y-54386840D01*
X137736445Y-54491902D01*
X137734756Y-54495980D01*
X137730399Y-54505525D01*
X137730382Y-54505565D01*
X137723702Y-54520190D01*
X137716216Y-54545684D01*
X137714819Y-54549883D01*
X137675630Y-54654955D01*
X137675629Y-54654959D01*
X137651794Y-54764531D01*
X137650699Y-54768820D01*
X137647323Y-54780321D01*
X137647317Y-54780338D01*
X137643209Y-54794326D01*
X137640981Y-54809827D01*
X137640979Y-54809826D01*
X137640978Y-54809852D01*
X137639421Y-54820664D01*
X137638637Y-54825009D01*
X137614806Y-54934558D01*
X137614803Y-54934575D01*
X137606803Y-55046425D01*
X137606330Y-55050827D01*
X137602548Y-55077130D01*
X137602548Y-55103721D01*
X137602390Y-55108145D01*
X137594779Y-55214567D01*
X137594390Y-55220000D01*
X137602316Y-55330827D01*
X137602390Y-55331853D01*
X137602548Y-55336277D01*
X137602548Y-55362866D01*
X137606330Y-55389170D01*
X137606803Y-55393572D01*
X137614803Y-55505424D01*
X137614805Y-55505438D01*
X137638638Y-55614993D01*
X137639423Y-55619344D01*
X137640300Y-55625442D01*
X137640557Y-55627227D01*
X137643209Y-55645668D01*
X137647747Y-55661123D01*
X137647754Y-55661147D01*
X137650700Y-55671182D01*
X137651793Y-55675467D01*
X137675629Y-55785040D01*
X137675630Y-55785043D01*
X137675631Y-55785046D01*
X137675774Y-55785430D01*
X137714821Y-55890120D01*
X137716219Y-55894320D01*
X137723702Y-55919806D01*
X137730882Y-55935528D01*
X137730900Y-55935572D01*
X137734746Y-55943994D01*
X137736438Y-55948080D01*
X137775632Y-56053158D01*
X137775635Y-56053166D01*
X137829363Y-56151561D01*
X137831345Y-56155521D01*
X137842396Y-56179720D01*
X137856779Y-56202099D01*
X137859039Y-56205908D01*
X137912770Y-56304309D01*
X137912775Y-56304317D01*
X137979976Y-56394086D01*
X137982493Y-56397710D01*
X137987206Y-56405044D01*
X137996871Y-56420084D01*
X138008538Y-56433548D01*
X138008579Y-56433595D01*
X138008582Y-56433599D01*
X138014277Y-56440171D01*
X138017052Y-56443615D01*
X138040355Y-56474744D01*
X138084261Y-56533395D01*
X138131877Y-56581011D01*
X138163550Y-56612684D01*
X138166567Y-56615924D01*
X138183981Y-56636021D01*
X138204073Y-56653430D01*
X138207311Y-56656445D01*
X138286605Y-56735739D01*
X138337073Y-56773518D01*
X138376381Y-56802945D01*
X138379827Y-56805722D01*
X138387173Y-56812087D01*
X138387186Y-56812098D01*
X138399907Y-56823121D01*
X138413101Y-56831601D01*
X138414944Y-56832786D01*
X138414956Y-56832794D01*
X138418911Y-56835336D01*
X138422281Y-56837502D01*
X138425914Y-56840024D01*
X138515682Y-56907224D01*
X138515695Y-56907232D01*
X138614096Y-56960963D01*
X138617904Y-56963222D01*
X138640286Y-56977606D01*
X138664479Y-56988654D01*
X138668431Y-56990632D01*
X138766839Y-57044367D01*
X138871919Y-57083560D01*
X138875993Y-57085247D01*
X138883914Y-57088865D01*
X138883932Y-57088872D01*
X138884634Y-57089193D01*
X138884717Y-57089229D01*
X138900195Y-57096297D01*
X138917326Y-57101327D01*
X138917335Y-57101330D01*
X138925696Y-57103785D01*
X138929887Y-57105181D01*
X138936303Y-57107574D01*
X139034954Y-57144369D01*
X139144576Y-57168215D01*
X139148787Y-57169290D01*
X139157170Y-57171752D01*
X139157202Y-57171760D01*
X139157651Y-57171892D01*
X139157686Y-57171902D01*
X139174328Y-57176789D01*
X139191681Y-57179284D01*
X139191733Y-57179293D01*
X139192023Y-57179334D01*
X139192025Y-57179335D01*
X139200671Y-57180578D01*
X139204979Y-57181355D01*
X139314572Y-57205196D01*
X139426448Y-57213197D01*
X139430802Y-57213665D01*
X139439441Y-57214907D01*
X139439443Y-57214907D01*
X139457135Y-57217452D01*
X139483721Y-57217452D01*
X139488143Y-57217609D01*
X139537344Y-57221128D01*
X139599999Y-57225610D01*
X139600000Y-57225610D01*
X139600001Y-57225610D01*
X139662655Y-57221128D01*
X139711856Y-57217609D01*
X139716279Y-57217452D01*
X139742863Y-57217452D01*
X139760548Y-57214908D01*
X139760559Y-57214907D01*
X139769203Y-57213664D01*
X139773545Y-57213197D01*
X139885428Y-57205196D01*
X139995025Y-57181354D01*
X139999323Y-57180578D01*
X140007975Y-57179335D01*
X140008004Y-57179329D01*
X140008218Y-57179299D01*
X140008268Y-57179291D01*
X140025664Y-57176789D01*
X140042784Y-57171763D01*
X140042830Y-57171752D01*
X140051213Y-57169290D01*
X140055404Y-57168220D01*
X140165046Y-57144369D01*
X140270144Y-57105169D01*
X140274304Y-57103785D01*
X140278285Y-57102616D01*
X140282665Y-57101330D01*
X140282674Y-57101326D01*
X140299802Y-57096297D01*
X140316000Y-57088900D01*
X140316086Y-57088865D01*
X140324010Y-57085245D01*
X140328062Y-57083566D01*
X140433161Y-57044367D01*
X140531568Y-56990632D01*
X140535514Y-56988657D01*
X140559709Y-56977607D01*
X140574744Y-56967944D01*
X140574764Y-56967933D01*
X140582117Y-56963207D01*
X140585850Y-56960991D01*
X140675830Y-56911858D01*
X140684310Y-56907229D01*
X140684310Y-56907228D01*
X140684315Y-56907226D01*
X140774112Y-56840004D01*
X140777707Y-56837509D01*
X140785044Y-56832794D01*
X140785082Y-56832767D01*
X140800083Y-56823126D01*
X140813549Y-56811458D01*
X140813599Y-56811418D01*
X140820192Y-56805704D01*
X140823580Y-56802973D01*
X140913395Y-56735739D01*
X140992716Y-56656417D01*
X140995914Y-56653440D01*
X141002506Y-56647729D01*
X141002529Y-56647707D01*
X141016018Y-56636018D01*
X141027707Y-56622529D01*
X141027729Y-56622506D01*
X141033440Y-56615914D01*
X141036417Y-56612716D01*
X141115739Y-56533395D01*
X141182973Y-56443580D01*
X141185704Y-56440192D01*
X141191418Y-56433599D01*
X141191459Y-56433548D01*
X141203129Y-56420080D01*
X141211587Y-56406922D01*
X141212794Y-56405044D01*
X141217509Y-56397707D01*
X141220004Y-56394112D01*
X141287226Y-56304315D01*
X141287230Y-56304309D01*
X141291858Y-56295830D01*
X141340991Y-56205850D01*
X141343207Y-56202117D01*
X141347933Y-56194764D01*
X141347944Y-56194744D01*
X141357607Y-56179709D01*
X141368657Y-56155514D01*
X141370636Y-56151561D01*
X141424367Y-56053161D01*
X141463566Y-55948062D01*
X141465245Y-55944010D01*
X141468865Y-55936086D01*
X141468900Y-55936000D01*
X141476297Y-55919802D01*
X141483785Y-55894304D01*
X141485169Y-55890144D01*
X141524369Y-55785046D01*
X141548220Y-55675404D01*
X141549290Y-55671213D01*
X141551752Y-55662830D01*
X141551761Y-55662792D01*
X141556789Y-55645665D01*
X141559255Y-55628520D01*
X141559263Y-55628469D01*
X141559330Y-55628002D01*
X141559335Y-55627975D01*
X141560578Y-55619322D01*
X141561354Y-55615026D01*
X141585196Y-55505428D01*
X141593197Y-55393545D01*
X141593665Y-55389195D01*
X141595226Y-55378343D01*
X141595229Y-55378312D01*
X141597459Y-55362808D01*
X141597096Y-55360151D01*
X141597245Y-55357130D01*
X141597731Y-55347223D01*
X141598107Y-55326114D01*
X141598250Y-55322899D01*
X141605610Y-55220000D01*
X141598250Y-55117104D01*
X141598107Y-55113882D01*
X141597731Y-55092777D01*
X141597096Y-55079851D01*
X141597562Y-55077915D01*
X141595229Y-55061692D01*
X141595226Y-55061657D01*
X141593666Y-55050812D01*
X141593196Y-55046439D01*
X141585196Y-54934572D01*
X141561355Y-54824979D01*
X141560577Y-54820664D01*
X141559335Y-54812025D01*
X141559292Y-54811725D01*
X141559278Y-54811645D01*
X141556788Y-54794327D01*
X141552378Y-54779303D01*
X141551755Y-54777184D01*
X141551752Y-54777170D01*
X141549290Y-54768787D01*
X141548215Y-54764576D01*
X141524369Y-54654954D01*
X141485181Y-54549887D01*
X141483782Y-54545687D01*
X141482197Y-54540290D01*
X141481330Y-54537335D01*
X141481327Y-54537326D01*
X141476297Y-54520195D01*
X141469229Y-54504717D01*
X141469193Y-54504634D01*
X141468872Y-54503932D01*
X141468865Y-54503914D01*
X141465242Y-54495980D01*
X141463557Y-54491912D01*
X141424367Y-54386839D01*
X141370632Y-54288431D01*
X141368654Y-54284479D01*
X141357606Y-54260286D01*
X141343222Y-54237904D01*
X141340963Y-54234096D01*
X141287232Y-54135695D01*
X141287224Y-54135682D01*
X141220024Y-54045914D01*
X141217502Y-54042281D01*
X141215336Y-54038911D01*
X141212794Y-54034956D01*
X141212786Y-54034944D01*
X141211601Y-54033101D01*
X141211601Y-54033100D01*
X141203123Y-54019910D01*
X141192868Y-54008075D01*
X141185722Y-53999827D01*
X141182945Y-53996381D01*
X141153518Y-53957073D01*
X141115739Y-53906605D01*
X141036440Y-53827306D01*
X141033430Y-53824073D01*
X141016021Y-53803981D01*
X140995924Y-53786567D01*
X140992684Y-53783550D01*
X140965905Y-53756771D01*
X140913395Y-53704261D01*
X140826500Y-53639212D01*
X140823615Y-53637052D01*
X140820176Y-53634281D01*
X140813599Y-53628582D01*
X140813588Y-53628573D01*
X140810248Y-53625679D01*
X140810227Y-53625659D01*
X140800087Y-53616874D01*
X140785054Y-53607213D01*
X140785044Y-53607206D01*
X140777710Y-53602493D01*
X140774092Y-53599980D01*
X140709723Y-53551794D01*
X140684317Y-53532775D01*
X140684309Y-53532770D01*
X140585908Y-53479039D01*
X140582099Y-53476779D01*
X140559720Y-53462396D01*
X140535521Y-53451345D01*
X140531561Y-53449363D01*
X140433166Y-53395635D01*
X140433158Y-53395632D01*
X140328080Y-53356438D01*
X140323994Y-53354746D01*
X140315572Y-53350900D01*
X140315528Y-53350882D01*
X140299806Y-53343702D01*
X140274320Y-53336219D01*
X140270120Y-53334821D01*
X140165043Y-53295630D01*
X140165040Y-53295629D01*
X140055467Y-53271793D01*
X140051182Y-53270700D01*
X140041147Y-53267754D01*
X140041122Y-53267747D01*
X140023928Y-53262698D01*
X139965150Y-53224925D01*
X139936124Y-53161369D01*
X139946067Y-53092211D01*
X139991822Y-53039406D01*
X140058858Y-53019721D01*
X141717902Y-53019962D01*
X141742081Y-53022346D01*
X141795746Y-53033026D01*
X141801565Y-53034184D01*
X141846252Y-53052696D01*
X141886334Y-53079477D01*
X141920537Y-53113674D01*
X141947322Y-53153749D01*
X141965841Y-53198434D01*
X141977687Y-53257919D01*
X141980074Y-53282096D01*
X141980551Y-54934558D01*
X141999500Y-120763014D01*
X141999500Y-122239847D01*
X141997123Y-122264011D01*
X141985722Y-122321394D01*
X141967210Y-122366108D01*
X141940420Y-122406213D01*
X141906201Y-122440436D01*
X141866102Y-122467230D01*
X141821392Y-122485747D01*
X141764194Y-122497119D01*
X141740020Y-122499500D01*
X138555059Y-122499500D01*
X105992595Y-122494781D01*
X100599208Y-122493999D01*
X73262173Y-122490037D01*
X73237987Y-122487652D01*
X73178490Y-122475810D01*
X73133798Y-122457291D01*
X73093714Y-122430502D01*
X73059508Y-122396291D01*
X73032727Y-122356205D01*
X73014216Y-122311510D01*
X73002882Y-122254525D01*
X73000500Y-122230336D01*
X73000500Y-120150000D01*
X73494390Y-120150000D01*
X73501979Y-120256114D01*
X73502390Y-120261853D01*
X73502548Y-120266277D01*
X73502548Y-120292866D01*
X73506330Y-120319170D01*
X73506803Y-120323572D01*
X73514803Y-120435424D01*
X73514805Y-120435438D01*
X73538638Y-120544993D01*
X73539423Y-120549344D01*
X73540362Y-120555867D01*
X73543209Y-120575668D01*
X73547747Y-120591123D01*
X73547754Y-120591147D01*
X73550700Y-120601182D01*
X73551793Y-120605467D01*
X73575629Y-120715040D01*
X73575630Y-120715043D01*
X73614821Y-120820120D01*
X73616219Y-120824320D01*
X73623702Y-120849806D01*
X73630882Y-120865528D01*
X73630900Y-120865572D01*
X73634746Y-120873994D01*
X73636438Y-120878080D01*
X73675632Y-120983158D01*
X73675635Y-120983166D01*
X73729363Y-121081561D01*
X73731345Y-121085521D01*
X73742396Y-121109720D01*
X73756779Y-121132099D01*
X73759039Y-121135908D01*
X73812770Y-121234309D01*
X73812775Y-121234317D01*
X73879976Y-121324086D01*
X73882493Y-121327710D01*
X73887206Y-121335044D01*
X73887213Y-121335054D01*
X73896874Y-121350087D01*
X73908582Y-121363599D01*
X73914277Y-121370171D01*
X73917051Y-121373614D01*
X73984259Y-121463393D01*
X74063550Y-121542684D01*
X74066567Y-121545924D01*
X74083981Y-121566021D01*
X74104073Y-121583430D01*
X74107311Y-121586445D01*
X74186605Y-121665739D01*
X74237073Y-121703518D01*
X74276381Y-121732945D01*
X74279827Y-121735722D01*
X74287173Y-121742087D01*
X74287186Y-121742098D01*
X74299907Y-121753121D01*
X74313101Y-121761601D01*
X74314944Y-121762786D01*
X74314956Y-121762794D01*
X74318911Y-121765336D01*
X74322281Y-121767502D01*
X74325914Y-121770024D01*
X74415682Y-121837224D01*
X74415695Y-121837232D01*
X74514096Y-121890963D01*
X74517904Y-121893222D01*
X74540286Y-121907606D01*
X74564479Y-121918654D01*
X74568431Y-121920632D01*
X74666839Y-121974367D01*
X74771919Y-122013560D01*
X74775993Y-122015247D01*
X74783914Y-122018865D01*
X74783932Y-122018872D01*
X74784634Y-122019193D01*
X74784717Y-122019229D01*
X74800195Y-122026297D01*
X74817326Y-122031327D01*
X74817335Y-122031330D01*
X74825696Y-122033785D01*
X74829887Y-122035181D01*
X74836303Y-122037574D01*
X74934954Y-122074369D01*
X75044576Y-122098215D01*
X75048787Y-122099290D01*
X75057170Y-122101752D01*
X75057202Y-122101760D01*
X75057651Y-122101892D01*
X75057686Y-122101902D01*
X75074328Y-122106789D01*
X75091681Y-122109284D01*
X75091733Y-122109293D01*
X75092023Y-122109334D01*
X75092025Y-122109335D01*
X75100671Y-122110578D01*
X75104979Y-122111355D01*
X75214572Y-122135196D01*
X75326448Y-122143197D01*
X75330802Y-122143665D01*
X75339441Y-122144907D01*
X75339443Y-122144907D01*
X75357135Y-122147452D01*
X75383721Y-122147452D01*
X75388143Y-122147609D01*
X75437344Y-122151128D01*
X75499999Y-122155610D01*
X75500000Y-122155610D01*
X75500001Y-122155610D01*
X75562655Y-122151128D01*
X75611856Y-122147609D01*
X75616279Y-122147452D01*
X75642863Y-122147452D01*
X75660548Y-122144908D01*
X75660559Y-122144907D01*
X75669203Y-122143664D01*
X75673545Y-122143197D01*
X75785428Y-122135196D01*
X75895025Y-122111354D01*
X75899323Y-122110578D01*
X75907975Y-122109335D01*
X75908004Y-122109329D01*
X75908218Y-122109299D01*
X75908268Y-122109291D01*
X75925664Y-122106789D01*
X75942784Y-122101763D01*
X75942830Y-122101752D01*
X75951213Y-122099290D01*
X75955404Y-122098220D01*
X76065046Y-122074369D01*
X76170144Y-122035169D01*
X76174304Y-122033785D01*
X76174314Y-122033782D01*
X76182665Y-122031330D01*
X76182674Y-122031326D01*
X76199802Y-122026297D01*
X76216000Y-122018900D01*
X76216086Y-122018865D01*
X76224010Y-122015245D01*
X76228062Y-122013566D01*
X76333161Y-121974367D01*
X76431568Y-121920632D01*
X76435514Y-121918657D01*
X76459709Y-121907607D01*
X76474744Y-121897944D01*
X76474764Y-121897933D01*
X76482117Y-121893207D01*
X76485850Y-121890991D01*
X76575830Y-121841858D01*
X76584310Y-121837229D01*
X76584310Y-121837228D01*
X76584315Y-121837226D01*
X76674112Y-121770004D01*
X76677707Y-121767509D01*
X76685044Y-121762794D01*
X76685082Y-121762767D01*
X76700083Y-121753126D01*
X76713549Y-121741458D01*
X76713599Y-121741418D01*
X76720192Y-121735704D01*
X76723580Y-121732973D01*
X76813395Y-121665739D01*
X76892716Y-121586417D01*
X76895914Y-121583440D01*
X76902506Y-121577729D01*
X76902529Y-121577707D01*
X76916018Y-121566018D01*
X76927707Y-121552529D01*
X76927729Y-121552506D01*
X76933440Y-121545914D01*
X76936417Y-121542716D01*
X77015739Y-121463395D01*
X77082973Y-121373580D01*
X77085704Y-121370192D01*
X77091418Y-121363599D01*
X77091457Y-121363549D01*
X77103129Y-121350080D01*
X77111587Y-121336922D01*
X77112794Y-121335044D01*
X77117509Y-121327707D01*
X77120004Y-121324112D01*
X77187226Y-121234315D01*
X77187230Y-121234309D01*
X77191858Y-121225830D01*
X77240991Y-121135850D01*
X77243207Y-121132117D01*
X77247933Y-121124764D01*
X77247944Y-121124744D01*
X77257607Y-121109709D01*
X77268657Y-121085514D01*
X77270636Y-121081561D01*
X77324367Y-120983161D01*
X77363566Y-120878062D01*
X77365245Y-120874010D01*
X77368865Y-120866086D01*
X77368900Y-120866000D01*
X77376297Y-120849802D01*
X77383785Y-120824304D01*
X77385169Y-120820144D01*
X77424369Y-120715046D01*
X77448220Y-120605404D01*
X77449290Y-120601213D01*
X77451752Y-120592830D01*
X77451761Y-120592792D01*
X77456789Y-120575665D01*
X77459255Y-120558520D01*
X77459263Y-120558469D01*
X77459330Y-120558002D01*
X77459335Y-120557975D01*
X77460578Y-120549322D01*
X77461354Y-120545026D01*
X77485196Y-120435428D01*
X77493197Y-120323545D01*
X77493665Y-120319195D01*
X77495226Y-120308343D01*
X77495229Y-120308312D01*
X77497459Y-120292808D01*
X77497096Y-120290151D01*
X77497731Y-120277227D01*
X77497771Y-120274981D01*
X77498107Y-120256114D01*
X77498250Y-120252899D01*
X77505610Y-120150000D01*
X77498250Y-120047104D01*
X77498107Y-120043882D01*
X77498013Y-120038593D01*
X123760832Y-120038593D01*
X123770605Y-120243756D01*
X123819029Y-120443362D01*
X123865442Y-120544993D01*
X123904352Y-120630195D01*
X123904356Y-120630201D01*
X124023489Y-120797501D01*
X124023495Y-120797507D01*
X124172147Y-120939246D01*
X124344933Y-121050290D01*
X124530910Y-121124744D01*
X124535618Y-121126629D01*
X124686880Y-121155782D01*
X124737301Y-121165500D01*
X124737302Y-121165500D01*
X124891226Y-121165500D01*
X124891232Y-121165500D01*
X125044466Y-121150868D01*
X125241541Y-121093001D01*
X125424104Y-120998884D01*
X125585556Y-120871916D01*
X125720061Y-120716689D01*
X125721009Y-120715048D01*
X125792557Y-120591123D01*
X125822759Y-120538811D01*
X125889937Y-120344712D01*
X125919168Y-120141407D01*
X125914270Y-120038593D01*
X128840832Y-120038593D01*
X128850605Y-120243756D01*
X128899029Y-120443362D01*
X128945442Y-120544993D01*
X128984352Y-120630195D01*
X128984356Y-120630201D01*
X129103489Y-120797501D01*
X129103495Y-120797507D01*
X129252147Y-120939246D01*
X129424933Y-121050290D01*
X129610910Y-121124744D01*
X129615618Y-121126629D01*
X129766881Y-121155782D01*
X129817301Y-121165500D01*
X129817302Y-121165500D01*
X129971226Y-121165500D01*
X129971232Y-121165500D01*
X130124466Y-121150868D01*
X130321541Y-121093001D01*
X130504104Y-120998884D01*
X130665556Y-120871916D01*
X130800061Y-120716689D01*
X130801009Y-120715048D01*
X130872557Y-120591123D01*
X130902759Y-120538811D01*
X130969937Y-120344712D01*
X130997933Y-120150000D01*
X137684390Y-120150000D01*
X137691979Y-120256114D01*
X137692390Y-120261853D01*
X137692548Y-120266277D01*
X137692548Y-120292866D01*
X137696330Y-120319170D01*
X137696803Y-120323572D01*
X137704803Y-120435424D01*
X137704805Y-120435438D01*
X137728638Y-120544993D01*
X137729423Y-120549344D01*
X137730362Y-120555867D01*
X137733209Y-120575668D01*
X137737747Y-120591123D01*
X137737754Y-120591147D01*
X137740700Y-120601182D01*
X137741793Y-120605467D01*
X137765629Y-120715040D01*
X137765630Y-120715043D01*
X137804821Y-120820120D01*
X137806219Y-120824320D01*
X137813702Y-120849806D01*
X137820882Y-120865528D01*
X137820900Y-120865572D01*
X137824746Y-120873994D01*
X137826438Y-120878080D01*
X137865632Y-120983158D01*
X137865635Y-120983166D01*
X137919363Y-121081561D01*
X137921345Y-121085521D01*
X137932396Y-121109720D01*
X137946779Y-121132099D01*
X137949039Y-121135908D01*
X138002770Y-121234309D01*
X138002775Y-121234317D01*
X138069976Y-121324086D01*
X138072493Y-121327710D01*
X138077206Y-121335044D01*
X138077213Y-121335054D01*
X138086874Y-121350087D01*
X138098582Y-121363599D01*
X138104277Y-121370171D01*
X138107051Y-121373614D01*
X138174259Y-121463393D01*
X138253550Y-121542684D01*
X138256567Y-121545924D01*
X138273981Y-121566021D01*
X138294073Y-121583430D01*
X138297311Y-121586445D01*
X138376605Y-121665739D01*
X138427073Y-121703518D01*
X138466381Y-121732945D01*
X138469827Y-121735722D01*
X138477173Y-121742087D01*
X138477186Y-121742098D01*
X138489907Y-121753121D01*
X138503101Y-121761601D01*
X138504944Y-121762786D01*
X138504956Y-121762794D01*
X138508911Y-121765336D01*
X138512281Y-121767502D01*
X138515914Y-121770024D01*
X138605682Y-121837224D01*
X138605695Y-121837232D01*
X138704096Y-121890963D01*
X138707904Y-121893222D01*
X138730286Y-121907606D01*
X138754479Y-121918654D01*
X138758431Y-121920632D01*
X138856839Y-121974367D01*
X138961919Y-122013560D01*
X138965993Y-122015247D01*
X138973914Y-122018865D01*
X138973932Y-122018872D01*
X138974634Y-122019193D01*
X138974717Y-122019229D01*
X138990195Y-122026297D01*
X139007326Y-122031327D01*
X139007335Y-122031330D01*
X139015696Y-122033785D01*
X139019887Y-122035181D01*
X139026303Y-122037574D01*
X139124954Y-122074369D01*
X139234576Y-122098215D01*
X139238787Y-122099290D01*
X139247170Y-122101752D01*
X139247202Y-122101760D01*
X139247651Y-122101892D01*
X139247686Y-122101902D01*
X139264328Y-122106789D01*
X139281681Y-122109284D01*
X139281733Y-122109293D01*
X139282023Y-122109334D01*
X139282025Y-122109335D01*
X139290671Y-122110578D01*
X139294979Y-122111355D01*
X139404572Y-122135196D01*
X139516448Y-122143197D01*
X139520802Y-122143665D01*
X139529441Y-122144907D01*
X139529443Y-122144907D01*
X139547135Y-122147452D01*
X139573721Y-122147452D01*
X139578143Y-122147609D01*
X139627344Y-122151128D01*
X139689999Y-122155610D01*
X139690000Y-122155610D01*
X139690001Y-122155610D01*
X139752655Y-122151128D01*
X139801856Y-122147609D01*
X139806279Y-122147452D01*
X139832863Y-122147452D01*
X139850548Y-122144908D01*
X139850559Y-122144907D01*
X139859203Y-122143664D01*
X139863545Y-122143197D01*
X139975428Y-122135196D01*
X140085025Y-122111354D01*
X140089323Y-122110578D01*
X140097975Y-122109335D01*
X140098004Y-122109329D01*
X140098218Y-122109299D01*
X140098268Y-122109291D01*
X140115664Y-122106789D01*
X140132784Y-122101763D01*
X140132830Y-122101752D01*
X140141213Y-122099290D01*
X140145404Y-122098220D01*
X140255046Y-122074369D01*
X140360144Y-122035169D01*
X140364304Y-122033785D01*
X140364314Y-122033782D01*
X140372665Y-122031330D01*
X140372674Y-122031326D01*
X140389802Y-122026297D01*
X140406000Y-122018900D01*
X140406086Y-122018865D01*
X140414010Y-122015245D01*
X140418062Y-122013566D01*
X140523161Y-121974367D01*
X140621568Y-121920632D01*
X140625514Y-121918657D01*
X140649709Y-121907607D01*
X140664744Y-121897944D01*
X140664764Y-121897933D01*
X140672117Y-121893207D01*
X140675850Y-121890991D01*
X140765830Y-121841858D01*
X140774310Y-121837229D01*
X140774310Y-121837228D01*
X140774315Y-121837226D01*
X140864112Y-121770004D01*
X140867707Y-121767509D01*
X140875044Y-121762794D01*
X140875082Y-121762767D01*
X140890083Y-121753126D01*
X140903549Y-121741458D01*
X140903599Y-121741418D01*
X140910192Y-121735704D01*
X140913580Y-121732973D01*
X141003395Y-121665739D01*
X141082716Y-121586417D01*
X141085914Y-121583440D01*
X141092506Y-121577729D01*
X141092529Y-121577707D01*
X141106018Y-121566018D01*
X141117707Y-121552529D01*
X141117729Y-121552506D01*
X141123440Y-121545914D01*
X141126417Y-121542716D01*
X141205739Y-121463395D01*
X141272973Y-121373580D01*
X141275704Y-121370192D01*
X141281418Y-121363599D01*
X141281457Y-121363549D01*
X141293129Y-121350080D01*
X141301587Y-121336922D01*
X141302794Y-121335044D01*
X141307509Y-121327707D01*
X141310004Y-121324112D01*
X141377226Y-121234315D01*
X141377230Y-121234309D01*
X141381858Y-121225830D01*
X141430991Y-121135850D01*
X141433207Y-121132117D01*
X141437933Y-121124764D01*
X141437944Y-121124744D01*
X141447607Y-121109709D01*
X141458657Y-121085514D01*
X141460636Y-121081561D01*
X141514367Y-120983161D01*
X141553566Y-120878062D01*
X141555245Y-120874010D01*
X141558865Y-120866086D01*
X141558900Y-120866000D01*
X141566297Y-120849802D01*
X141573785Y-120824304D01*
X141575169Y-120820144D01*
X141614369Y-120715046D01*
X141638220Y-120605404D01*
X141639290Y-120601213D01*
X141641752Y-120592830D01*
X141641761Y-120592792D01*
X141646789Y-120575665D01*
X141649255Y-120558520D01*
X141649263Y-120558469D01*
X141649330Y-120558002D01*
X141649335Y-120557975D01*
X141650578Y-120549322D01*
X141651354Y-120545026D01*
X141675196Y-120435428D01*
X141683197Y-120323545D01*
X141683665Y-120319195D01*
X141685226Y-120308343D01*
X141685229Y-120308312D01*
X141687459Y-120292808D01*
X141687096Y-120290151D01*
X141687731Y-120277227D01*
X141687771Y-120274981D01*
X141688107Y-120256114D01*
X141688250Y-120252899D01*
X141695610Y-120150000D01*
X141688250Y-120047104D01*
X141688107Y-120043882D01*
X141687731Y-120022777D01*
X141687096Y-120009851D01*
X141687563Y-120007914D01*
X141683667Y-119980816D01*
X141683196Y-119976439D01*
X141675196Y-119864572D01*
X141651355Y-119754979D01*
X141650577Y-119750664D01*
X141649335Y-119742025D01*
X141649292Y-119741725D01*
X141649278Y-119741645D01*
X141646788Y-119724327D01*
X141642378Y-119709303D01*
X141641755Y-119707184D01*
X141641752Y-119707170D01*
X141639290Y-119698787D01*
X141638215Y-119694576D01*
X141614369Y-119584954D01*
X141575181Y-119479887D01*
X141573782Y-119475687D01*
X141566297Y-119450195D01*
X141559229Y-119434717D01*
X141559193Y-119434634D01*
X141558872Y-119433932D01*
X141558865Y-119433914D01*
X141555242Y-119425980D01*
X141553557Y-119421912D01*
X141514367Y-119316839D01*
X141460632Y-119218431D01*
X141458654Y-119214479D01*
X141447606Y-119190286D01*
X141433222Y-119167904D01*
X141430963Y-119164096D01*
X141377232Y-119065695D01*
X141377224Y-119065682D01*
X141310024Y-118975914D01*
X141307502Y-118972281D01*
X141305336Y-118968911D01*
X141302794Y-118964956D01*
X141302786Y-118964944D01*
X141301601Y-118963101D01*
X141301601Y-118963100D01*
X141293123Y-118949910D01*
X141282868Y-118938075D01*
X141275722Y-118929827D01*
X141272945Y-118926381D01*
X141243518Y-118887073D01*
X141205739Y-118836605D01*
X141126440Y-118757306D01*
X141123430Y-118754073D01*
X141106021Y-118733981D01*
X141085924Y-118716567D01*
X141082684Y-118713550D01*
X141003398Y-118634264D01*
X141003395Y-118634261D01*
X140962287Y-118603488D01*
X140913615Y-118567052D01*
X140910171Y-118564277D01*
X140903599Y-118558582D01*
X140903588Y-118558573D01*
X140900248Y-118555679D01*
X140900227Y-118555659D01*
X140890087Y-118546874D01*
X140875054Y-118537213D01*
X140875044Y-118537206D01*
X140867710Y-118532493D01*
X140864086Y-118529976D01*
X140774317Y-118462775D01*
X140774309Y-118462770D01*
X140675908Y-118409039D01*
X140672099Y-118406779D01*
X140649720Y-118392396D01*
X140625521Y-118381345D01*
X140621561Y-118379363D01*
X140523166Y-118325635D01*
X140523158Y-118325632D01*
X140418080Y-118286438D01*
X140413994Y-118284746D01*
X140405572Y-118280900D01*
X140405528Y-118280882D01*
X140389806Y-118273702D01*
X140364320Y-118266219D01*
X140360120Y-118264821D01*
X140255043Y-118225630D01*
X140255040Y-118225629D01*
X140145467Y-118201793D01*
X140141182Y-118200700D01*
X140131147Y-118197754D01*
X140131123Y-118197747D01*
X140115662Y-118193207D01*
X140099620Y-118190901D01*
X140089350Y-118189424D01*
X140085001Y-118188640D01*
X140067343Y-118184798D01*
X139975438Y-118164805D01*
X139975424Y-118164803D01*
X139863572Y-118156803D01*
X139859170Y-118156330D01*
X139832867Y-118152548D01*
X139814981Y-118152548D01*
X139806279Y-118152548D01*
X139801856Y-118152390D01*
X139752655Y-118148871D01*
X139690001Y-118144390D01*
X139689999Y-118144390D01*
X139627344Y-118148871D01*
X139578143Y-118152390D01*
X139573721Y-118152548D01*
X139547130Y-118152548D01*
X139520827Y-118156330D01*
X139516425Y-118156803D01*
X139404575Y-118164803D01*
X139404558Y-118164806D01*
X139295009Y-118188637D01*
X139290664Y-118189421D01*
X139282341Y-118190619D01*
X139282025Y-118190665D01*
X139282022Y-118190665D01*
X139279852Y-118190978D01*
X139279826Y-118190979D01*
X139279827Y-118190981D01*
X139264326Y-118193209D01*
X139250338Y-118197317D01*
X139250321Y-118197323D01*
X139238820Y-118200699D01*
X139234531Y-118201794D01*
X139124959Y-118225629D01*
X139124955Y-118225630D01*
X139019883Y-118264819D01*
X139015684Y-118266216D01*
X138990190Y-118273702D01*
X138975565Y-118280382D01*
X138975525Y-118280399D01*
X138965980Y-118284756D01*
X138961902Y-118286445D01*
X138856840Y-118325632D01*
X138856831Y-118325636D01*
X138758436Y-118379363D01*
X138754478Y-118381344D01*
X138730290Y-118392389D01*
X138707913Y-118406771D01*
X138704106Y-118409030D01*
X138605689Y-118462770D01*
X138605685Y-118462773D01*
X138515907Y-118529978D01*
X138512283Y-118532495D01*
X138503100Y-118538399D01*
X138489903Y-118546879D01*
X138469827Y-118564277D01*
X138466379Y-118567055D01*
X138376615Y-118634252D01*
X138376594Y-118634270D01*
X138297306Y-118713558D01*
X138294065Y-118716575D01*
X138273978Y-118733978D01*
X138256575Y-118754065D01*
X138253558Y-118757306D01*
X138174270Y-118836594D01*
X138174252Y-118836615D01*
X138107055Y-118926379D01*
X138104277Y-118929827D01*
X138086877Y-118949905D01*
X138078406Y-118963088D01*
X138078405Y-118963087D01*
X138078405Y-118963089D01*
X138078393Y-118963109D01*
X138072496Y-118972281D01*
X138069978Y-118975906D01*
X138002773Y-119065685D01*
X138002770Y-119065689D01*
X137949030Y-119164106D01*
X137946771Y-119167913D01*
X137932389Y-119190290D01*
X137921344Y-119214478D01*
X137919363Y-119218436D01*
X137865636Y-119316831D01*
X137865632Y-119316840D01*
X137826445Y-119421902D01*
X137824756Y-119425980D01*
X137820399Y-119435525D01*
X137820382Y-119435565D01*
X137813702Y-119450190D01*
X137806216Y-119475684D01*
X137804819Y-119479883D01*
X137765630Y-119584955D01*
X137765629Y-119584959D01*
X137741794Y-119694531D01*
X137740699Y-119698820D01*
X137737323Y-119710321D01*
X137737317Y-119710338D01*
X137733209Y-119724326D01*
X137730981Y-119739827D01*
X137730979Y-119739826D01*
X137730978Y-119739852D01*
X137729421Y-119750664D01*
X137728637Y-119755009D01*
X137704806Y-119864558D01*
X137704803Y-119864575D01*
X137696803Y-119976425D01*
X137696330Y-119980827D01*
X137692548Y-120007130D01*
X137692548Y-120033721D01*
X137692390Y-120038145D01*
X137685005Y-120141407D01*
X137684390Y-120150000D01*
X130997933Y-120150000D01*
X130999168Y-120141407D01*
X130989395Y-119936244D01*
X130940971Y-119736638D01*
X130855647Y-119549804D01*
X130855643Y-119549798D01*
X130736510Y-119382498D01*
X130736504Y-119382492D01*
X130587852Y-119240753D01*
X130415066Y-119129709D01*
X130224391Y-119053374D01*
X130224384Y-119053371D01*
X130224382Y-119053371D01*
X130224379Y-119053370D01*
X130224378Y-119053370D01*
X130022699Y-119014500D01*
X130022698Y-119014500D01*
X129868768Y-119014500D01*
X129715533Y-119029132D01*
X129715534Y-119029132D01*
X129715530Y-119029133D01*
X129518462Y-119086997D01*
X129335891Y-119181118D01*
X129174446Y-119308081D01*
X129174443Y-119308084D01*
X129039936Y-119463313D01*
X128937242Y-119641185D01*
X128870064Y-119835282D01*
X128870063Y-119835287D01*
X128870063Y-119835288D01*
X128840832Y-120038593D01*
X125914270Y-120038593D01*
X125909395Y-119936244D01*
X125860971Y-119736638D01*
X125775647Y-119549804D01*
X125775643Y-119549798D01*
X125656510Y-119382498D01*
X125656504Y-119382492D01*
X125507852Y-119240753D01*
X125335066Y-119129709D01*
X125144391Y-119053374D01*
X125144384Y-119053371D01*
X125144382Y-119053371D01*
X125144379Y-119053370D01*
X125144378Y-119053370D01*
X124942699Y-119014500D01*
X124942698Y-119014500D01*
X124788768Y-119014500D01*
X124635533Y-119029132D01*
X124635534Y-119029132D01*
X124635530Y-119029133D01*
X124438462Y-119086997D01*
X124255891Y-119181118D01*
X124094446Y-119308081D01*
X124094443Y-119308084D01*
X123959936Y-119463313D01*
X123857242Y-119641185D01*
X123790064Y-119835282D01*
X123790063Y-119835287D01*
X123790063Y-119835288D01*
X123760832Y-120038593D01*
X77498013Y-120038593D01*
X77497731Y-120022777D01*
X77497096Y-120009851D01*
X77497563Y-120007914D01*
X77493667Y-119980816D01*
X77493196Y-119976439D01*
X77485196Y-119864572D01*
X77461355Y-119754979D01*
X77460577Y-119750664D01*
X77459335Y-119742025D01*
X77459292Y-119741725D01*
X77459278Y-119741645D01*
X77456788Y-119724327D01*
X77452378Y-119709303D01*
X77451755Y-119707184D01*
X77451752Y-119707170D01*
X77449290Y-119698787D01*
X77448215Y-119694576D01*
X77424369Y-119584954D01*
X77385181Y-119479887D01*
X77383782Y-119475687D01*
X77376297Y-119450195D01*
X77369229Y-119434717D01*
X77369193Y-119434634D01*
X77368872Y-119433932D01*
X77368865Y-119433914D01*
X77365242Y-119425980D01*
X77363557Y-119421912D01*
X77324367Y-119316839D01*
X77270632Y-119218431D01*
X77268654Y-119214479D01*
X77257606Y-119190286D01*
X77243222Y-119167904D01*
X77240963Y-119164096D01*
X77187232Y-119065695D01*
X77187224Y-119065682D01*
X77120024Y-118975914D01*
X77117502Y-118972281D01*
X77115336Y-118968911D01*
X77112794Y-118964956D01*
X77112786Y-118964944D01*
X77111601Y-118963101D01*
X77111601Y-118963100D01*
X77103123Y-118949910D01*
X77092868Y-118938075D01*
X77085722Y-118929827D01*
X77082945Y-118926381D01*
X77053518Y-118887073D01*
X77015739Y-118836605D01*
X76936440Y-118757306D01*
X76933430Y-118754073D01*
X76916021Y-118733981D01*
X76895924Y-118716567D01*
X76892684Y-118713550D01*
X76813398Y-118634264D01*
X76813395Y-118634261D01*
X76772287Y-118603488D01*
X76723615Y-118567052D01*
X76720171Y-118564277D01*
X76713599Y-118558582D01*
X76713588Y-118558573D01*
X76710248Y-118555679D01*
X76710227Y-118555659D01*
X76700087Y-118546874D01*
X76685054Y-118537213D01*
X76685044Y-118537206D01*
X76677710Y-118532493D01*
X76674086Y-118529976D01*
X76584317Y-118462775D01*
X76584309Y-118462770D01*
X76485908Y-118409039D01*
X76482099Y-118406779D01*
X76459720Y-118392396D01*
X76435521Y-118381345D01*
X76431561Y-118379363D01*
X76333166Y-118325635D01*
X76333158Y-118325632D01*
X76228080Y-118286438D01*
X76223994Y-118284746D01*
X76215572Y-118280900D01*
X76215528Y-118280882D01*
X76199806Y-118273702D01*
X76174320Y-118266219D01*
X76170120Y-118264821D01*
X76065043Y-118225630D01*
X76065040Y-118225629D01*
X75955467Y-118201793D01*
X75951182Y-118200700D01*
X75941147Y-118197754D01*
X75941123Y-118197747D01*
X75925662Y-118193207D01*
X75909620Y-118190901D01*
X75899350Y-118189424D01*
X75895001Y-118188640D01*
X75877343Y-118184798D01*
X75785438Y-118164805D01*
X75785424Y-118164803D01*
X75673572Y-118156803D01*
X75669170Y-118156330D01*
X75642867Y-118152548D01*
X75624981Y-118152548D01*
X75616279Y-118152548D01*
X75611856Y-118152390D01*
X75562655Y-118148871D01*
X75500001Y-118144390D01*
X75499999Y-118144390D01*
X75437344Y-118148871D01*
X75388143Y-118152390D01*
X75383721Y-118152548D01*
X75357130Y-118152548D01*
X75330827Y-118156330D01*
X75326425Y-118156803D01*
X75214575Y-118164803D01*
X75214558Y-118164806D01*
X75105009Y-118188637D01*
X75100664Y-118189421D01*
X75092341Y-118190619D01*
X75092025Y-118190665D01*
X75092022Y-118190665D01*
X75089852Y-118190978D01*
X75089826Y-118190979D01*
X75089827Y-118190981D01*
X75074326Y-118193209D01*
X75060338Y-118197317D01*
X75060321Y-118197323D01*
X75048820Y-118200699D01*
X75044531Y-118201794D01*
X74934959Y-118225629D01*
X74934955Y-118225630D01*
X74829883Y-118264819D01*
X74825684Y-118266216D01*
X74800190Y-118273702D01*
X74785565Y-118280382D01*
X74785525Y-118280399D01*
X74775980Y-118284756D01*
X74771902Y-118286445D01*
X74666840Y-118325632D01*
X74666831Y-118325636D01*
X74568436Y-118379363D01*
X74564478Y-118381344D01*
X74540290Y-118392389D01*
X74517913Y-118406771D01*
X74514106Y-118409030D01*
X74415689Y-118462770D01*
X74415685Y-118462773D01*
X74325907Y-118529978D01*
X74322283Y-118532495D01*
X74313100Y-118538399D01*
X74299903Y-118546879D01*
X74279827Y-118564277D01*
X74276379Y-118567055D01*
X74186615Y-118634252D01*
X74186594Y-118634270D01*
X74107306Y-118713558D01*
X74104065Y-118716575D01*
X74083978Y-118733978D01*
X74066575Y-118754065D01*
X74063558Y-118757306D01*
X73984270Y-118836594D01*
X73984252Y-118836615D01*
X73917055Y-118926379D01*
X73914277Y-118929827D01*
X73896877Y-118949905D01*
X73888406Y-118963088D01*
X73888405Y-118963087D01*
X73888405Y-118963089D01*
X73888393Y-118963109D01*
X73882496Y-118972281D01*
X73879978Y-118975906D01*
X73812773Y-119065685D01*
X73812770Y-119065689D01*
X73759030Y-119164106D01*
X73756771Y-119167913D01*
X73742389Y-119190290D01*
X73731344Y-119214478D01*
X73729363Y-119218436D01*
X73675636Y-119316831D01*
X73675632Y-119316840D01*
X73636445Y-119421902D01*
X73634756Y-119425980D01*
X73630399Y-119435525D01*
X73630382Y-119435565D01*
X73623702Y-119450190D01*
X73616216Y-119475684D01*
X73614819Y-119479883D01*
X73575630Y-119584955D01*
X73575629Y-119584959D01*
X73551794Y-119694531D01*
X73550699Y-119698820D01*
X73547323Y-119710321D01*
X73547317Y-119710338D01*
X73543209Y-119724326D01*
X73540981Y-119739827D01*
X73540979Y-119739826D01*
X73540978Y-119739852D01*
X73539421Y-119750664D01*
X73538637Y-119755009D01*
X73514806Y-119864558D01*
X73514803Y-119864575D01*
X73506803Y-119976425D01*
X73506330Y-119980827D01*
X73502548Y-120007130D01*
X73502548Y-120033721D01*
X73502390Y-120038145D01*
X73495005Y-120141407D01*
X73494390Y-120150000D01*
X73000500Y-120150000D01*
X73000500Y-118024678D01*
X126679500Y-118024678D01*
X126694032Y-118097735D01*
X126694033Y-118097739D01*
X126694034Y-118097740D01*
X126749399Y-118180601D01*
X126825567Y-118231494D01*
X126832260Y-118235966D01*
X126832264Y-118235967D01*
X126905321Y-118250499D01*
X126905324Y-118250500D01*
X126905326Y-118250500D01*
X127854676Y-118250500D01*
X127854677Y-118250499D01*
X127927740Y-118235966D01*
X128010601Y-118180601D01*
X128065966Y-118097740D01*
X128080499Y-118024678D01*
X128584500Y-118024678D01*
X128599032Y-118097735D01*
X128599033Y-118097739D01*
X128599034Y-118097740D01*
X128654399Y-118180601D01*
X128730567Y-118231494D01*
X128737260Y-118235966D01*
X128737264Y-118235967D01*
X128810321Y-118250499D01*
X128810324Y-118250500D01*
X128810326Y-118250500D01*
X129759676Y-118250500D01*
X129759677Y-118250499D01*
X129832740Y-118235966D01*
X129915601Y-118180601D01*
X129970966Y-118097740D01*
X129985500Y-118024674D01*
X129985500Y-117075326D01*
X129985499Y-117075326D01*
X129985500Y-117075323D01*
X129985499Y-117075321D01*
X129970967Y-117002264D01*
X129970966Y-117002260D01*
X129970966Y-117002259D01*
X129915601Y-116919399D01*
X129832740Y-116864034D01*
X129832739Y-116864033D01*
X129832735Y-116864032D01*
X129759677Y-116849500D01*
X129759674Y-116849500D01*
X128810326Y-116849500D01*
X128810323Y-116849500D01*
X128737264Y-116864032D01*
X128737260Y-116864033D01*
X128654399Y-116919399D01*
X128599033Y-117002260D01*
X128599032Y-117002264D01*
X128584500Y-117075321D01*
X128584500Y-118024678D01*
X128080499Y-118024678D01*
X128080500Y-118024674D01*
X128080500Y-117075326D01*
X128080499Y-117075326D01*
X128080500Y-117075323D01*
X128080499Y-117075321D01*
X128065967Y-117002264D01*
X128065966Y-117002260D01*
X128065965Y-117002259D01*
X128010601Y-116919399D01*
X127927740Y-116864034D01*
X127927739Y-116864033D01*
X127927735Y-116864032D01*
X127854677Y-116849500D01*
X127854674Y-116849500D01*
X126905326Y-116849500D01*
X126905323Y-116849500D01*
X126832264Y-116864032D01*
X126832260Y-116864033D01*
X126749399Y-116919399D01*
X126694033Y-117002260D01*
X126694032Y-117002264D01*
X126679500Y-117075321D01*
X126679500Y-118024678D01*
X73000500Y-118024678D01*
X73000500Y-111100000D01*
X112829539Y-111100000D01*
X112849311Y-111262842D01*
X112849312Y-111262848D01*
X112902622Y-111403411D01*
X112907989Y-111473074D01*
X112889784Y-111516270D01*
X112849034Y-111577258D01*
X112849032Y-111577264D01*
X112834500Y-111650321D01*
X112834500Y-112549678D01*
X112849032Y-112622735D01*
X112849033Y-112622739D01*
X112849034Y-112622740D01*
X112904399Y-112705601D01*
X112950259Y-112736243D01*
X112987260Y-112760966D01*
X112987264Y-112760967D01*
X113060321Y-112775499D01*
X113060324Y-112775500D01*
X113060326Y-112775500D01*
X113959676Y-112775500D01*
X113959677Y-112775499D01*
X114032740Y-112760966D01*
X114096005Y-112718693D01*
X114162679Y-112697817D01*
X114222519Y-112712001D01*
X114268705Y-112736242D01*
X114388719Y-112765823D01*
X114427978Y-112775500D01*
X114427979Y-112775500D01*
X114592022Y-112775500D01*
X114751291Y-112736243D01*
X114751291Y-112736242D01*
X114751295Y-112736242D01*
X114896546Y-112660008D01*
X115019332Y-112551229D01*
X115028627Y-112537763D01*
X125525787Y-112537763D01*
X125555413Y-112807013D01*
X125555415Y-112807024D01*
X125623926Y-113069082D01*
X125623928Y-113069088D01*
X125729870Y-113318390D01*
X125801998Y-113436575D01*
X125870979Y-113549605D01*
X125870986Y-113549615D01*
X126044253Y-113757819D01*
X126044259Y-113757824D01*
X126245998Y-113938582D01*
X126471910Y-114088044D01*
X126717176Y-114203020D01*
X126717183Y-114203022D01*
X126717185Y-114203023D01*
X126976557Y-114281057D01*
X126976564Y-114281058D01*
X126976569Y-114281060D01*
X127244561Y-114320500D01*
X127244566Y-114320500D01*
X127447636Y-114320500D01*
X127499133Y-114316730D01*
X127650156Y-114305677D01*
X127762758Y-114280593D01*
X127914546Y-114246782D01*
X127914548Y-114246781D01*
X127914553Y-114246780D01*
X128167558Y-114150014D01*
X128403777Y-114017441D01*
X128618177Y-113851888D01*
X128806186Y-113656881D01*
X128963799Y-113436579D01*
X129037787Y-113292669D01*
X129087649Y-113195690D01*
X129087651Y-113195684D01*
X129087656Y-113195675D01*
X129175118Y-112939305D01*
X129224319Y-112672933D01*
X129234212Y-112402235D01*
X129204586Y-112132982D01*
X129136072Y-111870912D01*
X129030130Y-111621610D01*
X128889018Y-111390390D01*
X128887845Y-111388981D01*
X128715746Y-111182180D01*
X128715740Y-111182175D01*
X128579024Y-111059678D01*
X137294500Y-111059678D01*
X137309032Y-111132735D01*
X137309033Y-111132739D01*
X137309034Y-111132740D01*
X137364399Y-111215601D01*
X137447259Y-111270965D01*
X137447260Y-111270966D01*
X137447264Y-111270967D01*
X137520321Y-111285499D01*
X137520324Y-111285500D01*
X137520326Y-111285500D01*
X138419676Y-111285500D01*
X138419677Y-111285499D01*
X138492740Y-111270966D01*
X138556005Y-111228693D01*
X138622679Y-111207817D01*
X138682519Y-111222001D01*
X138728705Y-111246242D01*
X138848720Y-111275823D01*
X138887978Y-111285500D01*
X138887979Y-111285500D01*
X139052022Y-111285500D01*
X139211291Y-111246243D01*
X139211291Y-111246242D01*
X139211295Y-111246242D01*
X139356546Y-111170008D01*
X139387772Y-111142343D01*
X139451004Y-111112622D01*
X139520268Y-111121804D01*
X139552228Y-111142344D01*
X139583451Y-111170006D01*
X139583452Y-111170006D01*
X139583454Y-111170008D01*
X139728705Y-111246242D01*
X139728707Y-111246242D01*
X139728708Y-111246243D01*
X139887978Y-111285500D01*
X139887979Y-111285500D01*
X140052022Y-111285500D01*
X140211291Y-111246243D01*
X140211291Y-111246242D01*
X140211295Y-111246242D01*
X140356546Y-111170008D01*
X140479332Y-111061229D01*
X140572518Y-110926226D01*
X140630688Y-110772845D01*
X140650461Y-110610000D01*
X140630688Y-110447155D01*
X140572518Y-110293774D01*
X140479332Y-110158771D01*
X140479329Y-110158768D01*
X140479327Y-110158766D01*
X140356548Y-110049993D01*
X140211291Y-109973756D01*
X140052022Y-109934500D01*
X140052021Y-109934500D01*
X139887979Y-109934500D01*
X139887978Y-109934500D01*
X139728708Y-109973756D01*
X139583451Y-110049993D01*
X139552225Y-110077657D01*
X139488992Y-110107377D01*
X139419728Y-110098192D01*
X139387775Y-110077657D01*
X139356548Y-110049993D01*
X139211291Y-109973756D01*
X139052022Y-109934500D01*
X139052021Y-109934500D01*
X138887979Y-109934500D01*
X138887978Y-109934500D01*
X138728706Y-109973757D01*
X138682518Y-109997999D01*
X138614010Y-110011723D01*
X138556003Y-109991304D01*
X138492743Y-109949035D01*
X138492735Y-109949032D01*
X138419677Y-109934500D01*
X138419674Y-109934500D01*
X137520326Y-109934500D01*
X137520323Y-109934500D01*
X137447264Y-109949032D01*
X137447260Y-109949033D01*
X137364399Y-110004399D01*
X137309033Y-110087260D01*
X137309032Y-110087264D01*
X137294500Y-110160321D01*
X137294500Y-111059678D01*
X128579024Y-111059678D01*
X128514002Y-111001418D01*
X128288092Y-110851957D01*
X128288090Y-110851956D01*
X128042824Y-110736980D01*
X128042819Y-110736978D01*
X128042814Y-110736976D01*
X127783442Y-110658942D01*
X127783428Y-110658939D01*
X127658153Y-110640503D01*
X127515439Y-110619500D01*
X127312369Y-110619500D01*
X127312364Y-110619500D01*
X127109844Y-110634323D01*
X127109831Y-110634325D01*
X126845453Y-110693217D01*
X126845446Y-110693220D01*
X126592439Y-110789987D01*
X126356226Y-110922557D01*
X126356224Y-110922558D01*
X126356223Y-110922559D01*
X126337318Y-110937157D01*
X126141822Y-111088112D01*
X125953822Y-111283109D01*
X125953816Y-111283116D01*
X125796202Y-111503419D01*
X125796199Y-111503424D01*
X125672350Y-111744309D01*
X125672343Y-111744327D01*
X125584884Y-112000685D01*
X125584881Y-112000699D01*
X125560449Y-112132975D01*
X125536462Y-112262842D01*
X125535681Y-112267068D01*
X125535680Y-112267075D01*
X125525787Y-112537763D01*
X115028627Y-112537763D01*
X115112518Y-112416226D01*
X115170688Y-112262845D01*
X115190461Y-112100000D01*
X115170688Y-111937155D01*
X115112518Y-111783774D01*
X115034288Y-111670439D01*
X115012406Y-111604086D01*
X115029871Y-111536434D01*
X115034289Y-111529560D01*
X115052329Y-111503424D01*
X115112518Y-111416226D01*
X115170688Y-111262845D01*
X115190461Y-111100000D01*
X115170688Y-110937155D01*
X115112518Y-110783774D01*
X115019332Y-110648771D01*
X115019329Y-110648768D01*
X115019327Y-110648766D01*
X114896548Y-110539993D01*
X114751291Y-110463756D01*
X114592022Y-110424500D01*
X114592021Y-110424500D01*
X114427979Y-110424500D01*
X114427978Y-110424500D01*
X114268708Y-110463756D01*
X114123451Y-110539993D01*
X114092225Y-110567657D01*
X114028992Y-110597377D01*
X113959728Y-110588192D01*
X113927775Y-110567657D01*
X113896548Y-110539993D01*
X113751291Y-110463756D01*
X113592022Y-110424500D01*
X113592021Y-110424500D01*
X113427979Y-110424500D01*
X113427978Y-110424500D01*
X113268708Y-110463756D01*
X113123451Y-110539993D01*
X113000672Y-110648766D01*
X113000666Y-110648773D01*
X112907483Y-110783771D01*
X112849312Y-110937154D01*
X112849311Y-110937157D01*
X112829539Y-111099999D01*
X112829539Y-111100000D01*
X73000500Y-111100000D01*
X73000500Y-92180002D01*
X93664751Y-92180002D01*
X93683685Y-92348056D01*
X93739545Y-92507694D01*
X93739547Y-92507697D01*
X93829518Y-92650884D01*
X93829523Y-92650890D01*
X93949109Y-92770476D01*
X93949115Y-92770481D01*
X94092302Y-92860452D01*
X94092305Y-92860454D01*
X94092309Y-92860455D01*
X94092310Y-92860456D01*
X94164913Y-92885860D01*
X94251943Y-92916314D01*
X94419997Y-92935249D01*
X94420000Y-92935249D01*
X94420003Y-92935249D01*
X94588056Y-92916314D01*
X94588059Y-92916313D01*
X94747690Y-92860456D01*
X94747692Y-92860454D01*
X94747694Y-92860454D01*
X94747697Y-92860452D01*
X94890884Y-92770481D01*
X94890885Y-92770480D01*
X94890890Y-92770477D01*
X95010477Y-92650890D01*
X95100452Y-92507697D01*
X95100454Y-92507694D01*
X95100454Y-92507692D01*
X95100456Y-92507690D01*
X95156313Y-92348059D01*
X95156313Y-92348058D01*
X95156314Y-92348056D01*
X95175249Y-92180002D01*
X95175249Y-92179997D01*
X95156314Y-92011943D01*
X95100454Y-91852305D01*
X95100452Y-91852302D01*
X95010481Y-91709115D01*
X95010476Y-91709109D01*
X94890890Y-91589523D01*
X94890884Y-91589518D01*
X94747697Y-91499547D01*
X94747694Y-91499545D01*
X94588056Y-91443685D01*
X94420003Y-91424751D01*
X94419997Y-91424751D01*
X94251943Y-91443685D01*
X94092305Y-91499545D01*
X94092302Y-91499547D01*
X93949115Y-91589518D01*
X93949109Y-91589523D01*
X93829523Y-91709109D01*
X93829518Y-91709115D01*
X93739547Y-91852302D01*
X93739545Y-91852305D01*
X93683685Y-92011943D01*
X93664751Y-92179997D01*
X93664751Y-92180002D01*
X73000500Y-92180002D01*
X73000500Y-87180002D01*
X113664751Y-87180002D01*
X113683685Y-87348056D01*
X113739545Y-87507694D01*
X113739547Y-87507697D01*
X113829518Y-87650884D01*
X113829523Y-87650890D01*
X113949109Y-87770476D01*
X113949115Y-87770481D01*
X114092302Y-87860452D01*
X114092305Y-87860454D01*
X114092309Y-87860455D01*
X114092310Y-87860456D01*
X114164913Y-87885860D01*
X114251943Y-87916314D01*
X114419997Y-87935249D01*
X114420000Y-87935249D01*
X114420003Y-87935249D01*
X114588056Y-87916314D01*
X114588059Y-87916313D01*
X114747690Y-87860456D01*
X114747692Y-87860454D01*
X114747694Y-87860454D01*
X114747697Y-87860452D01*
X114890884Y-87770481D01*
X114890885Y-87770480D01*
X114890890Y-87770477D01*
X115010477Y-87650890D01*
X115100452Y-87507697D01*
X115100454Y-87507694D01*
X115100454Y-87507692D01*
X115100456Y-87507690D01*
X115156313Y-87348059D01*
X115156313Y-87348058D01*
X115156314Y-87348056D01*
X115175249Y-87180002D01*
X115175249Y-87179997D01*
X115156314Y-87011943D01*
X115100454Y-86852305D01*
X115100452Y-86852302D01*
X115010481Y-86709115D01*
X115010476Y-86709109D01*
X114890890Y-86589523D01*
X114890884Y-86589518D01*
X114747697Y-86499547D01*
X114747694Y-86499545D01*
X114588056Y-86443685D01*
X114420003Y-86424751D01*
X114419997Y-86424751D01*
X114251943Y-86443685D01*
X114092305Y-86499545D01*
X114092302Y-86499547D01*
X113949115Y-86589518D01*
X113949109Y-86589523D01*
X113829523Y-86709109D01*
X113829518Y-86709115D01*
X113739547Y-86852302D01*
X113739545Y-86852305D01*
X113683685Y-87011943D01*
X113664751Y-87179997D01*
X113664751Y-87180002D01*
X73000500Y-87180002D01*
X73000500Y-82802629D01*
X73875717Y-82802629D01*
X73905892Y-83051150D01*
X73975540Y-83291601D01*
X74082860Y-83517775D01*
X74155941Y-83623650D01*
X74225068Y-83723797D01*
X74398484Y-83904341D01*
X74598615Y-84054730D01*
X74820279Y-84171069D01*
X75057734Y-84250343D01*
X75057737Y-84250343D01*
X75057739Y-84250344D01*
X75304828Y-84290500D01*
X75304831Y-84290500D01*
X75492482Y-84290500D01*
X75586004Y-84282950D01*
X75679527Y-84275400D01*
X75922591Y-84215490D01*
X76152897Y-84117366D01*
X76364481Y-83983568D01*
X76551862Y-83817563D01*
X76710188Y-83623650D01*
X76835357Y-83406850D01*
X76924128Y-83172780D01*
X76974202Y-82927500D01*
X76984282Y-82677365D01*
X76954107Y-82428851D01*
X76954107Y-82428849D01*
X76918876Y-82307220D01*
X76884459Y-82188396D01*
X76777141Y-81962228D01*
X76777140Y-81962227D01*
X76777139Y-81962224D01*
X76634933Y-81756205D01*
X76634932Y-81756203D01*
X76461516Y-81575659D01*
X76261385Y-81425270D01*
X76261383Y-81425269D01*
X76261382Y-81425268D01*
X76039726Y-81308933D01*
X76039722Y-81308931D01*
X76039721Y-81308931D01*
X75802266Y-81229657D01*
X75802265Y-81229656D01*
X75802260Y-81229655D01*
X75555172Y-81189500D01*
X75555169Y-81189500D01*
X75367519Y-81189500D01*
X75367518Y-81189500D01*
X75180473Y-81204599D01*
X74937411Y-81264509D01*
X74707106Y-81362632D01*
X74495514Y-81496435D01*
X74308143Y-81662431D01*
X74149809Y-81856353D01*
X74024643Y-82073148D01*
X73935871Y-82307222D01*
X73885798Y-82552493D01*
X73885797Y-82552503D01*
X73875717Y-82802628D01*
X73875717Y-82802629D01*
X73000500Y-82802629D01*
X73000500Y-78202629D01*
X73875717Y-78202629D01*
X73905892Y-78451150D01*
X73975540Y-78691601D01*
X74082860Y-78917775D01*
X74155941Y-79023650D01*
X74225068Y-79123797D01*
X74398484Y-79304341D01*
X74598615Y-79454730D01*
X74820279Y-79571069D01*
X75057734Y-79650343D01*
X75057737Y-79650343D01*
X75057739Y-79650344D01*
X75304828Y-79690500D01*
X75304831Y-79690500D01*
X75492482Y-79690500D01*
X75586004Y-79682950D01*
X75679527Y-79675400D01*
X75922591Y-79615490D01*
X76152897Y-79517366D01*
X76364481Y-79383568D01*
X76551862Y-79217563D01*
X76710188Y-79023650D01*
X76835357Y-78806850D01*
X76924128Y-78572780D01*
X76974202Y-78327500D01*
X76981758Y-78140001D01*
X86724532Y-78140001D01*
X86744364Y-78366686D01*
X86744366Y-78366697D01*
X86803258Y-78586488D01*
X86803261Y-78586497D01*
X86899431Y-78792732D01*
X86899432Y-78792734D01*
X87029954Y-78979141D01*
X87190858Y-79140045D01*
X87190861Y-79140047D01*
X87377266Y-79270568D01*
X87583504Y-79366739D01*
X87803308Y-79425635D01*
X87965230Y-79439801D01*
X88029998Y-79445468D01*
X88030000Y-79445468D01*
X88030002Y-79445468D01*
X88086672Y-79440509D01*
X88256692Y-79425635D01*
X88476496Y-79366739D01*
X88682734Y-79270568D01*
X88869139Y-79140047D01*
X89030047Y-78979139D01*
X89160568Y-78792734D01*
X89256739Y-78586496D01*
X89315635Y-78366692D01*
X89335468Y-78140000D01*
X89315635Y-77913308D01*
X89256739Y-77693504D01*
X89160568Y-77487266D01*
X89030047Y-77300861D01*
X89030045Y-77300858D01*
X88909189Y-77180002D01*
X113664751Y-77180002D01*
X113683685Y-77348056D01*
X113739545Y-77507694D01*
X113739547Y-77507697D01*
X113829518Y-77650884D01*
X113829523Y-77650890D01*
X113949109Y-77770476D01*
X113949115Y-77770481D01*
X114092302Y-77860452D01*
X114092305Y-77860454D01*
X114092309Y-77860455D01*
X114092310Y-77860456D01*
X114164913Y-77885860D01*
X114251943Y-77916314D01*
X114419997Y-77935249D01*
X114420000Y-77935249D01*
X114420003Y-77935249D01*
X114588056Y-77916314D01*
X114588059Y-77916313D01*
X114747690Y-77860456D01*
X114747692Y-77860454D01*
X114747694Y-77860454D01*
X114747697Y-77860452D01*
X114890884Y-77770481D01*
X114890885Y-77770480D01*
X114890890Y-77770477D01*
X115010477Y-77650890D01*
X115100452Y-77507697D01*
X115100454Y-77507694D01*
X115100454Y-77507692D01*
X115100456Y-77507690D01*
X115156313Y-77348059D01*
X115156313Y-77348058D01*
X115156314Y-77348056D01*
X115175249Y-77180002D01*
X115175249Y-77179997D01*
X115156314Y-77011943D01*
X115121784Y-76913261D01*
X115100456Y-76852310D01*
X115100455Y-76852309D01*
X115100454Y-76852305D01*
X115100452Y-76852302D01*
X115010481Y-76709115D01*
X115010476Y-76709109D01*
X114890890Y-76589523D01*
X114890884Y-76589518D01*
X114747697Y-76499547D01*
X114747694Y-76499545D01*
X114588056Y-76443685D01*
X114420003Y-76424751D01*
X114419997Y-76424751D01*
X114251943Y-76443685D01*
X114092305Y-76499545D01*
X114092302Y-76499547D01*
X113949115Y-76589518D01*
X113949109Y-76589523D01*
X113829523Y-76709109D01*
X113829518Y-76709115D01*
X113739547Y-76852302D01*
X113739545Y-76852305D01*
X113683685Y-77011943D01*
X113664751Y-77179997D01*
X113664751Y-77180002D01*
X88909189Y-77180002D01*
X88869141Y-77139954D01*
X88682734Y-77009432D01*
X88682732Y-77009431D01*
X88476497Y-76913261D01*
X88476488Y-76913258D01*
X88256697Y-76854366D01*
X88256693Y-76854365D01*
X88256692Y-76854365D01*
X88256691Y-76854364D01*
X88256686Y-76854364D01*
X88030002Y-76834532D01*
X88029998Y-76834532D01*
X87803313Y-76854364D01*
X87803302Y-76854366D01*
X87583511Y-76913258D01*
X87583502Y-76913261D01*
X87377267Y-77009431D01*
X87377265Y-77009432D01*
X87190858Y-77139954D01*
X87029954Y-77300858D01*
X86899432Y-77487265D01*
X86899431Y-77487267D01*
X86803261Y-77693502D01*
X86803258Y-77693511D01*
X86744366Y-77913302D01*
X86744364Y-77913313D01*
X86724532Y-78139998D01*
X86724532Y-78140001D01*
X76981758Y-78140001D01*
X76984282Y-78077365D01*
X76957945Y-77860456D01*
X76954107Y-77828849D01*
X76902560Y-77650890D01*
X76884459Y-77588396D01*
X76777141Y-77362228D01*
X76777140Y-77362227D01*
X76777139Y-77362224D01*
X76634933Y-77156205D01*
X76634932Y-77156203D01*
X76461516Y-76975659D01*
X76261385Y-76825270D01*
X76261383Y-76825269D01*
X76261382Y-76825268D01*
X76039726Y-76708933D01*
X76039722Y-76708931D01*
X76039721Y-76708931D01*
X75802266Y-76629657D01*
X75802265Y-76629656D01*
X75802260Y-76629655D01*
X75555172Y-76589500D01*
X75555169Y-76589500D01*
X75367519Y-76589500D01*
X75367518Y-76589500D01*
X75180473Y-76604599D01*
X74937411Y-76664509D01*
X74707106Y-76762632D01*
X74495514Y-76896435D01*
X74308143Y-77062431D01*
X74149809Y-77256353D01*
X74024643Y-77473148D01*
X73935871Y-77707222D01*
X73885798Y-77952493D01*
X73885797Y-77952503D01*
X73875717Y-78202628D01*
X73875717Y-78202629D01*
X73000500Y-78202629D01*
X73000500Y-76314676D01*
X120469499Y-76314676D01*
X120469500Y-76314678D01*
X120484032Y-76387735D01*
X120484033Y-76387739D01*
X120484034Y-76387740D01*
X120539399Y-76470601D01*
X120620326Y-76524674D01*
X120622260Y-76525966D01*
X120622264Y-76525967D01*
X120695321Y-76540499D01*
X120695324Y-76540500D01*
X120695326Y-76540500D01*
X122744676Y-76540500D01*
X122744677Y-76540499D01*
X122817740Y-76525966D01*
X122900601Y-76470601D01*
X122955966Y-76387740D01*
X122970500Y-76314674D01*
X122970500Y-75290002D01*
X125464723Y-75290002D01*
X125483793Y-75507975D01*
X125483793Y-75507979D01*
X125540422Y-75719322D01*
X125540424Y-75719326D01*
X125540425Y-75719330D01*
X125586661Y-75818484D01*
X125632897Y-75917638D01*
X125641084Y-75929330D01*
X125758402Y-76096877D01*
X125913123Y-76251598D01*
X126092361Y-76377102D01*
X126290670Y-76469575D01*
X126502023Y-76526207D01*
X126684926Y-76542208D01*
X126719998Y-76545277D01*
X126720000Y-76545277D01*
X126720002Y-76545277D01*
X126748254Y-76542805D01*
X126937977Y-76526207D01*
X126943691Y-76524676D01*
X131759499Y-76524676D01*
X131759500Y-76524678D01*
X131774032Y-76597735D01*
X131774033Y-76597739D01*
X131792405Y-76625235D01*
X131829399Y-76680601D01*
X131912260Y-76735966D01*
X131912264Y-76735967D01*
X131985321Y-76750499D01*
X131985324Y-76750500D01*
X131985326Y-76750500D01*
X134034676Y-76750500D01*
X134034677Y-76750499D01*
X134107740Y-76735966D01*
X134190601Y-76680601D01*
X134245966Y-76597740D01*
X134260500Y-76524674D01*
X134260500Y-75500002D01*
X136754723Y-75500002D01*
X136773793Y-75717975D01*
X136773793Y-75717979D01*
X136830422Y-75929322D01*
X136830424Y-75929326D01*
X136830425Y-75929330D01*
X136876661Y-76028484D01*
X136922897Y-76127638D01*
X136922898Y-76127639D01*
X137048402Y-76306877D01*
X137203123Y-76461598D01*
X137382361Y-76587102D01*
X137580670Y-76679575D01*
X137792023Y-76736207D01*
X137974926Y-76752208D01*
X138009998Y-76755277D01*
X138010000Y-76755277D01*
X138010002Y-76755277D01*
X138038254Y-76752805D01*
X138227977Y-76736207D01*
X138439330Y-76679575D01*
X138637639Y-76587102D01*
X138816877Y-76461598D01*
X138971598Y-76306877D01*
X139097102Y-76127639D01*
X139189575Y-75929330D01*
X139246207Y-75717977D01*
X139265277Y-75500000D01*
X139246207Y-75282023D01*
X139211548Y-75152675D01*
X139189577Y-75070677D01*
X139189576Y-75070676D01*
X139189575Y-75070670D01*
X139097102Y-74872362D01*
X139097100Y-74872359D01*
X139097099Y-74872357D01*
X138971599Y-74693124D01*
X138896038Y-74617563D01*
X138816877Y-74538402D01*
X138678978Y-74441844D01*
X138637638Y-74412897D01*
X138538484Y-74366661D01*
X138439330Y-74320425D01*
X138439326Y-74320424D01*
X138439322Y-74320422D01*
X138227977Y-74263793D01*
X138010002Y-74244723D01*
X138009998Y-74244723D01*
X137864682Y-74257436D01*
X137792023Y-74263793D01*
X137792020Y-74263793D01*
X137580677Y-74320422D01*
X137580668Y-74320426D01*
X137382361Y-74412898D01*
X137382357Y-74412900D01*
X137203121Y-74538402D01*
X137048402Y-74693121D01*
X136922900Y-74872357D01*
X136922898Y-74872361D01*
X136830426Y-75070668D01*
X136830422Y-75070677D01*
X136773793Y-75282020D01*
X136773793Y-75282024D01*
X136754723Y-75499997D01*
X136754723Y-75500002D01*
X134260500Y-75500002D01*
X134260500Y-74475326D01*
X134260500Y-74475323D01*
X134260499Y-74475321D01*
X134245967Y-74402264D01*
X134245966Y-74402260D01*
X134236346Y-74387863D01*
X134190601Y-74319399D01*
X134109674Y-74265326D01*
X134107739Y-74264033D01*
X134107735Y-74264032D01*
X134034677Y-74249500D01*
X134034674Y-74249500D01*
X131985326Y-74249500D01*
X131985323Y-74249500D01*
X131912264Y-74264032D01*
X131912260Y-74264033D01*
X131829399Y-74319399D01*
X131774033Y-74402260D01*
X131774032Y-74402264D01*
X131759500Y-74475321D01*
X131759499Y-74475323D01*
X131759499Y-76524676D01*
X126943691Y-76524676D01*
X127149330Y-76469575D01*
X127347639Y-76377102D01*
X127526877Y-76251598D01*
X127681598Y-76096877D01*
X127807102Y-75917639D01*
X127899575Y-75719330D01*
X127956207Y-75507977D01*
X127975277Y-75290000D01*
X127956207Y-75072023D01*
X127899575Y-74860670D01*
X127807102Y-74662362D01*
X127807100Y-74662359D01*
X127807099Y-74662357D01*
X127681599Y-74483124D01*
X127611372Y-74412897D01*
X127526877Y-74328402D01*
X127388978Y-74231844D01*
X127347638Y-74202897D01*
X127248484Y-74156661D01*
X127149330Y-74110425D01*
X127149326Y-74110424D01*
X127149322Y-74110422D01*
X126937977Y-74053793D01*
X126720002Y-74034723D01*
X126719998Y-74034723D01*
X126574681Y-74047436D01*
X126502023Y-74053793D01*
X126502020Y-74053793D01*
X126290677Y-74110422D01*
X126290668Y-74110426D01*
X126092361Y-74202898D01*
X126092357Y-74202900D01*
X125913121Y-74328402D01*
X125758402Y-74483121D01*
X125632900Y-74662357D01*
X125632898Y-74662361D01*
X125540426Y-74860668D01*
X125540422Y-74860677D01*
X125483793Y-75072020D01*
X125483793Y-75072024D01*
X125464723Y-75289997D01*
X125464723Y-75290002D01*
X122970500Y-75290002D01*
X122970500Y-74265326D01*
X122970500Y-74265325D01*
X122970500Y-74265323D01*
X122970499Y-74265321D01*
X122955967Y-74192264D01*
X122955966Y-74192260D01*
X122900601Y-74109399D01*
X122817740Y-74054034D01*
X122817739Y-74054033D01*
X122817735Y-74054032D01*
X122744677Y-74039500D01*
X122744674Y-74039500D01*
X120695326Y-74039500D01*
X120695323Y-74039500D01*
X120622264Y-74054032D01*
X120622260Y-74054033D01*
X120539399Y-74109399D01*
X120484033Y-74192260D01*
X120484032Y-74192264D01*
X120469500Y-74265321D01*
X120469499Y-74265323D01*
X120469499Y-76314676D01*
X73000500Y-76314676D01*
X73000500Y-73602629D01*
X73875717Y-73602629D01*
X73905892Y-73851150D01*
X73964659Y-74054034D01*
X73975541Y-74091604D01*
X73984472Y-74110425D01*
X74082860Y-74317775D01*
X74172391Y-74447482D01*
X74225068Y-74523797D01*
X74398484Y-74704341D01*
X74598615Y-74854730D01*
X74820279Y-74971069D01*
X75057734Y-75050343D01*
X75057737Y-75050343D01*
X75057739Y-75050344D01*
X75304828Y-75090500D01*
X75304831Y-75090500D01*
X75492482Y-75090500D01*
X75586004Y-75082950D01*
X75679527Y-75075400D01*
X75922591Y-75015490D01*
X76152897Y-74917366D01*
X76364481Y-74783568D01*
X76551862Y-74617563D01*
X76710188Y-74423650D01*
X76730850Y-74387863D01*
X86729500Y-74387863D01*
X86729501Y-74387882D01*
X86735908Y-74447481D01*
X86786202Y-74582327D01*
X86786203Y-74582328D01*
X86786204Y-74582330D01*
X86872454Y-74697546D01*
X86987670Y-74783796D01*
X86987671Y-74783796D01*
X86987672Y-74783797D01*
X87122518Y-74834091D01*
X87122517Y-74834091D01*
X87129445Y-74834835D01*
X87182128Y-74840500D01*
X87182137Y-74840500D01*
X88877863Y-74840500D01*
X88877872Y-74840500D01*
X88937482Y-74834091D01*
X89072330Y-74783796D01*
X89187546Y-74697546D01*
X89273796Y-74582330D01*
X89324091Y-74447482D01*
X89330500Y-74387872D01*
X89330500Y-72692128D01*
X89324091Y-72632518D01*
X89295628Y-72556205D01*
X89273797Y-72497672D01*
X89273796Y-72497671D01*
X89273796Y-72497670D01*
X89187546Y-72382454D01*
X89072330Y-72296204D01*
X89072328Y-72296203D01*
X89072327Y-72296202D01*
X88937481Y-72245908D01*
X88937482Y-72245908D01*
X88877882Y-72239501D01*
X88877880Y-72239500D01*
X88877872Y-72239500D01*
X87182128Y-72239500D01*
X87182120Y-72239500D01*
X87182117Y-72239501D01*
X87122518Y-72245908D01*
X86987672Y-72296202D01*
X86987670Y-72296204D01*
X86872454Y-72382454D01*
X86786204Y-72497670D01*
X86786202Y-72497672D01*
X86735908Y-72632518D01*
X86729501Y-72692117D01*
X86729500Y-72692136D01*
X86729500Y-74387863D01*
X76730850Y-74387863D01*
X76835357Y-74206850D01*
X76924128Y-73972780D01*
X76974202Y-73727500D01*
X76984282Y-73477365D01*
X76954107Y-73228851D01*
X76954107Y-73228849D01*
X76918876Y-73107220D01*
X76884459Y-72988396D01*
X76777141Y-72762228D01*
X76777140Y-72762227D01*
X76777139Y-72762224D01*
X76634933Y-72556205D01*
X76634932Y-72556203D01*
X76461516Y-72375659D01*
X76261385Y-72225270D01*
X76261383Y-72225269D01*
X76261382Y-72225268D01*
X76175136Y-72180002D01*
X93664751Y-72180002D01*
X93683685Y-72348056D01*
X93739545Y-72507694D01*
X93739547Y-72507697D01*
X93829518Y-72650884D01*
X93829523Y-72650890D01*
X93949109Y-72770476D01*
X93949115Y-72770481D01*
X94092302Y-72860452D01*
X94092305Y-72860454D01*
X94092309Y-72860455D01*
X94092310Y-72860456D01*
X94128582Y-72873148D01*
X94251943Y-72916314D01*
X94419997Y-72935249D01*
X94420000Y-72935249D01*
X94420003Y-72935249D01*
X94588056Y-72916314D01*
X94588059Y-72916313D01*
X94747690Y-72860456D01*
X94747692Y-72860454D01*
X94747694Y-72860454D01*
X94747697Y-72860452D01*
X94890884Y-72770481D01*
X94890885Y-72770480D01*
X94890890Y-72770477D01*
X95010477Y-72650890D01*
X95100452Y-72507697D01*
X95100454Y-72507694D01*
X95100454Y-72507692D01*
X95100456Y-72507690D01*
X95156313Y-72348059D01*
X95156313Y-72348058D01*
X95156314Y-72348056D01*
X95175249Y-72180002D01*
X95175249Y-72179997D01*
X95156314Y-72011943D01*
X95100454Y-71852305D01*
X95100452Y-71852302D01*
X95010481Y-71709115D01*
X95010476Y-71709109D01*
X94890890Y-71589523D01*
X94890884Y-71589518D01*
X94747697Y-71499547D01*
X94747694Y-71499545D01*
X94588056Y-71443685D01*
X94420003Y-71424751D01*
X94419997Y-71424751D01*
X94251943Y-71443685D01*
X94092305Y-71499545D01*
X94092302Y-71499547D01*
X93949115Y-71589518D01*
X93949109Y-71589523D01*
X93829523Y-71709109D01*
X93829518Y-71709115D01*
X93739547Y-71852302D01*
X93739545Y-71852305D01*
X93683685Y-72011943D01*
X93664751Y-72179997D01*
X93664751Y-72180002D01*
X76175136Y-72180002D01*
X76039726Y-72108933D01*
X76039722Y-72108931D01*
X76039721Y-72108931D01*
X75802266Y-72029657D01*
X75802265Y-72029656D01*
X75802260Y-72029655D01*
X75555172Y-71989500D01*
X75555169Y-71989500D01*
X75367519Y-71989500D01*
X75367518Y-71989500D01*
X75180473Y-72004599D01*
X74937411Y-72064509D01*
X74707106Y-72162632D01*
X74495514Y-72296435D01*
X74308143Y-72462431D01*
X74149809Y-72656353D01*
X74024643Y-72873148D01*
X73935871Y-73107222D01*
X73885798Y-73352493D01*
X73885797Y-73352503D01*
X73875717Y-73602628D01*
X73875717Y-73602629D01*
X73000500Y-73602629D01*
X73000500Y-60170004D01*
X86229592Y-60170004D01*
X86249196Y-60431620D01*
X86249197Y-60431625D01*
X86307576Y-60687402D01*
X86307578Y-60687411D01*
X86307580Y-60687416D01*
X86403432Y-60931643D01*
X86534614Y-61158857D01*
X86641629Y-61293049D01*
X86698198Y-61363985D01*
X86879753Y-61532441D01*
X86890521Y-61542433D01*
X87107296Y-61690228D01*
X87107301Y-61690230D01*
X87107302Y-61690231D01*
X87107303Y-61690232D01*
X87232843Y-61750688D01*
X87343673Y-61804061D01*
X87343674Y-61804061D01*
X87343677Y-61804063D01*
X87594385Y-61881396D01*
X87853818Y-61920500D01*
X88116182Y-61920500D01*
X88375615Y-61881396D01*
X88626323Y-61804063D01*
X88862704Y-61690228D01*
X89079479Y-61542433D01*
X89271805Y-61363981D01*
X89435386Y-61158857D01*
X89566568Y-60931643D01*
X89662420Y-60687416D01*
X89720802Y-60431630D01*
X89740408Y-60170004D01*
X93849592Y-60170004D01*
X93869196Y-60431620D01*
X93869197Y-60431625D01*
X93927576Y-60687402D01*
X93927578Y-60687411D01*
X93927580Y-60687416D01*
X94023432Y-60931643D01*
X94154614Y-61158857D01*
X94261629Y-61293049D01*
X94318198Y-61363985D01*
X94499753Y-61532441D01*
X94510521Y-61542433D01*
X94727296Y-61690228D01*
X94727301Y-61690230D01*
X94727302Y-61690231D01*
X94727303Y-61690232D01*
X94852843Y-61750688D01*
X94963673Y-61804061D01*
X94963674Y-61804061D01*
X94963677Y-61804063D01*
X95214385Y-61881396D01*
X95473818Y-61920500D01*
X95736182Y-61920500D01*
X95995615Y-61881396D01*
X96246323Y-61804063D01*
X96482704Y-61690228D01*
X96699479Y-61542433D01*
X96891805Y-61363981D01*
X97055386Y-61158857D01*
X97186568Y-60931643D01*
X97282420Y-60687416D01*
X97340802Y-60431630D01*
X97360408Y-60170000D01*
X97340802Y-59908370D01*
X97282420Y-59652584D01*
X97186568Y-59408357D01*
X97159784Y-59361966D01*
X112824500Y-59361966D01*
X112824501Y-60978032D01*
X112824501Y-60978033D01*
X112835113Y-61097415D01*
X112891089Y-61293045D01*
X112891090Y-61293048D01*
X112891091Y-61293049D01*
X112985302Y-61473407D01*
X112985304Y-61473409D01*
X113113890Y-61631109D01*
X113207803Y-61707684D01*
X113271593Y-61759698D01*
X113451951Y-61853909D01*
X113647582Y-61909886D01*
X113766963Y-61920500D01*
X113766964Y-61920499D01*
X113766965Y-61920500D01*
X113766966Y-61920500D01*
X114458624Y-61920499D01*
X115383036Y-61920499D01*
X115502418Y-61909886D01*
X115698049Y-61853909D01*
X115878407Y-61759698D01*
X116036109Y-61631109D01*
X116164698Y-61473407D01*
X116258909Y-61293049D01*
X116314886Y-61097418D01*
X116325500Y-60978037D01*
X116325499Y-59361966D01*
X120444500Y-59361966D01*
X120444501Y-60978032D01*
X120444501Y-60978033D01*
X120455113Y-61097415D01*
X120511089Y-61293045D01*
X120511090Y-61293048D01*
X120511091Y-61293049D01*
X120605302Y-61473407D01*
X120605304Y-61473409D01*
X120733890Y-61631109D01*
X120827803Y-61707684D01*
X120891593Y-61759698D01*
X121071951Y-61853909D01*
X121267582Y-61909886D01*
X121386963Y-61920500D01*
X121386964Y-61920499D01*
X121386965Y-61920500D01*
X121386966Y-61920500D01*
X122079524Y-61920499D01*
X123003036Y-61920499D01*
X123122418Y-61909886D01*
X123318049Y-61853909D01*
X123498407Y-61759698D01*
X123656109Y-61631109D01*
X123784698Y-61473407D01*
X123878909Y-61293049D01*
X123934886Y-61097418D01*
X123945500Y-60978037D01*
X123945499Y-59361964D01*
X123934886Y-59242582D01*
X123878909Y-59046951D01*
X123784698Y-58866593D01*
X123728415Y-58797567D01*
X123656109Y-58708890D01*
X123498409Y-58580304D01*
X123498410Y-58580304D01*
X123498407Y-58580302D01*
X123318049Y-58486091D01*
X123318048Y-58486090D01*
X123318045Y-58486089D01*
X123200829Y-58452550D01*
X123122418Y-58430114D01*
X123122415Y-58430113D01*
X123122413Y-58430113D01*
X123031983Y-58422073D01*
X123003037Y-58419500D01*
X123003035Y-58419500D01*
X123003034Y-58419500D01*
X122313581Y-58419500D01*
X121386964Y-58419501D01*
X121357727Y-58422100D01*
X121267584Y-58430113D01*
X121071954Y-58486089D01*
X120981771Y-58533196D01*
X120891593Y-58580302D01*
X120891591Y-58580303D01*
X120891590Y-58580304D01*
X120733890Y-58708890D01*
X120605304Y-58866590D01*
X120511089Y-59046954D01*
X120455114Y-59242583D01*
X120455113Y-59242586D01*
X120444500Y-59361965D01*
X120444500Y-59361966D01*
X116325499Y-59361966D01*
X116325499Y-59361964D01*
X116314886Y-59242582D01*
X116258909Y-59046951D01*
X116164698Y-58866593D01*
X116108415Y-58797567D01*
X116036109Y-58708890D01*
X115878409Y-58580304D01*
X115878410Y-58580304D01*
X115878407Y-58580302D01*
X115698049Y-58486091D01*
X115698048Y-58486090D01*
X115698045Y-58486089D01*
X115580829Y-58452550D01*
X115502418Y-58430114D01*
X115502415Y-58430113D01*
X115502413Y-58430113D01*
X115411983Y-58422073D01*
X115383037Y-58419500D01*
X115383035Y-58419500D01*
X115383034Y-58419500D01*
X114688000Y-58419500D01*
X113766964Y-58419501D01*
X113737727Y-58422100D01*
X113647584Y-58430113D01*
X113451954Y-58486089D01*
X113361771Y-58533196D01*
X113271593Y-58580302D01*
X113271591Y-58580303D01*
X113271590Y-58580304D01*
X113113890Y-58708890D01*
X112985304Y-58866590D01*
X112891089Y-59046954D01*
X112835114Y-59242583D01*
X112835113Y-59242586D01*
X112824500Y-59361965D01*
X112824500Y-59361966D01*
X97159784Y-59361966D01*
X97055386Y-59181143D01*
X96891805Y-58976019D01*
X96891804Y-58976018D01*
X96891801Y-58976014D01*
X96699479Y-58797567D01*
X96569415Y-58708891D01*
X96482704Y-58649772D01*
X96482700Y-58649770D01*
X96482697Y-58649768D01*
X96482696Y-58649767D01*
X96246325Y-58535938D01*
X96246327Y-58535938D01*
X95995623Y-58458606D01*
X95995619Y-58458605D01*
X95995615Y-58458604D01*
X95870823Y-58439794D01*
X95736187Y-58419500D01*
X95736182Y-58419500D01*
X95473818Y-58419500D01*
X95473812Y-58419500D01*
X95312247Y-58443853D01*
X95214385Y-58458604D01*
X95214381Y-58458605D01*
X95214382Y-58458605D01*
X95214376Y-58458606D01*
X94963673Y-58535938D01*
X94727303Y-58649767D01*
X94727302Y-58649768D01*
X94510520Y-58797567D01*
X94318198Y-58976014D01*
X94154614Y-59181143D01*
X94023432Y-59408356D01*
X93927582Y-59652578D01*
X93927576Y-59652597D01*
X93869197Y-59908374D01*
X93869196Y-59908379D01*
X93849592Y-60169995D01*
X93849592Y-60170004D01*
X89740408Y-60170004D01*
X89740408Y-60170000D01*
X89720802Y-59908370D01*
X89662420Y-59652584D01*
X89566568Y-59408357D01*
X89435386Y-59181143D01*
X89271805Y-58976019D01*
X89271804Y-58976018D01*
X89271801Y-58976014D01*
X89079479Y-58797567D01*
X88949415Y-58708891D01*
X88862704Y-58649772D01*
X88862700Y-58649770D01*
X88862697Y-58649768D01*
X88862696Y-58649767D01*
X88626325Y-58535938D01*
X88626327Y-58535938D01*
X88375623Y-58458606D01*
X88375619Y-58458605D01*
X88375615Y-58458604D01*
X88250823Y-58439794D01*
X88116187Y-58419500D01*
X88116182Y-58419500D01*
X87853818Y-58419500D01*
X87853812Y-58419500D01*
X87692247Y-58443853D01*
X87594385Y-58458604D01*
X87594381Y-58458605D01*
X87594382Y-58458605D01*
X87594376Y-58458606D01*
X87343673Y-58535938D01*
X87107303Y-58649767D01*
X87107302Y-58649768D01*
X86890520Y-58797567D01*
X86698198Y-58976014D01*
X86534614Y-59181143D01*
X86403432Y-59408356D01*
X86307582Y-59652578D01*
X86307576Y-59652597D01*
X86249197Y-59908374D01*
X86249196Y-59908379D01*
X86229592Y-60169995D01*
X86229592Y-60170004D01*
X73000500Y-60170004D01*
X73000500Y-55500000D01*
X73494390Y-55500000D01*
X73501979Y-55606114D01*
X73502390Y-55611853D01*
X73502548Y-55616277D01*
X73502548Y-55642866D01*
X73506330Y-55669170D01*
X73506803Y-55673572D01*
X73514803Y-55785424D01*
X73514805Y-55785438D01*
X73538638Y-55894993D01*
X73539423Y-55899344D01*
X73540362Y-55905867D01*
X73543209Y-55925668D01*
X73547747Y-55941123D01*
X73547754Y-55941147D01*
X73550700Y-55951182D01*
X73551793Y-55955467D01*
X73575629Y-56065040D01*
X73575630Y-56065043D01*
X73614821Y-56170120D01*
X73616219Y-56174320D01*
X73623702Y-56199806D01*
X73630882Y-56215528D01*
X73630900Y-56215572D01*
X73634746Y-56223994D01*
X73636438Y-56228080D01*
X73675632Y-56333158D01*
X73675635Y-56333166D01*
X73729363Y-56431561D01*
X73731345Y-56435521D01*
X73742396Y-56459720D01*
X73756779Y-56482099D01*
X73759039Y-56485908D01*
X73812770Y-56584309D01*
X73812775Y-56584317D01*
X73879976Y-56674086D01*
X73882493Y-56677710D01*
X73887206Y-56685044D01*
X73896871Y-56700084D01*
X73907239Y-56712049D01*
X73908579Y-56713595D01*
X73908582Y-56713599D01*
X73914277Y-56720171D01*
X73917049Y-56723611D01*
X73984261Y-56813395D01*
X73984264Y-56813398D01*
X74063550Y-56892684D01*
X74066567Y-56895924D01*
X74083981Y-56916021D01*
X74104073Y-56933430D01*
X74107311Y-56936445D01*
X74186605Y-57015739D01*
X74217423Y-57038809D01*
X74276381Y-57082945D01*
X74279827Y-57085722D01*
X74287173Y-57092087D01*
X74287186Y-57092098D01*
X74299907Y-57103121D01*
X74313101Y-57111601D01*
X74314944Y-57112786D01*
X74314956Y-57112794D01*
X74318911Y-57115336D01*
X74322281Y-57117502D01*
X74325908Y-57120019D01*
X74358435Y-57144369D01*
X74415682Y-57187224D01*
X74415695Y-57187232D01*
X74514096Y-57240963D01*
X74517904Y-57243222D01*
X74540286Y-57257606D01*
X74564479Y-57268654D01*
X74568431Y-57270632D01*
X74666839Y-57324367D01*
X74771919Y-57363560D01*
X74775993Y-57365247D01*
X74783914Y-57368865D01*
X74783932Y-57368872D01*
X74784634Y-57369193D01*
X74784717Y-57369229D01*
X74800195Y-57376297D01*
X74817326Y-57381327D01*
X74817335Y-57381330D01*
X74825696Y-57383785D01*
X74829887Y-57385181D01*
X74836303Y-57387574D01*
X74934954Y-57424369D01*
X75044576Y-57448215D01*
X75048787Y-57449290D01*
X75057170Y-57451752D01*
X75057202Y-57451760D01*
X75057651Y-57451892D01*
X75057686Y-57451902D01*
X75074328Y-57456789D01*
X75091681Y-57459284D01*
X75091733Y-57459293D01*
X75092023Y-57459334D01*
X75092025Y-57459335D01*
X75100671Y-57460578D01*
X75104979Y-57461355D01*
X75214572Y-57485196D01*
X75326448Y-57493197D01*
X75330802Y-57493665D01*
X75339441Y-57494907D01*
X75339443Y-57494907D01*
X75357135Y-57497452D01*
X75383721Y-57497452D01*
X75388143Y-57497609D01*
X75437344Y-57501128D01*
X75499999Y-57505610D01*
X75500000Y-57505610D01*
X75500001Y-57505610D01*
X75562655Y-57501128D01*
X75611856Y-57497609D01*
X75616279Y-57497452D01*
X75642863Y-57497452D01*
X75660548Y-57494908D01*
X75660559Y-57494907D01*
X75669203Y-57493664D01*
X75673545Y-57493197D01*
X75785428Y-57485196D01*
X75895025Y-57461354D01*
X75899323Y-57460578D01*
X75907975Y-57459335D01*
X75908004Y-57459329D01*
X75908218Y-57459299D01*
X75908268Y-57459291D01*
X75925664Y-57456789D01*
X75942784Y-57451763D01*
X75942830Y-57451752D01*
X75951213Y-57449290D01*
X75955404Y-57448220D01*
X76065046Y-57424369D01*
X76170144Y-57385169D01*
X76174304Y-57383785D01*
X76174314Y-57383782D01*
X76182665Y-57381330D01*
X76182674Y-57381326D01*
X76199802Y-57376297D01*
X76216000Y-57368900D01*
X76216086Y-57368865D01*
X76224010Y-57365245D01*
X76228062Y-57363566D01*
X76333161Y-57324367D01*
X76431568Y-57270632D01*
X76435514Y-57268657D01*
X76459709Y-57257607D01*
X76474744Y-57247944D01*
X76474764Y-57247933D01*
X76482117Y-57243207D01*
X76485850Y-57240991D01*
X76575830Y-57191858D01*
X76584310Y-57187229D01*
X76584310Y-57187228D01*
X76584315Y-57187226D01*
X76674112Y-57120004D01*
X76677707Y-57117509D01*
X76685044Y-57112794D01*
X76685082Y-57112767D01*
X76700083Y-57103126D01*
X76713549Y-57091458D01*
X76713599Y-57091418D01*
X76720192Y-57085704D01*
X76723580Y-57082973D01*
X76813395Y-57015739D01*
X76892716Y-56936417D01*
X76895914Y-56933440D01*
X76902506Y-56927729D01*
X76902529Y-56927707D01*
X76916018Y-56916018D01*
X76927707Y-56902529D01*
X76927729Y-56902506D01*
X76933440Y-56895914D01*
X76936417Y-56892716D01*
X77015739Y-56813395D01*
X77082973Y-56723580D01*
X77085704Y-56720192D01*
X77091418Y-56713599D01*
X77091457Y-56713549D01*
X77103129Y-56700080D01*
X77111587Y-56686922D01*
X77112794Y-56685044D01*
X77117509Y-56677707D01*
X77120004Y-56674112D01*
X77187226Y-56584315D01*
X77187230Y-56584309D01*
X77191858Y-56575830D01*
X77240991Y-56485850D01*
X77243207Y-56482117D01*
X77247933Y-56474764D01*
X77247944Y-56474744D01*
X77257607Y-56459709D01*
X77268657Y-56435514D01*
X77270636Y-56431561D01*
X77324367Y-56333161D01*
X77363566Y-56228062D01*
X77365245Y-56224010D01*
X77368865Y-56216086D01*
X77368900Y-56216000D01*
X77376297Y-56199802D01*
X77382195Y-56179720D01*
X77383785Y-56174303D01*
X77385169Y-56170144D01*
X77424369Y-56065046D01*
X77448220Y-55955404D01*
X77449290Y-55951213D01*
X77451752Y-55942830D01*
X77451761Y-55942792D01*
X77456789Y-55925665D01*
X77459255Y-55908520D01*
X77459263Y-55908469D01*
X77459330Y-55908002D01*
X77459335Y-55907975D01*
X77460578Y-55899322D01*
X77461354Y-55895026D01*
X77485196Y-55785428D01*
X77493197Y-55673545D01*
X77493665Y-55669195D01*
X77495226Y-55658343D01*
X77495229Y-55658312D01*
X77497459Y-55642808D01*
X77497096Y-55640151D01*
X77497731Y-55627227D01*
X77497871Y-55619344D01*
X77498107Y-55606114D01*
X77498250Y-55602899D01*
X77505610Y-55500000D01*
X77498250Y-55397104D01*
X77498107Y-55393882D01*
X77497731Y-55372777D01*
X77497096Y-55359851D01*
X77497563Y-55357914D01*
X77493667Y-55330816D01*
X77493196Y-55326439D01*
X77485196Y-55214572D01*
X77461355Y-55104979D01*
X77460577Y-55100664D01*
X77459335Y-55092025D01*
X77459292Y-55091725D01*
X77459278Y-55091645D01*
X77456788Y-55074327D01*
X77452378Y-55059303D01*
X77451755Y-55057184D01*
X77451752Y-55057170D01*
X77449290Y-55048787D01*
X77448215Y-55044576D01*
X77424369Y-54934954D01*
X77385181Y-54829887D01*
X77383782Y-54825687D01*
X77376297Y-54800195D01*
X77369229Y-54784717D01*
X77369193Y-54784634D01*
X77368872Y-54783932D01*
X77368865Y-54783914D01*
X77365242Y-54775980D01*
X77363557Y-54771912D01*
X77324367Y-54666839D01*
X77270632Y-54568431D01*
X77268654Y-54564479D01*
X77257606Y-54540286D01*
X77243222Y-54517904D01*
X77240963Y-54514096D01*
X77187232Y-54415695D01*
X77187224Y-54415682D01*
X77120024Y-54325914D01*
X77117502Y-54322281D01*
X77115336Y-54318911D01*
X77112794Y-54314956D01*
X77112786Y-54314944D01*
X77111601Y-54313101D01*
X77111601Y-54313100D01*
X77103123Y-54299910D01*
X77092868Y-54288075D01*
X77089752Y-54284479D01*
X77085722Y-54279827D01*
X77082945Y-54276381D01*
X77051290Y-54234096D01*
X77015739Y-54186605D01*
X76936440Y-54107306D01*
X76933430Y-54104073D01*
X76916021Y-54083981D01*
X76895924Y-54066567D01*
X76892684Y-54063550D01*
X76813398Y-53984264D01*
X76813395Y-53984261D01*
X76772287Y-53953488D01*
X76723615Y-53917052D01*
X76720171Y-53914277D01*
X76713599Y-53908582D01*
X76713588Y-53908573D01*
X76710248Y-53905679D01*
X76710227Y-53905659D01*
X76700087Y-53896874D01*
X76685054Y-53887213D01*
X76685044Y-53887206D01*
X76677710Y-53882493D01*
X76674086Y-53879976D01*
X76584317Y-53812775D01*
X76584309Y-53812770D01*
X76485908Y-53759039D01*
X76482099Y-53756779D01*
X76459720Y-53742396D01*
X76435521Y-53731345D01*
X76431561Y-53729363D01*
X76333166Y-53675635D01*
X76333158Y-53675632D01*
X76228080Y-53636438D01*
X76223994Y-53634746D01*
X76215572Y-53630900D01*
X76215528Y-53630882D01*
X76199806Y-53623702D01*
X76174320Y-53616219D01*
X76170120Y-53614821D01*
X76065043Y-53575630D01*
X76065040Y-53575629D01*
X75955467Y-53551793D01*
X75951182Y-53550700D01*
X75941147Y-53547754D01*
X75941123Y-53547747D01*
X75925662Y-53543207D01*
X75909620Y-53540901D01*
X75899350Y-53539424D01*
X75895001Y-53538640D01*
X75868040Y-53532775D01*
X75785438Y-53514805D01*
X75785424Y-53514803D01*
X75673572Y-53506803D01*
X75669170Y-53506330D01*
X75642867Y-53502548D01*
X75624981Y-53502548D01*
X75616279Y-53502548D01*
X75611856Y-53502390D01*
X75562655Y-53498871D01*
X75500001Y-53494390D01*
X75499999Y-53494390D01*
X75437344Y-53498871D01*
X75388143Y-53502390D01*
X75383721Y-53502548D01*
X75357130Y-53502548D01*
X75330827Y-53506330D01*
X75326425Y-53506803D01*
X75214575Y-53514803D01*
X75214558Y-53514806D01*
X75105009Y-53538637D01*
X75100664Y-53539421D01*
X75092341Y-53540619D01*
X75092025Y-53540665D01*
X75092022Y-53540665D01*
X75089852Y-53540978D01*
X75089826Y-53540979D01*
X75089827Y-53540981D01*
X75074326Y-53543209D01*
X75060338Y-53547317D01*
X75060321Y-53547323D01*
X75048820Y-53550699D01*
X75044531Y-53551794D01*
X74934959Y-53575629D01*
X74934955Y-53575630D01*
X74829883Y-53614819D01*
X74825684Y-53616216D01*
X74800190Y-53623702D01*
X74785565Y-53630382D01*
X74785525Y-53630399D01*
X74775980Y-53634756D01*
X74771902Y-53636445D01*
X74666840Y-53675632D01*
X74666831Y-53675636D01*
X74568436Y-53729363D01*
X74564478Y-53731344D01*
X74540290Y-53742389D01*
X74517913Y-53756771D01*
X74514106Y-53759030D01*
X74415689Y-53812770D01*
X74415685Y-53812773D01*
X74325907Y-53879978D01*
X74322283Y-53882495D01*
X74313100Y-53888399D01*
X74299903Y-53896879D01*
X74279827Y-53914277D01*
X74276379Y-53917055D01*
X74186615Y-53984252D01*
X74186594Y-53984270D01*
X74107306Y-54063558D01*
X74104065Y-54066575D01*
X74083978Y-54083978D01*
X74066575Y-54104065D01*
X74063558Y-54107306D01*
X73984270Y-54186594D01*
X73984252Y-54186615D01*
X73917055Y-54276379D01*
X73914277Y-54279827D01*
X73896877Y-54299905D01*
X73888406Y-54313088D01*
X73888405Y-54313087D01*
X73888405Y-54313089D01*
X73888393Y-54313109D01*
X73882496Y-54322281D01*
X73879978Y-54325906D01*
X73812773Y-54415685D01*
X73812770Y-54415689D01*
X73759030Y-54514106D01*
X73756771Y-54517913D01*
X73742389Y-54540290D01*
X73731344Y-54564478D01*
X73729363Y-54568436D01*
X73675636Y-54666831D01*
X73675632Y-54666840D01*
X73636445Y-54771902D01*
X73634756Y-54775980D01*
X73630399Y-54785525D01*
X73630382Y-54785565D01*
X73623702Y-54800190D01*
X73616216Y-54825684D01*
X73614819Y-54829883D01*
X73575630Y-54934955D01*
X73575629Y-54934959D01*
X73551794Y-55044531D01*
X73550699Y-55048820D01*
X73547323Y-55060321D01*
X73547317Y-55060338D01*
X73543209Y-55074326D01*
X73540981Y-55089827D01*
X73540979Y-55089826D01*
X73540978Y-55089852D01*
X73539421Y-55100664D01*
X73538637Y-55105009D01*
X73514806Y-55214558D01*
X73514803Y-55214575D01*
X73506803Y-55326425D01*
X73506330Y-55330827D01*
X73502548Y-55357130D01*
X73502548Y-55383721D01*
X73502390Y-55388143D01*
X73494390Y-55500000D01*
X73000500Y-55500000D01*
X73000500Y-53269737D01*
X73002883Y-53245543D01*
X73014221Y-53188550D01*
X73032739Y-53143849D01*
X73059530Y-53103757D01*
X73093745Y-53069545D01*
X73133846Y-53042756D01*
X73178545Y-53024247D01*
X73238058Y-53012416D01*
X73262240Y-53010037D01*
X108996968Y-53015218D01*
G37*
G04 #@! TD.AperFunction*
M02*
