G04 #@! TF.GenerationSoftware,KiCad,Pcbnew,7.0.6*
G04 #@! TF.CreationDate,2023-11-30T23:32:02-05:00*
G04 #@! TF.ProjectId,TeslaCoil,5465736c-6143-46f6-996c-2e6b69636164,rev?*
G04 #@! TF.SameCoordinates,Original*
G04 #@! TF.FileFunction,Paste,Top*
G04 #@! TF.FilePolarity,Positive*
%FSLAX46Y46*%
G04 Gerber Fmt 4.6, Leading zero omitted, Abs format (unit mm)*
G04 Created by KiCad (PCBNEW 7.0.6) date 2023-11-30 23:32:02*
%MOMM*%
%LPD*%
G01*
G04 APERTURE LIST*
G04 Aperture macros list*
%AMRoundRect*
0 Rectangle with rounded corners*
0 $1 Rounding radius*
0 $2 $3 $4 $5 $6 $7 $8 $9 X,Y pos of 4 corners*
0 Add a 4 corners polygon primitive as box body*
4,1,4,$2,$3,$4,$5,$6,$7,$8,$9,$2,$3,0*
0 Add four circle primitives for the rounded corners*
1,1,$1+$1,$2,$3*
1,1,$1+$1,$4,$5*
1,1,$1+$1,$6,$7*
1,1,$1+$1,$8,$9*
0 Add four rect primitives between the rounded corners*
20,1,$1+$1,$2,$3,$4,$5,0*
20,1,$1+$1,$4,$5,$6,$7,0*
20,1,$1+$1,$6,$7,$8,$9,0*
20,1,$1+$1,$8,$9,$2,$3,0*%
G04 Aperture macros list end*
%ADD10R,1.500000X2.000000*%
%ADD11RoundRect,0.250000X-0.325000X-0.650000X0.325000X-0.650000X0.325000X0.650000X-0.325000X0.650000X0*%
%ADD12RoundRect,0.363637X-1.386363X-0.436363X1.386363X-0.436363X1.386363X0.436363X-1.386363X0.436363X0*%
%ADD13RoundRect,0.250000X0.650000X-0.325000X0.650000X0.325000X-0.650000X0.325000X-0.650000X-0.325000X0*%
%ADD14RoundRect,0.135000X-0.135000X-0.185000X0.135000X-0.185000X0.135000X0.185000X-0.135000X0.185000X0*%
%ADD15RoundRect,0.312500X1.087500X0.437500X-1.087500X0.437500X-1.087500X-0.437500X1.087500X-0.437500X0*%
%ADD16R,0.850000X0.350000*%
%ADD17RoundRect,0.218750X0.256250X-0.218750X0.256250X0.218750X-0.256250X0.218750X-0.256250X-0.218750X0*%
%ADD18RoundRect,0.250000X-0.650000X0.325000X-0.650000X-0.325000X0.650000X-0.325000X0.650000X0.325000X0*%
%ADD19RoundRect,0.112500X-0.587500X0.112500X-0.587500X-0.112500X0.587500X-0.112500X0.587500X0.112500X0*%
%ADD20RoundRect,0.312500X-1.087500X-0.437500X1.087500X-0.437500X1.087500X0.437500X-1.087500X0.437500X0*%
%ADD21RoundRect,0.218750X-0.256250X0.218750X-0.256250X-0.218750X0.256250X-0.218750X0.256250X0.218750X0*%
%ADD22R,1.270000X1.520000*%
G04 APERTURE END LIST*
D10*
X127750000Y-65750000D03*
X132850000Y-65750000D03*
X132850000Y-57010000D03*
X127750000Y-57010000D03*
D11*
X105225000Y-117670000D03*
X108175000Y-117670000D03*
D12*
X122730000Y-85330000D03*
X122730000Y-90410000D03*
D11*
X111235000Y-119910000D03*
X114185000Y-119910000D03*
D13*
X117780000Y-114995000D03*
X117780000Y-112045000D03*
D14*
X113770000Y-114200000D03*
X114790000Y-114200000D03*
D15*
X104955000Y-114181000D03*
X104955000Y-109609000D03*
D16*
X119980000Y-116190000D03*
X119980000Y-116840000D03*
X119980000Y-117490000D03*
X122180000Y-117490000D03*
X122180000Y-116840000D03*
X122180000Y-116190000D03*
D11*
X97255000Y-117750000D03*
X100205000Y-117750000D03*
D14*
X133500000Y-69220000D03*
X134520000Y-69220000D03*
D17*
X135840000Y-117937500D03*
X135840000Y-116362500D03*
D18*
X93630000Y-112675000D03*
X93630000Y-115625000D03*
D19*
X115460000Y-117880000D03*
X115460000Y-117230000D03*
X115460000Y-116580000D03*
X115460000Y-115930000D03*
X111060000Y-115930000D03*
X111060000Y-116580000D03*
X111060000Y-117230000D03*
X111060000Y-117880000D03*
D20*
X97465000Y-101599000D03*
X97465000Y-106171000D03*
D12*
X122227500Y-99285000D03*
X122227500Y-104365000D03*
D14*
X121860000Y-69200000D03*
X122880000Y-69200000D03*
D21*
X133160000Y-116372500D03*
X133160000Y-117947500D03*
D10*
X85510000Y-109280000D03*
X90610000Y-109280000D03*
X90610000Y-100540000D03*
X85510000Y-100540000D03*
D11*
X132545000Y-113160000D03*
X135495000Y-113160000D03*
D13*
X121910000Y-112875000D03*
X121910000Y-109925000D03*
D22*
X117230000Y-108770000D03*
X117230000Y-103690000D03*
X117230000Y-101150000D03*
X110250000Y-101150000D03*
X110250000Y-103690000D03*
X110250000Y-108770000D03*
M02*
