%TF.GenerationSoftware,KiCad,Pcbnew,7.0.6*%
%TF.CreationDate,2023-11-30T23:44:46-05:00*%
%TF.ProjectId,Interruptor,496e7465-7272-4757-9074-6f722e6b6963,1.0*%
%TF.SameCoordinates,Original*%
%TF.FileFunction,Drillmap*%
%TF.FilePolarity,Positive*%
%FSLAX45Y45*%
G04 Gerber Fmt 4.5, Leading zero omitted, Abs format (unit mm)*
G04 Created by KiCad (PCBNEW 7.0.6) date 2023-11-30 23:44:46*
%MOMM*%
%LPD*%
G01*
G04 APERTURE LIST*
%ADD10C,0.100000*%
%ADD11C,0.200000*%
%ADD12C,0.165000*%
%ADD13C,0.320000*%
G04 APERTURE END LIST*
D10*
X13140000Y-8845000D02*
X15935000Y-8845000D01*
X15935000Y-10455000D01*
X13140000Y-10455000D01*
X13140000Y-8845000D01*
D11*
D12*
X15726750Y-8923500D02*
X15891750Y-9088500D01*
X15891750Y-8923500D02*
X15726750Y-9088500D01*
X15726750Y-9431500D02*
X15891750Y-9596500D01*
X15891750Y-9431500D02*
X15726750Y-9596500D01*
D13*
X15207250Y-9260000D02*
G75*
G03*
X15207250Y-9260000I-160000J0D01*
G01*
D11*
X13395777Y-10771484D02*
X13395777Y-10571484D01*
X13395777Y-10571484D02*
X13443396Y-10571484D01*
X13443396Y-10571484D02*
X13471967Y-10581008D01*
X13471967Y-10581008D02*
X13491015Y-10600055D01*
X13491015Y-10600055D02*
X13500539Y-10619103D01*
X13500539Y-10619103D02*
X13510062Y-10657198D01*
X13510062Y-10657198D02*
X13510062Y-10685770D01*
X13510062Y-10685770D02*
X13500539Y-10723865D01*
X13500539Y-10723865D02*
X13491015Y-10742912D01*
X13491015Y-10742912D02*
X13471967Y-10761960D01*
X13471967Y-10761960D02*
X13443396Y-10771484D01*
X13443396Y-10771484D02*
X13395777Y-10771484D01*
X13595777Y-10771484D02*
X13595777Y-10638150D01*
X13595777Y-10676246D02*
X13605301Y-10657198D01*
X13605301Y-10657198D02*
X13614824Y-10647674D01*
X13614824Y-10647674D02*
X13633872Y-10638150D01*
X13633872Y-10638150D02*
X13652920Y-10638150D01*
X13719586Y-10771484D02*
X13719586Y-10638150D01*
X13719586Y-10571484D02*
X13710062Y-10581008D01*
X13710062Y-10581008D02*
X13719586Y-10590531D01*
X13719586Y-10590531D02*
X13729110Y-10581008D01*
X13729110Y-10581008D02*
X13719586Y-10571484D01*
X13719586Y-10571484D02*
X13719586Y-10590531D01*
X13843396Y-10771484D02*
X13824348Y-10761960D01*
X13824348Y-10761960D02*
X13814824Y-10742912D01*
X13814824Y-10742912D02*
X13814824Y-10571484D01*
X13948158Y-10771484D02*
X13929110Y-10761960D01*
X13929110Y-10761960D02*
X13919586Y-10742912D01*
X13919586Y-10742912D02*
X13919586Y-10571484D01*
X14176729Y-10771484D02*
X14176729Y-10571484D01*
X14176729Y-10571484D02*
X14243396Y-10714341D01*
X14243396Y-10714341D02*
X14310062Y-10571484D01*
X14310062Y-10571484D02*
X14310062Y-10771484D01*
X14491015Y-10771484D02*
X14491015Y-10666722D01*
X14491015Y-10666722D02*
X14481491Y-10647674D01*
X14481491Y-10647674D02*
X14462443Y-10638150D01*
X14462443Y-10638150D02*
X14424348Y-10638150D01*
X14424348Y-10638150D02*
X14405301Y-10647674D01*
X14491015Y-10761960D02*
X14471967Y-10771484D01*
X14471967Y-10771484D02*
X14424348Y-10771484D01*
X14424348Y-10771484D02*
X14405301Y-10761960D01*
X14405301Y-10761960D02*
X14395777Y-10742912D01*
X14395777Y-10742912D02*
X14395777Y-10723865D01*
X14395777Y-10723865D02*
X14405301Y-10704817D01*
X14405301Y-10704817D02*
X14424348Y-10695293D01*
X14424348Y-10695293D02*
X14471967Y-10695293D01*
X14471967Y-10695293D02*
X14491015Y-10685770D01*
X14586253Y-10638150D02*
X14586253Y-10838150D01*
X14586253Y-10647674D02*
X14605301Y-10638150D01*
X14605301Y-10638150D02*
X14643396Y-10638150D01*
X14643396Y-10638150D02*
X14662443Y-10647674D01*
X14662443Y-10647674D02*
X14671967Y-10657198D01*
X14671967Y-10657198D02*
X14681491Y-10676246D01*
X14681491Y-10676246D02*
X14681491Y-10733389D01*
X14681491Y-10733389D02*
X14671967Y-10752436D01*
X14671967Y-10752436D02*
X14662443Y-10761960D01*
X14662443Y-10761960D02*
X14643396Y-10771484D01*
X14643396Y-10771484D02*
X14605301Y-10771484D01*
X14605301Y-10771484D02*
X14586253Y-10761960D01*
X14767205Y-10752436D02*
X14776729Y-10761960D01*
X14776729Y-10761960D02*
X14767205Y-10771484D01*
X14767205Y-10771484D02*
X14757682Y-10761960D01*
X14757682Y-10761960D02*
X14767205Y-10752436D01*
X14767205Y-10752436D02*
X14767205Y-10771484D01*
X14767205Y-10647674D02*
X14776729Y-10657198D01*
X14776729Y-10657198D02*
X14767205Y-10666722D01*
X14767205Y-10666722D02*
X14757682Y-10657198D01*
X14757682Y-10657198D02*
X14767205Y-10647674D01*
X14767205Y-10647674D02*
X14767205Y-10666722D01*
D12*
X12970000Y-11017500D02*
X13135000Y-11182500D01*
X13135000Y-11017500D02*
X12970000Y-11182500D01*
D11*
X13500539Y-11191484D02*
X13386253Y-11191484D01*
X13443396Y-11191484D02*
X13443396Y-10991484D01*
X13443396Y-10991484D02*
X13424348Y-11020055D01*
X13424348Y-11020055D02*
X13405301Y-11039103D01*
X13405301Y-11039103D02*
X13386253Y-11048627D01*
X13586253Y-11172436D02*
X13595777Y-11181960D01*
X13595777Y-11181960D02*
X13586253Y-11191484D01*
X13586253Y-11191484D02*
X13576729Y-11181960D01*
X13576729Y-11181960D02*
X13586253Y-11172436D01*
X13586253Y-11172436D02*
X13586253Y-11191484D01*
X13767205Y-10991484D02*
X13729110Y-10991484D01*
X13729110Y-10991484D02*
X13710062Y-11001008D01*
X13710062Y-11001008D02*
X13700539Y-11010531D01*
X13700539Y-11010531D02*
X13681491Y-11039103D01*
X13681491Y-11039103D02*
X13671967Y-11077198D01*
X13671967Y-11077198D02*
X13671967Y-11153389D01*
X13671967Y-11153389D02*
X13681491Y-11172436D01*
X13681491Y-11172436D02*
X13691015Y-11181960D01*
X13691015Y-11181960D02*
X13710062Y-11191484D01*
X13710062Y-11191484D02*
X13748158Y-11191484D01*
X13748158Y-11191484D02*
X13767205Y-11181960D01*
X13767205Y-11181960D02*
X13776729Y-11172436D01*
X13776729Y-11172436D02*
X13786253Y-11153389D01*
X13786253Y-11153389D02*
X13786253Y-11105770D01*
X13786253Y-11105770D02*
X13776729Y-11086722D01*
X13776729Y-11086722D02*
X13767205Y-11077198D01*
X13767205Y-11077198D02*
X13748158Y-11067674D01*
X13748158Y-11067674D02*
X13710062Y-11067674D01*
X13710062Y-11067674D02*
X13691015Y-11077198D01*
X13691015Y-11077198D02*
X13681491Y-11086722D01*
X13681491Y-11086722D02*
X13671967Y-11105770D01*
X13967205Y-10991484D02*
X13871967Y-10991484D01*
X13871967Y-10991484D02*
X13862443Y-11086722D01*
X13862443Y-11086722D02*
X13871967Y-11077198D01*
X13871967Y-11077198D02*
X13891015Y-11067674D01*
X13891015Y-11067674D02*
X13938634Y-11067674D01*
X13938634Y-11067674D02*
X13957682Y-11077198D01*
X13957682Y-11077198D02*
X13967205Y-11086722D01*
X13967205Y-11086722D02*
X13976729Y-11105770D01*
X13976729Y-11105770D02*
X13976729Y-11153389D01*
X13976729Y-11153389D02*
X13967205Y-11172436D01*
X13967205Y-11172436D02*
X13957682Y-11181960D01*
X13957682Y-11181960D02*
X13938634Y-11191484D01*
X13938634Y-11191484D02*
X13891015Y-11191484D01*
X13891015Y-11191484D02*
X13871967Y-11181960D01*
X13871967Y-11181960D02*
X13862443Y-11172436D01*
X14100539Y-10991484D02*
X14119586Y-10991484D01*
X14119586Y-10991484D02*
X14138634Y-11001008D01*
X14138634Y-11001008D02*
X14148158Y-11010531D01*
X14148158Y-11010531D02*
X14157682Y-11029579D01*
X14157682Y-11029579D02*
X14167205Y-11067674D01*
X14167205Y-11067674D02*
X14167205Y-11115293D01*
X14167205Y-11115293D02*
X14157682Y-11153389D01*
X14157682Y-11153389D02*
X14148158Y-11172436D01*
X14148158Y-11172436D02*
X14138634Y-11181960D01*
X14138634Y-11181960D02*
X14119586Y-11191484D01*
X14119586Y-11191484D02*
X14100539Y-11191484D01*
X14100539Y-11191484D02*
X14081491Y-11181960D01*
X14081491Y-11181960D02*
X14071967Y-11172436D01*
X14071967Y-11172436D02*
X14062443Y-11153389D01*
X14062443Y-11153389D02*
X14052920Y-11115293D01*
X14052920Y-11115293D02*
X14052920Y-11067674D01*
X14052920Y-11067674D02*
X14062443Y-11029579D01*
X14062443Y-11029579D02*
X14071967Y-11010531D01*
X14071967Y-11010531D02*
X14081491Y-11001008D01*
X14081491Y-11001008D02*
X14100539Y-10991484D01*
X14252920Y-11191484D02*
X14252920Y-11058150D01*
X14252920Y-11077198D02*
X14262443Y-11067674D01*
X14262443Y-11067674D02*
X14281491Y-11058150D01*
X14281491Y-11058150D02*
X14310063Y-11058150D01*
X14310063Y-11058150D02*
X14329110Y-11067674D01*
X14329110Y-11067674D02*
X14338634Y-11086722D01*
X14338634Y-11086722D02*
X14338634Y-11191484D01*
X14338634Y-11086722D02*
X14348158Y-11067674D01*
X14348158Y-11067674D02*
X14367205Y-11058150D01*
X14367205Y-11058150D02*
X14395777Y-11058150D01*
X14395777Y-11058150D02*
X14414824Y-11067674D01*
X14414824Y-11067674D02*
X14424348Y-11086722D01*
X14424348Y-11086722D02*
X14424348Y-11191484D01*
X14519586Y-11191484D02*
X14519586Y-11058150D01*
X14519586Y-11077198D02*
X14529110Y-11067674D01*
X14529110Y-11067674D02*
X14548158Y-11058150D01*
X14548158Y-11058150D02*
X14576729Y-11058150D01*
X14576729Y-11058150D02*
X14595777Y-11067674D01*
X14595777Y-11067674D02*
X14605301Y-11086722D01*
X14605301Y-11086722D02*
X14605301Y-11191484D01*
X14605301Y-11086722D02*
X14614824Y-11067674D01*
X14614824Y-11067674D02*
X14633872Y-11058150D01*
X14633872Y-11058150D02*
X14662443Y-11058150D01*
X14662443Y-11058150D02*
X14681491Y-11067674D01*
X14681491Y-11067674D02*
X14691015Y-11086722D01*
X14691015Y-11086722D02*
X14691015Y-11191484D01*
X15081491Y-10981960D02*
X14910063Y-11239103D01*
X15338634Y-10991484D02*
X15357682Y-10991484D01*
X15357682Y-10991484D02*
X15376729Y-11001008D01*
X15376729Y-11001008D02*
X15386253Y-11010531D01*
X15386253Y-11010531D02*
X15395777Y-11029579D01*
X15395777Y-11029579D02*
X15405301Y-11067674D01*
X15405301Y-11067674D02*
X15405301Y-11115293D01*
X15405301Y-11115293D02*
X15395777Y-11153389D01*
X15395777Y-11153389D02*
X15386253Y-11172436D01*
X15386253Y-11172436D02*
X15376729Y-11181960D01*
X15376729Y-11181960D02*
X15357682Y-11191484D01*
X15357682Y-11191484D02*
X15338634Y-11191484D01*
X15338634Y-11191484D02*
X15319586Y-11181960D01*
X15319586Y-11181960D02*
X15310063Y-11172436D01*
X15310063Y-11172436D02*
X15300539Y-11153389D01*
X15300539Y-11153389D02*
X15291015Y-11115293D01*
X15291015Y-11115293D02*
X15291015Y-11067674D01*
X15291015Y-11067674D02*
X15300539Y-11029579D01*
X15300539Y-11029579D02*
X15310063Y-11010531D01*
X15310063Y-11010531D02*
X15319586Y-11001008D01*
X15319586Y-11001008D02*
X15338634Y-10991484D01*
X15491015Y-11172436D02*
X15500539Y-11181960D01*
X15500539Y-11181960D02*
X15491015Y-11191484D01*
X15491015Y-11191484D02*
X15481491Y-11181960D01*
X15481491Y-11181960D02*
X15491015Y-11172436D01*
X15491015Y-11172436D02*
X15491015Y-11191484D01*
X15624348Y-10991484D02*
X15643396Y-10991484D01*
X15643396Y-10991484D02*
X15662444Y-11001008D01*
X15662444Y-11001008D02*
X15671967Y-11010531D01*
X15671967Y-11010531D02*
X15681491Y-11029579D01*
X15681491Y-11029579D02*
X15691015Y-11067674D01*
X15691015Y-11067674D02*
X15691015Y-11115293D01*
X15691015Y-11115293D02*
X15681491Y-11153389D01*
X15681491Y-11153389D02*
X15671967Y-11172436D01*
X15671967Y-11172436D02*
X15662444Y-11181960D01*
X15662444Y-11181960D02*
X15643396Y-11191484D01*
X15643396Y-11191484D02*
X15624348Y-11191484D01*
X15624348Y-11191484D02*
X15605301Y-11181960D01*
X15605301Y-11181960D02*
X15595777Y-11172436D01*
X15595777Y-11172436D02*
X15586253Y-11153389D01*
X15586253Y-11153389D02*
X15576729Y-11115293D01*
X15576729Y-11115293D02*
X15576729Y-11067674D01*
X15576729Y-11067674D02*
X15586253Y-11029579D01*
X15586253Y-11029579D02*
X15595777Y-11010531D01*
X15595777Y-11010531D02*
X15605301Y-11001008D01*
X15605301Y-11001008D02*
X15624348Y-10991484D01*
X15862444Y-10991484D02*
X15824348Y-10991484D01*
X15824348Y-10991484D02*
X15805301Y-11001008D01*
X15805301Y-11001008D02*
X15795777Y-11010531D01*
X15795777Y-11010531D02*
X15776729Y-11039103D01*
X15776729Y-11039103D02*
X15767206Y-11077198D01*
X15767206Y-11077198D02*
X15767206Y-11153389D01*
X15767206Y-11153389D02*
X15776729Y-11172436D01*
X15776729Y-11172436D02*
X15786253Y-11181960D01*
X15786253Y-11181960D02*
X15805301Y-11191484D01*
X15805301Y-11191484D02*
X15843396Y-11191484D01*
X15843396Y-11191484D02*
X15862444Y-11181960D01*
X15862444Y-11181960D02*
X15871967Y-11172436D01*
X15871967Y-11172436D02*
X15881491Y-11153389D01*
X15881491Y-11153389D02*
X15881491Y-11105770D01*
X15881491Y-11105770D02*
X15871967Y-11086722D01*
X15871967Y-11086722D02*
X15862444Y-11077198D01*
X15862444Y-11077198D02*
X15843396Y-11067674D01*
X15843396Y-11067674D02*
X15805301Y-11067674D01*
X15805301Y-11067674D02*
X15786253Y-11077198D01*
X15786253Y-11077198D02*
X15776729Y-11086722D01*
X15776729Y-11086722D02*
X15767206Y-11105770D01*
X16062444Y-10991484D02*
X15967206Y-10991484D01*
X15967206Y-10991484D02*
X15957682Y-11086722D01*
X15957682Y-11086722D02*
X15967206Y-11077198D01*
X15967206Y-11077198D02*
X15986253Y-11067674D01*
X15986253Y-11067674D02*
X16033872Y-11067674D01*
X16033872Y-11067674D02*
X16052920Y-11077198D01*
X16052920Y-11077198D02*
X16062444Y-11086722D01*
X16062444Y-11086722D02*
X16071967Y-11105770D01*
X16071967Y-11105770D02*
X16071967Y-11153389D01*
X16071967Y-11153389D02*
X16062444Y-11172436D01*
X16062444Y-11172436D02*
X16052920Y-11181960D01*
X16052920Y-11181960D02*
X16033872Y-11191484D01*
X16033872Y-11191484D02*
X15986253Y-11191484D01*
X15986253Y-11191484D02*
X15967206Y-11181960D01*
X15967206Y-11181960D02*
X15957682Y-11172436D01*
X16195777Y-10991484D02*
X16214825Y-10991484D01*
X16214825Y-10991484D02*
X16233872Y-11001008D01*
X16233872Y-11001008D02*
X16243396Y-11010531D01*
X16243396Y-11010531D02*
X16252920Y-11029579D01*
X16252920Y-11029579D02*
X16262444Y-11067674D01*
X16262444Y-11067674D02*
X16262444Y-11115293D01*
X16262444Y-11115293D02*
X16252920Y-11153389D01*
X16252920Y-11153389D02*
X16243396Y-11172436D01*
X16243396Y-11172436D02*
X16233872Y-11181960D01*
X16233872Y-11181960D02*
X16214825Y-11191484D01*
X16214825Y-11191484D02*
X16195777Y-11191484D01*
X16195777Y-11191484D02*
X16176729Y-11181960D01*
X16176729Y-11181960D02*
X16167206Y-11172436D01*
X16167206Y-11172436D02*
X16157682Y-11153389D01*
X16157682Y-11153389D02*
X16148158Y-11115293D01*
X16148158Y-11115293D02*
X16148158Y-11067674D01*
X16148158Y-11067674D02*
X16157682Y-11029579D01*
X16157682Y-11029579D02*
X16167206Y-11010531D01*
X16167206Y-11010531D02*
X16176729Y-11001008D01*
X16176729Y-11001008D02*
X16195777Y-10991484D01*
X16338634Y-10991484D02*
X16338634Y-11029579D01*
X16414825Y-10991484D02*
X16414825Y-11029579D01*
X16710063Y-11267674D02*
X16700539Y-11258150D01*
X16700539Y-11258150D02*
X16681491Y-11229579D01*
X16681491Y-11229579D02*
X16671968Y-11210531D01*
X16671968Y-11210531D02*
X16662444Y-11181960D01*
X16662444Y-11181960D02*
X16652920Y-11134341D01*
X16652920Y-11134341D02*
X16652920Y-11096246D01*
X16652920Y-11096246D02*
X16662444Y-11048627D01*
X16662444Y-11048627D02*
X16671968Y-11020055D01*
X16671968Y-11020055D02*
X16681491Y-11001008D01*
X16681491Y-11001008D02*
X16700539Y-10972436D01*
X16700539Y-10972436D02*
X16710063Y-10962912D01*
X16776729Y-11010531D02*
X16786253Y-11001008D01*
X16786253Y-11001008D02*
X16805301Y-10991484D01*
X16805301Y-10991484D02*
X16852920Y-10991484D01*
X16852920Y-10991484D02*
X16871968Y-11001008D01*
X16871968Y-11001008D02*
X16881491Y-11010531D01*
X16881491Y-11010531D02*
X16891015Y-11029579D01*
X16891015Y-11029579D02*
X16891015Y-11048627D01*
X16891015Y-11048627D02*
X16881491Y-11077198D01*
X16881491Y-11077198D02*
X16767206Y-11191484D01*
X16767206Y-11191484D02*
X16891015Y-11191484D01*
X17129111Y-11191484D02*
X17129111Y-10991484D01*
X17214825Y-11191484D02*
X17214825Y-11086722D01*
X17214825Y-11086722D02*
X17205301Y-11067674D01*
X17205301Y-11067674D02*
X17186253Y-11058150D01*
X17186253Y-11058150D02*
X17157682Y-11058150D01*
X17157682Y-11058150D02*
X17138634Y-11067674D01*
X17138634Y-11067674D02*
X17129111Y-11077198D01*
X17338634Y-11191484D02*
X17319587Y-11181960D01*
X17319587Y-11181960D02*
X17310063Y-11172436D01*
X17310063Y-11172436D02*
X17300539Y-11153389D01*
X17300539Y-11153389D02*
X17300539Y-11096246D01*
X17300539Y-11096246D02*
X17310063Y-11077198D01*
X17310063Y-11077198D02*
X17319587Y-11067674D01*
X17319587Y-11067674D02*
X17338634Y-11058150D01*
X17338634Y-11058150D02*
X17367206Y-11058150D01*
X17367206Y-11058150D02*
X17386253Y-11067674D01*
X17386253Y-11067674D02*
X17395777Y-11077198D01*
X17395777Y-11077198D02*
X17405301Y-11096246D01*
X17405301Y-11096246D02*
X17405301Y-11153389D01*
X17405301Y-11153389D02*
X17395777Y-11172436D01*
X17395777Y-11172436D02*
X17386253Y-11181960D01*
X17386253Y-11181960D02*
X17367206Y-11191484D01*
X17367206Y-11191484D02*
X17338634Y-11191484D01*
X17519587Y-11191484D02*
X17500539Y-11181960D01*
X17500539Y-11181960D02*
X17491015Y-11162912D01*
X17491015Y-11162912D02*
X17491015Y-10991484D01*
X17671968Y-11181960D02*
X17652920Y-11191484D01*
X17652920Y-11191484D02*
X17614825Y-11191484D01*
X17614825Y-11191484D02*
X17595777Y-11181960D01*
X17595777Y-11181960D02*
X17586253Y-11162912D01*
X17586253Y-11162912D02*
X17586253Y-11086722D01*
X17586253Y-11086722D02*
X17595777Y-11067674D01*
X17595777Y-11067674D02*
X17614825Y-11058150D01*
X17614825Y-11058150D02*
X17652920Y-11058150D01*
X17652920Y-11058150D02*
X17671968Y-11067674D01*
X17671968Y-11067674D02*
X17681492Y-11086722D01*
X17681492Y-11086722D02*
X17681492Y-11105770D01*
X17681492Y-11105770D02*
X17586253Y-11124817D01*
X17757682Y-11181960D02*
X17776730Y-11191484D01*
X17776730Y-11191484D02*
X17814825Y-11191484D01*
X17814825Y-11191484D02*
X17833873Y-11181960D01*
X17833873Y-11181960D02*
X17843396Y-11162912D01*
X17843396Y-11162912D02*
X17843396Y-11153389D01*
X17843396Y-11153389D02*
X17833873Y-11134341D01*
X17833873Y-11134341D02*
X17814825Y-11124817D01*
X17814825Y-11124817D02*
X17786253Y-11124817D01*
X17786253Y-11124817D02*
X17767206Y-11115293D01*
X17767206Y-11115293D02*
X17757682Y-11096246D01*
X17757682Y-11096246D02*
X17757682Y-11086722D01*
X17757682Y-11086722D02*
X17767206Y-11067674D01*
X17767206Y-11067674D02*
X17786253Y-11058150D01*
X17786253Y-11058150D02*
X17814825Y-11058150D01*
X17814825Y-11058150D02*
X17833873Y-11067674D01*
X17910063Y-11267674D02*
X17919587Y-11258150D01*
X17919587Y-11258150D02*
X17938634Y-11229579D01*
X17938634Y-11229579D02*
X17948158Y-11210531D01*
X17948158Y-11210531D02*
X17957682Y-11181960D01*
X17957682Y-11181960D02*
X17967206Y-11134341D01*
X17967206Y-11134341D02*
X17967206Y-11096246D01*
X17967206Y-11096246D02*
X17957682Y-11048627D01*
X17957682Y-11048627D02*
X17948158Y-11020055D01*
X17948158Y-11020055D02*
X17938634Y-11001008D01*
X17938634Y-11001008D02*
X17919587Y-10972436D01*
X17919587Y-10972436D02*
X17910063Y-10962912D01*
X18271968Y-11267674D02*
X18262444Y-11258150D01*
X18262444Y-11258150D02*
X18243396Y-11229579D01*
X18243396Y-11229579D02*
X18233873Y-11210531D01*
X18233873Y-11210531D02*
X18224349Y-11181960D01*
X18224349Y-11181960D02*
X18214825Y-11134341D01*
X18214825Y-11134341D02*
X18214825Y-11096246D01*
X18214825Y-11096246D02*
X18224349Y-11048627D01*
X18224349Y-11048627D02*
X18233873Y-11020055D01*
X18233873Y-11020055D02*
X18243396Y-11001008D01*
X18243396Y-11001008D02*
X18262444Y-10972436D01*
X18262444Y-10972436D02*
X18271968Y-10962912D01*
X18348158Y-11058150D02*
X18348158Y-11191484D01*
X18348158Y-11077198D02*
X18357682Y-11067674D01*
X18357682Y-11067674D02*
X18376730Y-11058150D01*
X18376730Y-11058150D02*
X18405301Y-11058150D01*
X18405301Y-11058150D02*
X18424349Y-11067674D01*
X18424349Y-11067674D02*
X18433873Y-11086722D01*
X18433873Y-11086722D02*
X18433873Y-11191484D01*
X18557682Y-11191484D02*
X18538634Y-11181960D01*
X18538634Y-11181960D02*
X18529111Y-11172436D01*
X18529111Y-11172436D02*
X18519587Y-11153389D01*
X18519587Y-11153389D02*
X18519587Y-11096246D01*
X18519587Y-11096246D02*
X18529111Y-11077198D01*
X18529111Y-11077198D02*
X18538634Y-11067674D01*
X18538634Y-11067674D02*
X18557682Y-11058150D01*
X18557682Y-11058150D02*
X18586254Y-11058150D01*
X18586254Y-11058150D02*
X18605301Y-11067674D01*
X18605301Y-11067674D02*
X18614825Y-11077198D01*
X18614825Y-11077198D02*
X18624349Y-11096246D01*
X18624349Y-11096246D02*
X18624349Y-11153389D01*
X18624349Y-11153389D02*
X18614825Y-11172436D01*
X18614825Y-11172436D02*
X18605301Y-11181960D01*
X18605301Y-11181960D02*
X18586254Y-11191484D01*
X18586254Y-11191484D02*
X18557682Y-11191484D01*
X18681492Y-11058150D02*
X18757682Y-11058150D01*
X18710063Y-10991484D02*
X18710063Y-11162912D01*
X18710063Y-11162912D02*
X18719587Y-11181960D01*
X18719587Y-11181960D02*
X18738634Y-11191484D01*
X18738634Y-11191484D02*
X18757682Y-11191484D01*
X18976730Y-11058150D02*
X18976730Y-11258150D01*
X18976730Y-11067674D02*
X18995777Y-11058150D01*
X18995777Y-11058150D02*
X19033873Y-11058150D01*
X19033873Y-11058150D02*
X19052920Y-11067674D01*
X19052920Y-11067674D02*
X19062444Y-11077198D01*
X19062444Y-11077198D02*
X19071968Y-11096246D01*
X19071968Y-11096246D02*
X19071968Y-11153389D01*
X19071968Y-11153389D02*
X19062444Y-11172436D01*
X19062444Y-11172436D02*
X19052920Y-11181960D01*
X19052920Y-11181960D02*
X19033873Y-11191484D01*
X19033873Y-11191484D02*
X18995777Y-11191484D01*
X18995777Y-11191484D02*
X18976730Y-11181960D01*
X19186254Y-11191484D02*
X19167206Y-11181960D01*
X19167206Y-11181960D02*
X19157682Y-11162912D01*
X19157682Y-11162912D02*
X19157682Y-10991484D01*
X19348158Y-11191484D02*
X19348158Y-11086722D01*
X19348158Y-11086722D02*
X19338635Y-11067674D01*
X19338635Y-11067674D02*
X19319587Y-11058150D01*
X19319587Y-11058150D02*
X19281492Y-11058150D01*
X19281492Y-11058150D02*
X19262444Y-11067674D01*
X19348158Y-11181960D02*
X19329111Y-11191484D01*
X19329111Y-11191484D02*
X19281492Y-11191484D01*
X19281492Y-11191484D02*
X19262444Y-11181960D01*
X19262444Y-11181960D02*
X19252920Y-11162912D01*
X19252920Y-11162912D02*
X19252920Y-11143865D01*
X19252920Y-11143865D02*
X19262444Y-11124817D01*
X19262444Y-11124817D02*
X19281492Y-11115293D01*
X19281492Y-11115293D02*
X19329111Y-11115293D01*
X19329111Y-11115293D02*
X19348158Y-11105770D01*
X19414825Y-11058150D02*
X19491015Y-11058150D01*
X19443396Y-10991484D02*
X19443396Y-11162912D01*
X19443396Y-11162912D02*
X19452920Y-11181960D01*
X19452920Y-11181960D02*
X19471968Y-11191484D01*
X19471968Y-11191484D02*
X19491015Y-11191484D01*
X19633873Y-11181960D02*
X19614825Y-11191484D01*
X19614825Y-11191484D02*
X19576730Y-11191484D01*
X19576730Y-11191484D02*
X19557682Y-11181960D01*
X19557682Y-11181960D02*
X19548158Y-11162912D01*
X19548158Y-11162912D02*
X19548158Y-11086722D01*
X19548158Y-11086722D02*
X19557682Y-11067674D01*
X19557682Y-11067674D02*
X19576730Y-11058150D01*
X19576730Y-11058150D02*
X19614825Y-11058150D01*
X19614825Y-11058150D02*
X19633873Y-11067674D01*
X19633873Y-11067674D02*
X19643396Y-11086722D01*
X19643396Y-11086722D02*
X19643396Y-11105770D01*
X19643396Y-11105770D02*
X19548158Y-11124817D01*
X19814825Y-11191484D02*
X19814825Y-10991484D01*
X19814825Y-11181960D02*
X19795777Y-11191484D01*
X19795777Y-11191484D02*
X19757682Y-11191484D01*
X19757682Y-11191484D02*
X19738635Y-11181960D01*
X19738635Y-11181960D02*
X19729111Y-11172436D01*
X19729111Y-11172436D02*
X19719587Y-11153389D01*
X19719587Y-11153389D02*
X19719587Y-11096246D01*
X19719587Y-11096246D02*
X19729111Y-11077198D01*
X19729111Y-11077198D02*
X19738635Y-11067674D01*
X19738635Y-11067674D02*
X19757682Y-11058150D01*
X19757682Y-11058150D02*
X19795777Y-11058150D01*
X19795777Y-11058150D02*
X19814825Y-11067674D01*
X19891016Y-11267674D02*
X19900539Y-11258150D01*
X19900539Y-11258150D02*
X19919587Y-11229579D01*
X19919587Y-11229579D02*
X19929111Y-11210531D01*
X19929111Y-11210531D02*
X19938635Y-11181960D01*
X19938635Y-11181960D02*
X19948158Y-11134341D01*
X19948158Y-11134341D02*
X19948158Y-11096246D01*
X19948158Y-11096246D02*
X19938635Y-11048627D01*
X19938635Y-11048627D02*
X19929111Y-11020055D01*
X19929111Y-11020055D02*
X19919587Y-11001008D01*
X19919587Y-11001008D02*
X19900539Y-10972436D01*
X19900539Y-10972436D02*
X19891016Y-10962912D01*
X13135000Y-11385000D02*
G75*
G03*
X13135000Y-11385000I-100000J0D01*
G01*
X13376729Y-11276484D02*
X13500539Y-11276484D01*
X13500539Y-11276484D02*
X13433872Y-11352674D01*
X13433872Y-11352674D02*
X13462443Y-11352674D01*
X13462443Y-11352674D02*
X13481491Y-11362198D01*
X13481491Y-11362198D02*
X13491015Y-11371722D01*
X13491015Y-11371722D02*
X13500539Y-11390769D01*
X13500539Y-11390769D02*
X13500539Y-11438388D01*
X13500539Y-11438388D02*
X13491015Y-11457436D01*
X13491015Y-11457436D02*
X13481491Y-11466960D01*
X13481491Y-11466960D02*
X13462443Y-11476484D01*
X13462443Y-11476484D02*
X13405301Y-11476484D01*
X13405301Y-11476484D02*
X13386253Y-11466960D01*
X13386253Y-11466960D02*
X13376729Y-11457436D01*
X13586253Y-11457436D02*
X13595777Y-11466960D01*
X13595777Y-11466960D02*
X13586253Y-11476484D01*
X13586253Y-11476484D02*
X13576729Y-11466960D01*
X13576729Y-11466960D02*
X13586253Y-11457436D01*
X13586253Y-11457436D02*
X13586253Y-11476484D01*
X13671967Y-11295531D02*
X13681491Y-11286008D01*
X13681491Y-11286008D02*
X13700539Y-11276484D01*
X13700539Y-11276484D02*
X13748158Y-11276484D01*
X13748158Y-11276484D02*
X13767205Y-11286008D01*
X13767205Y-11286008D02*
X13776729Y-11295531D01*
X13776729Y-11295531D02*
X13786253Y-11314579D01*
X13786253Y-11314579D02*
X13786253Y-11333627D01*
X13786253Y-11333627D02*
X13776729Y-11362198D01*
X13776729Y-11362198D02*
X13662443Y-11476484D01*
X13662443Y-11476484D02*
X13786253Y-11476484D01*
X13910062Y-11276484D02*
X13929110Y-11276484D01*
X13929110Y-11276484D02*
X13948158Y-11286008D01*
X13948158Y-11286008D02*
X13957682Y-11295531D01*
X13957682Y-11295531D02*
X13967205Y-11314579D01*
X13967205Y-11314579D02*
X13976729Y-11352674D01*
X13976729Y-11352674D02*
X13976729Y-11400293D01*
X13976729Y-11400293D02*
X13967205Y-11438388D01*
X13967205Y-11438388D02*
X13957682Y-11457436D01*
X13957682Y-11457436D02*
X13948158Y-11466960D01*
X13948158Y-11466960D02*
X13929110Y-11476484D01*
X13929110Y-11476484D02*
X13910062Y-11476484D01*
X13910062Y-11476484D02*
X13891015Y-11466960D01*
X13891015Y-11466960D02*
X13881491Y-11457436D01*
X13881491Y-11457436D02*
X13871967Y-11438388D01*
X13871967Y-11438388D02*
X13862443Y-11400293D01*
X13862443Y-11400293D02*
X13862443Y-11352674D01*
X13862443Y-11352674D02*
X13871967Y-11314579D01*
X13871967Y-11314579D02*
X13881491Y-11295531D01*
X13881491Y-11295531D02*
X13891015Y-11286008D01*
X13891015Y-11286008D02*
X13910062Y-11276484D01*
X14100539Y-11276484D02*
X14119586Y-11276484D01*
X14119586Y-11276484D02*
X14138634Y-11286008D01*
X14138634Y-11286008D02*
X14148158Y-11295531D01*
X14148158Y-11295531D02*
X14157682Y-11314579D01*
X14157682Y-11314579D02*
X14167205Y-11352674D01*
X14167205Y-11352674D02*
X14167205Y-11400293D01*
X14167205Y-11400293D02*
X14157682Y-11438388D01*
X14157682Y-11438388D02*
X14148158Y-11457436D01*
X14148158Y-11457436D02*
X14138634Y-11466960D01*
X14138634Y-11466960D02*
X14119586Y-11476484D01*
X14119586Y-11476484D02*
X14100539Y-11476484D01*
X14100539Y-11476484D02*
X14081491Y-11466960D01*
X14081491Y-11466960D02*
X14071967Y-11457436D01*
X14071967Y-11457436D02*
X14062443Y-11438388D01*
X14062443Y-11438388D02*
X14052920Y-11400293D01*
X14052920Y-11400293D02*
X14052920Y-11352674D01*
X14052920Y-11352674D02*
X14062443Y-11314579D01*
X14062443Y-11314579D02*
X14071967Y-11295531D01*
X14071967Y-11295531D02*
X14081491Y-11286008D01*
X14081491Y-11286008D02*
X14100539Y-11276484D01*
X14252920Y-11476484D02*
X14252920Y-11343150D01*
X14252920Y-11362198D02*
X14262443Y-11352674D01*
X14262443Y-11352674D02*
X14281491Y-11343150D01*
X14281491Y-11343150D02*
X14310063Y-11343150D01*
X14310063Y-11343150D02*
X14329110Y-11352674D01*
X14329110Y-11352674D02*
X14338634Y-11371722D01*
X14338634Y-11371722D02*
X14338634Y-11476484D01*
X14338634Y-11371722D02*
X14348158Y-11352674D01*
X14348158Y-11352674D02*
X14367205Y-11343150D01*
X14367205Y-11343150D02*
X14395777Y-11343150D01*
X14395777Y-11343150D02*
X14414824Y-11352674D01*
X14414824Y-11352674D02*
X14424348Y-11371722D01*
X14424348Y-11371722D02*
X14424348Y-11476484D01*
X14519586Y-11476484D02*
X14519586Y-11343150D01*
X14519586Y-11362198D02*
X14529110Y-11352674D01*
X14529110Y-11352674D02*
X14548158Y-11343150D01*
X14548158Y-11343150D02*
X14576729Y-11343150D01*
X14576729Y-11343150D02*
X14595777Y-11352674D01*
X14595777Y-11352674D02*
X14605301Y-11371722D01*
X14605301Y-11371722D02*
X14605301Y-11476484D01*
X14605301Y-11371722D02*
X14614824Y-11352674D01*
X14614824Y-11352674D02*
X14633872Y-11343150D01*
X14633872Y-11343150D02*
X14662443Y-11343150D01*
X14662443Y-11343150D02*
X14681491Y-11352674D01*
X14681491Y-11352674D02*
X14691015Y-11371722D01*
X14691015Y-11371722D02*
X14691015Y-11476484D01*
X15081491Y-11266960D02*
X14910063Y-11524103D01*
X15338634Y-11276484D02*
X15357682Y-11276484D01*
X15357682Y-11276484D02*
X15376729Y-11286008D01*
X15376729Y-11286008D02*
X15386253Y-11295531D01*
X15386253Y-11295531D02*
X15395777Y-11314579D01*
X15395777Y-11314579D02*
X15405301Y-11352674D01*
X15405301Y-11352674D02*
X15405301Y-11400293D01*
X15405301Y-11400293D02*
X15395777Y-11438388D01*
X15395777Y-11438388D02*
X15386253Y-11457436D01*
X15386253Y-11457436D02*
X15376729Y-11466960D01*
X15376729Y-11466960D02*
X15357682Y-11476484D01*
X15357682Y-11476484D02*
X15338634Y-11476484D01*
X15338634Y-11476484D02*
X15319586Y-11466960D01*
X15319586Y-11466960D02*
X15310063Y-11457436D01*
X15310063Y-11457436D02*
X15300539Y-11438388D01*
X15300539Y-11438388D02*
X15291015Y-11400293D01*
X15291015Y-11400293D02*
X15291015Y-11352674D01*
X15291015Y-11352674D02*
X15300539Y-11314579D01*
X15300539Y-11314579D02*
X15310063Y-11295531D01*
X15310063Y-11295531D02*
X15319586Y-11286008D01*
X15319586Y-11286008D02*
X15338634Y-11276484D01*
X15491015Y-11457436D02*
X15500539Y-11466960D01*
X15500539Y-11466960D02*
X15491015Y-11476484D01*
X15491015Y-11476484D02*
X15481491Y-11466960D01*
X15481491Y-11466960D02*
X15491015Y-11457436D01*
X15491015Y-11457436D02*
X15491015Y-11476484D01*
X15691015Y-11476484D02*
X15576729Y-11476484D01*
X15633872Y-11476484D02*
X15633872Y-11276484D01*
X15633872Y-11276484D02*
X15614825Y-11305055D01*
X15614825Y-11305055D02*
X15595777Y-11324103D01*
X15595777Y-11324103D02*
X15576729Y-11333627D01*
X15767206Y-11295531D02*
X15776729Y-11286008D01*
X15776729Y-11286008D02*
X15795777Y-11276484D01*
X15795777Y-11276484D02*
X15843396Y-11276484D01*
X15843396Y-11276484D02*
X15862444Y-11286008D01*
X15862444Y-11286008D02*
X15871967Y-11295531D01*
X15871967Y-11295531D02*
X15881491Y-11314579D01*
X15881491Y-11314579D02*
X15881491Y-11333627D01*
X15881491Y-11333627D02*
X15871967Y-11362198D01*
X15871967Y-11362198D02*
X15757682Y-11476484D01*
X15757682Y-11476484D02*
X15881491Y-11476484D01*
X16052920Y-11276484D02*
X16014825Y-11276484D01*
X16014825Y-11276484D02*
X15995777Y-11286008D01*
X15995777Y-11286008D02*
X15986253Y-11295531D01*
X15986253Y-11295531D02*
X15967206Y-11324103D01*
X15967206Y-11324103D02*
X15957682Y-11362198D01*
X15957682Y-11362198D02*
X15957682Y-11438388D01*
X15957682Y-11438388D02*
X15967206Y-11457436D01*
X15967206Y-11457436D02*
X15976729Y-11466960D01*
X15976729Y-11466960D02*
X15995777Y-11476484D01*
X15995777Y-11476484D02*
X16033872Y-11476484D01*
X16033872Y-11476484D02*
X16052920Y-11466960D01*
X16052920Y-11466960D02*
X16062444Y-11457436D01*
X16062444Y-11457436D02*
X16071967Y-11438388D01*
X16071967Y-11438388D02*
X16071967Y-11390769D01*
X16071967Y-11390769D02*
X16062444Y-11371722D01*
X16062444Y-11371722D02*
X16052920Y-11362198D01*
X16052920Y-11362198D02*
X16033872Y-11352674D01*
X16033872Y-11352674D02*
X15995777Y-11352674D01*
X15995777Y-11352674D02*
X15976729Y-11362198D01*
X15976729Y-11362198D02*
X15967206Y-11371722D01*
X15967206Y-11371722D02*
X15957682Y-11390769D01*
X16195777Y-11276484D02*
X16214825Y-11276484D01*
X16214825Y-11276484D02*
X16233872Y-11286008D01*
X16233872Y-11286008D02*
X16243396Y-11295531D01*
X16243396Y-11295531D02*
X16252920Y-11314579D01*
X16252920Y-11314579D02*
X16262444Y-11352674D01*
X16262444Y-11352674D02*
X16262444Y-11400293D01*
X16262444Y-11400293D02*
X16252920Y-11438388D01*
X16252920Y-11438388D02*
X16243396Y-11457436D01*
X16243396Y-11457436D02*
X16233872Y-11466960D01*
X16233872Y-11466960D02*
X16214825Y-11476484D01*
X16214825Y-11476484D02*
X16195777Y-11476484D01*
X16195777Y-11476484D02*
X16176729Y-11466960D01*
X16176729Y-11466960D02*
X16167206Y-11457436D01*
X16167206Y-11457436D02*
X16157682Y-11438388D01*
X16157682Y-11438388D02*
X16148158Y-11400293D01*
X16148158Y-11400293D02*
X16148158Y-11352674D01*
X16148158Y-11352674D02*
X16157682Y-11314579D01*
X16157682Y-11314579D02*
X16167206Y-11295531D01*
X16167206Y-11295531D02*
X16176729Y-11286008D01*
X16176729Y-11286008D02*
X16195777Y-11276484D01*
X16338634Y-11276484D02*
X16338634Y-11314579D01*
X16414825Y-11276484D02*
X16414825Y-11314579D01*
X16710063Y-11552674D02*
X16700539Y-11543150D01*
X16700539Y-11543150D02*
X16681491Y-11514579D01*
X16681491Y-11514579D02*
X16671968Y-11495531D01*
X16671968Y-11495531D02*
X16662444Y-11466960D01*
X16662444Y-11466960D02*
X16652920Y-11419341D01*
X16652920Y-11419341D02*
X16652920Y-11381246D01*
X16652920Y-11381246D02*
X16662444Y-11333627D01*
X16662444Y-11333627D02*
X16671968Y-11305055D01*
X16671968Y-11305055D02*
X16681491Y-11286008D01*
X16681491Y-11286008D02*
X16700539Y-11257436D01*
X16700539Y-11257436D02*
X16710063Y-11247912D01*
X16891015Y-11476484D02*
X16776729Y-11476484D01*
X16833872Y-11476484D02*
X16833872Y-11276484D01*
X16833872Y-11276484D02*
X16814825Y-11305055D01*
X16814825Y-11305055D02*
X16795777Y-11324103D01*
X16795777Y-11324103D02*
X16776729Y-11333627D01*
X17129111Y-11476484D02*
X17129111Y-11276484D01*
X17214825Y-11476484D02*
X17214825Y-11371722D01*
X17214825Y-11371722D02*
X17205301Y-11352674D01*
X17205301Y-11352674D02*
X17186253Y-11343150D01*
X17186253Y-11343150D02*
X17157682Y-11343150D01*
X17157682Y-11343150D02*
X17138634Y-11352674D01*
X17138634Y-11352674D02*
X17129111Y-11362198D01*
X17338634Y-11476484D02*
X17319587Y-11466960D01*
X17319587Y-11466960D02*
X17310063Y-11457436D01*
X17310063Y-11457436D02*
X17300539Y-11438388D01*
X17300539Y-11438388D02*
X17300539Y-11381246D01*
X17300539Y-11381246D02*
X17310063Y-11362198D01*
X17310063Y-11362198D02*
X17319587Y-11352674D01*
X17319587Y-11352674D02*
X17338634Y-11343150D01*
X17338634Y-11343150D02*
X17367206Y-11343150D01*
X17367206Y-11343150D02*
X17386253Y-11352674D01*
X17386253Y-11352674D02*
X17395777Y-11362198D01*
X17395777Y-11362198D02*
X17405301Y-11381246D01*
X17405301Y-11381246D02*
X17405301Y-11438388D01*
X17405301Y-11438388D02*
X17395777Y-11457436D01*
X17395777Y-11457436D02*
X17386253Y-11466960D01*
X17386253Y-11466960D02*
X17367206Y-11476484D01*
X17367206Y-11476484D02*
X17338634Y-11476484D01*
X17519587Y-11476484D02*
X17500539Y-11466960D01*
X17500539Y-11466960D02*
X17491015Y-11447912D01*
X17491015Y-11447912D02*
X17491015Y-11276484D01*
X17671968Y-11466960D02*
X17652920Y-11476484D01*
X17652920Y-11476484D02*
X17614825Y-11476484D01*
X17614825Y-11476484D02*
X17595777Y-11466960D01*
X17595777Y-11466960D02*
X17586253Y-11447912D01*
X17586253Y-11447912D02*
X17586253Y-11371722D01*
X17586253Y-11371722D02*
X17595777Y-11352674D01*
X17595777Y-11352674D02*
X17614825Y-11343150D01*
X17614825Y-11343150D02*
X17652920Y-11343150D01*
X17652920Y-11343150D02*
X17671968Y-11352674D01*
X17671968Y-11352674D02*
X17681492Y-11371722D01*
X17681492Y-11371722D02*
X17681492Y-11390769D01*
X17681492Y-11390769D02*
X17586253Y-11409817D01*
X17748158Y-11552674D02*
X17757682Y-11543150D01*
X17757682Y-11543150D02*
X17776730Y-11514579D01*
X17776730Y-11514579D02*
X17786253Y-11495531D01*
X17786253Y-11495531D02*
X17795777Y-11466960D01*
X17795777Y-11466960D02*
X17805301Y-11419341D01*
X17805301Y-11419341D02*
X17805301Y-11381246D01*
X17805301Y-11381246D02*
X17795777Y-11333627D01*
X17795777Y-11333627D02*
X17786253Y-11305055D01*
X17786253Y-11305055D02*
X17776730Y-11286008D01*
X17776730Y-11286008D02*
X17757682Y-11257436D01*
X17757682Y-11257436D02*
X17748158Y-11247912D01*
X18110063Y-11552674D02*
X18100539Y-11543150D01*
X18100539Y-11543150D02*
X18081492Y-11514579D01*
X18081492Y-11514579D02*
X18071968Y-11495531D01*
X18071968Y-11495531D02*
X18062444Y-11466960D01*
X18062444Y-11466960D02*
X18052920Y-11419341D01*
X18052920Y-11419341D02*
X18052920Y-11381246D01*
X18052920Y-11381246D02*
X18062444Y-11333627D01*
X18062444Y-11333627D02*
X18071968Y-11305055D01*
X18071968Y-11305055D02*
X18081492Y-11286008D01*
X18081492Y-11286008D02*
X18100539Y-11257436D01*
X18100539Y-11257436D02*
X18110063Y-11247912D01*
X18186253Y-11343150D02*
X18186253Y-11476484D01*
X18186253Y-11362198D02*
X18195777Y-11352674D01*
X18195777Y-11352674D02*
X18214825Y-11343150D01*
X18214825Y-11343150D02*
X18243396Y-11343150D01*
X18243396Y-11343150D02*
X18262444Y-11352674D01*
X18262444Y-11352674D02*
X18271968Y-11371722D01*
X18271968Y-11371722D02*
X18271968Y-11476484D01*
X18395777Y-11476484D02*
X18376730Y-11466960D01*
X18376730Y-11466960D02*
X18367206Y-11457436D01*
X18367206Y-11457436D02*
X18357682Y-11438388D01*
X18357682Y-11438388D02*
X18357682Y-11381246D01*
X18357682Y-11381246D02*
X18367206Y-11362198D01*
X18367206Y-11362198D02*
X18376730Y-11352674D01*
X18376730Y-11352674D02*
X18395777Y-11343150D01*
X18395777Y-11343150D02*
X18424349Y-11343150D01*
X18424349Y-11343150D02*
X18443396Y-11352674D01*
X18443396Y-11352674D02*
X18452920Y-11362198D01*
X18452920Y-11362198D02*
X18462444Y-11381246D01*
X18462444Y-11381246D02*
X18462444Y-11438388D01*
X18462444Y-11438388D02*
X18452920Y-11457436D01*
X18452920Y-11457436D02*
X18443396Y-11466960D01*
X18443396Y-11466960D02*
X18424349Y-11476484D01*
X18424349Y-11476484D02*
X18395777Y-11476484D01*
X18519587Y-11343150D02*
X18595777Y-11343150D01*
X18548158Y-11276484D02*
X18548158Y-11447912D01*
X18548158Y-11447912D02*
X18557682Y-11466960D01*
X18557682Y-11466960D02*
X18576730Y-11476484D01*
X18576730Y-11476484D02*
X18595777Y-11476484D01*
X18814825Y-11343150D02*
X18814825Y-11543150D01*
X18814825Y-11352674D02*
X18833873Y-11343150D01*
X18833873Y-11343150D02*
X18871968Y-11343150D01*
X18871968Y-11343150D02*
X18891015Y-11352674D01*
X18891015Y-11352674D02*
X18900539Y-11362198D01*
X18900539Y-11362198D02*
X18910063Y-11381246D01*
X18910063Y-11381246D02*
X18910063Y-11438388D01*
X18910063Y-11438388D02*
X18900539Y-11457436D01*
X18900539Y-11457436D02*
X18891015Y-11466960D01*
X18891015Y-11466960D02*
X18871968Y-11476484D01*
X18871968Y-11476484D02*
X18833873Y-11476484D01*
X18833873Y-11476484D02*
X18814825Y-11466960D01*
X19024349Y-11476484D02*
X19005301Y-11466960D01*
X19005301Y-11466960D02*
X18995777Y-11447912D01*
X18995777Y-11447912D02*
X18995777Y-11276484D01*
X19186254Y-11476484D02*
X19186254Y-11371722D01*
X19186254Y-11371722D02*
X19176730Y-11352674D01*
X19176730Y-11352674D02*
X19157682Y-11343150D01*
X19157682Y-11343150D02*
X19119587Y-11343150D01*
X19119587Y-11343150D02*
X19100539Y-11352674D01*
X19186254Y-11466960D02*
X19167206Y-11476484D01*
X19167206Y-11476484D02*
X19119587Y-11476484D01*
X19119587Y-11476484D02*
X19100539Y-11466960D01*
X19100539Y-11466960D02*
X19091015Y-11447912D01*
X19091015Y-11447912D02*
X19091015Y-11428865D01*
X19091015Y-11428865D02*
X19100539Y-11409817D01*
X19100539Y-11409817D02*
X19119587Y-11400293D01*
X19119587Y-11400293D02*
X19167206Y-11400293D01*
X19167206Y-11400293D02*
X19186254Y-11390769D01*
X19252920Y-11343150D02*
X19329111Y-11343150D01*
X19281492Y-11276484D02*
X19281492Y-11447912D01*
X19281492Y-11447912D02*
X19291015Y-11466960D01*
X19291015Y-11466960D02*
X19310063Y-11476484D01*
X19310063Y-11476484D02*
X19329111Y-11476484D01*
X19471968Y-11466960D02*
X19452920Y-11476484D01*
X19452920Y-11476484D02*
X19414825Y-11476484D01*
X19414825Y-11476484D02*
X19395777Y-11466960D01*
X19395777Y-11466960D02*
X19386254Y-11447912D01*
X19386254Y-11447912D02*
X19386254Y-11371722D01*
X19386254Y-11371722D02*
X19395777Y-11352674D01*
X19395777Y-11352674D02*
X19414825Y-11343150D01*
X19414825Y-11343150D02*
X19452920Y-11343150D01*
X19452920Y-11343150D02*
X19471968Y-11352674D01*
X19471968Y-11352674D02*
X19481492Y-11371722D01*
X19481492Y-11371722D02*
X19481492Y-11390769D01*
X19481492Y-11390769D02*
X19386254Y-11409817D01*
X19652920Y-11476484D02*
X19652920Y-11276484D01*
X19652920Y-11466960D02*
X19633873Y-11476484D01*
X19633873Y-11476484D02*
X19595777Y-11476484D01*
X19595777Y-11476484D02*
X19576730Y-11466960D01*
X19576730Y-11466960D02*
X19567206Y-11457436D01*
X19567206Y-11457436D02*
X19557682Y-11438388D01*
X19557682Y-11438388D02*
X19557682Y-11381246D01*
X19557682Y-11381246D02*
X19567206Y-11362198D01*
X19567206Y-11362198D02*
X19576730Y-11352674D01*
X19576730Y-11352674D02*
X19595777Y-11343150D01*
X19595777Y-11343150D02*
X19633873Y-11343150D01*
X19633873Y-11343150D02*
X19652920Y-11352674D01*
X19729111Y-11552674D02*
X19738635Y-11543150D01*
X19738635Y-11543150D02*
X19757682Y-11514579D01*
X19757682Y-11514579D02*
X19767206Y-11495531D01*
X19767206Y-11495531D02*
X19776730Y-11466960D01*
X19776730Y-11466960D02*
X19786254Y-11419341D01*
X19786254Y-11419341D02*
X19786254Y-11381246D01*
X19786254Y-11381246D02*
X19776730Y-11333627D01*
X19776730Y-11333627D02*
X19767206Y-11305055D01*
X19767206Y-11305055D02*
X19757682Y-11286008D01*
X19757682Y-11286008D02*
X19738635Y-11257436D01*
X19738635Y-11257436D02*
X19729111Y-11247912D01*
M02*
