G04 #@! TF.GenerationSoftware,KiCad,Pcbnew,7.0.6*
G04 #@! TF.CreationDate,2023-11-30T23:44:17-05:00*
G04 #@! TF.ProjectId,Interruptor,496e7465-7272-4757-9074-6f722e6b6963,1.0*
G04 #@! TF.SameCoordinates,Original*
G04 #@! TF.FileFunction,Copper,L1,Top*
G04 #@! TF.FilePolarity,Positive*
%FSLAX46Y46*%
G04 Gerber Fmt 4.6, Leading zero omitted, Abs format (unit mm)*
G04 Created by KiCad (PCBNEW 7.0.6) date 2023-11-30 23:44:17*
%MOMM*%
%LPD*%
G01*
G04 APERTURE LIST*
G04 Aperture macros list*
%AMRoundRect*
0 Rectangle with rounded corners*
0 $1 Rounding radius*
0 $2 $3 $4 $5 $6 $7 $8 $9 X,Y pos of 4 corners*
0 Add a 4 corners polygon primitive as box body*
4,1,4,$2,$3,$4,$5,$6,$7,$8,$9,$2,$3,0*
0 Add four circle primitives for the rounded corners*
1,1,$1+$1,$2,$3*
1,1,$1+$1,$4,$5*
1,1,$1+$1,$6,$7*
1,1,$1+$1,$8,$9*
0 Add four rect primitives between the rounded corners*
20,1,$1+$1,$2,$3,$4,$5,0*
20,1,$1+$1,$4,$5,$6,$7,0*
20,1,$1+$1,$6,$7,$8,$9,0*
20,1,$1+$1,$8,$9,$2,$3,0*%
G04 Aperture macros list end*
G04 #@! TA.AperFunction,SMDPad,CuDef*
%ADD10R,1.350000X0.400000*%
G04 #@! TD*
G04 #@! TA.AperFunction,ComponentPad*
%ADD11O,1.900000X1.200000*%
G04 #@! TD*
G04 #@! TA.AperFunction,SMDPad,CuDef*
%ADD12R,1.900000X1.200000*%
G04 #@! TD*
G04 #@! TA.AperFunction,ComponentPad*
%ADD13C,1.450000*%
G04 #@! TD*
G04 #@! TA.AperFunction,SMDPad,CuDef*
%ADD14R,1.900000X1.500000*%
G04 #@! TD*
G04 #@! TA.AperFunction,ComponentPad*
%ADD15R,0.900000X0.900000*%
G04 #@! TD*
G04 #@! TA.AperFunction,SMDPad,CuDef*
%ADD16RoundRect,0.250000X-0.325000X-0.650000X0.325000X-0.650000X0.325000X0.650000X-0.325000X0.650000X0*%
G04 #@! TD*
G04 #@! TA.AperFunction,SMDPad,CuDef*
%ADD17RoundRect,0.135000X-0.185000X0.135000X-0.185000X-0.135000X0.185000X-0.135000X0.185000X0.135000X0*%
G04 #@! TD*
G04 #@! TA.AperFunction,SMDPad,CuDef*
%ADD18RoundRect,0.218750X0.256250X-0.218750X0.256250X0.218750X-0.256250X0.218750X-0.256250X-0.218750X0*%
G04 #@! TD*
G04 #@! TA.AperFunction,SMDPad,CuDef*
%ADD19RoundRect,0.135000X0.185000X-0.135000X0.185000X0.135000X-0.185000X0.135000X-0.185000X-0.135000X0*%
G04 #@! TD*
G04 #@! TA.AperFunction,SMDPad,CuDef*
%ADD20R,1.700000X0.650000*%
G04 #@! TD*
G04 #@! TA.AperFunction,ComponentPad*
%ADD21R,0.850000X0.850000*%
G04 #@! TD*
G04 #@! TA.AperFunction,ComponentPad*
%ADD22O,0.850000X0.850000*%
G04 #@! TD*
G04 #@! TA.AperFunction,SMDPad,CuDef*
%ADD23RoundRect,0.135000X-0.135000X-0.185000X0.135000X-0.185000X0.135000X0.185000X-0.135000X0.185000X0*%
G04 #@! TD*
G04 #@! TA.AperFunction,ComponentPad*
%ADD24C,1.800000*%
G04 #@! TD*
G04 #@! TA.AperFunction,ViaPad*
%ADD25C,0.800000*%
G04 #@! TD*
G04 #@! TA.AperFunction,Conductor*
%ADD26C,0.300000*%
G04 #@! TD*
G04 #@! TA.AperFunction,Conductor*
%ADD27C,0.250000*%
G04 #@! TD*
G04 #@! TA.AperFunction,Conductor*
%ADD28C,0.500000*%
G04 #@! TD*
G04 APERTURE END LIST*
D10*
X135800000Y-95600000D03*
X135800000Y-96250000D03*
X135800000Y-96900000D03*
X135800000Y-97550000D03*
X135800000Y-98200000D03*
D11*
X133100000Y-93400000D03*
D12*
X133100000Y-94000000D03*
D13*
X135800000Y-94400000D03*
D14*
X133100000Y-95900000D03*
X133100000Y-97900000D03*
D13*
X135800000Y-99400000D03*
D12*
X133100000Y-99800000D03*
D11*
X133100000Y-100400000D03*
D15*
X155552500Y-91330000D03*
X155552500Y-93870000D03*
D16*
X152125000Y-98200000D03*
X155075000Y-98200000D03*
D17*
X141200000Y-92580000D03*
X141200000Y-93600000D03*
D18*
X140800000Y-90975000D03*
X140800000Y-89400000D03*
X136400000Y-91000000D03*
X136400000Y-89425000D03*
D19*
X142800000Y-91600000D03*
X142800000Y-90580000D03*
D20*
X138750000Y-97895000D03*
X138750000Y-99165000D03*
X138750000Y-100435000D03*
X138750000Y-101705000D03*
X146050000Y-101705000D03*
X146050000Y-100435000D03*
X146050000Y-99165000D03*
X146050000Y-97895000D03*
D21*
X146000000Y-92200000D03*
D22*
X145000000Y-92200000D03*
X146000000Y-91200000D03*
X145000000Y-91200000D03*
X146000000Y-90200000D03*
X145000000Y-90200000D03*
D17*
X148400000Y-99380000D03*
X148400000Y-100400000D03*
D23*
X140690000Y-96000000D03*
X141710000Y-96000000D03*
D24*
X156800000Y-101700000D03*
X154300000Y-101700000D03*
X151800000Y-101700000D03*
D25*
X137400000Y-92800000D03*
X137400000Y-96400000D03*
X147464063Y-98423063D03*
X144000000Y-96000000D03*
X147400000Y-95600000D03*
X144200000Y-101600000D03*
X140200000Y-97800000D03*
X149600000Y-99600000D03*
X141800000Y-103000000D03*
X148400000Y-101600000D03*
D26*
X140690000Y-96000000D02*
X139540000Y-97150000D01*
X139540000Y-97150000D02*
X137089339Y-97150000D01*
X134725000Y-92675000D02*
X134725000Y-96800000D01*
X134825000Y-96900000D02*
X135800000Y-96900000D01*
X136400000Y-91000000D02*
X134725000Y-92675000D01*
X136839339Y-96900000D02*
X135800000Y-96900000D01*
X134725000Y-96800000D02*
X134825000Y-96900000D01*
X137089339Y-97150000D02*
X136839339Y-96900000D01*
X137400000Y-92800000D02*
X140000000Y-92800000D01*
X137250000Y-96250000D02*
X137400000Y-96400000D01*
X135800000Y-96250000D02*
X137250000Y-96250000D01*
X140000000Y-92800000D02*
X140400000Y-92400000D01*
X147464063Y-98423063D02*
X147464063Y-99935937D01*
X147464063Y-99935937D02*
X146965000Y-100435000D01*
X146965000Y-100435000D02*
X146050000Y-100435000D01*
X144165000Y-99165000D02*
X141710000Y-96710000D01*
X147400000Y-91998960D02*
X146601040Y-91200000D01*
X141710000Y-96000000D02*
X144000000Y-96000000D01*
X147400000Y-95600000D02*
X147400000Y-91998960D01*
X141710000Y-96710000D02*
X141710000Y-96000000D01*
X146050000Y-99165000D02*
X144165000Y-99165000D01*
X146601040Y-91200000D02*
X146000000Y-91200000D01*
D27*
X142800000Y-90580000D02*
X143420000Y-91200000D01*
X145945000Y-101600000D02*
X146050000Y-101705000D01*
X144200000Y-101600000D02*
X145945000Y-101600000D01*
X143420000Y-91200000D02*
X145000000Y-91200000D01*
D26*
X140200000Y-97800000D02*
X138845000Y-97800000D01*
X138845000Y-97800000D02*
X138750000Y-97895000D01*
X149380000Y-99380000D02*
X149600000Y-99600000D01*
X148400000Y-99380000D02*
X149380000Y-99380000D01*
X138750000Y-100435000D02*
X139235000Y-100435000D01*
X139235000Y-100435000D02*
X141800000Y-103000000D01*
X148400000Y-101600000D02*
X148400000Y-100400000D01*
D28*
X153400000Y-102600000D02*
X154300000Y-101700000D01*
X153400000Y-103400000D02*
X153400000Y-102600000D01*
X144200000Y-103400000D02*
X153400000Y-103400000D01*
X139965000Y-99165000D02*
X144200000Y-103400000D01*
X138750000Y-99165000D02*
X139965000Y-99165000D01*
G04 #@! TA.AperFunction,Conductor*
G36*
X141615677Y-90419685D02*
G01*
X141636319Y-90436319D01*
X141763681Y-90563681D01*
X141797166Y-90625004D01*
X141800000Y-90651362D01*
X141800000Y-91400000D01*
X142948638Y-91400000D01*
X143015677Y-91419685D01*
X143036319Y-91436319D01*
X143163681Y-91563681D01*
X143197166Y-91625004D01*
X143200000Y-91651362D01*
X143200000Y-91748638D01*
X143180315Y-91815677D01*
X143163681Y-91836319D01*
X143036319Y-91963681D01*
X142974996Y-91997166D01*
X142948638Y-92000000D01*
X141800000Y-92000000D01*
X141800000Y-92199999D01*
X141800000Y-92548638D01*
X141780315Y-92615677D01*
X141763681Y-92636319D01*
X141636319Y-92763681D01*
X141574996Y-92797166D01*
X141548638Y-92800000D01*
X140451362Y-92800000D01*
X140384323Y-92780315D01*
X140363681Y-92763681D01*
X140236319Y-92636319D01*
X140202834Y-92574996D01*
X140200000Y-92548638D01*
X140200000Y-90651362D01*
X140219685Y-90584323D01*
X140236319Y-90563681D01*
X140363681Y-90436319D01*
X140425004Y-90402834D01*
X140451362Y-90400000D01*
X141548638Y-90400000D01*
X141615677Y-90419685D01*
G37*
G04 #@! TD.AperFunction*
G04 #@! TA.AperFunction,Conductor*
G36*
X152615677Y-97019685D02*
G01*
X152636319Y-97036319D01*
X152763681Y-97163681D01*
X152797166Y-97225004D01*
X152800000Y-97251362D01*
X152800000Y-102548637D01*
X152780315Y-102615676D01*
X152763682Y-102636318D01*
X152636317Y-102763682D01*
X152574997Y-102797166D01*
X152548638Y-102800000D01*
X150851362Y-102800000D01*
X150784323Y-102780315D01*
X150763685Y-102763685D01*
X150636317Y-102636317D01*
X150602834Y-102574995D01*
X150600000Y-102548637D01*
X150600000Y-98400000D01*
X150600000Y-98200000D01*
X150400000Y-98200000D01*
X148214242Y-98200000D01*
X148147203Y-98180315D01*
X148101448Y-98127511D01*
X148098309Y-98119993D01*
X148088881Y-98095133D01*
X147992246Y-97955134D01*
X147864915Y-97842329D01*
X147864912Y-97842326D01*
X147714289Y-97763273D01*
X147549119Y-97722563D01*
X147379007Y-97722563D01*
X147213836Y-97763273D01*
X147063213Y-97842326D01*
X146946701Y-97945547D01*
X146943213Y-97948638D01*
X146935879Y-97955135D01*
X146839246Y-98095130D01*
X146839244Y-98095133D01*
X146839245Y-98095133D01*
X146829825Y-98119971D01*
X146787649Y-98175673D01*
X146722052Y-98199731D01*
X146713884Y-98200000D01*
X145051362Y-98200000D01*
X144984323Y-98180315D01*
X144963681Y-98163681D01*
X144836319Y-98036319D01*
X144802834Y-97974996D01*
X144800000Y-97948638D01*
X144800000Y-97200000D01*
X145600000Y-97200000D01*
X145600000Y-97000000D01*
X145800000Y-97000000D01*
X152548638Y-97000000D01*
X152615677Y-97019685D01*
G37*
G04 #@! TD.AperFunction*
G04 #@! TA.AperFunction,Conductor*
G36*
X134000000Y-98000000D02*
G01*
X134921082Y-98000000D01*
X134971168Y-98010565D01*
X135055009Y-98047585D01*
X135080135Y-98050500D01*
X136519864Y-98050499D01*
X136519879Y-98050497D01*
X136519882Y-98050497D01*
X136544985Y-98047586D01*
X136544986Y-98047585D01*
X136544991Y-98047585D01*
X136544994Y-98047583D01*
X136553992Y-98045136D01*
X136554861Y-98048331D01*
X136607671Y-98041388D01*
X136670871Y-98071179D01*
X136676223Y-98076223D01*
X136763681Y-98163681D01*
X136797166Y-98225004D01*
X136800000Y-98251361D01*
X136800000Y-101200000D01*
X139311534Y-101200000D01*
X139378573Y-101219685D01*
X139399210Y-101236314D01*
X139563683Y-101400787D01*
X139597166Y-101462107D01*
X139600000Y-101488465D01*
X139600000Y-101948638D01*
X139580315Y-102015677D01*
X139563681Y-102036319D01*
X139436319Y-102163681D01*
X139374996Y-102197166D01*
X139348638Y-102200000D01*
X135051362Y-102200000D01*
X134984323Y-102180315D01*
X134963681Y-102163681D01*
X134836319Y-102036319D01*
X134802834Y-101974996D01*
X134800000Y-101948638D01*
X134800000Y-99000000D01*
X134800000Y-98800000D01*
X134600000Y-98800000D01*
X132251362Y-98800000D01*
X132184323Y-98780315D01*
X132163681Y-98763681D01*
X132036319Y-98636319D01*
X132002834Y-98574996D01*
X132000000Y-98548638D01*
X132000000Y-95000000D01*
X134000000Y-95000000D01*
X134000000Y-98000000D01*
G37*
G04 #@! TD.AperFunction*
G04 #@! TA.AperFunction,Conductor*
G36*
X157815677Y-97219685D02*
G01*
X157836319Y-97236319D01*
X157963681Y-97363681D01*
X157997166Y-97425004D01*
X158000000Y-97451362D01*
X158000000Y-102548638D01*
X157980315Y-102615677D01*
X157963681Y-102636319D01*
X157836319Y-102763681D01*
X157774996Y-102797166D01*
X157748638Y-102800000D01*
X155851362Y-102800000D01*
X155784323Y-102780315D01*
X155763681Y-102763681D01*
X155636319Y-102636319D01*
X155602834Y-102574996D01*
X155600000Y-102548638D01*
X155600000Y-99600000D01*
X155600000Y-99400000D01*
X155400000Y-99400000D01*
X154651362Y-99400000D01*
X154584323Y-99380315D01*
X154563681Y-99363681D01*
X154436319Y-99236319D01*
X154402834Y-99174996D01*
X154400000Y-99148638D01*
X154400000Y-97451361D01*
X154419685Y-97384322D01*
X154436310Y-97363689D01*
X154563683Y-97236316D01*
X154625004Y-97202834D01*
X154651362Y-97200000D01*
X157748638Y-97200000D01*
X157815677Y-97219685D01*
G37*
G04 #@! TD.AperFunction*
G04 #@! TA.AperFunction,Conductor*
G36*
X140800000Y-94200000D02*
G01*
X139600000Y-94200000D01*
X139600000Y-94399999D01*
X139600000Y-95548638D01*
X139580315Y-95615677D01*
X139563681Y-95636319D01*
X139436319Y-95763681D01*
X139374996Y-95797166D01*
X139348638Y-95800000D01*
X137447226Y-95800000D01*
X137439127Y-95799469D01*
X137400000Y-95794318D01*
X137360872Y-95799469D01*
X137352774Y-95800000D01*
X135251362Y-95800000D01*
X135184323Y-95780315D01*
X135163680Y-95763680D01*
X135111818Y-95711817D01*
X135078334Y-95650494D01*
X135075500Y-95624137D01*
X135075500Y-95260965D01*
X135095185Y-95193926D01*
X135147989Y-95148171D01*
X135217147Y-95138227D01*
X135272384Y-95160646D01*
X135308892Y-95187171D01*
X135334702Y-95205923D01*
X135402926Y-95236297D01*
X135512429Y-95285051D01*
X135702726Y-95325500D01*
X135897274Y-95325500D01*
X136087571Y-95285051D01*
X136265299Y-95205922D01*
X136422692Y-95091569D01*
X136422697Y-95091564D01*
X136468200Y-95041028D01*
X136527686Y-95004379D01*
X136560350Y-95000000D01*
X138800000Y-95000000D01*
X139000000Y-95000000D01*
X139000000Y-93451361D01*
X139019685Y-93384323D01*
X139036319Y-93363681D01*
X139163681Y-93236319D01*
X139225004Y-93202834D01*
X139251362Y-93200000D01*
X140800000Y-93200000D01*
X140800000Y-94200000D01*
G37*
G04 #@! TD.AperFunction*
G04 #@! TA.AperFunction,Conductor*
G36*
X144800461Y-91898811D02*
G01*
X144837539Y-91911786D01*
X144837543Y-91911786D01*
X144837545Y-91911787D01*
X144837542Y-91911787D01*
X144999996Y-91930091D01*
X145000000Y-91930091D01*
X145000003Y-91930091D01*
X145136616Y-91914698D01*
X145205438Y-91926752D01*
X145256818Y-91974101D01*
X145274500Y-92037918D01*
X145274500Y-92669856D01*
X145274502Y-92669882D01*
X145277413Y-92694987D01*
X145277415Y-92694991D01*
X145322793Y-92797764D01*
X145322794Y-92797765D01*
X145402235Y-92877206D01*
X145505009Y-92922585D01*
X145505011Y-92922585D01*
X145508552Y-92923549D01*
X145512019Y-92925680D01*
X145513542Y-92926353D01*
X145513450Y-92926560D01*
X145568073Y-92960142D01*
X145598361Y-93023106D01*
X145600000Y-93043200D01*
X145600000Y-97200000D01*
X144800000Y-97200000D01*
X144800000Y-94200000D01*
X144600000Y-94200000D01*
X140800000Y-94200000D01*
X140800000Y-93200000D01*
X144600000Y-93200000D01*
X144600000Y-92051361D01*
X144619685Y-91984323D01*
X144636318Y-91963682D01*
X144636318Y-91963681D01*
X144671828Y-91928171D01*
X144733148Y-91894687D01*
X144800461Y-91898811D01*
G37*
G04 #@! TD.AperFunction*
G04 #@! TA.AperFunction,Conductor*
G36*
X145215677Y-88819685D02*
G01*
X145236319Y-88836319D01*
X145363681Y-88963681D01*
X145397166Y-89025004D01*
X145400000Y-89051362D01*
X145400000Y-89995411D01*
X145391942Y-90039382D01*
X145388215Y-90049206D01*
X145388214Y-90049212D01*
X145369906Y-90200000D01*
X145387541Y-90345246D01*
X145376080Y-90414170D01*
X145352126Y-90447873D01*
X145245380Y-90554619D01*
X145184057Y-90588104D01*
X145128024Y-90587335D01*
X145075950Y-90574500D01*
X145075949Y-90574500D01*
X144924051Y-90574500D01*
X144924050Y-90574500D01*
X144835212Y-90596397D01*
X144805537Y-90600000D01*
X144651362Y-90600000D01*
X144584323Y-90580315D01*
X144563681Y-90563681D01*
X144436319Y-90436319D01*
X144402834Y-90374996D01*
X144400000Y-90348638D01*
X144400000Y-90200000D01*
X144400000Y-90000000D01*
X144200000Y-90000000D01*
X134199999Y-90000000D01*
X134000000Y-90000000D01*
X134000000Y-95000000D01*
X132000000Y-95000000D01*
X132000000Y-89051362D01*
X132019685Y-88984323D01*
X132036319Y-88963681D01*
X132163681Y-88836319D01*
X132225004Y-88802834D01*
X132251362Y-88800000D01*
X145148638Y-88800000D01*
X145215677Y-88819685D01*
G37*
G04 #@! TD.AperFunction*
M02*
