G04 #@! TF.GenerationSoftware,KiCad,Pcbnew,7.0.6*
G04 #@! TF.CreationDate,2023-11-30T23:44:17-05:00*
G04 #@! TF.ProjectId,Interruptor,496e7465-7272-4757-9074-6f722e6b6963,1.0*
G04 #@! TF.SameCoordinates,Original*
G04 #@! TF.FileFunction,Legend,Top*
G04 #@! TF.FilePolarity,Positive*
%FSLAX46Y46*%
G04 Gerber Fmt 4.6, Leading zero omitted, Abs format (unit mm)*
G04 Created by KiCad (PCBNEW 7.0.6) date 2023-11-30 23:44:17*
%MOMM*%
%LPD*%
G01*
G04 APERTURE LIST*
G04 Aperture macros list*
%AMRoundRect*
0 Rectangle with rounded corners*
0 $1 Rounding radius*
0 $2 $3 $4 $5 $6 $7 $8 $9 X,Y pos of 4 corners*
0 Add a 4 corners polygon primitive as box body*
4,1,4,$2,$3,$4,$5,$6,$7,$8,$9,$2,$3,0*
0 Add four circle primitives for the rounded corners*
1,1,$1+$1,$2,$3*
1,1,$1+$1,$4,$5*
1,1,$1+$1,$6,$7*
1,1,$1+$1,$8,$9*
0 Add four rect primitives between the rounded corners*
20,1,$1+$1,$2,$3,$4,$5,0*
20,1,$1+$1,$4,$5,$6,$7,0*
20,1,$1+$1,$6,$7,$8,$9,0*
20,1,$1+$1,$8,$9,$2,$3,0*%
G04 Aperture macros list end*
%ADD10C,0.150000*%
%ADD11C,0.120000*%
%ADD12C,0.100000*%
%ADD13R,1.350000X0.400000*%
%ADD14O,1.900000X1.200000*%
%ADD15R,1.900000X1.200000*%
%ADD16C,1.450000*%
%ADD17R,1.900000X1.500000*%
%ADD18C,1.650000*%
%ADD19C,3.200000*%
%ADD20R,0.900000X0.900000*%
%ADD21RoundRect,0.250000X-0.325000X-0.650000X0.325000X-0.650000X0.325000X0.650000X-0.325000X0.650000X0*%
%ADD22RoundRect,0.135000X-0.185000X0.135000X-0.185000X-0.135000X0.185000X-0.135000X0.185000X0.135000X0*%
%ADD23RoundRect,0.218750X0.256250X-0.218750X0.256250X0.218750X-0.256250X0.218750X-0.256250X-0.218750X0*%
%ADD24RoundRect,0.135000X0.185000X-0.135000X0.185000X0.135000X-0.185000X0.135000X-0.185000X-0.135000X0*%
%ADD25R,1.700000X0.650000*%
%ADD26R,0.850000X0.850000*%
%ADD27O,0.850000X0.850000*%
%ADD28RoundRect,0.135000X-0.135000X-0.185000X0.135000X-0.185000X0.135000X0.185000X-0.135000X0.185000X0*%
%ADD29C,1.800000*%
G04 APERTURE END LIST*
D10*
X132779819Y-102470833D02*
X133494104Y-102470833D01*
X133494104Y-102470833D02*
X133636961Y-102518452D01*
X133636961Y-102518452D02*
X133732200Y-102613690D01*
X133732200Y-102613690D02*
X133779819Y-102756547D01*
X133779819Y-102756547D02*
X133779819Y-102851785D01*
X133779819Y-101470833D02*
X133779819Y-102042261D01*
X133779819Y-101756547D02*
X132779819Y-101756547D01*
X132779819Y-101756547D02*
X132922676Y-101851785D01*
X132922676Y-101851785D02*
X133017914Y-101947023D01*
X133017914Y-101947023D02*
X133065533Y-102042261D01*
X149545180Y-89238095D02*
X148735657Y-89238095D01*
X148735657Y-89238095D02*
X148640419Y-89285714D01*
X148640419Y-89285714D02*
X148592800Y-89333333D01*
X148592800Y-89333333D02*
X148545180Y-89428571D01*
X148545180Y-89428571D02*
X148545180Y-89619047D01*
X148545180Y-89619047D02*
X148592800Y-89714285D01*
X148592800Y-89714285D02*
X148640419Y-89761904D01*
X148640419Y-89761904D02*
X148735657Y-89809523D01*
X148735657Y-89809523D02*
X149545180Y-89809523D01*
X148545180Y-90809523D02*
X148545180Y-90238095D01*
X148545180Y-90523809D02*
X149545180Y-90523809D01*
X149545180Y-90523809D02*
X149402323Y-90428571D01*
X149402323Y-90428571D02*
X149307085Y-90333333D01*
X149307085Y-90333333D02*
X149259466Y-90238095D01*
X150709580Y-98346666D02*
X150757200Y-98394285D01*
X150757200Y-98394285D02*
X150804819Y-98537142D01*
X150804819Y-98537142D02*
X150804819Y-98632380D01*
X150804819Y-98632380D02*
X150757200Y-98775237D01*
X150757200Y-98775237D02*
X150661961Y-98870475D01*
X150661961Y-98870475D02*
X150566723Y-98918094D01*
X150566723Y-98918094D02*
X150376247Y-98965713D01*
X150376247Y-98965713D02*
X150233390Y-98965713D01*
X150233390Y-98965713D02*
X150042914Y-98918094D01*
X150042914Y-98918094D02*
X149947676Y-98870475D01*
X149947676Y-98870475D02*
X149852438Y-98775237D01*
X149852438Y-98775237D02*
X149804819Y-98632380D01*
X149804819Y-98632380D02*
X149804819Y-98537142D01*
X149804819Y-98537142D02*
X149852438Y-98394285D01*
X149852438Y-98394285D02*
X149900057Y-98346666D01*
X150804819Y-97394285D02*
X150804819Y-97965713D01*
X150804819Y-97679999D02*
X149804819Y-97679999D01*
X149804819Y-97679999D02*
X149947676Y-97775237D01*
X149947676Y-97775237D02*
X150042914Y-97870475D01*
X150042914Y-97870475D02*
X150090533Y-97965713D01*
X139433333Y-93654819D02*
X139100000Y-93178628D01*
X138861905Y-93654819D02*
X138861905Y-92654819D01*
X138861905Y-92654819D02*
X139242857Y-92654819D01*
X139242857Y-92654819D02*
X139338095Y-92702438D01*
X139338095Y-92702438D02*
X139385714Y-92750057D01*
X139385714Y-92750057D02*
X139433333Y-92845295D01*
X139433333Y-92845295D02*
X139433333Y-92988152D01*
X139433333Y-92988152D02*
X139385714Y-93083390D01*
X139385714Y-93083390D02*
X139338095Y-93131009D01*
X139338095Y-93131009D02*
X139242857Y-93178628D01*
X139242857Y-93178628D02*
X138861905Y-93178628D01*
X140385714Y-93654819D02*
X139814286Y-93654819D01*
X140100000Y-93654819D02*
X140100000Y-92654819D01*
X140100000Y-92654819D02*
X140004762Y-92797676D01*
X140004762Y-92797676D02*
X139909524Y-92892914D01*
X139909524Y-92892914D02*
X139814286Y-92940533D01*
X137861905Y-90854819D02*
X137861905Y-89854819D01*
X137861905Y-89854819D02*
X138100000Y-89854819D01*
X138100000Y-89854819D02*
X138242857Y-89902438D01*
X138242857Y-89902438D02*
X138338095Y-89997676D01*
X138338095Y-89997676D02*
X138385714Y-90092914D01*
X138385714Y-90092914D02*
X138433333Y-90283390D01*
X138433333Y-90283390D02*
X138433333Y-90426247D01*
X138433333Y-90426247D02*
X138385714Y-90616723D01*
X138385714Y-90616723D02*
X138338095Y-90711961D01*
X138338095Y-90711961D02*
X138242857Y-90807200D01*
X138242857Y-90807200D02*
X138100000Y-90854819D01*
X138100000Y-90854819D02*
X137861905Y-90854819D01*
X138814286Y-89950057D02*
X138861905Y-89902438D01*
X138861905Y-89902438D02*
X138957143Y-89854819D01*
X138957143Y-89854819D02*
X139195238Y-89854819D01*
X139195238Y-89854819D02*
X139290476Y-89902438D01*
X139290476Y-89902438D02*
X139338095Y-89950057D01*
X139338095Y-89950057D02*
X139385714Y-90045295D01*
X139385714Y-90045295D02*
X139385714Y-90140533D01*
X139385714Y-90140533D02*
X139338095Y-90283390D01*
X139338095Y-90283390D02*
X138766667Y-90854819D01*
X138766667Y-90854819D02*
X139385714Y-90854819D01*
X133661905Y-90879819D02*
X133661905Y-89879819D01*
X133661905Y-89879819D02*
X133900000Y-89879819D01*
X133900000Y-89879819D02*
X134042857Y-89927438D01*
X134042857Y-89927438D02*
X134138095Y-90022676D01*
X134138095Y-90022676D02*
X134185714Y-90117914D01*
X134185714Y-90117914D02*
X134233333Y-90308390D01*
X134233333Y-90308390D02*
X134233333Y-90451247D01*
X134233333Y-90451247D02*
X134185714Y-90641723D01*
X134185714Y-90641723D02*
X134138095Y-90736961D01*
X134138095Y-90736961D02*
X134042857Y-90832200D01*
X134042857Y-90832200D02*
X133900000Y-90879819D01*
X133900000Y-90879819D02*
X133661905Y-90879819D01*
X135185714Y-90879819D02*
X134614286Y-90879819D01*
X134900000Y-90879819D02*
X134900000Y-89879819D01*
X134900000Y-89879819D02*
X134804762Y-90022676D01*
X134804762Y-90022676D02*
X134709524Y-90117914D01*
X134709524Y-90117914D02*
X134614286Y-90165533D01*
X142633333Y-93454819D02*
X142300000Y-92978628D01*
X142061905Y-93454819D02*
X142061905Y-92454819D01*
X142061905Y-92454819D02*
X142442857Y-92454819D01*
X142442857Y-92454819D02*
X142538095Y-92502438D01*
X142538095Y-92502438D02*
X142585714Y-92550057D01*
X142585714Y-92550057D02*
X142633333Y-92645295D01*
X142633333Y-92645295D02*
X142633333Y-92788152D01*
X142633333Y-92788152D02*
X142585714Y-92883390D01*
X142585714Y-92883390D02*
X142538095Y-92931009D01*
X142538095Y-92931009D02*
X142442857Y-92978628D01*
X142442857Y-92978628D02*
X142061905Y-92978628D01*
X142966667Y-92454819D02*
X143585714Y-92454819D01*
X143585714Y-92454819D02*
X143252381Y-92835771D01*
X143252381Y-92835771D02*
X143395238Y-92835771D01*
X143395238Y-92835771D02*
X143490476Y-92883390D01*
X143490476Y-92883390D02*
X143538095Y-92931009D01*
X143538095Y-92931009D02*
X143585714Y-93026247D01*
X143585714Y-93026247D02*
X143585714Y-93264342D01*
X143585714Y-93264342D02*
X143538095Y-93359580D01*
X143538095Y-93359580D02*
X143490476Y-93407200D01*
X143490476Y-93407200D02*
X143395238Y-93454819D01*
X143395238Y-93454819D02*
X143109524Y-93454819D01*
X143109524Y-93454819D02*
X143014286Y-93407200D01*
X143014286Y-93407200D02*
X142966667Y-93359580D01*
X137988095Y-95574819D02*
X137988095Y-96384342D01*
X137988095Y-96384342D02*
X138035714Y-96479580D01*
X138035714Y-96479580D02*
X138083333Y-96527200D01*
X138083333Y-96527200D02*
X138178571Y-96574819D01*
X138178571Y-96574819D02*
X138369047Y-96574819D01*
X138369047Y-96574819D02*
X138464285Y-96527200D01*
X138464285Y-96527200D02*
X138511904Y-96479580D01*
X138511904Y-96479580D02*
X138559523Y-96384342D01*
X138559523Y-96384342D02*
X138559523Y-95574819D01*
X138988095Y-95670057D02*
X139035714Y-95622438D01*
X139035714Y-95622438D02*
X139130952Y-95574819D01*
X139130952Y-95574819D02*
X139369047Y-95574819D01*
X139369047Y-95574819D02*
X139464285Y-95622438D01*
X139464285Y-95622438D02*
X139511904Y-95670057D01*
X139511904Y-95670057D02*
X139559523Y-95765295D01*
X139559523Y-95765295D02*
X139559523Y-95860533D01*
X139559523Y-95860533D02*
X139511904Y-96003390D01*
X139511904Y-96003390D02*
X138940476Y-96574819D01*
X138940476Y-96574819D02*
X139559523Y-96574819D01*
X145066666Y-93454819D02*
X145066666Y-94169104D01*
X145066666Y-94169104D02*
X145019047Y-94311961D01*
X145019047Y-94311961D02*
X144923809Y-94407200D01*
X144923809Y-94407200D02*
X144780952Y-94454819D01*
X144780952Y-94454819D02*
X144685714Y-94454819D01*
X145495238Y-93550057D02*
X145542857Y-93502438D01*
X145542857Y-93502438D02*
X145638095Y-93454819D01*
X145638095Y-93454819D02*
X145876190Y-93454819D01*
X145876190Y-93454819D02*
X145971428Y-93502438D01*
X145971428Y-93502438D02*
X146019047Y-93550057D01*
X146019047Y-93550057D02*
X146066666Y-93645295D01*
X146066666Y-93645295D02*
X146066666Y-93740533D01*
X146066666Y-93740533D02*
X146019047Y-93883390D01*
X146019047Y-93883390D02*
X145447619Y-94454819D01*
X145447619Y-94454819D02*
X146066666Y-94454819D01*
X148233333Y-103054819D02*
X147900000Y-102578628D01*
X147661905Y-103054819D02*
X147661905Y-102054819D01*
X147661905Y-102054819D02*
X148042857Y-102054819D01*
X148042857Y-102054819D02*
X148138095Y-102102438D01*
X148138095Y-102102438D02*
X148185714Y-102150057D01*
X148185714Y-102150057D02*
X148233333Y-102245295D01*
X148233333Y-102245295D02*
X148233333Y-102388152D01*
X148233333Y-102388152D02*
X148185714Y-102483390D01*
X148185714Y-102483390D02*
X148138095Y-102531009D01*
X148138095Y-102531009D02*
X148042857Y-102578628D01*
X148042857Y-102578628D02*
X147661905Y-102578628D01*
X149090476Y-102388152D02*
X149090476Y-103054819D01*
X148852381Y-102007200D02*
X148614286Y-102721485D01*
X148614286Y-102721485D02*
X149233333Y-102721485D01*
X141033333Y-95254819D02*
X140700000Y-94778628D01*
X140461905Y-95254819D02*
X140461905Y-94254819D01*
X140461905Y-94254819D02*
X140842857Y-94254819D01*
X140842857Y-94254819D02*
X140938095Y-94302438D01*
X140938095Y-94302438D02*
X140985714Y-94350057D01*
X140985714Y-94350057D02*
X141033333Y-94445295D01*
X141033333Y-94445295D02*
X141033333Y-94588152D01*
X141033333Y-94588152D02*
X140985714Y-94683390D01*
X140985714Y-94683390D02*
X140938095Y-94731009D01*
X140938095Y-94731009D02*
X140842857Y-94778628D01*
X140842857Y-94778628D02*
X140461905Y-94778628D01*
X141414286Y-94350057D02*
X141461905Y-94302438D01*
X141461905Y-94302438D02*
X141557143Y-94254819D01*
X141557143Y-94254819D02*
X141795238Y-94254819D01*
X141795238Y-94254819D02*
X141890476Y-94302438D01*
X141890476Y-94302438D02*
X141938095Y-94350057D01*
X141938095Y-94350057D02*
X141985714Y-94445295D01*
X141985714Y-94445295D02*
X141985714Y-94540533D01*
X141985714Y-94540533D02*
X141938095Y-94683390D01*
X141938095Y-94683390D02*
X141366667Y-95254819D01*
X141366667Y-95254819D02*
X141985714Y-95254819D01*
X157792800Y-96866667D02*
X157745180Y-97009524D01*
X157745180Y-97009524D02*
X157745180Y-97247619D01*
X157745180Y-97247619D02*
X157792800Y-97342857D01*
X157792800Y-97342857D02*
X157840419Y-97390476D01*
X157840419Y-97390476D02*
X157935657Y-97438095D01*
X157935657Y-97438095D02*
X158030895Y-97438095D01*
X158030895Y-97438095D02*
X158126133Y-97390476D01*
X158126133Y-97390476D02*
X158173752Y-97342857D01*
X158173752Y-97342857D02*
X158221371Y-97247619D01*
X158221371Y-97247619D02*
X158268990Y-97057143D01*
X158268990Y-97057143D02*
X158316609Y-96961905D01*
X158316609Y-96961905D02*
X158364228Y-96914286D01*
X158364228Y-96914286D02*
X158459466Y-96866667D01*
X158459466Y-96866667D02*
X158554704Y-96866667D01*
X158554704Y-96866667D02*
X158649942Y-96914286D01*
X158649942Y-96914286D02*
X158697561Y-96961905D01*
X158697561Y-96961905D02*
X158745180Y-97057143D01*
X158745180Y-97057143D02*
X158745180Y-97295238D01*
X158745180Y-97295238D02*
X158697561Y-97438095D01*
X158745180Y-97771429D02*
X157745180Y-98009524D01*
X157745180Y-98009524D02*
X158459466Y-98200000D01*
X158459466Y-98200000D02*
X157745180Y-98390476D01*
X157745180Y-98390476D02*
X158745180Y-98628572D01*
X157745180Y-99533333D02*
X157745180Y-98961905D01*
X157745180Y-99247619D02*
X158745180Y-99247619D01*
X158745180Y-99247619D02*
X158602323Y-99152381D01*
X158602323Y-99152381D02*
X158507085Y-99057143D01*
X158507085Y-99057143D02*
X158459466Y-98961905D01*
D11*
X136100000Y-93000000D02*
X136100000Y-93450000D01*
X134250000Y-93000000D02*
X136100000Y-93000000D01*
X131700000Y-93000000D02*
X131950000Y-93000000D01*
X136650000Y-95200000D02*
X136200000Y-95200000D01*
X136650000Y-95200000D02*
X136650000Y-95650000D01*
X136100000Y-100800000D02*
X136100000Y-100350000D01*
X134250000Y-100800000D02*
X136100000Y-100800000D01*
X131700000Y-100800000D02*
X131950000Y-100800000D01*
D12*
X158854500Y-88790000D02*
X149202500Y-88790000D01*
X149202500Y-88790000D02*
X148694500Y-88790000D01*
X148694500Y-88790000D02*
X147932500Y-88790000D01*
X147932500Y-88790000D02*
X147932500Y-96410000D01*
X158854500Y-96410000D02*
X148694500Y-96410000D01*
X147932500Y-96410000D02*
X148694500Y-96410000D01*
D11*
X152888748Y-97290000D02*
X154311252Y-97290000D01*
X152888748Y-99110000D02*
X154311252Y-99110000D01*
X141580000Y-92936359D02*
X141580000Y-93243641D01*
X140820000Y-92936359D02*
X140820000Y-93243641D01*
X140065000Y-91672500D02*
X141535000Y-91672500D01*
X141535000Y-91672500D02*
X141535000Y-89387500D01*
X140065000Y-89387500D02*
X140065000Y-91672500D01*
X135665000Y-91697500D02*
X137135000Y-91697500D01*
X137135000Y-91697500D02*
X137135000Y-89412500D01*
X135665000Y-89412500D02*
X135665000Y-91697500D01*
X142420000Y-91243641D02*
X142420000Y-90936359D01*
X143180000Y-91243641D02*
X143180000Y-90936359D01*
D10*
X139650000Y-97045000D02*
X139650000Y-97250000D01*
X139650000Y-97045000D02*
X145150000Y-97045000D01*
X139650000Y-97250000D02*
X137900000Y-97250000D01*
X139650000Y-102555000D02*
X139650000Y-102255000D01*
X139650000Y-102555000D02*
X145150000Y-102555000D01*
X145150000Y-97045000D02*
X145150000Y-97345000D01*
X145150000Y-102555000D02*
X145150000Y-102255000D01*
D11*
X146710000Y-92885000D02*
X146000000Y-92885000D01*
X146710000Y-92200000D02*
X146710000Y-92885000D01*
X146710000Y-91515000D02*
X146710000Y-89640000D01*
X146710000Y-91515000D02*
X146608276Y-91515000D01*
X146710000Y-89640000D02*
X146394493Y-89640000D01*
X145605507Y-89640000D02*
X145394493Y-89640000D01*
X144605507Y-92760000D02*
X144290000Y-92760000D01*
X144605507Y-89640000D02*
X144290000Y-89640000D01*
X144290000Y-92760000D02*
X144290000Y-89640000D01*
X148780000Y-99736359D02*
X148780000Y-100043641D01*
X148020000Y-99736359D02*
X148020000Y-100043641D01*
X141046359Y-95620000D02*
X141353641Y-95620000D01*
X141046359Y-96380000D02*
X141353641Y-96380000D01*
D12*
X158800000Y-104200000D02*
X158800000Y-100200000D01*
X157800000Y-104200000D02*
X158800000Y-104200000D01*
X157800000Y-104200000D02*
X150800000Y-104200000D01*
X150800000Y-104200000D02*
X149800000Y-104200000D01*
X149800000Y-104200000D02*
X149800000Y-100200000D01*
%LPC*%
D13*
X135800000Y-95600000D03*
X135800000Y-96250000D03*
X135800000Y-96900000D03*
X135800000Y-97550000D03*
X135800000Y-98200000D03*
D14*
X133100000Y-93400000D03*
D15*
X133100000Y-94000000D03*
D16*
X135800000Y-94400000D03*
D17*
X133100000Y-95900000D03*
X133100000Y-97900000D03*
D16*
X135800000Y-99400000D03*
D15*
X133100000Y-99800000D03*
D14*
X133100000Y-100400000D03*
D18*
X158092500Y-90060000D03*
D19*
X150472500Y-92600000D03*
D18*
X158092500Y-95140000D03*
D20*
X155552500Y-91330000D03*
X155552500Y-93870000D03*
D21*
X152125000Y-98200000D03*
X155075000Y-98200000D03*
D22*
X141200000Y-92580000D03*
X141200000Y-93600000D03*
D23*
X140800000Y-90975000D03*
X140800000Y-89400000D03*
X136400000Y-91000000D03*
X136400000Y-89425000D03*
D24*
X142800000Y-91600000D03*
X142800000Y-90580000D03*
D25*
X138750000Y-97895000D03*
X138750000Y-99165000D03*
X138750000Y-100435000D03*
X138750000Y-101705000D03*
X146050000Y-101705000D03*
X146050000Y-100435000D03*
X146050000Y-99165000D03*
X146050000Y-97895000D03*
D26*
X146000000Y-92200000D03*
D27*
X145000000Y-92200000D03*
X146000000Y-91200000D03*
X145000000Y-91200000D03*
X146000000Y-90200000D03*
X145000000Y-90200000D03*
D22*
X148400000Y-99380000D03*
X148400000Y-100400000D03*
D28*
X140690000Y-96000000D03*
X141710000Y-96000000D03*
D29*
X156800000Y-101700000D03*
X154300000Y-101700000D03*
X151800000Y-101700000D03*
%LPD*%
M02*
