G04 #@! TF.GenerationSoftware,KiCad,Pcbnew,7.0.6*
G04 #@! TF.CreationDate,2023-11-30T23:44:17-05:00*
G04 #@! TF.ProjectId,Interruptor,496e7465-7272-4757-9074-6f722e6b6963,1.0*
G04 #@! TF.SameCoordinates,Original*
G04 #@! TF.FileFunction,Soldermask,Top*
G04 #@! TF.FilePolarity,Negative*
%FSLAX46Y46*%
G04 Gerber Fmt 4.6, Leading zero omitted, Abs format (unit mm)*
G04 Created by KiCad (PCBNEW 7.0.6) date 2023-11-30 23:44:17*
%MOMM*%
%LPD*%
G01*
G04 APERTURE LIST*
G04 Aperture macros list*
%AMRoundRect*
0 Rectangle with rounded corners*
0 $1 Rounding radius*
0 $2 $3 $4 $5 $6 $7 $8 $9 X,Y pos of 4 corners*
0 Add a 4 corners polygon primitive as box body*
4,1,4,$2,$3,$4,$5,$6,$7,$8,$9,$2,$3,0*
0 Add four circle primitives for the rounded corners*
1,1,$1+$1,$2,$3*
1,1,$1+$1,$4,$5*
1,1,$1+$1,$6,$7*
1,1,$1+$1,$8,$9*
0 Add four rect primitives between the rounded corners*
20,1,$1+$1,$2,$3,$4,$5,0*
20,1,$1+$1,$4,$5,$6,$7,0*
20,1,$1+$1,$6,$7,$8,$9,0*
20,1,$1+$1,$8,$9,$2,$3,0*%
G04 Aperture macros list end*
%ADD10R,1.350000X0.400000*%
%ADD11O,1.900000X1.200000*%
%ADD12R,1.900000X1.200000*%
%ADD13C,1.450000*%
%ADD14R,1.900000X1.500000*%
%ADD15C,1.650000*%
%ADD16C,3.200000*%
%ADD17R,0.900000X0.900000*%
%ADD18RoundRect,0.250000X-0.325000X-0.650000X0.325000X-0.650000X0.325000X0.650000X-0.325000X0.650000X0*%
%ADD19RoundRect,0.135000X-0.185000X0.135000X-0.185000X-0.135000X0.185000X-0.135000X0.185000X0.135000X0*%
%ADD20RoundRect,0.218750X0.256250X-0.218750X0.256250X0.218750X-0.256250X0.218750X-0.256250X-0.218750X0*%
%ADD21RoundRect,0.135000X0.185000X-0.135000X0.185000X0.135000X-0.185000X0.135000X-0.185000X-0.135000X0*%
%ADD22R,1.700000X0.650000*%
%ADD23R,0.850000X0.850000*%
%ADD24O,0.850000X0.850000*%
%ADD25RoundRect,0.135000X-0.135000X-0.185000X0.135000X-0.185000X0.135000X0.185000X-0.135000X0.185000X0*%
%ADD26C,1.800000*%
G04 APERTURE END LIST*
D10*
X135800000Y-95600000D03*
X135800000Y-96250000D03*
X135800000Y-96900000D03*
X135800000Y-97550000D03*
X135800000Y-98200000D03*
D11*
X133100000Y-93400000D03*
D12*
X133100000Y-94000000D03*
D13*
X135800000Y-94400000D03*
D14*
X133100000Y-95900000D03*
X133100000Y-97900000D03*
D13*
X135800000Y-99400000D03*
D12*
X133100000Y-99800000D03*
D11*
X133100000Y-100400000D03*
D15*
X158092500Y-90060000D03*
D16*
X150472500Y-92600000D03*
D15*
X158092500Y-95140000D03*
D17*
X155552500Y-91330000D03*
X155552500Y-93870000D03*
D18*
X152125000Y-98200000D03*
X155075000Y-98200000D03*
D19*
X141200000Y-92580000D03*
X141200000Y-93600000D03*
D20*
X140800000Y-90975000D03*
X140800000Y-89400000D03*
X136400000Y-91000000D03*
X136400000Y-89425000D03*
D21*
X142800000Y-91600000D03*
X142800000Y-90580000D03*
D22*
X138750000Y-97895000D03*
X138750000Y-99165000D03*
X138750000Y-100435000D03*
X138750000Y-101705000D03*
X146050000Y-101705000D03*
X146050000Y-100435000D03*
X146050000Y-99165000D03*
X146050000Y-97895000D03*
D23*
X146000000Y-92200000D03*
D24*
X145000000Y-92200000D03*
X146000000Y-91200000D03*
X145000000Y-91200000D03*
X146000000Y-90200000D03*
X145000000Y-90200000D03*
D19*
X148400000Y-99380000D03*
X148400000Y-100400000D03*
D25*
X140690000Y-96000000D03*
X141710000Y-96000000D03*
D26*
X156800000Y-101700000D03*
X154300000Y-101700000D03*
X151800000Y-101700000D03*
M02*
