G04 #@! TF.GenerationSoftware,KiCad,Pcbnew,7.0.6*
G04 #@! TF.CreationDate,2023-11-30T23:44:17-05:00*
G04 #@! TF.ProjectId,Interruptor,496e7465-7272-4757-9074-6f722e6b6963,1.0*
G04 #@! TF.SameCoordinates,Original*
G04 #@! TF.FileFunction,Copper,L2,Bot*
G04 #@! TF.FilePolarity,Positive*
%FSLAX46Y46*%
G04 Gerber Fmt 4.6, Leading zero omitted, Abs format (unit mm)*
G04 Created by KiCad (PCBNEW 7.0.6) date 2023-11-30 23:44:17*
%MOMM*%
%LPD*%
G01*
G04 APERTURE LIST*
G04 #@! TA.AperFunction,ComponentPad*
%ADD10O,1.900000X1.200000*%
G04 #@! TD*
G04 #@! TA.AperFunction,ComponentPad*
%ADD11C,1.450000*%
G04 #@! TD*
G04 #@! TA.AperFunction,ComponentPad*
%ADD12R,0.900000X0.900000*%
G04 #@! TD*
G04 #@! TA.AperFunction,ComponentPad*
%ADD13R,0.850000X0.850000*%
G04 #@! TD*
G04 #@! TA.AperFunction,ComponentPad*
%ADD14O,0.850000X0.850000*%
G04 #@! TD*
G04 #@! TA.AperFunction,ComponentPad*
%ADD15C,1.800000*%
G04 #@! TD*
G04 #@! TA.AperFunction,ViaPad*
%ADD16C,0.800000*%
G04 #@! TD*
G04 #@! TA.AperFunction,Conductor*
%ADD17C,0.300000*%
G04 #@! TD*
G04 #@! TA.AperFunction,Conductor*
%ADD18C,0.250000*%
G04 #@! TD*
G04 APERTURE END LIST*
D10*
X133100000Y-93400000D03*
D11*
X135800000Y-94400000D03*
X135800000Y-99400000D03*
D10*
X133100000Y-100400000D03*
D12*
X155552500Y-91330000D03*
X155552500Y-93870000D03*
D13*
X146000000Y-92200000D03*
D14*
X145000000Y-92200000D03*
X146000000Y-91200000D03*
X145000000Y-91200000D03*
X146000000Y-90200000D03*
X145000000Y-90200000D03*
D15*
X156800000Y-101700000D03*
X154300000Y-101700000D03*
X151800000Y-101700000D03*
D16*
X137400000Y-92800000D03*
X137400000Y-96400000D03*
X147464063Y-98423063D03*
X144000000Y-96000000D03*
X147400000Y-95600000D03*
X144200000Y-101600000D03*
X140200000Y-97800000D03*
X149600000Y-99600000D03*
X141800000Y-103000000D03*
X148400000Y-101600000D03*
D17*
X137400000Y-96400000D02*
X137400000Y-92800000D01*
X146000000Y-92200000D02*
X148150000Y-94350000D01*
X148150000Y-94350000D02*
X148150000Y-97737126D01*
X148150000Y-97737126D02*
X147464063Y-98423063D01*
X147000000Y-96000000D02*
X147400000Y-95600000D01*
X144000000Y-96000000D02*
X147000000Y-96000000D01*
D18*
X145000000Y-91200000D02*
X144939339Y-91200000D01*
X144939339Y-91200000D02*
X143275000Y-92864339D01*
X143275000Y-100675000D02*
X144200000Y-101600000D01*
X143275000Y-92864339D02*
X143275000Y-100675000D01*
D17*
X145826040Y-89425000D02*
X144678984Y-89425000D01*
X146000000Y-90200000D02*
X146000000Y-89598960D01*
X144678984Y-89425000D02*
X140200000Y-93903984D01*
X140200000Y-93903984D02*
X140200000Y-97800000D01*
X146000000Y-89598960D02*
X145826040Y-89425000D01*
X149600000Y-97282500D02*
X155552500Y-91330000D01*
X149600000Y-99600000D02*
X149600000Y-97282500D01*
X141800000Y-103000000D02*
X147000000Y-103000000D01*
X147000000Y-103000000D02*
X148400000Y-101600000D01*
G04 #@! TA.AperFunction,Conductor*
G36*
X144462272Y-88819685D02*
G01*
X144508027Y-88872489D01*
X144517971Y-88941647D01*
X144488946Y-89005203D01*
X144449037Y-89035719D01*
X144422342Y-89048575D01*
X144422340Y-89048576D01*
X144415294Y-89053379D01*
X144408443Y-89058435D01*
X144380403Y-89086475D01*
X144366383Y-89100496D01*
X144343620Y-89121617D01*
X144322787Y-89140947D01*
X144316996Y-89148209D01*
X144316344Y-89147689D01*
X144306952Y-89159926D01*
X139901804Y-93565076D01*
X139896617Y-93569711D01*
X139866033Y-93594101D01*
X139866029Y-93594105D01*
X139832519Y-93643255D01*
X139797206Y-93691102D01*
X139793216Y-93698651D01*
X139789528Y-93706310D01*
X139771992Y-93763161D01*
X139752353Y-93819285D01*
X139750771Y-93827643D01*
X139749500Y-93836084D01*
X139749500Y-93895557D01*
X139747275Y-93954993D01*
X139748316Y-93964227D01*
X139747485Y-93964320D01*
X139749500Y-93979619D01*
X139749500Y-97207442D01*
X139729815Y-97274481D01*
X139707727Y-97300257D01*
X139671818Y-97332069D01*
X139575182Y-97472068D01*
X139514860Y-97631125D01*
X139514859Y-97631130D01*
X139494355Y-97800000D01*
X139514859Y-97968869D01*
X139514860Y-97968874D01*
X139575182Y-98127931D01*
X139637475Y-98218177D01*
X139671817Y-98267929D01*
X139729746Y-98319249D01*
X139799150Y-98380736D01*
X139949773Y-98459789D01*
X139949775Y-98459790D01*
X140114944Y-98500500D01*
X140285056Y-98500500D01*
X140450225Y-98459790D01*
X140534495Y-98415561D01*
X140600849Y-98380736D01*
X140600850Y-98380734D01*
X140600852Y-98380734D01*
X140728183Y-98267929D01*
X140824818Y-98127930D01*
X140885140Y-97968872D01*
X140905645Y-97800000D01*
X140885140Y-97631128D01*
X140824818Y-97472070D01*
X140728183Y-97332071D01*
X140728181Y-97332069D01*
X140692273Y-97300257D01*
X140655146Y-97241068D01*
X140650500Y-97207442D01*
X140650500Y-94141949D01*
X140670185Y-94074910D01*
X140686819Y-94054268D01*
X144829268Y-89911819D01*
X144890591Y-89878334D01*
X144916949Y-89875500D01*
X145170153Y-89875500D01*
X145237192Y-89895185D01*
X145282947Y-89947989D01*
X145292891Y-90017147D01*
X145289574Y-90030714D01*
X145289762Y-90030757D01*
X145288212Y-90037542D01*
X145269909Y-90199996D01*
X145269909Y-90200004D01*
X145286771Y-90349668D01*
X145274716Y-90418490D01*
X145227367Y-90469869D01*
X145159756Y-90487493D01*
X145149668Y-90486771D01*
X145000004Y-90469909D01*
X144999996Y-90469909D01*
X144837544Y-90488212D01*
X144683225Y-90542210D01*
X144544795Y-90629192D01*
X144429192Y-90744795D01*
X144342210Y-90883225D01*
X144288212Y-91037544D01*
X144269909Y-91199996D01*
X144269909Y-91200001D01*
X144270077Y-91201493D01*
X144269909Y-91202451D01*
X144269909Y-91206963D01*
X144269119Y-91206963D01*
X144258019Y-91270314D01*
X144234537Y-91303052D01*
X143004339Y-92533251D01*
X142926472Y-92611117D01*
X142915510Y-92632632D01*
X142905346Y-92649217D01*
X142891152Y-92668753D01*
X142891151Y-92668756D01*
X142883688Y-92691724D01*
X142876243Y-92709697D01*
X142865280Y-92731212D01*
X142861503Y-92755061D01*
X142856962Y-92773978D01*
X142849500Y-92796943D01*
X142849500Y-100742394D01*
X142856962Y-100765358D01*
X142861503Y-100784273D01*
X142864470Y-100803010D01*
X142865281Y-100808127D01*
X142876243Y-100829641D01*
X142883688Y-100847615D01*
X142891150Y-100870580D01*
X142905340Y-100890110D01*
X142915508Y-100906703D01*
X142926470Y-100928218D01*
X143462911Y-101464659D01*
X143496396Y-101525982D01*
X143498326Y-101567283D01*
X143494355Y-101599995D01*
X143494355Y-101599999D01*
X143514859Y-101768869D01*
X143514860Y-101768874D01*
X143575182Y-101927931D01*
X143637475Y-102018177D01*
X143671817Y-102067929D01*
X143722314Y-102112665D01*
X143799150Y-102180736D01*
X143949773Y-102259789D01*
X143949775Y-102259790D01*
X144114944Y-102300500D01*
X144285056Y-102300500D01*
X144450225Y-102259790D01*
X144529692Y-102218081D01*
X144600849Y-102180736D01*
X144600850Y-102180734D01*
X144600852Y-102180734D01*
X144728183Y-102067929D01*
X144824818Y-101927930D01*
X144885140Y-101768872D01*
X144905645Y-101600000D01*
X144885140Y-101431128D01*
X144824818Y-101272070D01*
X144819576Y-101264476D01*
X144790476Y-101222318D01*
X144728183Y-101132071D01*
X144600852Y-101019266D01*
X144600849Y-101019263D01*
X144450226Y-100940210D01*
X144285056Y-100899500D01*
X144152610Y-100899500D01*
X144085571Y-100879815D01*
X144064929Y-100863181D01*
X143736819Y-100535070D01*
X143703334Y-100473747D01*
X143700500Y-100447389D01*
X143700500Y-99600000D01*
X148894355Y-99600000D01*
X148914859Y-99768869D01*
X148914860Y-99768874D01*
X148975182Y-99927931D01*
X149037475Y-100018177D01*
X149071817Y-100067929D01*
X149177505Y-100161560D01*
X149199150Y-100180736D01*
X149349773Y-100259789D01*
X149349775Y-100259790D01*
X149514944Y-100300500D01*
X149685056Y-100300500D01*
X149850225Y-100259790D01*
X149929692Y-100218081D01*
X150000849Y-100180736D01*
X150000850Y-100180734D01*
X150000852Y-100180734D01*
X150128183Y-100067929D01*
X150224818Y-99927930D01*
X150285140Y-99768872D01*
X150305645Y-99600000D01*
X150285140Y-99431128D01*
X150224818Y-99272070D01*
X150128183Y-99132071D01*
X150128181Y-99132069D01*
X150092273Y-99100257D01*
X150055146Y-99041068D01*
X150050500Y-99007442D01*
X150050500Y-97520464D01*
X150070185Y-97453425D01*
X150086814Y-97432788D01*
X155402784Y-92116817D01*
X155464107Y-92083333D01*
X155490465Y-92080499D01*
X156047356Y-92080499D01*
X156047364Y-92080499D01*
X156047379Y-92080497D01*
X156047382Y-92080497D01*
X156072487Y-92077586D01*
X156072488Y-92077585D01*
X156072491Y-92077585D01*
X156175265Y-92032206D01*
X156254706Y-91952765D01*
X156300085Y-91849991D01*
X156303000Y-91824865D01*
X156302999Y-90835136D01*
X156302997Y-90835117D01*
X156300086Y-90810012D01*
X156300085Y-90810010D01*
X156300085Y-90810009D01*
X156254706Y-90707235D01*
X156175265Y-90627794D01*
X156112773Y-90600201D01*
X156072492Y-90582415D01*
X156047365Y-90579500D01*
X155057643Y-90579500D01*
X155057617Y-90579502D01*
X155032512Y-90582413D01*
X155032508Y-90582415D01*
X154929735Y-90627793D01*
X154850294Y-90707234D01*
X154804915Y-90810006D01*
X154804915Y-90810008D01*
X154802000Y-90835131D01*
X154802000Y-91392034D01*
X154782315Y-91459073D01*
X154765681Y-91479715D01*
X149301804Y-96943592D01*
X149296617Y-96948227D01*
X149266033Y-96972617D01*
X149266029Y-96972621D01*
X149232519Y-97021771D01*
X149197206Y-97069618D01*
X149193216Y-97077167D01*
X149189528Y-97084826D01*
X149171992Y-97141677D01*
X149152353Y-97197801D01*
X149150771Y-97206159D01*
X149149500Y-97214600D01*
X149149500Y-97274073D01*
X149147275Y-97333509D01*
X149148316Y-97342743D01*
X149147488Y-97342836D01*
X149149499Y-97358135D01*
X149149500Y-99007442D01*
X149129815Y-99074481D01*
X149107727Y-99100257D01*
X149071818Y-99132069D01*
X148975182Y-99272068D01*
X148914860Y-99431125D01*
X148914859Y-99431130D01*
X148894355Y-99600000D01*
X143700500Y-99600000D01*
X143700500Y-96805918D01*
X143720185Y-96738879D01*
X143772989Y-96693124D01*
X143842147Y-96683180D01*
X143854152Y-96685516D01*
X143914944Y-96700500D01*
X143914946Y-96700500D01*
X144085056Y-96700500D01*
X144250225Y-96659790D01*
X144400852Y-96580734D01*
X144512655Y-96481685D01*
X144575889Y-96451963D01*
X144594883Y-96450500D01*
X146971217Y-96450500D01*
X146978155Y-96450889D01*
X147010050Y-96454483D01*
X147017034Y-96455270D01*
X147017034Y-96455269D01*
X147017035Y-96455270D01*
X147075479Y-96444211D01*
X147134287Y-96435348D01*
X147134290Y-96435346D01*
X147142447Y-96432830D01*
X147150469Y-96430023D01*
X147150472Y-96430023D01*
X147203072Y-96402222D01*
X147256642Y-96376425D01*
X147256642Y-96376424D01*
X147256644Y-96376424D01*
X147263695Y-96371616D01*
X147270534Y-96366569D01*
X147270535Y-96366567D01*
X147270538Y-96366566D01*
X147300283Y-96336819D01*
X147361604Y-96303335D01*
X147387965Y-96300500D01*
X147485054Y-96300500D01*
X147485056Y-96300500D01*
X147545828Y-96285521D01*
X147615626Y-96288590D01*
X147672689Y-96328909D01*
X147698894Y-96393678D01*
X147699500Y-96405918D01*
X147699500Y-97499160D01*
X147679815Y-97566199D01*
X147663182Y-97586840D01*
X147563777Y-97686245D01*
X147502457Y-97719729D01*
X147476098Y-97722563D01*
X147379007Y-97722563D01*
X147213836Y-97763273D01*
X147063213Y-97842326D01*
X146935879Y-97955135D01*
X146839245Y-98095131D01*
X146778923Y-98254188D01*
X146778922Y-98254193D01*
X146758418Y-98423063D01*
X146778922Y-98591932D01*
X146778923Y-98591937D01*
X146839245Y-98750994D01*
X146901538Y-98841240D01*
X146935880Y-98890992D01*
X147041568Y-98984623D01*
X147063213Y-99003799D01*
X147213836Y-99082852D01*
X147213838Y-99082853D01*
X147379007Y-99123563D01*
X147549119Y-99123563D01*
X147714288Y-99082853D01*
X147793902Y-99041068D01*
X147864912Y-99003799D01*
X147864913Y-99003797D01*
X147864915Y-99003797D01*
X147992246Y-98890992D01*
X148088881Y-98750993D01*
X148149203Y-98591935D01*
X148169708Y-98423063D01*
X148169563Y-98421877D01*
X148169708Y-98421010D01*
X148169708Y-98415561D01*
X148170614Y-98415561D01*
X148181024Y-98352953D01*
X148204976Y-98319252D01*
X148448210Y-98076018D01*
X148453378Y-98071399D01*
X148483970Y-98047005D01*
X148517476Y-97997860D01*
X148552792Y-97950009D01*
X148552793Y-97950006D01*
X148556786Y-97942451D01*
X148560467Y-97934806D01*
X148560472Y-97934799D01*
X148578008Y-97877946D01*
X148597646Y-97821826D01*
X148597646Y-97821820D01*
X148599228Y-97813462D01*
X148600500Y-97805025D01*
X148600500Y-97745552D01*
X148602724Y-97686116D01*
X148601684Y-97676882D01*
X148602513Y-97676788D01*
X148600500Y-97661490D01*
X148600500Y-94378782D01*
X148600889Y-94371843D01*
X148605270Y-94332965D01*
X148594211Y-94274520D01*
X148585348Y-94215713D01*
X148585347Y-94215711D01*
X148582836Y-94207571D01*
X148580024Y-94199533D01*
X148580023Y-94199528D01*
X148552226Y-94146936D01*
X148526425Y-94093358D01*
X148526422Y-94093355D01*
X148526421Y-94093352D01*
X148521642Y-94086342D01*
X148516568Y-94079469D01*
X148516565Y-94079462D01*
X148474516Y-94037413D01*
X148434055Y-93993806D01*
X148426792Y-93988014D01*
X148427312Y-93987361D01*
X148415067Y-93977964D01*
X147104866Y-92667763D01*
X148618287Y-92667763D01*
X148647913Y-92937013D01*
X148647915Y-92937024D01*
X148697825Y-93127931D01*
X148716428Y-93199088D01*
X148822370Y-93448390D01*
X148911299Y-93594105D01*
X148963479Y-93679605D01*
X148963486Y-93679615D01*
X149136753Y-93887819D01*
X149136759Y-93887824D01*
X149222134Y-93964320D01*
X149338498Y-94068582D01*
X149564410Y-94218044D01*
X149809676Y-94333020D01*
X149809683Y-94333022D01*
X149809685Y-94333023D01*
X150069057Y-94411057D01*
X150069064Y-94411058D01*
X150069069Y-94411060D01*
X150337061Y-94450500D01*
X150337066Y-94450500D01*
X150540136Y-94450500D01*
X150591633Y-94446730D01*
X150742656Y-94435677D01*
X150855258Y-94410593D01*
X151007046Y-94376782D01*
X151007048Y-94376781D01*
X151007053Y-94376780D01*
X151260058Y-94280014D01*
X151496277Y-94147441D01*
X151710677Y-93981888D01*
X151898686Y-93786881D01*
X152056299Y-93566579D01*
X152163059Y-93358929D01*
X152180149Y-93325690D01*
X152180151Y-93325684D01*
X152180156Y-93325675D01*
X152267618Y-93069305D01*
X152316819Y-92802933D01*
X152326712Y-92532235D01*
X152297086Y-92262982D01*
X152228572Y-92000912D01*
X152122630Y-91751610D01*
X151981518Y-91520390D01*
X151930490Y-91459073D01*
X151808246Y-91312180D01*
X151808240Y-91312175D01*
X151606502Y-91131418D01*
X151380592Y-90981957D01*
X151352705Y-90968884D01*
X151135324Y-90866980D01*
X151135319Y-90866978D01*
X151135314Y-90866976D01*
X150875942Y-90788942D01*
X150875928Y-90788939D01*
X150760291Y-90771921D01*
X150607939Y-90749500D01*
X150404869Y-90749500D01*
X150404864Y-90749500D01*
X150202344Y-90764323D01*
X150202331Y-90764325D01*
X149937953Y-90823217D01*
X149937946Y-90823220D01*
X149684939Y-90919987D01*
X149448726Y-91052557D01*
X149234322Y-91218112D01*
X149046322Y-91413109D01*
X149046316Y-91413116D01*
X148888702Y-91633419D01*
X148888699Y-91633424D01*
X148764850Y-91874309D01*
X148764843Y-91874327D01*
X148677384Y-92130685D01*
X148677381Y-92130699D01*
X148628181Y-92397068D01*
X148628180Y-92397075D01*
X148618287Y-92667763D01*
X147104866Y-92667763D01*
X146761818Y-92324715D01*
X146728333Y-92263392D01*
X146725499Y-92237034D01*
X146725499Y-91730143D01*
X146725499Y-91730136D01*
X146725497Y-91730117D01*
X146722586Y-91705012D01*
X146722585Y-91705010D01*
X146722585Y-91705009D01*
X146677206Y-91602235D01*
X146677205Y-91602234D01*
X146672565Y-91591724D01*
X146674923Y-91590682D01*
X146658386Y-91539928D01*
X146665291Y-91495334D01*
X146711786Y-91362461D01*
X146711786Y-91362459D01*
X146711787Y-91362457D01*
X146730091Y-91200003D01*
X146730091Y-91199996D01*
X146711787Y-91037544D01*
X146711786Y-91037542D01*
X146711786Y-91037539D01*
X146657789Y-90883225D01*
X146584113Y-90765971D01*
X146565113Y-90698736D01*
X146584114Y-90634027D01*
X146588031Y-90627794D01*
X146657789Y-90516775D01*
X146711786Y-90362461D01*
X146711787Y-90362455D01*
X146730091Y-90200003D01*
X146730091Y-90199996D01*
X146711787Y-90037544D01*
X146711786Y-90037542D01*
X146711786Y-90037539D01*
X146657789Y-89883225D01*
X146570808Y-89744796D01*
X146491521Y-89665510D01*
X146458037Y-89604187D01*
X146455289Y-89582457D01*
X146455268Y-89581936D01*
X146455270Y-89581925D01*
X146444210Y-89523471D01*
X146435348Y-89464673D01*
X146435347Y-89464671D01*
X146435347Y-89464669D01*
X146432831Y-89456512D01*
X146430025Y-89448491D01*
X146422002Y-89433311D01*
X146402222Y-89395886D01*
X146376425Y-89342318D01*
X146376422Y-89342315D01*
X146376422Y-89342314D01*
X146371642Y-89335302D01*
X146366567Y-89328425D01*
X146366566Y-89328423D01*
X146324516Y-89286373D01*
X146284055Y-89242766D01*
X146276792Y-89236974D01*
X146277312Y-89236321D01*
X146265067Y-89226924D01*
X146164948Y-89126805D01*
X146160311Y-89121617D01*
X146135918Y-89091029D01*
X146086768Y-89057519D01*
X146041040Y-89023770D01*
X145998789Y-88968122D01*
X145993331Y-88898466D01*
X146026399Y-88836917D01*
X146087493Y-88803016D01*
X146114674Y-88800000D01*
X157703778Y-88800000D01*
X157770817Y-88819685D01*
X157816572Y-88872489D01*
X157826516Y-88941647D01*
X157797491Y-89005203D01*
X157738713Y-89042977D01*
X157690962Y-89056997D01*
X157508391Y-89151118D01*
X157346946Y-89278081D01*
X157346943Y-89278084D01*
X157212436Y-89433313D01*
X157109742Y-89611185D01*
X157042564Y-89805282D01*
X157042563Y-89805287D01*
X157042563Y-89805288D01*
X157013332Y-90008593D01*
X157023105Y-90213756D01*
X157071529Y-90413362D01*
X157125028Y-90530508D01*
X157156852Y-90600195D01*
X157156856Y-90600201D01*
X157275989Y-90767501D01*
X157275995Y-90767507D01*
X157424647Y-90909246D01*
X157597433Y-91020290D01*
X157678032Y-91052557D01*
X157788118Y-91096629D01*
X157939380Y-91125782D01*
X157989801Y-91135500D01*
X157989802Y-91135500D01*
X158143726Y-91135500D01*
X158143732Y-91135500D01*
X158296966Y-91120868D01*
X158494041Y-91063001D01*
X158676604Y-90968884D01*
X158799350Y-90872354D01*
X158864212Y-90846388D01*
X158932819Y-90859610D01*
X158983387Y-90907825D01*
X159000000Y-90969826D01*
X159000000Y-94229689D01*
X158980315Y-94296728D01*
X158927511Y-94342483D01*
X158858353Y-94352427D01*
X158794797Y-94323402D01*
X158790431Y-94319433D01*
X158760352Y-94290753D01*
X158587566Y-94179709D01*
X158396891Y-94103374D01*
X158396884Y-94103371D01*
X158396882Y-94103371D01*
X158396879Y-94103370D01*
X158396878Y-94103370D01*
X158195199Y-94064500D01*
X158195198Y-94064500D01*
X158041268Y-94064500D01*
X157888034Y-94079132D01*
X157888030Y-94079133D01*
X157690962Y-94136997D01*
X157508391Y-94231118D01*
X157346946Y-94358081D01*
X157346943Y-94358084D01*
X157212436Y-94513313D01*
X157109742Y-94691185D01*
X157042564Y-94885282D01*
X157042563Y-94885287D01*
X157042563Y-94885288D01*
X157013332Y-95088593D01*
X157023105Y-95293756D01*
X157071529Y-95493362D01*
X157115119Y-95588811D01*
X157156852Y-95680195D01*
X157156856Y-95680201D01*
X157275989Y-95847501D01*
X157275995Y-95847507D01*
X157424647Y-95989246D01*
X157597433Y-96100290D01*
X157704120Y-96143001D01*
X157788118Y-96176629D01*
X157939380Y-96205782D01*
X157989801Y-96215500D01*
X157989802Y-96215500D01*
X158143726Y-96215500D01*
X158143732Y-96215500D01*
X158296966Y-96200868D01*
X158494041Y-96143001D01*
X158676604Y-96048884D01*
X158799350Y-95952354D01*
X158864212Y-95926388D01*
X158932819Y-95939610D01*
X158983387Y-95987825D01*
X159000000Y-96049826D01*
X159000000Y-103876000D01*
X158980315Y-103943039D01*
X158927511Y-103988794D01*
X158876000Y-104000000D01*
X132124000Y-104000000D01*
X132056961Y-103980315D01*
X132011206Y-103927511D01*
X132000000Y-103876000D01*
X132000000Y-103000000D01*
X141094355Y-103000000D01*
X141114859Y-103168869D01*
X141114860Y-103168874D01*
X141175182Y-103327931D01*
X141205336Y-103371616D01*
X141271817Y-103467929D01*
X141377505Y-103561560D01*
X141399150Y-103580736D01*
X141549773Y-103659789D01*
X141549775Y-103659790D01*
X141714944Y-103700500D01*
X141885056Y-103700500D01*
X142050225Y-103659790D01*
X142200852Y-103580734D01*
X142312655Y-103481685D01*
X142375889Y-103451963D01*
X142394883Y-103450500D01*
X146971217Y-103450500D01*
X146978155Y-103450889D01*
X147010050Y-103454483D01*
X147017034Y-103455270D01*
X147017034Y-103455269D01*
X147017035Y-103455270D01*
X147075479Y-103444211D01*
X147134287Y-103435348D01*
X147134290Y-103435346D01*
X147142447Y-103432830D01*
X147150469Y-103430023D01*
X147150472Y-103430023D01*
X147203072Y-103402222D01*
X147256642Y-103376425D01*
X147256642Y-103376424D01*
X147256644Y-103376424D01*
X147263695Y-103371616D01*
X147270538Y-103366566D01*
X147312599Y-103324504D01*
X147312598Y-103324503D01*
X147356194Y-103284055D01*
X147356196Y-103284050D01*
X147361987Y-103276790D01*
X147362643Y-103277313D01*
X147372032Y-103265070D01*
X148300284Y-102336818D01*
X148361607Y-102303334D01*
X148387965Y-102300500D01*
X148485056Y-102300500D01*
X148650225Y-102259790D01*
X148729692Y-102218081D01*
X148800849Y-102180736D01*
X148800850Y-102180734D01*
X148800852Y-102180734D01*
X148928183Y-102067929D01*
X149024818Y-101927930D01*
X149085140Y-101768872D01*
X149093503Y-101700000D01*
X150594356Y-101700000D01*
X150614884Y-101921535D01*
X150614885Y-101921537D01*
X150675769Y-102135523D01*
X150675775Y-102135538D01*
X150774938Y-102334683D01*
X150774943Y-102334691D01*
X150909020Y-102512238D01*
X151073437Y-102662123D01*
X151073439Y-102662125D01*
X151262595Y-102779245D01*
X151262596Y-102779245D01*
X151262599Y-102779247D01*
X151470060Y-102859618D01*
X151688757Y-102900500D01*
X151688759Y-102900500D01*
X151911241Y-102900500D01*
X151911243Y-102900500D01*
X152129940Y-102859618D01*
X152337401Y-102779247D01*
X152526562Y-102662124D01*
X152684313Y-102518315D01*
X152690979Y-102512238D01*
X152761189Y-102419266D01*
X152825058Y-102334689D01*
X152924229Y-102135528D01*
X152930734Y-102112661D01*
X152968012Y-102053571D01*
X153031322Y-102024013D01*
X153100561Y-102033375D01*
X153153748Y-102078684D01*
X153169264Y-102112658D01*
X153175770Y-102135523D01*
X153175772Y-102135530D01*
X153175775Y-102135538D01*
X153274938Y-102334683D01*
X153274943Y-102334691D01*
X153409020Y-102512238D01*
X153573437Y-102662123D01*
X153573439Y-102662125D01*
X153762595Y-102779245D01*
X153762596Y-102779245D01*
X153762599Y-102779247D01*
X153970060Y-102859618D01*
X154188757Y-102900500D01*
X154188759Y-102900500D01*
X154411241Y-102900500D01*
X154411243Y-102900500D01*
X154629940Y-102859618D01*
X154837401Y-102779247D01*
X155026562Y-102662124D01*
X155184313Y-102518315D01*
X155190979Y-102512238D01*
X155261189Y-102419266D01*
X155325058Y-102334689D01*
X155424229Y-102135528D01*
X155485115Y-101921536D01*
X155505643Y-101700000D01*
X155485115Y-101478464D01*
X155424229Y-101264472D01*
X155424224Y-101264461D01*
X155325061Y-101065316D01*
X155325056Y-101065308D01*
X155190979Y-100887761D01*
X155026562Y-100737876D01*
X155026560Y-100737874D01*
X154837404Y-100620754D01*
X154837398Y-100620752D01*
X154629940Y-100540382D01*
X154411243Y-100499500D01*
X154188757Y-100499500D01*
X153970060Y-100540382D01*
X153838864Y-100591207D01*
X153762601Y-100620752D01*
X153762595Y-100620754D01*
X153573439Y-100737874D01*
X153573437Y-100737876D01*
X153409020Y-100887761D01*
X153274943Y-101065308D01*
X153274938Y-101065316D01*
X153175775Y-101264461D01*
X153175769Y-101264476D01*
X153169266Y-101287335D01*
X153131987Y-101346429D01*
X153068677Y-101375986D01*
X152999438Y-101366624D01*
X152946251Y-101321314D01*
X152930734Y-101287335D01*
X152924230Y-101264476D01*
X152924229Y-101264472D01*
X152924224Y-101264461D01*
X152825061Y-101065316D01*
X152825056Y-101065308D01*
X152690979Y-100887761D01*
X152526562Y-100737876D01*
X152526560Y-100737874D01*
X152337404Y-100620754D01*
X152337398Y-100620752D01*
X152129940Y-100540382D01*
X151911243Y-100499500D01*
X151688757Y-100499500D01*
X151470060Y-100540382D01*
X151338864Y-100591207D01*
X151262601Y-100620752D01*
X151262595Y-100620754D01*
X151073439Y-100737874D01*
X151073437Y-100737876D01*
X150909020Y-100887761D01*
X150774943Y-101065308D01*
X150774938Y-101065316D01*
X150675775Y-101264461D01*
X150675769Y-101264476D01*
X150614885Y-101478462D01*
X150614884Y-101478464D01*
X150594356Y-101699999D01*
X150594356Y-101700000D01*
X149093503Y-101700000D01*
X149105645Y-101600000D01*
X149085140Y-101431128D01*
X149024818Y-101272070D01*
X149019576Y-101264476D01*
X148990476Y-101222318D01*
X148928183Y-101132071D01*
X148800852Y-101019266D01*
X148800849Y-101019263D01*
X148650226Y-100940210D01*
X148485056Y-100899500D01*
X148314944Y-100899500D01*
X148149773Y-100940210D01*
X147999150Y-101019263D01*
X147871816Y-101132072D01*
X147775182Y-101272068D01*
X147714860Y-101431125D01*
X147714859Y-101431130D01*
X147694355Y-101600000D01*
X147694355Y-101600009D01*
X147694499Y-101601196D01*
X147694355Y-101602061D01*
X147694355Y-101607500D01*
X147693450Y-101607500D01*
X147683032Y-101670118D01*
X147659083Y-101703811D01*
X146849716Y-102513181D01*
X146788393Y-102546666D01*
X146762035Y-102549500D01*
X142394883Y-102549500D01*
X142327844Y-102529815D01*
X142312656Y-102518315D01*
X142200852Y-102419266D01*
X142200850Y-102419264D01*
X142050226Y-102340210D01*
X141885056Y-102299500D01*
X141714944Y-102299500D01*
X141549773Y-102340210D01*
X141399150Y-102419263D01*
X141271816Y-102532072D01*
X141175182Y-102672068D01*
X141114860Y-102831125D01*
X141114859Y-102831130D01*
X141094355Y-103000000D01*
X132000000Y-103000000D01*
X132000000Y-96399999D01*
X136694355Y-96399999D01*
X136714859Y-96568869D01*
X136714860Y-96568874D01*
X136775182Y-96727931D01*
X136829014Y-96805918D01*
X136871817Y-96867929D01*
X136957223Y-96943592D01*
X136999150Y-96980736D01*
X137149773Y-97059789D01*
X137149775Y-97059790D01*
X137314944Y-97100500D01*
X137485056Y-97100500D01*
X137650225Y-97059790D01*
X137729692Y-97018081D01*
X137800849Y-96980736D01*
X137800850Y-96980734D01*
X137800852Y-96980734D01*
X137928183Y-96867929D01*
X138024818Y-96727930D01*
X138085140Y-96568872D01*
X138105645Y-96400000D01*
X138085140Y-96231128D01*
X138024818Y-96072070D01*
X138008812Y-96048882D01*
X137967648Y-95989246D01*
X137928183Y-95932071D01*
X137928181Y-95932069D01*
X137892273Y-95900257D01*
X137855146Y-95841068D01*
X137850500Y-95807442D01*
X137850500Y-93392557D01*
X137870185Y-93325518D01*
X137892270Y-93299744D01*
X137928183Y-93267929D01*
X138024818Y-93127930D01*
X138085140Y-92968872D01*
X138105645Y-92800000D01*
X138085140Y-92631128D01*
X138024818Y-92472070D01*
X137928183Y-92332071D01*
X137800852Y-92219266D01*
X137800849Y-92219263D01*
X137650226Y-92140210D01*
X137485056Y-92099500D01*
X137314944Y-92099500D01*
X137149773Y-92140210D01*
X136999150Y-92219263D01*
X136871816Y-92332072D01*
X136775182Y-92472068D01*
X136714860Y-92631125D01*
X136714859Y-92631130D01*
X136694355Y-92800000D01*
X136714859Y-92968869D01*
X136714860Y-92968874D01*
X136775182Y-93127931D01*
X136871815Y-93267927D01*
X136871816Y-93267928D01*
X136871817Y-93267929D01*
X136907727Y-93299742D01*
X136944853Y-93358929D01*
X136949500Y-93392557D01*
X136949500Y-95807442D01*
X136929815Y-95874481D01*
X136907727Y-95900257D01*
X136871818Y-95932069D01*
X136775182Y-96072068D01*
X136714860Y-96231125D01*
X136714859Y-96231130D01*
X136694355Y-96399999D01*
X132000000Y-96399999D01*
X132000000Y-88924000D01*
X132019685Y-88856961D01*
X132072489Y-88811206D01*
X132124000Y-88800000D01*
X144395233Y-88800000D01*
X144462272Y-88819685D01*
G37*
G04 #@! TD.AperFunction*
M02*
